<svg xmlns="http://www.w3.org/2000/svg" viewBox="0 0 31.5 68.97"><defs><style>.cls-1{fill:#941e23;}.cls-2{fill:#f5aa47;}.cls-3{fill:#a81f24;}.cls-4{fill:#b81d22;}</style></defs><title>アセット 3</title><g id="レイヤー_2" data-name="レイヤー 2"><g id="デザイン"><path class="cls-1" d="M.36,33.51c0,5,3.56,9.33,8.72,11.37H22.41c5.17-2,8.73-6.36,8.73-11.37s-3.56-9.33-8.73-11.36H9.08C3.92,24.18.36,28.51.36,33.51"/><path class="cls-2" d="M22.48,45.23H9l-.07,0C3.51,43.07,0,38.48,0,33.51S3.51,24,9,21.82l.07,0H22.48l.07,0c5.44,2.14,9,6.73,9,11.69s-3.51,9.56-9,11.7ZM9.15,44.52h13.2c5.13-2,8.44-6.36,8.44-11s-3.31-9-8.44-11H9.15C4,24.55.71,28.87.71,33.51s3.31,9,8.44,11"/><path class="cls-3" d="M5.51,33.51c0,5,2.37,9.33,5.81,11.37h8.86c3.44-2,5.81-6.36,5.81-11.37s-2.37-9.33-5.81-11.36H11.32c-3.44,2-5.81,6.36-5.81,11.36"/><path class="cls-2" d="M20.28,45.23H11.22l-.09,0c-3.63-2.16-6-6.74-6-11.68s2.35-9.51,6-11.67l.09-.05h9.06l.09.05c3.63,2.16,6,6.74,6,11.67S24,43,20.37,45.19Zm-8.87-.71h8.67c3.38-2,5.55-6.35,5.55-11s-2.17-9-5.55-11H11.41c-3.37,2-5.54,6.35-5.54,11s2.17,9,5.54,11"/><path class="cls-4" d="M12.13,33.51c0,5,.84,9.33,2,11.37h3.14c1.21-2,2.05-6.36,2.05-11.37s-.84-9.33-2.05-11.36H14.18c-1.21,2-2,6.36-2,11.36"/><path class="cls-2" d="M17.52,45.23H14l-.1-.17c-1.3-2.17-2.1-6.6-2.1-11.55s.8-9.37,2.1-11.54l.1-.18h3.54l.1.18c1.3,2.17,2.1,6.59,2.1,11.54s-.8,9.38-2.1,11.55Zm-3.13-.71h2.72c1.16-2.1,1.9-6.38,1.9-11s-.74-8.9-1.9-11H14.39c-1.16,2.1-1.9,6.38-1.9,11s.74,8.91,1.9,11"/><rect class="cls-4" x="9.08" y="20.83" width="13.33" height="1.32"/><path class="cls-2" d="M22.77,22.51h-14v-2h14ZM9.44,21.79H22.06v-.61H9.44Z"/><rect class="cls-4" x="9.08" y="44.88" width="13.33" height="1.32"/><path class="cls-2" d="M22.77,46.56h-14v-2h14ZM9.44,45.84H22.06v-.61H9.44Z"/><line class="cls-3" x1="15.75" y1="46.2" x2="15.75" y2="49.21"/><rect class="cls-2" x="15.39" y="46.2" width="0.71" height="3.01"/><line class="cls-3" x1="15.75" y1="54.66" x2="15.75" y2="57.66"/><rect class="cls-2" x="15.39" y="54.66" width="0.71" height="3.01"/><rect class="cls-3" x="13.72" y="49.75" width="4.07" height="4.07" transform="translate(-32 26.3) rotate(-45)"/><path class="cls-2" d="M15.75,55.16l-3.38-3.38,3.38-3.38,3.38,3.38Zm-2.37-3.38,2.37,2.37,2.37-2.37-2.37-2.37Z"/><path class="cls-3" d="M15.75,57.66h0a1.24,1.24,0,0,0-1.24,1.25v9.71H17V58.91a1.24,1.24,0,0,0-1.24-1.25"/><path class="cls-2" d="M17.35,69h-3.2V58.91a1.6,1.6,0,0,1,3.2,0Zm-2.49-.71h1.77V58.91a.89.89,0,1,0-1.77,0Z"/><line class="cls-3" x1="15.75" y1="20.83" x2="15.75"/><rect class="cls-2" x="15.39" width="0.71" height="20.83"/><rect class="cls-2" x="15.39" y="63.14" width="0.71" height="5.48"/></g></g></svg>