<?xml version="1.0" encoding="utf-8"?>
<!-- Generator: Adobe Illustrator 24.0.2, SVG Export Plug-In . SVG Version: 6.00 Build 0)  -->
<svg version="1.1" id="レイヤー_1" xmlns="http://www.w3.org/2000/svg" xmlns:xlink="http://www.w3.org/1999/xlink" x="0px"
	 y="0px" viewBox="0 0 75.3 9.9" style="enable-background:new 0 0 75.3 9.9;" xml:space="preserve">
<style type="text/css">
	.st0{fill:#F5AA47;}
</style>
<title>アセット 1</title>
<path class="st0" d="M2.9,6.7C2.5,7.5,1.8,8.2,1,8.7H0.9c0,0-0.1,0-0.1-0.1C0.6,8.4,0.3,8.3,0,8.1c0,0,0-0.1,0-0.1c0,0,0,0,0.1-0.1
	c1-0.5,1.7-1.3,2-2.4c0-0.1,0-0.1,0.1-0.1s1.1,0.6,1.1,0.8S3.2,6.5,3.1,6.6C3,6.6,3,6.7,2.9,6.7z M5.4,8.6c0,0.6-0.5,1.3-1.8,1.3
	c-0.1,0-0.1,0-0.2-0.2C3.2,9.3,3,9,2.7,8.7c0,0,0,0,0-0.1c0,0,0,0,0.1,0h0.1c0.2,0,0.4,0.1,0.6,0.1c0.4,0,0.7-0.1,0.7-0.5
	c0-0.6,0-1.3,0-1.8c0-0.7,0-1.4,0-1.8c-0.7,0-1.7,0.1-3,0.2c-0.1,0-0.2,0-0.2-0.1C0.9,4.3,0.8,3.9,0.7,3.6c0,0,0-0.1,0.1-0.1h0.1
	c0.8,0,1.6,0.1,2.3,0.1h1.1c0-0.7,0-1.5-0.2-2.2V1.3c0,0,0,0,0.1,0c0.4,0,0.9,0.1,1.3,0.2c0.1,0,0.1,0.1,0.1,0.2
	c0,0.1-0.1,0.3-0.2,0.4C5.3,2.3,5.3,2.5,5.3,2.8c0,0.2,0,0.5,0,0.7c0.8,0,2-0.1,3.2-0.2l0,0c0.1,0,0.1,0,0.1,0.1v0.1
	c0,0.3,0,0.7-0.1,1c0,0.1-0.1,0.1-0.1,0.1c-0.8,0-1.6-0.1-2.2-0.1c-0.3,0-0.6,0-0.9,0C5.3,5.5,5.3,7.4,5.4,8.6L5.4,8.6z M8.4,8.4
	C8.4,8.4,8.4,8.4,8.4,8.4C7.7,7.5,6.9,6.8,6,6.3c0,0,0-0.1,0-0.1c0,0,0-0.1,0-0.1c0-0.1,0.5-0.6,0.7-0.6C7,5.6,9.2,7,9.2,7.5
	c0,0,0,0.1,0,0.1C9.1,7.8,8.6,8.3,8.5,8.4L8.4,8.4z M7.8,2.7L7.8,2.7c-0.1,0-0.2,0-0.2-0.1C7.3,2,7,1.5,6.6,0.9c0,0,0,0,0,0
	c0-0.2,0.6-0.4,0.6-0.4C7.7,1,8.1,1.5,8.4,2.2C8.4,2.3,7.9,2.7,7.8,2.7z M8,0.5C8,0.5,8,0.5,8,0.5C8,0.3,8.1,0.2,8.5,0h0.1
	c0,0,0,0,0.1,0.1c0.5,0.5,0.9,1,1.2,1.6c0,0.2-0.5,0.5-0.6,0.5H9.2c0,0-0.1,0-0.1-0.1C8.8,1.6,8.4,1,8,0.5z"/>
<path class="st0" d="M14.8,9.9c-0.1,0-0.1,0-0.2-0.1c-0.2-0.3-0.6-0.4-0.7-0.5s-0.1-0.1-0.1-0.1s0.1-0.1,0.2-0.1
	c4.3-0.7,6.6-5.5,6.6-5.7s-0.7-0.2-1.5-0.2c-0.9,1.3-1.9,2.5-3,3.6c-0.1,0-0.1,0-0.2,0c0,0-0.1,0-0.1,0c-0.3-0.1-0.5-0.2-0.8-0.3
	c0,0-0.1-0.1-0.1-0.1l0,0C16.7,5,18,3.3,19,1.3c0-0.1,0-0.1,0.1-0.1h0.1c0.2,0.1,1.2,0.5,1.2,0.7s-0.1,0.2-0.3,0.3
	c-0.1,0.1-0.2,0.1-0.3,0.2c0.4,0,0.9,0.1,1.1,0.1c0.1,0,0.2,0,0.4,0c0,0,0.1,0,0.1,0c0.1,0,0.8,0.4,0.8,0.7s-0.3,0.3-0.4,0.5
	C20.6,6.2,18.1,9.3,14.8,9.9L14.8,9.9z"/>
<path class="st0" d="M27.3,9.9c-0.2,0-1.1-0.2-1.1-0.4c0,0,0-0.1,0.1-0.1c0.7-0.8,1.4-1.6,2-2.5V6.4c0-0.1,0-0.2,0-0.2
	c0-0.1,0-0.1,0.1-0.2c0.2-0.1,0.3-0.4,0.5-0.6c0,0,0,0,0.1,0s0.1,0,0.1,0.1c0,0.1,0,0.4,0,0.5l0.9-1.4c-0.3,0.1-0.6,0.2-0.8,0.3
	c-0.4,0.2-0.8,0.2-1.2,0.3h-0.1c-0.1,0-0.2-0.1-0.2-0.2c-0.2-0.3-0.3-0.7-0.4-1.1c0,0,0-0.1,0-0.1h0.1c0.3,0.1,0.5,0.1,0.8,0.1
	c0.3,0,0.5,0,0.8-0.1c0.5-0.1,1.1-0.3,1.7-0.4l0.5-0.9c0,0,0-0.1,0-0.1c0,0,0-0.1,0-0.1c-0.1,0-0.1,0-0.2,0.1
	c-0.1,0.1-0.2,0.2-0.3,0.2l0,0c0,0,0,0-0.1,0c0-0.1,0-0.2-0.1-0.4c0,0,0-0.1,0-0.1c0,0,0-0.1,0-0.1c0.3-0.3,0.6-0.5,1-0.6
	c0.6,0,0.6,0.9,0.6,1.1c0,0.4-0.1,0.4-0.3,0.6l-0.2,0.3c0.7,0.3,0.8,1.3,0.8,2.3c0,1.9-0.8,3.7-2.2,3.7c-0.9,0-1.4-0.7-1.7-1.4
	C27.5,9.9,27.5,9.9,27.3,9.9L27.3,9.9z M29.2,7.1c0.3,0.7,0.7,1.1,1.1,1.1c0.6,0,1.2-1.1,1.2-2.7c0-0.7,0-1.2-0.5-1.2
	C30.3,5.3,29.7,6.3,29.2,7.1z M35.7,7.4c-0.1,0-0.1,0-0.1-0.1c-0.3-1.2-1.3-2.2-2.5-2.4c-0.1,0-0.1-0.1-0.1-0.1s0.4-0.7,0.6-0.7
	c1.4,0.3,2.6,1.2,3.2,2.5c0,0,0,0.1,0,0.1C36.7,6.9,35.9,7.4,35.7,7.4z M33.5,2.1L33.5,2.1c0-0.1,0-0.1,0.1-0.1
	c0.1-0.1,0.3-0.2,0.5-0.3h0.1c0,0,0.1,0,0.1,0.1c0.5,0.5,0.8,1.1,1.1,1.7c0,0.2-0.5,0.6-0.7,0.6c-0.1,0-0.1-0.1-0.1-0.1
	C34.2,3.2,33.9,2.6,33.5,2.1z M34.9,1.6C34.9,1.6,34.9,1.6,34.9,1.6c0-0.2,0.5-0.5,0.5-0.5h0.1c0,0,0,0,0.1,0.1
	c0.4,0.5,0.8,1,1.2,1.5c0,0,0,0.1,0,0.1c0,0.1-0.5,0.5-0.7,0.5c0,0-0.1,0-0.1-0.1C35.7,2.7,35.3,2.2,34.9,1.6z"/>
<path class="st0" d="M45,6.3L45,6.3L45,6.3c-0.2-0.4-0.4-0.8-0.6-1.2c-0.8,0.2-1.5,0.2-2.3,0.3c-0.8,0-1.3-0.3-1.3-1l0,0
	c0-0.1,0.1-0.1,0.2-0.2c0.3-0.1,0.7-0.3,1-0.5l0.8-0.7c-0.5,0-0.9-0.2-1.3-0.5c-0.2-0.1-0.2-0.2-0.2-0.6c0-0.2,0-0.5,0.1-0.7
	c0,0,0,0,0.1,0c0.1,0,0.1,0,0.2,0.1c0.4,0.5,0.9,0.8,1.5,0.8h0.2c-0.2-0.6-0.4-1.3-0.6-1.9c0,0,0-0.2,0.7-0.2c0.4,0,0.5,0,0.5,0.3
	c0,0.6,0.1,1.2,0.3,1.8c0.5-0.1,0.9-0.2,1.3-0.5h0.1c0.2,0,0.3,0.8,0.3,0.8c0,0.1,0,0.1-0.1,0.2c-0.4,0.2-0.9,0.3-1.4,0.4
	c0.1,0.4,0.3,0.7,0.4,1.1L45.4,4c0.1-0.1,0.1-0.5,0.2-0.5l0,0c0.2,0.1,0.4,0.1,0.7,0.2c0.1,0,0.2,0,0.3,0.1c0,0.2,0.1,0.4,0.1,0.6
	c0,0.1-0.1,0.3-1.4,0.6c0.3,0.8,0.8,1.5,1.4,2.1c0,0,0.1,0.1,0.1,0.1c0,0.1-0.3,0.4-0.7,0.6H46h-0.1c-0.2-0.1-0.5-0.2-0.8-0.3
	c-0.8-0.2-1.7-0.3-2.6-0.4c-0.6,0-0.8,0.2-0.8,0.4c0,0.4,0.7,1.3,2.5,1.3c0.4,0,0.8-0.1,1.1-0.2h0.1l0,0c0,0,0,0.1,0,0.1
	c-0.1,0.3-0.2,0.6-0.3,0.8S45,9.9,44.4,9.9c-2.1,0-3.6-1.4-3.6-2.5s1.3-1.1,2-1.1S44.4,6.4,45,6.3L45,6.3z M43.6,3.1
	c-0.5,0.3-1,0.7-1.4,1.1c0,0.1,0.1,0.1,0.3,0.1c0.5,0,1-0.1,1.5-0.2C43.9,3.9,43.8,3.5,43.6,3.1L43.6,3.1z"/>
<path class="st0" d="M52.7,8.9C54.5,8.9,56,8.1,56,7c0-0.9-1-0.9-1.2-0.9c-0.9,0.1-1.8,0.4-2.4,1c-0.2,0.2-0.5,0.3-0.7,0.4
	c-0.1,0-0.1,0-0.2,0c-0.3,0-0.8-0.7-0.8-0.9c0-0.1,0.1-0.1,0.1-0.1c0.4-0.1,0.7-0.2,1-0.4c0.9-0.6,2-0.9,3.1-1C56,5,56.9,5.8,57,6.9
	c0,0,0,0.1,0,0.1c0,1.6-1.8,2.8-3.9,2.8c-0.2,0-0.4,0-0.5-0.2c-0.1-0.1-0.2-0.3-0.3-0.4c-0.1-0.1-0.1-0.1-0.2-0.2
	c0-0.1,0.1-0.1,0.2-0.1L52.7,8.9z"/>
<path class="st0" d="M63.4,5.4c-0.4-1.2-1.2-2.3-2.2-3.1c-0.1,0-0.1-0.1-0.1-0.2c0,0,0-0.1,0-0.1c0.2-0.2,0.3-0.3,0.5-0.5
	c0.1,0,0.1-0.1,0.1-0.1c1.2,0.7,2.1,1.8,2.5,3.1c1-1,2-1.8,3.1-2.6c0.1,0,0.1,0,0.1,0.1c0.3,0.3,0.5,0.6,0.6,1
	c0,0.1-0.2,0.1-0.4,0.2c-1,0.7-2.2,1.5-3.2,2.4c0,0.1,0,0.2,0,0.2c0,0.2,0,0.2-0.1,0.3c-0.2,0.1-0.4,0.2-0.7,0.2l-0.1,0.1
	c-0.4,0.3-0.7,0.7-0.8,1.3c0,0.5,0.7,1.1,1.6,1.1c0.9,0,1.8-0.5,2.3-1.3c0,0,0.1-0.1,0.1-0.1s0,0,0.1,0.1c0.1,0.4,0.1,0.7,0.2,1.1
	c0,0.1,0.1,0.1,0.1,0.2c-0.7,0.8-1.7,1.2-2.7,1.1c-1.3,0.1-2.5-0.8-2.7-2.1c0.1-0.9,0.6-1.7,1.3-2.2L63.4,5.4z"/>
<path class="st0" d="M74.5,9.9C74.5,9.9,74.5,9.9,74.5,9.9c-0.7-0.8-1.5-1.5-2.3-2.1c0,0-0.1-0.1-0.1-0.1c0-0.1,0.6-0.7,0.6-0.8
	s0.1,0,0.1,0c0.9,0.5,1.7,1.1,2.4,1.9c0,0,0.1,0.1,0.1,0.1c0,0,0,0.1,0,0.1c-0.2,0.3-0.4,0.7-0.7,0.9C74.6,9.9,74.5,9.9,74.5,9.9z"
	/>
</svg>
