<svg xmlns="http://www.w3.org/2000/svg" viewBox="0 0 217.75 188.27"><defs><style>.cls-1{fill:#f5aa47;}</style></defs><title>アセット 2</title><g id="レイヤー_2" data-name="レイヤー 2"><g id="デザイン"><rect class="cls-1" x="2.05" width="1.8" height="29.25"/><rect class="cls-1" x="12.46" width="1.8" height="3.76"/><path class="cls-1" d="M22.87,0h1.8V29.25h-1.8Zm6.19,27.45H40.13v1.8H29.06Z"/><path class="cls-1" d="M45.81,0h1.8V29.25h-1.8ZM52,27.45H63.07v1.8H52Z"/><path class="cls-1" d="M2.05,52.79H3.84V82H2.05ZM8.23,80.23h3.26a12.83,12.83,0,1,0,0-25.65H8.23V52.79h3.26a14.62,14.62,0,0,1,0,29.24H8.23Z"/><path class="cls-1" d="M33.53,52.79h1.8V82h-1.8Zm6.19,0H50.91v1.79H39.72Zm0,13.78H50.91v1.8H39.72Zm0,13.66H50.91V82H39.72Z"/><path class="cls-1" d="M58.35,52.79h1.8V82h-1.8Zm6.19,0H75.73v1.79H64.54Zm0,13.7H75.73v1.8H64.54Z"/><rect class="cls-1" x="82.44" y="52.79" width="1.8" height="29.24"/><path class="cls-1" d="M93.48,50.7l1.8,2.63V82h-1.8Zm4.77,9.77V57.34l11.82,17.25v3.1ZM113,52.79h1.79V82H113Z"/><rect class="cls-1" x="124.16" y="52.79" width="1.8" height="29.24"/><path class="cls-1" d="M131.72,52.79h18.46v1.79H131.72Zm8.31,4.8h1.8V82H140Z"/><path class="cls-1" d="M156,52.79h1.79V82H156Zm6.18,0h11.19v1.79H162.19Zm0,13.78h11.19v1.8H162.19Zm0,13.66h11.19V82H162.19Z"/><path class="cls-1" d="M180.83,52.79h1.79V82h-1.79ZM187,80.23h11.07V82H187Z"/><path class="cls-1" d="M197.66,52.79h2.13l6,9.44-1.08,1.71Zm9,14.24,9-14.24h2.13l-9.31,14.74V82h-1.8Z"/><path class="cls-1" d="M15.46,135.69a15.5,15.5,0,1,1,13.2-23.64l-1.5,1a13.69,13.69,0,1,0-11.7,20.85,13.71,13.71,0,0,0,13.7-13.7H31a15.49,15.49,0,0,1-15.5,15.49M11.24,120.2H24.57V122H11.24Z"/><path class="cls-1" d="M37.71,105.57H39.5v29.25H37.71Zm6.18,0h11.2v1.8H43.89Zm0,13.79h11.2v1.8H43.89Zm0,13.66h11.2v1.8H43.89Z"/><path class="cls-1" d="M60.3,105.57H78.76v1.8H60.3Zm8.31,4.81h1.8v24.44h-1.8Z"/><rect class="cls-1" x="99.23" y="105.57" width="1.8" height="29.25"/><path class="cls-1" d="M106.78,105.57h18.47v1.8H106.78Zm8.32,4.81h1.79v24.44H115.1Z"/><path class="cls-1" d="M2.05,158.36H3.84V187.6H2.05Zm6.18,13H13.7a5.71,5.71,0,0,0,5.6-5.6,5.6,5.6,0,0,0-5.6-5.59H8.23v-1.8H13.7a7.4,7.4,0,1,1,0,14.79H8.23Zm0,14.46H13.7a5.71,5.71,0,0,0,5.6-5.6,5.42,5.42,0,0,0-3.05-4.89l1.59-1.25A7.4,7.4,0,0,1,13.7,187.6H8.23Z"/><path class="cls-1" d="M35,163.37l1,2.18-9.4,22H24.67Zm9.07,11.7H36l.8-1.8H43.3L37,159l.84-2.39,13.79,31H49.65Z"/><path class="cls-1" d="M53.87,173a15.41,15.41,0,0,1,12.87-15.25v1.8a13.71,13.71,0,0,0,0,26.9v1.8A15.4,15.4,0,0,1,53.87,173m18.05-13.49v-1.8a15.51,15.51,0,0,1,10.61,7.15l-1.42,1a14.09,14.09,0,0,0-9.19-6.35m0,28.78v-1.79A14.39,14.39,0,0,0,81,180.17l1.5,1a15.52,15.52,0,0,1-10.61,7.14"/><path class="cls-1" d="M89.19,158.36H91V187.6h-1.8Zm4.43,12.24,1.25-1.34,12.66,18.34h-2.21Zm3.3-3.68,7.61-8.56h2.34l-9,10.07Z"/><rect class="cls-1" x="113.27" y="184.51" width="1.8" height="3.09"/></g></g></svg>