<svg xmlns="http://www.w3.org/2000/svg" viewBox="0 0 4.9 203.13"><defs><style>.cls-1{fill:#f5aa47;}</style></defs><title>アセット 2</title><g id="レイヤー_2" data-name="レイヤー 2"><g id="レイアウト用"><path class="cls-1" d="M4.47,1.28s0,.08-.15.13-.07.07-.07.34,0,.72,0,1v0C4.3,2.91,4.15,3,4,3a.21.21,0,0,1-.24-.21h0V2.61H2.69c0,.57,0,1.16,0,1.63h0c0,.15-.17.25-.35.25s-.26-.07-.26-.22v0c0-.45,0-1,0-1.64h-1c0,.07,0,.14,0,.21s-.07.24-.31.24a.21.21,0,0,1-.24-.21v0c0-.39.05-.77.05-1A4.76,4.76,0,0,0,.61.94a.08.08,0,0,1,0,0s0,0,0,0a2.16,2.16,0,0,1,.66.29h.88V.93A5.23,5.23,0,0,0,2.11.06a.08.08,0,0,1,0,0s0,0,0,0a4.85,4.85,0,0,1,.69.13c.08,0,.12.06.12.1s-.06.1-.15.14-.09.08-.1.81h1a.1.1,0,0,0,.08-.06s.15-.2.21-.2S4.47,1.18,4.47,1.28Zm-2.29.58c0-.2,0-.39,0-.56H1.3l-.09.06s-.05,0-.05.41c0,.21,0,.47,0,.71h1C2.18,2.27,2.18,2.06,2.18,1.86ZM3.66,1.3h-1c0,.18,0,.37,0,.56s0,.41,0,.62H3.75c0-.24,0-.51,0-.76S3.76,1.3,3.66,1.3Z"/><path class="cls-1" d="M4.48,9.53s0,.06-.1.06H2.66c0,.29,0,.52,0,.65v0c0,.13-.15.22-.29.22a.2.2,0,0,1-.23-.21v0c0-.15,0-.38,0-.66H1.67c-.24,0-.63,0-1,.05h0c-.09,0-.24-.19-.24-.25a11.73,11.73,0,0,0,1.3.08h.5c0-.17,0-.35,0-.53H1.71a9.35,9.35,0,0,0-1,0h0C.64,9,.5,8.8.5,8.75l.74.05c0-.17,0-.42,0-.63-.23,0-.53,0-.82,0h0C.34,8.21.19,8,.19,8,.53,8,1,8,1.25,8V7.89a3.91,3.91,0,0,0,0-.49l-.46,0h0c-.09,0-.23-.18-.23-.24a9.58,9.58,0,0,0,1.19.07H3.48c.06,0,.08,0,.09,0s.16-.29.27-.29.43.27.43.39,0,.06-.1.06H3.59s.16,0,.16.09,0,0-.1.08,0,0-.06.48h.27A.11.11,0,0,0,4,8c0-.07.22-.35.31-.35s.47.32.47.45,0,.07-.1.07h-1v.21c0,.17,0,.32,0,.43a.08.08,0,0,0,0,0s.16-.29.27-.29.42.28.42.39,0,.07-.09.07H2.66v.53h.95a.1.1,0,0,0,.09,0s.21-.35.31-.35S4.48,9.42,4.48,9.53Zm-1-3.38s0,.08-.16.13-.07,0-.07.31h.46a.1.1,0,0,0,.07,0c0-.08.25-.39.34-.39h0c.17.07.5.38.5.49s0,.06-.11.06H3.21l0,.27h0c0,.1-.14.18-.29.18s-.23,0-.23-.16V6.71H2.09l0,.27h0c0,.12-.16.18-.29.18s-.23,0-.23-.16V6.72a10.05,10.05,0,0,0-1.09,0h0c-.09,0-.23-.19-.23-.26.39,0,1,.07,1.34.08V6.38A1.72,1.72,0,0,0,1.56,6V6s0,0,0,0,.72.09.72.22,0,.08-.16.13-.07,0-.07.31h.64V6.38a1.66,1.66,0,0,0,0-.4.1.1,0,0,0,0,0s0,0,.05,0S3.44,6,3.44,6.15ZM2.2,8.81V8.17H1.7v.64ZM1.71,7.39s.15,0,.15.09,0,0-.09.08-.05,0-.07.48h.5V7.85a3.55,3.55,0,0,0,0-.46ZM3.12,8.81c0-.17,0-.43,0-.64H2.66c0,.19,0,.42,0,.64ZM2.68,7.39c.06,0,.15,0,.15.09s0,0-.1.08-.06,0-.07.48h.47V7.89a4.19,4.19,0,0,0,0-.5Z"/><path class="cls-1" d="M3.21,12.91s0,.05-.07.05l-.12,0H3l-.4.08.07,0c.05,0,.07,0,.07.07s0,.07-.1.09-.05,0-.06.42h.2a.07.07,0,0,0,.07,0c0-.08.11-.16.15-.16s.41.22.41.33,0,.06-.09.09-.09.06-.09.25,0,.6.05.75v0c0,.14-.16.19-.24.19s-.18-.05-.18-.16v-.15H2.54c0,.27,0,.53,0,.74l.36,0a.83.83,0,0,0-.19-.26s0,0,0-.06h0c.05,0,.87.16.87.61A.28.28,0,0,1,3.3,16c-.09,0-.18-.05-.24-.2A1.61,1.61,0,0,0,3,15.57c-.33.13-1,.34-1.42.46-.06,0-.08.11-.13.11s-.35-.53-.35-.6h.08l.42,0,.55,0c0-.21,0-.49,0-.78H1.86c0,.09,0,.16,0,.2h0a.21.21,0,0,1-.23.2A.18.18,0,0,1,1.45,15v0c0-.25,0-.82,0-1.06a3.26,3.26,0,0,0,0-.46v0s0,0,0,0a1.61,1.61,0,0,1,.48.21h.2v-.06a4.64,4.64,0,0,0,0-.48c-.21,0-.41,0-.6,0H1.26v.2C1.26,15.91,0,16.41,0,16.41H0s0,0,.06-.1a4.56,4.56,0,0,0,.69-2.78A9.19,9.19,0,0,0,.65,12l0,0h0a2.32,2.32,0,0,1,.68.26l0,0h2a.08.08,0,0,0,.07,0A1.1,1.1,0,0,1,3.57,12s.05,0,.08,0,.55.23.55.35,0,.08-.1.12-.12.09-.13.19-.06.62-.06,1.07c0,1.63.48,1.89.48,1.89s.28-.55.32-.69l0-.08s0,0,0,.07,0,.53,0,.76a.54.54,0,0,0,0,.17.39.39,0,0,1,0,.2.26.26,0,0,1-.27.27.27.27,0,0,1-.12,0c-.83-.41-.95-1.71-.95-2.76,0-.41,0-.8,0-1.06a.08.08,0,0,0-.09-.09h-2l-.06.05a.14.14,0,0,0-.07.12v.16l0,.35h.07a3.36,3.36,0,0,0,1.45-.54s0,0,0,0S3.21,12.79,3.21,12.91Zm-1.07.84H1.93l0,0s0,0,0,.47c0,.12,0,.25,0,.37h.28Zm.38.87h.3v-.79c0-.06,0-.08-.08-.08H2.52Z"/><path class="cls-1" d="M2.27,23.15c-.34.23-.46.44-.46.61s.25.4.58.4A1.11,1.11,0,0,0,2.92,24,.49.49,0,0,1,3.11,24a.25.25,0,0,1,.27.24c0,.26-.46.41-.85.41-.55,0-1-.31-1-.74,0-.28.21-.62.76-.95v-.08c0-.11,0-.64-.29-.64-.09,0-.19.07-.33.23-.32.61-.42.8-.6.8s-.2,0-.2-.23a.59.59,0,0,1,.24-.43,2.62,2.62,0,0,0,.78-1.07l-.21,0A.61.61,0,0,1,1,21s0,0,0,0a.25.25,0,0,1,.14.07.74.74,0,0,0,.41.12A1.4,1.4,0,0,0,2,21.07V21a.23.23,0,0,0-.17-.26c-.07,0-.13,0-.13-.05A.33.33,0,0,1,2,20.48a.31.31,0,0,1,.32.33.39.39,0,0,0,.18,0l.14,0c.15,0,.17.1.17.16,0,.3-.63.52-.68.53-.15.32-.24.5-.33.68a.52.52,0,0,1,.24-.05c.26,0,.45.2.52.52.26-.7.67-1.07,1.1-1.07s.62.19.62.46-.19.4-.55.53a9.82,9.82,0,0,0-1.11.43,3,3,0,0,1,0,.42c0,.46-.25.5-.32.5s-.2-.08-.2-.28c0,0,0-.05,0-.07s.08-.21.09-.32Zm1.56-1.23a.24.24,0,0,0-.25-.22c-.38,0-.77.56-1,1C3.6,22.23,3.83,22.11,3.83,21.92Z"/><path class="cls-1" d="M3,28.22a.71.71,0,0,1,0,.14A2.92,2.92,0,0,1,.71,30.54h0s0-.05.14-.11a3,3,0,0,0,1.59-2.13c0-.07,0-.12,0-.12H2.3a.1.1,0,0,1-.1-.06,3.19,3.19,0,0,0-.49.12.87.87,0,0,1-.3.07c-.09,0-.71,0-.71-.5,0,0,0-.07,0-.07a.56.56,0,0,1,.18.08,1.3,1.3,0,0,0,.48.08h.11c.45-.07,1.07-.18,1.68-.23.18,0,.24-.09.39-.09s.66.16.66.37-.09.18-.23.18H3.9a2.9,2.9,0,0,0-.71-.1h-.3A.26.26,0,0,1,3,28.22Zm.26-1.08a11.27,11.27,0,0,0-1.15.17H1.88c-.4,0-.54-.22-.54-.37s0-.13.06-.13a.25.25,0,0,1,.11.05.8.8,0,0,0,.35.07,3,3,0,0,0,.93-.17A.5.5,0,0,1,3,26.71c.14,0,.49.09.49.26S3.42,27.14,3.22,27.14Z"/><path class="cls-1" d="M2.2,35.38c0-.32,0-.84,0-1.41,0-1.13-.05-1.19-.15-1.22s-.18-.07-.18-.11a.28.28,0,0,1,.27-.16c.2,0,.62.25.62.45s-.11.21-.13.38,0,.42,0,.93,0,.78,0,1.06a1.28,1.28,0,0,1,0,.19c0,.34-.13.62-.26.62s-.22-.2-.22-.68Z"/><path class="cls-1" d="M1.83,40.57l-.18-.14h0a3.25,3.25,0,0,1,1,.33c.08-.07.86-.78.86-.93s0-.06-.09-.06a8,8,0,0,0-1.92.42.64.64,0,0,1-.23,0c-.16,0-.7-.21-.7-.51,0-.1,0-.15,0-.15s.07,0,.14.07a.86.86,0,0,0,.42.08l.2,0c.62-.08,1.1-.15,1.77-.21.16,0,.25-.14.4-.14s.79.38.79.59-.07.14-.21.18a1,1,0,0,0-.24.11,8.49,8.49,0,0,1-1.06.62c.31.2.43.4.43.58a.3.3,0,0,1-.28.32.35.35,0,0,1-.3-.21A3.16,3.16,0,0,0,1.83,40.57Z"/><path class="cls-1" d="M1.78,46.08a0,0,0,0,1,0,0,.59.59,0,0,1-.06.18,4.61,4.61,0,0,0-.29,1.31,1.12,1.12,0,0,0,0,.2.36.36,0,0,1,0,.14c0,.18-.09.27-.2.27-.35,0-.46-.74-.46-1.06a3,3,0,0,1,.05-.52,8.49,8.49,0,0,0,.26-1.32.83.83,0,0,0-.07-.36A1.4,1.4,0,0,1,1,44.75s0,0,.1,0a.56.56,0,0,1,.46.58,1.76,1.76,0,0,1-.15.59,3,3,0,0,0-.24,1s0,.25,0,.25,0,0,.05,0A7.64,7.64,0,0,1,1.78,46.08Zm2.07,1.3c.25,0,.38.12.38.25S4,48,3.4,48s-1.16-.3-1.16-.79c0,0,0-.06,0-.06s.05,0,.11.11a1.09,1.09,0,0,0,.8.23,1.51,1.51,0,0,0,.3,0,2.22,2.22,0,0,1,.37-.09Zm-.71-1.63c-.8,0-.82-.52-.82-.58s0,0,0,0a.26.26,0,0,1,.12.07,1.17,1.17,0,0,0,.52.11,1.32,1.32,0,0,0,.42-.07.57.57,0,0,1,.24-.06c.19,0,.32.11.32.23S3.76,45.75,3.14,45.75Z"/><path class="cls-1" d="M4.14,54.15c-.19,0-.66-.77-.83-1.92,0,.5,0,1.06,0,1.57v0a.57.57,0,0,1-.6.58c-.06,0-.1,0-.14-.11s-.45-.39-.45-.43h.06a2.36,2.36,0,0,0,.43.06c.2,0,.21-.09.22-.22s0-.39,0-.62a11.1,11.1,0,0,1-.81.85s0,.12-.07.12-.49-.4-.49-.43l.07,0A7.92,7.92,0,0,0,2.9,53c0-.27,0-.57,0-.83-.23,0-.56,0-.92,0a.27.27,0,0,1-.24.21.25.25,0,0,1-.21-.14c-.07-.12-.09-.28-.18-.36,0,.84,0,1.81,0,2.31h0c0,.16-.18.24-.29.24a.19.19,0,0,1-.22-.2v0c0-.51.05-1.17.05-1.83a2.44,2.44,0,0,1-.9.77H0S0,53.1.1,53a4,4,0,0,0,.82-1.61v-.05a3.16,3.16,0,0,0-.51,0h0c-.06,0-.2-.19-.2-.24.24,0,.51,0,.72.06A6.27,6.27,0,0,0,.84,50v0s0,0,0,0,.73.11.73.24-.07.09-.13.12-.1.1-.11,1h0a.11.11,0,0,0,.06,0c0-.07.18-.32.24-.32s.4.33.4.42,0,.06-.11.06H1.34v.45h.1A.57.57,0,0,1,1.9,52h0c.36,0,.74.05,1,.05v-.46l-.61,0h0c-.09,0-.24-.18-.24-.23.3,0,.6.05.85.06,0-.12,0-.34,0-.45a6.16,6.16,0,0,0-.7,0h0c-.08,0-.23-.18-.23-.23.44.05,1,.07,1.22.07h.06A3.19,3.19,0,0,0,3.48,50s0,0,0,0,.64.25.64.38,0,.07-.13.07H4s-.06,0-.1.05l-.47.44h.29c.06,0,.08,0,.09,0s.19-.31.28-.31.44.31.44.41,0,.06-.1.06h-1c.09,0,.11.05.11.06s0,.07-.13.1-.06,0-.08.3h.15a.11.11,0,0,0,.09,0c0-.09.18-.28.26-.28s.41.26.41.38,0,.06-.1.06H3.31c0,.14,0,.29,0,.46h.43s.07,0,.09,0,.22-.33.31-.33.47.34.47.43,0,.06-.1.06H3.35a2.38,2.38,0,0,0,.33.74,3.4,3.4,0,0,0,.44-.58s0,0,0,0,.46.38.46.51,0,.06-.08.06H4.45l0,0h0L3.75,53a2.76,2.76,0,0,0,1.06.88l0,0c0,.06-.44.09-.59.22A.18.18,0,0,1,4.14,54.15ZM1.89,52.44s0,0,0,0,.07,0,.1,0c.51,0,.72.24.72.44a.24.24,0,0,1-.23.25.29.29,0,0,1-.24-.18A3.05,3.05,0,0,0,1.89,52.44Zm.3-2.39h0c.25,0,.8.08.8.42a.27.27,0,0,1-.27.25.28.28,0,0,1-.27-.2,1.47,1.47,0,0,0-.23-.39S2.19,50.06,2.19,50.05Z"/><path class="cls-1" d="M2.34,57.85A4.77,4.77,0,0,1,.6,59.33h0s.05-.07.16-.16A7.37,7.37,0,0,0,2.1,57.29a1.69,1.69,0,0,0,.14-.46s0,0,0,0,.66.31.66.47-.07.07-.2.1a.43.43,0,0,0-.15.17l-.14.2H3c.05,0,.11-.11.2-.18s0,0,.08,0,.55.31.55.49-.08.11-.17.13a.48.48,0,0,0-.25.09c-.2.16-.58.42-.85.59a.54.54,0,0,1,.38.46.27.27,0,0,1-.26.29.41.41,0,0,1-.34-.23,2.25,2.25,0,0,0-.53-.58c-.06,0-.09-.06-.09-.08h0a2.49,2.49,0,0,1,.62.07,6.41,6.41,0,0,0,.6-.83,0,0,0,0,0,0,0Z"/><path class="cls-1" d="M1.72,63.2a.57.57,0,0,1-.64-.56s0,0,0,0l.1,0a1,1,0,0,0,.51.19,2,2,0,0,0,.32,0,1.83,1.83,0,0,0,0-.21c0-.25-.11-.26-.16-.26s-.09,0-.09,0,.08-.27.29-.27a.34.34,0,0,1,.33.37.62.62,0,0,1,0,.13l.09,0a.7.7,0,0,1,.19-.06c.05,0,.17,0,.17.13s-.18.37-.62.53c-.19.5-.62,1.48-.69,1.64a.5.5,0,0,1-.41.33A.17.17,0,0,1,1,64.88a.67.67,0,0,1,.13-.33,6.86,6.86,0,0,0,.83-1.37Zm1.53,2c.34.12.74.38.74.67a.26.26,0,0,1-.23.27.33.33,0,0,1-.26-.19.89.89,0,0,0-.27-.31.93.93,0,0,1-.86.61.68.68,0,0,1-.72-.59c0-.33.42-.56,1-.56l.26,0v-.41a1,1,0,0,1,.45-1c.08-.06.26-.19.26-.31a.11.11,0,0,0,0-.08,1.59,1.59,0,0,0-.13-.13c-.06-.06-.09-.09-.09-.11s0-.06.18-.06a.7.7,0,0,1,.71.59.27.27,0,0,1-.26.3.74.74,0,0,1-.18,0l-.19,0a.44.44,0,0,0-.48.46,6,6,0,0,0,.11.74Zm-.84.16c-.34,0-.59.14-.59.28s.34.24.45.24a.54.54,0,0,0,.59-.44A1.42,1.42,0,0,0,2.41,65.32Z"/><path class="cls-1" d="M3.62,69.05s0,.08-.13.08H3.43c-.05,0-.06,0-.1.05s-.37.36-.58.53h.93a.09.09,0,0,0,.08,0c.06-.09.28-.4.37-.4h0c.17.06.51.41.51.51s0,.06-.11.06H2c-.27,0-1.12,0-1.56,0h0c-.09,0-.23-.19-.23-.25.5.06,1.53.08,1.81.08h.54A5.07,5.07,0,0,0,2.81,69a1.57,1.57,0,0,0,0-.28s0-.06,0-.06S3.62,68.89,3.62,69.05ZM2.14,67.77a0,0,0,0,1,0,0,4.59,4.59,0,0,1,.67.14c.08,0,.12.06.12.1s0,.09-.15.13-.08,0-.09.38h.6a.1.1,0,0,0,.08,0,1.87,1.87,0,0,1,.29-.39h.05a1,1,0,0,1,.55.51s0,0-.11,0H2.36c-.27,0-1.12,0-1.56.06h0c-.09,0-.23-.19-.23-.26.42,0,1.22.08,1.63.08a3.93,3.93,0,0,0-.06-.69Zm.95,2.59a.06.06,0,0,0,.06,0c.14-.18.18-.2.21-.2s.52.24.52.35,0,.06-.1.11-.11.07-.11.29,0,.89,0,1.16h0c0,.13-.15.21-.3.21s-.23-.05-.23-.17v-.2H1.69v.19h0c0,.13-.15.2-.3.2s-.23,0-.23-.18v0c0-.22,0-.93,0-1.3v-.14a3.05,3.05,0,0,0-.06-.52v0h0a1.91,1.91,0,0,1,.62.26H3.09ZM1.26,68.77h0s.9.06.9.55a.29.29,0,0,1-.28.3c-.1,0-.2-.06-.27-.22a2.49,2.49,0,0,0-.33-.56S1.26,68.78,1.26,68.77ZM3.19,71v-.48c0-.06,0-.08-.09-.08H1.75l0,0a.06.06,0,0,0,0,.07V71Zm-1.5.12v.61H3.18c0-.18,0-.41,0-.61Z"/><path class="cls-1" d="M.24,78.12H.12s0,0,.1-.07A4.79,4.79,0,0,0,2,76.69H1.38a7.84,7.84,0,0,0-.89,0h0c-.08,0-.22-.18-.22-.24a9.21,9.21,0,0,0,1.14.08h.81a2.15,2.15,0,0,0,0-.49.13.13,0,0,1,0,0s0,0,0,0,.72,0,.72.18,0,.08-.13.12-.07.05-.07.25h1a.1.1,0,0,0,.08,0c.21-.3.27-.37.31-.37s.53.35.53.47,0,.07-.1.07H2.71a3,3,0,0,0,2.1.9h0s-.52.23-.69.39A.14.14,0,0,1,4,78a2.3,2.3,0,0,1-1.37-1.25V77c0,.38,0,.79,0,1h0c0,.13-.16.22-.31.22s-.22-.05-.22-.19v0c0-.19,0-.6,0-.92A3.72,3.72,0,0,1,.24,78.12ZM2.93,74s-.05.07-.16.08-.08,0-.11.07l-.29.34h.32a.07.07,0,0,0,.07,0c.13-.17.14-.18.16-.18a.92.92,0,0,1,.47.32s0,.07-.09.11-.09,0-.09.13v.07c0,.23,0,.71,0,1h0c0,.13-.14.2-.26.2s-.2-.05-.2-.16v-.11H2.12V76h0c0,.11-.14.19-.27.19s-.21,0-.21-.17v0c0-.25,0-.52,0-.74-.18.2-.55.53-.87.82,0,0,0,.07-.08.07S.3,75.72.3,75.69s0,0,0,0a6.32,6.32,0,0,0,1.35-.49v-.34a4.46,4.46,0,0,0-.05-.51h0s0,0,0,0a2,2,0,0,1,.51.23h0c0-.17,0-.43,0-.52a1,1,0,0,0,0-.25h0a0,0,0,0,1,0,0S2.93,73.88,2.93,74Zm-1.49.69a.26.26,0,0,1-.25.26.31.31,0,0,1-.28-.18,2.23,2.23,0,0,0-.41-.48s0,0,0,0H.53C.81,74.26,1.44,74.35,1.44,74.72Zm1.35.39c0-.45,0-.46-.09-.46H2.19l0,0s0,0,0,.08v.35Zm-.67.13v.51h.67v-.51Zm2.38-.59s0,.06-.1.06H4.22a8.62,8.62,0,0,1-.92.3s0,0,0,0,0,0,0,0a3,3,0,0,0,.63-.81s0,0,0,0S4.5,74.51,4.5,74.65Zm0,1.18a.26.26,0,0,1-.25.27.35.35,0,0,1-.28-.16,3,3,0,0,0-.56-.52l-.06,0h.05C3.8,75.37,4.47,75.43,4.47,75.83Z"/><path class="cls-1" d="M.38,82a.23.23,0,0,1-.25-.24.47.47,0,0,1,.13-.31,1.13,1.13,0,0,0,.24-.65c0-.06,0-.09,0-.09a1,1,0,0,1,.23.72C.75,81.82.55,82,.38,82ZM2,81.05a.25.25,0,0,1-.24.25c-.1,0-.19-.06-.23-.21a1.7,1.7,0,0,0-.15-.45h0c0,.22,0,.49,0,.8,0,.82,0,1.85.06,2.5h0c0,.15-.17.24-.31.24A.21.21,0,0,1,.83,84h0c0-.91.06-1.86.06-2.65a7.48,7.48,0,0,0-.08-1.52v0s0,0,0,0,.74.13.74.25-.06.09-.12.12-.09.08-.12.47h0C1.72,80.66,2,80.84,2,81.05Zm2.81,2.79s0,.07-.11.07H2.9a10.32,10.32,0,0,0-1.17,0h0c-.09,0-.23-.19-.23-.25a12.75,12.75,0,0,0,1.4.07c0-.31,0-.8,0-1.32-.26,0-.38,0-.79,0h0c-.09,0-.23-.18-.23-.24a7.39,7.39,0,0,0,1,.07v-1H2.31a2.55,2.55,0,0,1-.84,1s0,0,0,0l.05-.09a5,5,0,0,0,.62-2v-.09s0,0,0,0,.71.15.71.27,0,.08-.14.12a.11.11,0,0,0-.08.07,5.07,5.07,0,0,1-.26.64h.54a6,6,0,0,0-.08-1.41v0s0,0,0,0,.79.1.79.25-.07.09-.13.12-.1.1-.11,1.09h.25a.08.08,0,0,0,.07,0c.24-.37.28-.43.33-.43h0a1.08,1.08,0,0,1,.46.52s0,.06-.1.06h-1v1h.12a.1.1,0,0,0,.08,0c.23-.38.28-.38.3-.38h0a.94.94,0,0,1,.46.47s0,.07-.11.07H3.41c0,.62,0,1.17,0,1.32h.41a.12.12,0,0,0,.08,0c.07-.11.27-.42.34-.42h0A1.24,1.24,0,0,1,4.76,83.84Z"/><path class="cls-1" d="M2.44,87.09a6.66,6.66,0,0,0-.93.44.78.78,0,0,1-.31.07c-.25,0-.56-.1-.56-.35,0,0,0-.07,0-.07l.11,0,.21,0a1.08,1.08,0,0,0,.36-.07c.55-.22,1.13-.53,1.81-.74a1.13,1.13,0,0,1,.42-.1c.38,0,.66.11.66.32s-.12.25-.36.25H3.77l-.26,0a1.65,1.65,0,0,0-.74.15,1.79,1.79,0,0,0-.5,1.36c0,.7.34,1,.74,1a.75.75,0,0,0,.24,0l.17,0a.29.29,0,0,1,.32.26c0,.16-.19.37-.68.37C2.73,90,2,89.77,2,88.64a2.73,2.73,0,0,1,.45-1.5.09.09,0,0,0,0,0Zm1.33.66a1.4,1.4,0,0,0-.4-.32c-.06,0-.09-.05-.09-.07s.12,0,.21,0c.44,0,.58.22.58.34a.17.17,0,0,1-.16.17A.17.17,0,0,1,3.77,87.75Zm.51-.24a1.64,1.64,0,0,0-.41-.31c-.05,0-.09,0-.09-.07s.15,0,.24,0c.51,0,.56.26.56.33a.16.16,0,0,1-.16.17A.21.21,0,0,1,4.28,87.51Z"/><path class="cls-1" d="M.72,95.83l-.23.06h0s.08-.07.2-.14a3.65,3.65,0,0,0,1.55-2.26c0-.09,0-.14-.09-.14s-.22,0-.22-.07.17-.22.36-.22c0,0,.44,0,.5.28a3.21,3.21,0,0,0,.66-.65c0-.05-.06-.08-.1-.08a5.43,5.43,0,0,0-1.48.27,1.09,1.09,0,0,1-.36.1c-.11,0-.69-.13-.69-.52,0-.07,0-.11,0-.11s.08,0,.13.08a.68.68,0,0,0,.42.08h.28l1.5-.17c.13,0,.17-.09.28-.09s.73.34.73.57-.31.2-.4.25a5.54,5.54,0,0,1-1,.47A3.21,3.21,0,0,1,.72,95.83Z"/><path class="cls-1" d="M3.28,99a.07.07,0,0,0-.07-.06,4.32,4.32,0,0,0-1,.26,1.59,1.59,0,0,1-.47.13c-.29,0-.7-.26-.7-.45s0-.22.09-.22.11.06.15.13.16.07.32.07a13.65,13.65,0,0,0,1.58-.2c.1,0,.16-.15.27-.15s.7.22.7.41-.12.15-.22.22a.59.59,0,0,0-.13.19,4.47,4.47,0,0,1-2.66,2.31l-.25.06h0a.94.94,0,0,1,.23-.15A5.83,5.83,0,0,0,3.28,99Zm.82-.43a.45.45,0,0,1-.45-.44.45.45,0,1,1,.45.44Zm.3-.45a.29.29,0,0,0-.3-.29.3.3,0,1,0,0,.59A.29.29,0,0,0,4.4,98.09Z"/><path class="cls-1" d="M3.3,106.94H3c-.33,0-.78,0-1.19,0,0,.25-.11.35-.22.35s-.3-.1-.3-.46c0-.15,0-.31,0-.47s0-1.33-.33-1.38c-.12,0-.21,0-.21-.09s.15-.2.32-.2a.91.91,0,0,1,.55.33c.36,0,1.23-.15,1.28-.16s.14-.13.28-.13.67.2.67.37-.05.13-.17.21a3.85,3.85,0,0,0-.28.85l-.07.27c.2,0,.34.17.34.28s-.12.19-.41.19Zm-1.45-.32A8.33,8.33,0,0,0,3,106.51c.09-.42.19-1.2.19-1.21a.08.08,0,0,0-.07-.08c-.35,0-.85.1-1.09.13H1.76c0,.2.07,1,.07,1.07Z"/><path class="cls-1" d="M2.2,112.77c0-.32,0-.85,0-1.41,0-1.13-.05-1.19-.15-1.22s-.18-.08-.18-.11a.26.26,0,0,1,.27-.16c.2,0,.62.24.62.45s-.11.21-.13.38,0,.41,0,.92,0,.78,0,1.07a1.09,1.09,0,0,1,0,.18c0,.35-.13.62-.26.62s-.22-.2-.22-.67Z"/><path class="cls-1" d="M2.78,117.65a2.28,2.28,0,0,1-2.11,2.09h0s.09-.07.27-.13a2.42,2.42,0,0,0,1.41-1.89l-.52.08a3.47,3.47,0,0,1-.56.11,1,1,0,0,1-.46-.14.28.28,0,0,1-.18-.26s0-.13,0-.13l.09,0a1.64,1.64,0,0,0,.63.11,8.2,8.2,0,0,0,1-.11,2.06,2.06,0,0,0-.07-.59,3.5,3.5,0,0,1-1,.12c-.05,0-.47,0-.47-.05s.07,0,.19-.07a4.16,4.16,0,0,0,1.74-.65.1.1,0,0,0-.06-.07s-.1,0-.1-.09.08-.1.2-.1.56.24.56.42-.19.21-.63.35a.25.25,0,0,1,.09.19.52.52,0,0,1,0,.11.49.49,0,0,0,0,.13c0,.08,0,.17,0,.24l.5-.06c.21,0,.26-.1.41-.1s.63.07.63.31-.12.21-.29.21H3.94a3.7,3.7,0,0,0-.66-.07l-.41,0Z"/><path class="cls-1" d="M3.21,124.06c.13,0,.18,0,.18-.09s-.09-.46-.7-1a2,2,0,0,1-.94.3.73.73,0,0,1-.79-.62c0-.08,0-.2.05-.2s.05,0,.1.08a1.17,1.17,0,0,0,.72.3,1.73,1.73,0,0,0,.51-.12l-.47-.32a.3.3,0,0,1-.15-.26.29.29,0,0,1,.28-.3.45.45,0,0,1,.3.16.74.74,0,0,0,.51.21.58.58,0,0,0,.19,0h.1a.2.2,0,0,1,.23.2c0,.15-.12.28-.45.5.29.22,1,.79,1,1.39,0,.23-.13.39-.31.39a.24.24,0,0,1-.2-.11,1.76,1.76,0,0,0-1.09-.32c-.54,0-.7.25-.7.43s.13.46.74.46a1.39,1.39,0,0,0,.44-.07l.16,0a.31.31,0,0,1,.34.26c0,.22-.36.34-.73.34-.87,0-1.24-.47-1.24-.85,0-.74,1.2-.74,1.53-.74h.39Zm-.37-1.65c0-.12-.54-.21-.59-.21s-.09,0-.09.06.28.3.39.39S2.84,122.49,2.84,122.41Z"/><path class="cls-1" d="M3.36,129.1l.18,0c.11,0,.19,0,.19-.06s0-.08-.16-.19-.09-.09-.09-.11h0l.14.06a3.92,3.92,0,0,0,.8.29c.17.06.24.16.24.25s-.11.2-.28.2l-.19,0a2,2,0,0,0-.61-.09H3.33a2.36,2.36,0,0,1-.14.72c-.06.16-.23.46-.5.46a.21.21,0,0,1-.22-.21.73.73,0,0,0-.15-.39,1,1,0,0,1-.14-.19,0,0,0,0,1,0,0,.68.68,0,0,1,.19.11.63.63,0,0,0,.32.14c.07,0,.21,0,.28-.57a5.28,5.28,0,0,0-1,.3,6.78,6.78,0,0,0,.05.84c0,.31.34.39.6.39a1.9,1.9,0,0,0,.49-.07.51.51,0,0,1,.2,0c.21,0,.35.13.35.25,0,.3-.73.32-.87.32a1,1,0,0,1-1.06-.77c0-.17-.05-.46-.08-.77a2.92,2.92,0,0,0-.47.26.65.65,0,0,1-.36.12c-.21,0-.64-.14-.64-.42,0-.11,0-.17.06-.17s.06,0,.11.06a.4.4,0,0,0,.26.11,1.64,1.64,0,0,0,.44-.09l.57-.18c-.05-.64-.13-.73-.29-.85s-.06-.05-.06-.07.09-.15.29-.15.43,0,.43.53v.43c.35-.11.7-.2,1.06-.29A1.09,1.09,0,0,0,3,129c0-.42,0-.69-.15-.73s-.1,0-.1,0A.27.27,0,0,1,3,128a.33.33,0,0,1,.36.32c0,.11,0,.27,0,.55Z"/><path class="cls-1" d="M2,134.81a16.82,16.82,0,0,0-.57,2,1,1,0,0,1-.26.59.29.29,0,0,1-.18.08c-.22,0-.22-.32-.22-.34a1.09,1.09,0,0,1,.19-.47,16,16,0,0,0,.72-1.82,1.08,1.08,0,0,1-.22,0c-.33,0-.73-.17-.73-.55,0,0,0,0,0,0l.1,0a1.37,1.37,0,0,0,.55.15,1.27,1.27,0,0,0,.37,0,1.62,1.62,0,0,0,0-.21c0-.18,0-.31-.13-.31s-.14,0-.14-.06.08-.23.27-.23a.41.41,0,0,1,.39.46v.07l.22-.06H2.5c.11,0,.21,0,.21.16s-.49.47-.66.53Zm1.57,2.67c-.62,0-1.14-.35-1.14-.74a.52.52,0,0,1,.23-.41s0,0,0,0a.59.59,0,0,1,0,.17.13.13,0,0,0,0,.06c0,.17.34.36.71.36h.08a1.84,1.84,0,0,1,.29,0c.17,0,.5.06.5.27S4,137.48,3.61,137.48Zm0-3c.43,0,.82.24.82.42s-.07.18-.23.2a1.47,1.47,0,0,0-.77.3.29.29,0,0,1-.14.08h0a.3.3,0,0,1,.07-.11c.29-.4.3-.44.3-.47s-.19-.15-.31-.15H3.21l-.24,0H3A.62.62,0,0,1,3.56,134.5Z"/><path class="cls-1" d="M1.24,140.7c0,.31,0,1.14,0,1.84,0,.39,0,.73,0,.92h0a.28.28,0,0,1-.3.25.21.21,0,0,1-.22-.22v0c0-.55.08-1.69.08-2.47a2.72,2.72,0,0,1-.76.65s0,0,0,0a.27.27,0,0,1,.08-.11,5.11,5.11,0,0,0,1.06-2.23s0,0,0,0a1.65,1.65,0,0,1,.52.23s0,0,0,0v0s0,0,0,0a2.32,2.32,0,0,1,.62.29H3.87a.1.1,0,0,0,.08-.06c.13-.2.17-.2.19-.2s.5.27.5.37,0,.09-.14.14-.06,0-.06.5c0,.82,0,2.63,0,2.92v0c0,.15-.16.23-.28.23s-.23-.06-.23-.2H4v-.14H2.2c0,.06,0,.11,0,.15h0c0,.15-.17.23-.29.23a.2.2,0,0,1-.21-.21v0c0-.39,0-2.09,0-2.88v-.39a4.57,4.57,0,0,0,0-.49H1.67s-.07,0-.1.1a5.84,5.84,0,0,1-.35.65h.07c.06,0,.09.05.09.08s0,.08-.12.11S1.24,140.68,1.24,140.7Zm1-.82s0,0,0,.06,0,.4,0,.81c0,.76,0,1.85,0,2.39H4c0-.55,0-1.68,0-2.47v-.76c0-.07,0-.08-.09-.08H2.32Zm1.26.34s-.07.08-.13.12-.08.08-.08.38c0,0,0,0,0,0s.16-.28.22-.28.38.26.38.39,0,.06-.09.06H3.29v.66a.05.05,0,0,0,0,0c.13-.19.13-.19.15-.19s.39.21.39.33,0,.07-.08.12-.08.07-.08.21,0,.45,0,.62v0c0,.15-.16.2-.25.2a.15.15,0,0,1-.17-.16v-.1H2.86v.08h0a.23.23,0,0,1-.25.21.17.17,0,0,1-.18-.18v0c0-.29,0-.62,0-.86,0-.06,0-.27,0-.45v0s0,0,0,0a1.55,1.55,0,0,1,.46.24c0-.21,0-.42,0-.66l-.44.05h0c-.08,0-.21-.19-.21-.25l.65.07a3.35,3.35,0,0,0-.06-.68v0s0,0,0,0S3.5,140.12,3.5,140.22Zm-.58,1.43c-.06,0-.06,0-.06.11v.64h.47V142c0-.24,0-.31-.07-.31Z"/><path class="cls-1" d="M.38,147.46a.23.23,0,0,1-.25-.24.47.47,0,0,1,.13-.31,1.13,1.13,0,0,0,.24-.65c0-.06,0-.08,0-.08a1,1,0,0,1,.23.71C.75,147.3.55,147.46.38,147.46ZM2,146.53a.25.25,0,0,1-.24.25c-.1,0-.19-.06-.23-.21a1.7,1.7,0,0,0-.15-.45h0c0,.22,0,.49,0,.8,0,.82,0,1.85.06,2.5h0c0,.15-.17.24-.31.24a.21.21,0,0,1-.24-.22h0c0-.91.06-1.86.06-2.65a7.48,7.48,0,0,0-.08-1.52v0s0,0,0,0,.74.13.74.25-.06.09-.12.12-.09.08-.12.47h0C1.72,146.15,2,146.32,2,146.53Zm2.81,2.79s0,.07-.11.07H2.9a10.32,10.32,0,0,0-1.17.05h0c-.09,0-.23-.19-.23-.25a12.75,12.75,0,0,0,1.4.07c0-.31,0-.8,0-1.32-.26,0-.38,0-.79,0h0c-.09,0-.23-.18-.23-.24a7.39,7.39,0,0,0,1,.07v-1H2.31a2.55,2.55,0,0,1-.84,1h0l.05-.09a5,5,0,0,0,.62-2v-.08s0,0,0,0,.71.15.71.27,0,.08-.14.12a.11.11,0,0,0-.08.07,5.07,5.07,0,0,1-.26.64h.54a6,6,0,0,0-.08-1.41v0s0,0,0,0,.79.1.79.25-.07.09-.13.12-.1.1-.11,1.09h.25a.08.08,0,0,0,.07,0c.24-.37.28-.43.33-.43h0a1.08,1.08,0,0,1,.46.52s0,.06-.1.06h-1v1h.12a.1.1,0,0,0,.08,0c.23-.37.28-.37.3-.37h0a.94.94,0,0,1,.46.47s0,.07-.11.07H3.41c0,.62,0,1.17,0,1.32h.41a.12.12,0,0,0,.08,0c.07-.11.27-.42.34-.42h0A1.24,1.24,0,0,1,4.76,149.32Z"/><path class="cls-1" d="M.08,152.5s.21-.07.38-.07c.43,0,.58.19.58.39a.28.28,0,0,1-.26.28A.31.31,0,0,1,.53,153a1.51,1.51,0,0,0-.37-.39S.08,152.52.08,152.5Zm1.84-1.07h0a1.17,1.17,0,0,1,0,.15l-.24.7c.4,0,.83.05,1.06.05H3a3.07,3.07,0,0,0,.34-1.07s0-.06,0-.06.68.26.68.42,0,.08-.14.08H3.86c-.06,0-.06,0-.1.07s-.35.36-.57.56h.49c.06,0,.08,0,.09,0s.22-.36.33-.36.48.34.48.47,0,.06-.1.06H3.34a2.45,2.45,0,0,0,1.51.93h0s-.45.15-.57.3a.14.14,0,0,1-.1.05,1.71,1.71,0,0,1-1-1.29H2.75c.11,0,.13,0,.13.06s0,0-.07.06a.14.14,0,0,0-.09.08,3,3,0,0,1-.8.95,1.42,1.42,0,0,1,.39.17H3.55a0,0,0,0,0,.05,0,.86.86,0,0,1,.15-.17s.44.19.44.32a.11.11,0,0,1-.06.1c-.12.06-.11.06-.12.15v.13c0,.23,0,.71,0,.91a.08.08,0,0,0,.06,0,2.43,2.43,0,0,1,.19-.29h.08a.87.87,0,0,1,.36.4s0,.07-.11.07H2.24a5.72,5.72,0,0,0-.78,0h0a.33.33,0,0,1-.2-.24,5.07,5.07,0,0,0,.6.06v-1.05a2.74,2.74,0,0,0,0-.45,1.64,1.64,0,0,1-.64.32,4.84,4.84,0,0,0-.07.54.93.93,0,0,0,.08.38.75.75,0,0,1,0,.24.33.33,0,0,1-.3.37c-.15,0-.3-.13-.3-.4,0,0,0,0,0-.07,0-.2.06-.36.06-.5s-.07-.28-.35-.35a.32.32,0,0,1-.16-.06s.05,0,.18,0,.29,0,.36-.21A22.71,22.71,0,0,1,1.92,151.43ZM.5,151.37s.17,0,.21,0,.71,0,.71.43a.29.29,0,0,1-.27.29.3.3,0,0,1-.26-.18,1.53,1.53,0,0,0-.33-.45Zm.69,2.6h0a3.27,3.27,0,0,0,1.1-1.48,5.48,5.48,0,0,0-.55,0h0a.24.24,0,0,1-.13-.09A13,13,0,0,0,1.19,154ZM2,151.36s0,0,0,0c.32,0,.8.18.8.49a.3.3,0,0,1-.28.29.31.31,0,0,1-.26-.22,2,2,0,0,0-.24-.48Zm.5,2.58H2.28a.11.11,0,0,0,0,.08v1.19h.23C2.48,155.06,2.48,154.08,2.46,153.94Zm.56,0H2.88s.05,0,.05.05,0,0-.06.07-.05,0-.05.08,0,.81,0,1.08H3C3,154.41,3,154.06,3,153.94Zm.42,0s.05,0,.05.05,0,0-.06.07a.14.14,0,0,0-.05.08c0,.05,0,.81,0,1.08h.24c0-.21,0-.74,0-1V154c0-.05,0-.06-.07-.06Z"/><path class="cls-1" d="M3.53,160.12a.36.36,0,0,0,.39.41,1.08,1.08,0,0,0,.7-.34c.15-.15.22-.21.24-.21s0,0,0,0a2.41,2.41,0,0,1-.14.27,1.34,1.34,0,0,1-1.07.71c-.35,0-.63-.23-.63-.76,0-.05,0-.1,0-.16a8.17,8.17,0,0,1,.27-1,1.58,1.58,0,0,0,0-.28c0-.23-.09-.36-.28-.36a2.24,2.24,0,0,0-1.3.91,3.94,3.94,0,0,0-.06.61,3.33,3.33,0,0,0,.15,1,.85.85,0,0,1,0,.25c0,.19-.09.3-.21.3s-.3-.17-.31-.5a3.2,3.2,0,0,0-.14-.65c0,.11-.05.23-.08.36-.07.29-.25.45-.38.45s-.15-.07-.15-.21a2.09,2.09,0,0,1,.48-1,2,2,0,0,0-.27-.53.4.4,0,0,1-.09-.23c0-.32.53-.44.82-.53h.06c0-.1,0-.24,0-.39s0-.5-.24-.55-.19-.06-.19-.09.14-.18.3-.18A.57.57,0,0,1,2,158a3.54,3.54,0,0,1-.12.6c.18,0,.24.09.24.17v0a1.84,1.84,0,0,1,1.09-.55c.34,0,.56.24.56.68a1.41,1.41,0,0,1,0,.2c0,.34-.2.67-.22,1ZM1.58,159h0a1.14,1.14,0,0,0-.45.15.18.18,0,0,0-.07.16,1.21,1.21,0,0,0,.14.46,4.82,4.82,0,0,0,.4-.68Zm-.11,1.36s0,0,0-.07c0-.19,0-.43.05-.68l-.11.17a1.39,1.39,0,0,0-.12.28C1.36,160.21,1.44,160.38,1.47,160.38Z"/><path class="cls-1" d="M2.74,166.92a.87.87,0,0,0,.67-.84.67.67,0,0,0-.72-.71,1.11,1.11,0,0,0-1.06.83c0,.07-.12.34-.36.34a.21.21,0,0,1-.2-.22c0-.15.07-.24.42-.63a4.41,4.41,0,0,0,.4-.45,13.82,13.82,0,0,0,.83-1.18s0,0,0-.05-.06-.09-.13-.09h0c-.21,0-.29.54-.63.54a.34.34,0,0,1-.36-.35c0-.14.06-.14.06-.14a.18.18,0,0,1,.09,0h.1a.42.42,0,0,0,.21-.06,1.38,1.38,0,0,1,.69-.3c.29,0,.54.2.54.36s-.15.23-.25.32a8.53,8.53,0,0,0-.95,1h0a1.36,1.36,0,0,1,.74-.21,1,1,0,0,1,1.07,1,1.3,1.3,0,0,1-1.36,1.15c-.5,0-.87-.24-.87-.53s.37-.38.52-.38a.52.52,0,0,1,.54.54Zm-.38-.13a.26.26,0,0,0-.28-.28c-.19,0-.22.13-.22.17s0,.22.46.28A.35.35,0,0,0,2.36,166.79Z"/><path class="cls-1" d="M2.53,171.7s0,.07-.1.07H1.59V172c.12,0,.74,0,.74.4a.23.23,0,0,1-.22.23.26.26,0,0,1-.21-.14,2,2,0,0,0-.31-.41c0,.41,0,.88,0,1.14h0c0,.15-.17.21-.26.21s-.2-.05-.2-.16v0a8.66,8.66,0,0,0,0-.92,2.34,2.34,0,0,1-1.15.72s0,0,0,0,0,0,.07-.06a4,4,0,0,0,1-1.24,5.09,5.09,0,0,0-.67,0h0c-.09,0-.22-.19-.22-.25.44.05.68.06.93.07v-.17a2,2,0,0,0,0-.36.43.43,0,0,0,0-.05h0c.15,0,.59.07.59.18s0,.06-.1.09-.06,0-.08.32h.2a.12.12,0,0,0,.08,0c.11-.18.19-.29.24-.29S2.53,171.56,2.53,171.7Zm.07-.78s0,.06-.08.06H1.26a7.35,7.35,0,0,0-.87.05c-.06,0-.2-.2-.2-.25a9.61,9.61,0,0,0,1.08.07H1.4a2.92,2.92,0,0,0,.24-.9s0,0,0,0,.6.21.6.33,0,.07-.12.07h0c-.07,0-.06,0-.1.06s-.28.32-.46.49h.33a.07.07,0,0,0,.05,0s.2-.31.27-.31S2.6,170.84,2.6,170.92Zm-.13-1.16s0,.06-.1.06H1.3a5.9,5.9,0,0,0-.74.05h0c-.09,0-.21-.19-.21-.25a6.36,6.36,0,0,0,.83.07c0-.08,0-.18,0-.21a1.8,1.8,0,0,0,0-.46v0s0,0,0,0,.66.08.66.2,0,.07-.15.11,0,0,0,.42h.12a.08.08,0,0,0,.07,0c.15-.24.2-.29.25-.29S2.47,169.63,2.47,169.76Zm-1.16.66a.26.26,0,0,1-.25.26.25.25,0,0,1-.23-.21,2.05,2.05,0,0,0-.18-.41L.6,170h0C.89,170,1.31,170.12,1.31,170.42Zm3.49.29s0,.06-.11.06H4.11s0,0,0,0,0,.06-.09.07-.07,0-.07.52,0,1.43,0,1.86H4c0,.1-.16.17-.31.17s-.21,0-.21-.15h0c0-.33,0-1.39,0-1.91a3.76,3.76,0,0,0,0-.61H3.15v.14a2.44,2.44,0,0,1-1.27,2.45.43.43,0,0,1-.17.06h0s0,0,.1-.09a3,3,0,0,0,.9-2.4,6,6,0,0,0-.1-1.51v0h0a3.91,3.91,0,0,1,.63.2,2.39,2.39,0,0,0,.58-.55s0-.05,0-.05.53.35.53.49,0,.05-.09.05H4.11a6.19,6.19,0,0,1-.87.21c-.08,0-.09.05-.09.18v.74H4l0,0c.21-.33.26-.35.3-.35h0A1.09,1.09,0,0,1,4.8,170.71Z"/><path class="cls-1" d="M3.37,175.19s0,.08-.1.11-.06,0-.07.08,0,.33,0,.75h.5s.07,0,.08-.06.14-.21.2-.21.52.24.52.37,0,.08-.15.13-.06.09-.06.45c0,.65,0,1.84.07,2.27h0c0,.17-.19.24-.31.24s-.24-.06-.24-.2v-.22H1.1v.24h0c0,.15-.16.24-.3.24a.22.22,0,0,1-.24-.22v0c0-.57.06-1.81.06-2.36v-.15a5.86,5.86,0,0,0-.06-.76.08.08,0,0,1,0,0s0,0,0,0a2.84,2.84,0,0,1,.62.26s0,0,0,0h.43c0-.55,0-1,0-1.09a.08.08,0,0,1,0,0h0a3.79,3.79,0,0,1,.65.13s.07,0,.07.07,0,.08-.11.11a.08.08,0,0,0-.06.08s0,.33,0,.75h.53a8.5,8.5,0,0,0,0-1.08.43.43,0,0,0,0-.05h0s.53.09.65.13S3.37,175.17,3.37,175.19Zm-1.69,2.2c0-.37,0-.77,0-1.13H1.23l-.08.06c-.06,0-.06,0-.06,1.07Zm-.59.13c0,.43,0,.91,0,1.26h.57c0-.19,0-.69,0-1.26Zm1.62-.13c0-.37,0-.77,0-1.13H2.15v1.13Zm-.56.13v1.26h.56v-1.26Zm1.65-.13c0-.45,0-.85,0-1s0-.08-.09-.08H3.18v1.13Zm-.62.13v1.26H3.8v-1.26Z"/><path class="cls-1" d="M2.27,183.88c-.34.22-.46.44-.46.61s.25.39.58.39a1.21,1.21,0,0,0,.53-.13.36.36,0,0,1,.19-.05.25.25,0,0,1,.27.23c0,.26-.46.42-.85.42-.55,0-1-.32-1-.74s.21-.63.76-1v-.09c0-.11,0-.63-.29-.63-.09,0-.19.06-.33.22-.32.61-.42.8-.6.8s-.2,0-.2-.22a.59.59,0,0,1,.24-.44,2.56,2.56,0,0,0,.78-1.07.76.76,0,0,1-.21,0,.61.61,0,0,1-.64-.55s0,0,0,0a.35.35,0,0,1,.14.07.67.67,0,0,0,.41.12,1.4,1.4,0,0,0,.42-.07v-.1a.22.22,0,0,0-.17-.25c-.07,0-.13,0-.13-.06A.35.35,0,0,1,2,181.2a.31.31,0,0,1,.32.34l.18,0,.14,0c.15,0,.17.1.17.15,0,.3-.63.52-.68.53-.15.33-.24.51-.33.68a.69.69,0,0,1,.24-.05c.26,0,.45.2.52.52.26-.7.67-1.06,1.1-1.06s.62.19.62.45-.19.41-.55.53-.78.28-1.11.44a2.71,2.71,0,0,1,0,.41c0,.46-.25.51-.32.51s-.2-.08-.2-.29c0,0,0,0,0-.07s.08-.2.09-.32Zm1.56-1.24a.23.23,0,0,0-.25-.21c-.38,0-.77.56-1,1C3.6,183,3.83,182.83,3.83,182.64Z"/><path class="cls-1" d="M4.9,190.85s-.5.13-.65.23a.39.39,0,0,1-.14.06,1.87,1.87,0,0,1-.82-.87,2.86,2.86,0,0,1-1.3.94.29.29,0,0,1-.28.15.2.2,0,0,1-.22-.21h0c0-.31,0-.84,0-1.41a7.63,7.63,0,0,1-.87.57s-.05.1-.1.1-.42-.5-.42-.54,0,0,.07,0l.4-.07v-1.71a2,2,0,0,0,0-.49v0s0,0,0,0a3.28,3.28,0,0,1,.63.14.07.07,0,0,1,0,.07s0,.06-.1.1-.08.06-.09.18v1.66l.48-.14v-.94a10.94,10.94,0,0,0-.06-1.65v0s0,0,0,0,.71.14.71.26-.06.08-.12.11-.11.08-.11,1.21,0,2.38,0,2.63a3.4,3.4,0,0,0,1.09-1.22,7,7,0,0,1-.44-2.32l-.29,0h0c-.06,0-.2-.18-.2-.23a8.42,8.42,0,0,0,1.19.06h.36s.06,0,.08,0c.14-.17.16-.19.19-.19s.49.27.49.38,0,.07-.09.11-.1.05-.11.09a5.47,5.47,0,0,1-.7,2.12,2.42,2.42,0,0,0,1.31,1Zm-1.2-3.31H2.76a5,5,0,0,0,.55,1.91,5.15,5.15,0,0,0,.45-1.86S3.75,187.54,3.7,187.54Z"/><path class="cls-1" d="M3.6,193.72v-.45c0-.07,0-.08-.08-.08H3.35a7.55,7.55,0,0,0-.89.05h0c-.07,0-.19-.17-.19-.24a9.21,9.21,0,0,0,1.08.07h.16A.12.12,0,0,0,3.6,193c.12-.16.15-.2.18-.2s.5.22.5.35,0,.09-.15.14-.09.06-.09,1v.14H4.1a.07.07,0,0,0,.06,0c0-.1.16-.34.22-.34s.37.34.37.45,0,.06-.1.06H3.48c.23.07.24.09.24.11s0,0-.05.06a2.61,2.61,0,0,0,.21.73,3.24,3.24,0,0,0,.36-.6s0-.06,0-.06.48.36.48.46,0,.07-.1.07H4.6l0,0,0,0-.57.26a2.68,2.68,0,0,0,.91,1.07l0,0c0,.05-.39.05-.55.18s-.06,0-.09,0a.14.14,0,0,1-.11-.06,4.54,4.54,0,0,1-.53-2.07c-.07,0-.08.07-.08.5s0,.8,0,1.41v0a.54.54,0,0,1-.54.6c-.07,0-.11,0-.16-.11s-.45-.37-.45-.42h0a3.32,3.32,0,0,0,.43.05c.23,0,.23,0,.23-.9-.22.23-.53.53-.72.69,0,0,0,.12-.08.12s-.33-.27-.39-.35a10.78,10.78,0,0,1-1.26.74s-.05.1-.09.1-.43-.5-.43-.57,0,0,.08,0a7.81,7.81,0,0,0,.79-.15v-1.29a3.39,3.39,0,0,0-.58.05h0c-.06,0-.19-.16-.19-.24a5.05,5.05,0,0,0,.77.07c0-.14,0-.55,0-.63l-.22,0h0s0,0-.07,0a2.16,2.16,0,0,1-.64.54h0a.2.2,0,0,1,.05-.09,5.16,5.16,0,0,0,.88-2s0-.08,0-.08.65.23.65.34,0,.06-.19.12c.21.07.63.25.63.56a.25.25,0,0,1-.24.27H1.81s.18.18.18.25,0,.07-.09.07H1.5c.05,0,.08.05.08.08s0,.06-.08.08-.06,0-.08.47h0a.09.09,0,0,0,.05,0c.05-.1.18-.3.24-.3h0a.91.91,0,0,1,.36.38s0,.07-.09.07H1.42V196a3.61,3.61,0,0,0,.29-.62s0-.06,0-.06.5.29.5.39,0,.08-.12.08H2.05l0,0c-.16.1-.37.24-.59.36v.21l.68-.21.15,0h0l0,0c.25-.1.64-.28.88-.4,0-.55,0-1-.05-1.19-.23,0-.51,0-.85.05h0c-.09,0-.22-.19-.22-.25a10.27,10.27,0,0,0,1.23.07h.34l0-.57H3.33a6.85,6.85,0,0,0-.83,0h0c-.05,0-.19-.19-.19-.24a9.13,9.13,0,0,0,1,.07ZM1,196a.25.25,0,0,1-.23.26c-.09,0-.18-.06-.23-.21a1.85,1.85,0,0,0-.19-.48l0,0s0,0,0,0S1,195.65,1,196Zm.31-1.72h.05a.09.09,0,0,0,.06,0c.05-.1.17-.29.23-.29s0,0,0,0h0l0-.09a2.24,2.24,0,0,0-.23-.49,4.34,4.34,0,0,1-.54.86A2.34,2.34,0,0,0,1.27,194.28Zm1,.69,0,0s0,0,.07,0,.7.07.7.44a.24.24,0,0,1-.22.26.26.26,0,0,1-.24-.19A2.18,2.18,0,0,0,2.26,195Z"/><path class="cls-1" d="M2.44,202a.08.08,0,0,1-.08-.09c0-.18-.11-1.07-.21-1.71a5.18,5.18,0,0,1-.09-.73.42.42,0,0,1,.38-.44.4.4,0,0,1,.38.44,7.24,7.24,0,0,1-.09.73c-.09.62-.2,1.53-.21,1.71A.08.08,0,0,1,2.44,202Zm0,1.12a.37.37,0,1,1,.37-.37A.38.38,0,0,1,2.44,203.13Z"/></g></g></svg>