<svg xmlns="http://www.w3.org/2000/svg" viewBox="0 0 157.48 78.28"><defs><style>.cls-1{fill:#fff;}</style></defs><title>アセット 1</title><g id="レイヤー_2" data-name="レイヤー 2"><g id="デザイン"><path class="cls-1" d="M15.47,21.09A10.55,10.55,0,1,0,4.92,10.54,10.56,10.56,0,0,0,15.47,21.09m0-14.32a3.78,3.78,0,1,1-3.78,3.77,3.77,3.77,0,0,1,3.78-3.77"/><path class="cls-1" d="M15.47,46.42A10.55,10.55,0,1,0,4.92,35.87,10.56,10.56,0,0,0,15.47,46.42m0-14.32a3.78,3.78,0,1,1-3.78,3.77,3.77,3.77,0,0,1,3.78-3.77"/><path class="cls-1" d="M18.85,54.34a3.39,3.39,0,0,0-6.77,0V71.51H3.38a3.39,3.39,0,0,0,0,6.77H18.85Z"/><path class="cls-1" d="M57.18,19.75A29.27,29.27,0,1,0,86.45,49,29.29,29.29,0,0,0,57.18,19.75m0,51.76A22.5,22.5,0,1,1,79.69,49a22.53,22.53,0,0,1-22.51,22.5"/><path class="cls-1" d="M66.32,45.63H60.57V39.88a3.39,3.39,0,1,0-6.77,0v5.75H48.05a3.39,3.39,0,1,0,0,6.77H53.8v5.75a3.39,3.39,0,0,0,6.77,0V52.4h5.75a3.39,3.39,0,0,0,0-6.77"/><path class="cls-1" d="M33.65,20.64A3.39,3.39,0,0,0,37,17.26V3.83a3.39,3.39,0,0,0-6.77,0V17.26a3.39,3.39,0,0,0,3.38,3.38"/><path class="cls-1" d="M41.3,10.54a3.39,3.39,0,0,0,3.38,3.39H77.33a3.39,3.39,0,0,0,0-6.77H44.68a3.39,3.39,0,0,0-3.38,3.38"/><path class="cls-1" d="M157.48,26.93a26.94,26.94,0,1,0-29.71,26.79V75.09a2.77,2.77,0,0,0,2.78,2.77h23.13a2.77,2.77,0,0,0,0-5.54H133.32V65.87H141a2.78,2.78,0,0,0,0-5.55h-7.68v-6.6a27,27,0,0,0,24.16-26.79m-48.32,0A21.39,21.39,0,1,1,131,48.31a2.48,2.48,0,0,0-1,0,21.42,21.42,0,0,1-20.89-21.38"/><path class="cls-1" d="M130.55,30.86l7.2,7.2a2.77,2.77,0,0,0,3.92-3.92l-7.2-7.21,7.2-7.2a2.77,2.77,0,0,0-3.92-3.92l-7.2,7.2-7.21-7.2a2.77,2.77,0,1,0-3.92,3.92l7.2,7.2-7.2,7.21a2.77,2.77,0,0,0,3.92,3.92Z"/><path class="cls-1" d="M120.79,60.32H120a2.78,2.78,0,0,0,0,5.55h.75a2.78,2.78,0,1,0,0-5.55"/><path class="cls-1" d="M120.79,72.32H107.37a2.77,2.77,0,0,0,0,5.54h13.42a2.77,2.77,0,1,0,0-5.54"/></g></g></svg>