<?xml version="1.0" encoding="utf-8"?>
<!-- Generator: Adobe Illustrator 24.0.2, SVG Export Plug-In . SVG Version: 6.00 Build 0)  -->
<svg version="1.1" id="レイヤー_1" xmlns="http://www.w3.org/2000/svg" xmlns:xlink="http://www.w3.org/1999/xlink" x="0px"
	 y="0px" viewBox="0 0 212.5 10.8" style="enable-background:new 0 0 212.5 10.8;" xml:space="preserve">
<style type="text/css">
	.st0{fill:#FFFFFF;}
</style>
<title>アセット 2</title>
<g id="レイヤー_2_1_">
	<g id="デザイン">
		<path class="st0" d="M6.5,10.2c-0.8,0.5-1.7,0.7-2.6,0.7c-0.9,0-1.8-0.2-2.6-0.6C0.5,9.7,0,8.9,0,8h1.2c0.1,1.2,1,1.8,2.8,1.8
			c0.6,0,1.2-0.1,1.7-0.4C6.2,9,6.5,8.4,6.5,7.8c0-0.9-0.6-1.5-1.7-1.8L1.7,5.2C0.7,4.9,0,4,0,2.9C0,2,0.4,1.2,1.2,0.8
			c0.7-0.4,1.6-0.6,2.5-0.6c1.4,0,2.7,0.4,3.8,1.3L6.9,2.6C6,1.7,4.8,1.3,3.6,1.3C3,1.2,2.5,1.3,2,1.6C1.5,1.8,1.2,2.3,1.2,2.8
			c0,0.9,0.6,1.4,1.7,1.6l1.4,0.3C4.8,4.8,5.4,5,5.9,5.2C7,5.6,7.7,6.6,7.6,7.8C7.7,8.7,7.2,9.6,6.5,10.2"/>
		<polygon class="st0" points="14.6,2.8 16.1,2.8 16.1,3.9 14.6,3.9 14.6,10.6 13.5,10.6 13.5,3.9 11.9,3.9 11.9,2.8 13.5,2.8 
			13.5,0.8 14.6,0.8 		"/>
		<path class="st0" d="M25.2,2.8V4c-0.8,0.1-1.5,0.4-2.1,0.8c-0.3,0.2-0.6,0.4-0.9,0.7c0,0,0,1.7,0,5.2H21V2.8h1.1v1.3
			c0.4-0.4,0.9-0.7,1.4-0.9C24.1,3,24.6,2.8,25.2,2.8"/>
		<path class="st0" d="M30.3,9.6c-0.7-0.8-1-1.9-0.9-2.9c0-1,0.3-2,0.9-2.8C31,3.1,32,2.7,33,2.8c0.9-0.1,1.8,0.3,2.5,1
			c0.6,0.7,0.9,1.6,0.8,2.6V7h-4.7V5.9h3.5c0-0.5-0.2-1.1-0.6-1.5c-0.4-0.4-0.9-0.6-1.5-0.6c-0.7,0-1.4,0.3-1.9,0.8
			c-0.4,0.6-0.6,1.3-0.6,2c0,0.7,0.2,1.5,0.6,2.1c0.5,0.6,1.2,0.9,1.9,0.9c0.5,0,0.9-0.1,1.3-0.4C34.8,9,35,8.6,35.1,8.1h1.2
			c-0.1,0.8-0.4,1.4-1,1.9c-0.6,0.5-1.4,0.7-2.1,0.7C32,10.8,31,10.4,30.3,9.6"/>
		<path class="st0" d="M41.9,9.6c-0.7-0.8-1-1.9-0.9-2.9c0-1,0.3-2,0.9-2.8c0.7-0.8,1.6-1.2,2.6-1.1c0.9-0.1,1.8,0.3,2.5,1
			c0.6,0.7,0.9,1.6,0.8,2.6V7h-4.7V5.9h3.5c0-0.5-0.2-1.1-0.6-1.5c-0.4-0.4-0.9-0.6-1.5-0.6c-0.7,0-1.4,0.3-1.9,0.8
			c-0.4,0.6-0.7,1.3-0.6,2c0,0.7,0.2,1.5,0.7,2.1c0.5,0.6,1.2,0.9,1.9,0.9c0.5,0,0.9-0.1,1.3-0.4c0.4-0.3,0.6-0.7,0.7-1.1h1.2
			c-0.1,0.8-0.4,1.4-1,1.9c-0.6,0.5-1.4,0.7-2.1,0.7C43.6,10.8,42.6,10.4,41.9,9.6"/>
		<polygon class="st0" points="54.9,2.8 56.4,2.8 56.4,3.9 54.9,3.9 54.9,10.6 53.8,10.6 53.8,3.9 52.2,3.9 52.2,2.8 53.8,2.8 
			53.8,0.8 54.9,0.8 		"/>
		<path class="st0" d="M75.3,5.4c-0.7,0.6-1.4,1.2-2.1,1.8c-0.4,0.3-0.7,0.6-1.1,0.9c-0.3,0.3-0.6,0.7-0.7,1.2H76v1.1h-6
			c0-1.1,0.4-2.2,1.3-3l2.6-2c0.8-0.6,1.3-1.5,1.4-2.4c0-0.5-0.2-1-0.6-1.3c-0.4-0.4-0.9-0.6-1.5-0.6c-1-0.1-1.9,0.6-2.1,1.6
			c0,0,0,0.1,0,0.1h-1.2c0-0.8,0.4-1.5,1.1-2C71.6,0.2,72.3,0,73.1,0c0.8,0,1.7,0.3,2.3,0.8c0.6,0.6,0.9,1.4,0.9,2.2
			C76.3,4,75.9,4.9,75.3,5.4"/>
		<path class="st0" d="M80.9,2.8H82v7.8h-1.1V2.8z M86.3,3.5c0.5,0.6,0.7,1.3,0.6,2.1v5h-1.2v-5c0-1.2-0.5-1.8-1.5-1.8
			c-0.6,0-1.3,0.2-1.8,0.6V3.3c0.5-0.4,1.2-0.6,1.9-0.6C85.1,2.7,85.8,3,86.3,3.5"/>
		<path class="st0" d="M93.4,4.6c-0.4,0.5-0.7,1.2-0.6,1.9c0,2,1.2,3,3.6,3h0.3V0.1h1.1v10.5c-0.5,0.1-1,0.1-1.4,0.1
			c-1.2,0.1-2.3-0.3-3.3-0.9c-0.9-0.8-1.4-1.9-1.3-3.1c0-1,0.3-1.9,0.9-2.7c0.6-0.7,1.6-1.1,2.5-1.1c0.3,0,0.7,0.1,1,0.1L96,4.1
			c-0.2-0.1-0.5-0.1-0.8-0.1C94.6,3.9,93.9,4.1,93.4,4.6"/>
		<path class="st0" d="M115.6,8.3c0-0.6-0.4-1-1.2-1.2l-1-0.3c-0.6-0.2-0.9-0.3-1.1-0.3c-1-0.5-1.4-1.7-0.9-2.7
			c0.1-0.3,0.4-0.6,0.6-0.8c0.6-0.3,1.2-0.5,1.8-0.5c1,0,1.9,0.3,2.7,0.8l-0.3,1.1c-0.7-0.6-1.5-0.9-2.4-0.9c-1.1,0-1.6,0.3-1.6,1.1
			c0,0.5,0.4,0.9,1.1,1.1c1.2,0.3,1.9,0.5,2.1,0.6c0.8,0.3,1.3,1,1.3,1.8c0,1.6-0.9,2.4-2.8,2.4c-0.7,0-1.4-0.2-2-0.6
			c-0.6-0.4-0.9-1.1-0.9-1.8h1.2c0.1,0.8,0.7,1.3,1.9,1.3S115.6,9.2,115.6,8.3"/>
		<path class="st0" d="M128.4,6.9c0.1,1-0.3,2-0.9,2.8c-0.7,0.7-1.7,1.1-2.7,1.1c-1,0.1-2-0.4-2.6-1.2c-0.6-0.8-0.9-1.8-0.8-2.8
			c-0.1-1,0.2-2,0.8-2.8c0.6-0.8,1.6-1.2,2.6-1.2c0.7,0,1.3,0.2,1.9,0.5v1.3c-0.4-0.5-1.1-0.7-1.7-0.7c-0.7,0-1.4,0.3-1.8,0.8
			c-0.4,0.6-0.6,1.3-0.6,2c0,0.7,0.2,1.4,0.5,2.1c0.4,0.6,1.1,1,1.8,0.9c1.6,0,2.4-0.9,2.4-2.8c0-0.7-0.1-1.4-0.5-2l1.2,0.1
			C128.2,5.5,128.4,6.2,128.4,6.9"/>
		<rect x="133.5" y="0.1" class="st0" width="1.1" height="10.5"/>
		<path class="st0" d="M146.8,6.9c0.1,1-0.3,2-0.9,2.8c-0.7,0.7-1.7,1.1-2.7,1.1c-1,0.1-2-0.4-2.6-1.2c-0.6-0.8-0.8-1.8-0.8-2.8
			c-0.1-1,0.2-2,0.9-2.8c1.2-1.3,3-1.5,4.5-0.6v1.3c-0.4-0.5-1.1-0.7-1.7-0.7c-0.7,0-1.4,0.3-1.9,0.8c-0.4,0.6-0.6,1.3-0.6,2
			c0,0.7,0.2,1.4,0.5,2.1c0.4,0.6,1.1,1,1.8,0.9c1.6,0,2.4-0.9,2.4-2.8c0-0.7-0.1-1.4-0.5-2l1.1,0.1C146.7,5.5,146.8,6.2,146.8,6.9"
			/>
		<path class="st0" d="M164.8,0.3l4.2,10.4h-1.3c-0.7-1.7-1-2.6-1.1-2.7h-3.4V6.9h3l-2-4.9l-3.4,8.7h-1.3l4.2-10.3L164.8,0.3z"/>
		<rect x="174" y="0.1" class="st0" width="1.1" height="10.5"/>
		<path class="st0" d="M185.9,3.8c0.6,0.7,1,1.6,0.9,2.6c0,2.9-1.7,4.3-5,4.2h-0.2h-0.3h-0.6V0.1h1.1v9.4c0.9,0.1,1.9-0.1,2.7-0.6
			c0.8-0.5,1.2-1.4,1.2-2.4c0-0.7-0.2-1.4-0.6-1.9c-0.5-0.5-1.1-0.7-1.8-0.7c-0.3,0-0.5,0.1-0.8,0.1V2.9
			C183.8,2.6,185.1,2.9,185.9,3.8"/>
		<path class="st0" d="M192.8,7.8c-0.1,1.2,0.4,1.7,1.4,1.7c0.6,0,1.1-0.2,1.5-0.6v1.2c-0.4,0.3-1,0.5-1.5,0.4
			c-1.7,0-2.5-0.9-2.5-2.7V2.8h1.1C192.8,5.7,192.8,7.3,192.8,7.8 M196.4,2.8h1.1v7.8h-1.1V2.8z"/>
		<path class="st0" d="M207.9,5.6v5h-1.2V5.7c0-1.2-0.5-1.8-1.4-1.8c-0.5,0-1,0.2-1.5,0.5v6.2h-1.1V2.4h1.1v0.9
			c0.4-0.3,1-0.5,1.5-0.5C207,2.8,207.9,3.8,207.9,5.6 M210.1,2.6c0.7,0,1.4,0.3,1.8,0.8c0.4,0.6,0.6,1.3,0.6,2v5.1h-1.1v-5
			c0-1.2-0.5-1.8-1.5-1.8c-0.6,0-1.1,0.2-1.6,0.5V3.2C208.8,2.9,209.4,2.7,210.1,2.6"/>
	</g>
</g>
</svg>
