<?xml version="1.0" encoding="utf-8"?>
<!-- Generator: Adobe Illustrator 24.0.2, SVG Export Plug-In . SVG Version: 6.00 Build 0)  -->
<svg version="1.1" id="レイヤー_1" xmlns="http://www.w3.org/2000/svg" xmlns:xlink="http://www.w3.org/1999/xlink" x="0px"
	 y="0px" viewBox="0 0 132.3 11.1" style="enable-background:new 0 0 132.3 11.1;" xml:space="preserve">
<style type="text/css">
	.st0{fill:#F5AA47;}
</style>
<title>アセット 1</title>
<g id="レイヤー_2_1_">
	<g id="レイアウト用">
		<path class="st0" d="M5.3,11c0,0-0.1,0.1-0.1,0.1H4.1C4,11.1,4,11.1,4,11c0-0.9,0.1-2.2,0.1-3.3c-1.2,0.4-2.5,0.9-3,1
			C1,8.7,0.8,8.9,0.7,8.9S0,7.7,0,7.7s0.1-0.1,0.2-0.1c0.5-0.1,1-0.2,1.5-0.3c0-0.9,0-2.4,0-3.7c0-0.9,0-1.7,0-2.3l-1,0.1
			c-0.1,0-0.2,0-0.2-0.6s0-0.6,0.2-0.6c0.8,0.1,1.7,0.1,2.6,0.1c1,0,2,0,3-0.1c0.1,0,0.1,0,0.1,0.6c0,0.2,0,0.4,0,0.5
			S6.2,1.4,6.2,1.4c-0.3,0-0.5,0-0.8-0.1c-0.1,0-0.1,0.1-0.2,0.1C5.1,1.6,5.1,1.9,5.1,4.5c0,1.1,0,3.2,0.1,4.9
			c0.8-0.5,1.6-1.3,2.1-2.1C7,6.7,6.8,5.9,6.6,5.1C6.5,5.3,6.5,5.5,6.4,5.7c0,0.1,0,0.2-0.1,0.2C6,5.8,5.7,5.6,5.4,5.4
			c0,0,0,0,0-0.1c0,0,0,0,0-0.1c1.1-1.4,1.1-1.7,1.1-2l-0.9,0c-0.1,0-0.1-0.1-0.1-0.1c0-0.1,0-0.3,0-0.5c0-0.6,0-0.6,0.2-0.6
			c0.9,0.1,1.2,0.1,2.1,0.1c0.5,0,1.3,0,1.3,0c0.2,0,0.2-0.1,0.3-0.1s0.8,0.6,0.8,0.7S10.1,2.9,10.1,3C9.9,3.1,9.9,3.3,9.8,3.4
			C9.6,4.8,9.2,6.1,8.6,7.4c0.8,1.1,1.8,1.9,3,2.4c0.1,0,0.1,0.1,0.1,0.1S11.6,10,11.5,10c-0.4,0.2-0.7,0.4-1.1,0.6
			c0,0-0.1,0.1-0.1,0.1c-0.1,0-0.1,0-0.1-0.1C9.3,10,8.5,9.3,8,8.4C7.4,9.3,6.7,10,5.9,10.5c0,0-0.1,0-0.1,0
			c-0.1-0.2-0.3-0.3-0.5-0.4L5.3,11z M4.1,3.4H3.4H2.7v1.1c0.2,0,0.5,0,0.7,0s0.5,0,0.8,0V3.4z M3.4,5.5c-0.2,0-0.5,0-0.7,0
			c0,0.5,0,1,0,1.5c0.6-0.2,1.1-0.3,1.4-0.4c0-0.4,0-0.7,0-1C3.9,5.5,3.6,5.5,3.4,5.5z M4.1,1.9c0-0.2,0-0.4,0-0.6H2.9
			c0,0,0,0-0.1,0C2.7,1.4,2.7,1.5,2.7,1.6c0,0.2,0,0.5,0,0.9h1.5L4.1,1.9z M7.4,3.2c0.1,0,0.1,0.1,0.1,0.2c0,0,0,0,0,0.1
			C7.4,3.6,7.4,3.7,7.4,3.9c0,0.1,0,0.1,0,0.2C7.5,4.8,7.7,5.5,8,6.2c0.4-1,0.6-2,0.8-3L7.4,3.2z"/>
		<path class="st0" d="M17.1,0.5c0-0.1,0.1-0.1,0.2-0.1c0.5,0,1.4,0.2,1.4,0.4s-0.3,0.3-0.4,0.5S18,2,17.9,2.4v0.1l0,0
			c0,0,0.1-0.1,0.1-0.1c0.4-0.5,0.8-1,1.4-1c0.6,0.1,1.1,0.5,1.2,1.1c0.1,1,0.3,1.4,0.4,2.7c0,0.1,0,0.3,0,0.4
			c0,4.2-4.3,5.5-4.4,5.5c-0.1,0-0.1,0-0.2-0.1c-0.3-0.2-0.5-0.3-0.8-0.4c-0.1,0-0.1-0.1-0.1-0.1s0.1-0.1,0.1-0.1
			c2.9-1,4.2-2.9,4.2-5c0-0.8-0.1-1.5-0.2-2.3c-0.1-0.4-0.2-0.7-0.5-0.7c-0.6,0-1.6,1.4-1.6,2.4c0,0.4,0.2,0.8,0.6,1
			c0,0,0.1,0.1,0.1,0.1S18,7,17.7,7c-0.8-0.3-1.3-1.1-1.3-1.9c0-0.1,0-0.1,0-0.2c0.1-1.5,0.6-3.3,0.6-4.2
			C17.1,0.6,17.1,0.6,17.1,0.5L17.1,0.5z"/>
		<path class="st0" d="M35.1,6.1C35.1,6.1,35.2,6.1,35.1,6.1c0.1,0.2,0.1,0.5,0.1,0.7s0,0.3,0,0.4c0,0,0,0.1-0.1,0.1
			c-1.5-0.1-2.4-0.1-3.2-0.1c0.8,1.6,2.4,2.6,4.2,2.7c0.1,0,0.2,0,0.2,0.1s0,0.1-0.1,0.1c-0.4,0.2-0.8,0.5-1.1,0.8
			c0,0.1-0.1,0.1-0.2,0.1C33.3,10.5,32,9.4,31.3,8c-0.5,1.5-1.7,2.6-3.2,3c0,0-0.1,0-0.1-0.1c-0.3-0.3-0.7-0.5-1.1-0.7l0,0
			c-0.2,0.3-0.3,0.4-0.4,0.4c-0.1,0-0.1,0-0.2-0.1c-0.3-0.2-0.7-0.3-1.1-0.4c-0.1,0-0.1-0.1-0.1-0.1s0-0.1,0.1-0.1
			c2-1.3,2.4-4,2.4-6.2c0-0.7,0-1.3-0.1-2c0,0,0-0.1,0-0.1s0-0.1,0.1-0.1h0.1C28.5,1.8,29,1.8,31,1.8h1.3c0.5,0,1.1,0,2.1-0.1
			c0.1,0,0.1,0,0.1,0.1V2c0,0.4,0,0.9,0,1.4c0,0.5,0,1,0.1,1.5c0,0,0,0,0,0.1c0,0.1-0.1,0.1-0.6,0.1S33.4,5,33.4,4.9s0-0.1,0-0.2
			c-0.5,0-1.4,0-2.4,0s-1.9,0-2.4,0c0,0.5-0.1,1-0.1,1.4c1.2,0,1.7,0,2.1,0c0-0.1,0-0.1,0-0.2V5.8c0-0.3,0-0.5-0.1-0.8
			c0,0,0,0,0-0.1c0-0.1,0-0.1,0.1-0.1S32,5,32,5.3c0,0.1-0.1,0.2-0.1,0.2c-0.1,0.2-0.2,0.4-0.2,0.6c0,0,0,0,0,0.1
			C32.5,6.1,33.4,6.1,35.1,6.1L35.1,6.1z M26.4,0.6c0-0.6,0-0.6,0.2-0.6c2.4,0.1,3,0.1,4.3,0.1s2.1,0,4.5-0.1c0.1,0,0.1,0.1,0.1,0.7
			c0,0.5,0,0.5-0.1,0.5c-1.9-0.1-2.9-0.1-3.9-0.1c-2.7,0-3,0-5,0.1C26.4,1.2,26.4,1.2,26.4,0.6z M28.3,7.2c-0.2,1.1-0.7,2.1-1.3,3
			c1.7-0.2,3.1-1.4,3.5-3C30,7.1,29.4,7.1,28.3,7.2z M31,2.8h-2.3c0,0,0,0.3,0,0.8c0.4,0,1.4,0,2.3,0s1.9,0,2.4,0c0-0.4,0-0.8,0-0.8
			s-0.8,0-1.9,0H31z"/>
		<path class="st0" d="M41.9,4.7c0,1-0.5,2.5-0.5,3.6c0,0.9,0.3,1.5,1.3,1.5c1.4-0.2,2.8-0.8,3.8-1.9c0.1-0.1,0.1-0.1,0.1-0.1
			s0,0.1,0.1,0.2c0,0.2,0.1,0.4,0.1,0.6c0,0.1,0,0.2,0,0.2c0,0.1-0.1,0.3-0.2,0.3c-1.1,1.1-2.4,1.7-3.9,1.9
			c-1.3,0.1-2.3-0.9-2.4-2.2c0-0.1,0-0.3,0-0.4c0-1.1,0.4-2.3,0.4-3.4c0-0.5-0.1-1-0.3-1.4c-0.1-0.2-0.2-0.4-0.2-0.6
			c0-0.5,0.5-0.6,0.9-0.8c0.1,0,0.1,0,0.1-0.1s0,0-0.1-0.1c-0.3-0.3-0.6-0.7-0.8-1.1c0,0,0,0,0,0c0.2-0.2,0.4-0.4,0.6-0.6
			c0,0,0.1,0,0.1,0c0.4,0.6,1.1,1.1,1.8,1.3c0.1,0,0.2,0.1,0.2,0.2c0,0.3-0.3,1.1-0.5,1.1S42.3,3,42.2,3c-0.2,0-0.3,0-0.5,0
			C41.3,3,41,3.1,41,3.3c0,0.1,0.1,0.2,0.2,0.3C41.8,4.2,41.9,4.2,41.9,4.7L41.9,4.7z"/>
		<path class="st0" d="M58.6,3.2C58.6,3.2,58.6,3.3,58.6,3.2c-0.7,0.1-1.3,0.3-1.8,0.7c-1.1,0.9-1.8,2.2-1.9,3.6
			c0,1.2,0.8,2.2,2.6,2.2c0.3,0,0.3,0,0.3,0.1c0,0,0,0.1-0.1,0.1c-0.2,0.3-0.5,0.7-0.7,1c0,0.1-0.1,0.1-0.2,0.1
			c-1.7-0.1-3.1-1.5-3-3.3c0,0,0,0,0,0c0.1-1.5,0.7-3,1.8-4c0,0,0,0,0-0.1h0c-2.2,0.7-3.2,1.5-3.9,1.5c-0.5,0-0.6-0.3-0.7-0.3
			c-0.1-0.4-0.2-0.8-0.2-1.3c0-0.1,0-0.1,0.1-0.1H51c0.3,0.2,0.6,0.3,0.9,0.3c0.6,0,1.4-0.4,3.8-1.2c0.9-0.3,1.8-0.5,2.7-0.6
			C58.5,2,58.6,3,58.6,3.2z"/>
		<path class="st0" d="M69.6,6.9c0-0.1,0-0.1,0-0.2c0-0.2,0-0.3-0.1-0.5c0,0,0,0,0-0.1c0-0.2,0.9-0.8,0.9-0.8c0.1,0,0.1,0,0.1,0.1
			c0.2,0.3,0.2,0.6,0.2,0.9c0,0.3-0.1,0.7-0.2,1c0.3,0.2,0.6,0.3,0.9,0.5c0,0,0.1,0.1,0.1,0.1c0.1,0,0.2-0.1,0.2-0.1S72,7.9,72,8
			c0.3,0.4,0.5,0.6,0.9,1c0,0,0.1,0.1,0.1,0.2c-0.1,0.3-0.3,0.6-0.5,0.9c0,0-0.1,0.1-0.1,0.1c0,0-0.1,0-0.1-0.1
			c-0.6-0.6-1.4-1.2-2.1-1.6C69,10,67.2,11,65.4,11.1l0,0c-0.1,0-0.1-0.1-0.2-0.1c-0.2-0.2-0.3-0.3-0.5-0.5c0-0.1-0.1-0.1-0.1-0.1
			s0,0,0.1,0c1.8,0,3.4-0.8,4.4-2.2c-0.9-0.4-1.9-0.6-2.9-0.7c-1.2,1.9-1.7,2.2-2.4,2.2c-0.7,0-1.2-0.5-1.2-1.1c0,0,0,0,0-0.1
			c0-0.8,0.9-1.8,3.1-2c0.9-1.3,2-3.7,2-3.7s0,0,0,0c0,0-0.1,0-0.1,0c-0.3,0.2-0.6,0.3-1,0.4C66.1,3.2,66,3,66,3
			c-0.1-0.3-0.2-0.6-0.2-0.9c0-0.1,0-0.2,0.1-0.2H66c0.2,0.1,0.5,0.2,0.7,0.2c0.6,0,1.2-0.2,1.7-0.5h0.1c0.2,0,0.9,0.6,0.9,0.8
			s-0.2,0.3-0.3,0.3c-0.9,1.2-1.7,2.4-2.4,3.7c1,0.1,1.9,0.2,2.8,0.6L69.6,6.9z M63.5,8.4c0,0.1,0.1,0.2,0.3,0.2
			c0.2,0,0.4-0.1,0.5-0.2c0.3-0.3,0.5-0.6,0.7-0.9C64.1,7.7,63.5,8.1,63.5,8.4L63.5,8.4z"/>
		<path class="st0" d="M85.4,11.1c-4.4-0.6-5-1.7-5-2.7V8.2V6.8C80.2,7,80,7.1,79.8,7.2c-0.4,0.3-0.8,0.4-1.3,0.5
			c-0.4,0-0.8-0.1-1.1-0.3c-0.1,0-0.2-0.2-0.2-0.3c-0.1-0.4-0.2-0.8-0.3-1.2c0-0.1,0-0.1,0.1-0.1c0,0,0.1,0,0.1,0.1
			c0.4,0.3,0.9,0.5,1.4,0.6c0.7-0.1,1.4-0.3,2-0.6c0-0.2-0.2-0.4-0.4-0.5c0,0-0.1-0.1-0.1-0.1c0-0.2,0.6-1,0.8-1
			c0,0,0.6,0.3,0.6,1.2c0.7-0.3,1.5-0.6,2.3-0.9c0.1-0.1,0.1-0.3,0.1-0.4c0-0.1,0-0.3-0.1-0.4c0,0,0-0.1,0-0.1
			c0-0.2,0.7-0.9,0.9-0.9h0.1C84.9,2.7,85,3,85,3.2c0,0.3-0.1,0.6-0.2,0.8c0.5-0.2,1-0.3,1.6-0.4c0.1,0,0.1-0.4,0.3-0.4
			c0,0,0.1,0,0.1,0c0.3,0.2,0.6,0.4,0.8,0.5c0.1,0,0.2,0.1,0.1,0.2c0,0.2-0.1,0.3-0.1,0.5c-0.1,0.2,0,0.3-0.3,0.3H87
			c-0.9,0-1.7,0.2-2.5,0.4c-0.2,0.6-0.3,1.1-0.4,1.7c-0.2,0.8-0.6,1.2-1,1.2s-1.4-0.7-1.4-1v0c0-0.2,0-0.4-0.1-0.6V6.3
			c-0.1,0-0.1,0.1-0.2,0.1c0,0.6-0.1,0.9-0.1,1.2c0,1,0,1.2,1,1.7c1.2,0.4,2.5,0.5,3.7,0.5c0.1,0,0.1,0,0.1,0.1c0,0,0,0.1,0,0.1
			c-0.1,0.3-0.3,0.8-0.4,0.9S85.7,11,85.6,11L85.4,11.1z M81.7,6.3L81.7,6.3c0.3,0.3,0.7,0.8,1.1,0.8s0.4-0.2,0.7-1.6
			C82.9,5.7,82.3,6,81.7,6.3L81.7,6.3z"/>
		<path class="st0" d="M98,8c0-0.8-0.6-1.3-1.7-1.3c-1.2,0.1-2.4,0.7-3.1,1.7c-0.4,0.5-0.5,0.5-0.6,0.5s-1-0.4-1-0.6
			s1.9-1.7,1.9-1.7c1-0.9,1.9-2,2.7-3.1c0,0,0-0.1,0-0.1l0,0h-0.1c-0.7,0.3-1.4,0.5-2.1,0.7c-0.2,0-0.6,0-0.6-0.3
			c-0.1-0.3-0.2-0.7-0.2-1.1c0-0.1,0-0.2,0.1-0.2h0.1c0.2,0.2,0.5,0.3,0.8,0.3c0.8-0.1,1.6-0.3,2.3-0.7c0,0,0.1,0,0.1,0
			c0.2,0,1.3,0.6,1.3,0.8s-0.3,0.3-0.4,0.4c-0.9,1-1.6,1.7-2.2,2.4c0,0,0,0,0,0.1h0.1c0.4-0.1,0.8-0.2,1.2-0.2
			c1.3-0.1,2.5,0.8,2.6,2.2c0,0,0,0.1,0,0.1c-0.2,1.9-1.8,3.3-3.7,3.1c-1.1,0-2.2-0.5-2.2-1.5c0-0.8,0.6-1.4,1.4-1.4c0,0,0,0,0,0
			c0.7-0.1,1.3,0.5,1.4,1.2c0,0,0,0,0,0.1c0,0.2-0.1,0.4-0.1,0.6C97.1,10,97.9,9.1,98,8z M95.3,9.6c0-0.3-0.3-0.4-0.5-0.4
			s-0.4,0.2-0.4,0.4c0,0.4,0.5,0.5,0.6,0.6C95.1,10,95.3,9.8,95.3,9.6L95.3,9.6z"/>
		<path class="st0" d="M104.3,11.1c-0.2,0-1.1-0.2-1.1-0.4c0,0,0-0.1,0.1-0.1c0.7-0.8,1.4-1.6,2-2.5V7.6c0-0.1,0-0.2,0-0.2
			c0-0.1,0-0.1,0.1-0.2c0.2-0.1,0.3-0.4,0.5-0.6c0,0,0.1,0,0.1,0s0.1,0,0.1,0.1c0,0.2,0,0.3,0.1,0.5l0.9-1.4
			c-0.3,0.1-0.6,0.2-0.8,0.3c-0.4,0.2-0.8,0.2-1.2,0.3h-0.1c-0.1,0-0.2-0.1-0.2-0.2c-0.2-0.3-0.3-0.7-0.4-1.1c0,0,0-0.1,0.1-0.1h0.1
			c0.3,0.1,0.5,0.1,0.8,0.1c0.3,0,0.5,0,0.8-0.1c0.5-0.1,1.1-0.3,1.7-0.4l0.6-0.9c0,0,0-0.1,0-0.1c0,0,0-0.1-0.1-0.1
			c-0.1,0-0.1,0-0.2,0.1c-0.1,0.1-0.2,0.2-0.3,0.2l0,0c0,0,0,0-0.1,0c0-0.1,0-0.2-0.1-0.4c0,0,0-0.1,0-0.1c0,0,0-0.1,0-0.1
			c0.3-0.3,0.6-0.5,1-0.6c0.6,0,0.6,0.9,0.6,1.1c0,0.4-0.1,0.4-0.3,0.6l-0.2,0.3c0.7,0.3,0.9,1.3,0.9,2.3c0,1.9-0.8,3.7-2.2,3.7
			c-0.9,0-1.4-0.7-1.6-1.4C104.5,11.1,104.5,11.1,104.3,11.1L104.3,11.1z M106.2,8.3c0.3,0.7,0.7,1.1,1.1,1.1c0.6,0,1.1-1.1,1.1-2.7
			c0-0.7,0-1.2-0.5-1.2C107.3,6.5,106.7,7.4,106.2,8.3z M112.7,8.6c-0.1,0-0.1,0-0.1-0.1c-0.3-1.2-1.3-2.2-2.6-2.4
			c-0.1,0-0.1,0-0.1-0.1s0.4-0.7,0.6-0.7c1.4,0.3,2.6,1.2,3.2,2.5c0,0,0,0.1,0,0.1C113.7,8.1,112.9,8.6,112.7,8.6z"/>
		<path class="st0" d="M118.3,10.3c0,0-0.1-0.1-0.1-0.1c0,0,0-0.1,0.1-0.1h0.4c2.4,0,4.7-1.3,4.7-2.5c0-0.5-0.4-0.9-0.9-0.9
			c0,0,0,0-0.1,0c-0.6,0-1.5,0.5-2.8,1.9c-0.2,0.2-0.2,0.3-0.3,0.3s-0.1,0.1-0.2,0.2c-0.2,0.1-0.5,0.2-0.7,0.2
			c-0.2,0-0.7-0.6-0.7-1.6c0.1-1.1,0.3-2.1,0.7-3.1c0-0.1,0.1-0.2,0.1-0.4c0-0.2-0.1-0.4-0.2-0.6c0-0.1-0.1-0.2-0.1-0.3
			c0-0.7,0.8-0.8,1.2-1c0.1,0,0.1,0,0.1-0.1s0,0,0-0.1c-0.7-0.7-0.7-1-0.7-1c0,0,0,0,0-0.1c0.2-0.2,0.5-0.3,0.7-0.4c0,0,0.1,0,0.1,0
			c0.5,0.7,1.1,1.2,1.9,1.5c0.1,0,0.2,0.1,0.2,0.2c0,0-0.3,1-0.5,1s-0.2-0.1-0.3-0.1c-0.3-0.1-0.7-0.2-1-0.2c-0.4,0-0.7,0.1-0.7,0.3
			c0,0.1,0,0.1,0.1,0.2c0.2,0.2,0.3,0.5,0.3,0.7c0,0.2-0.1,0.4-0.1,0.6c-0.3,0.7-0.5,1.5-0.6,2.3c0,0.4,0.1,0.5,0.2,0.5s0,0,0.1-0.1
			c0.6-0.5,1.3-1.1,2-1.5c0.5-0.3,1-0.4,1.6-0.5c1.1-0.1,2,0.7,2.1,1.8c0,0,0,0.1,0,0.1c0,1.7-2.2,3.5-5.4,3.5c-0.4,0-0.5,0-0.5-0.2
			C118.6,10.7,118.5,10.5,118.3,10.3z"/>
		<path class="st0" d="M128.6,9c-0.1-1,0.6-1.9,1.6-2s1.9,0.6,2,1.6c0,0.1,0,0.3,0,0.4c0.1,1-0.6,1.9-1.6,2c-1,0.1-1.9-0.6-2-1.6
			C128.6,9.3,128.6,9.1,128.6,9z M131.5,9c0-0.6-0.5-1-1-1s-1,0.5-1,1s0.5,1,1,1S131.5,9.6,131.5,9z"/>
	</g>
</g>
</svg>
