<?xml version="1.0" encoding="utf-8"?>
<!-- Generator: Adobe Illustrator 24.0.2, SVG Export Plug-In . SVG Version: 6.00 Build 0)  -->
<svg version="1.1" id="レイヤー_1" xmlns="http://www.w3.org/2000/svg" xmlns:xlink="http://www.w3.org/1999/xlink" x="0px"
	 y="0px" viewBox="0 0 157.5 78.3" style="enable-background:new 0 0 157.5 78.3;" xml:space="preserve">
<style type="text/css">
	.st0{fill:#FFFFFF;}
</style>
<title>アセット 1</title>
<g id="レイヤー_2_1_">
	<g id="デザイン">
		<path class="st0" d="M21.2,19.2c5.3,0,9.6-4.3,9.6-9.6S26.5,0,21.2,0s-9.6,4.3-9.6,9.6l0,0C11.6,14.9,15.9,19.2,21.2,19.2
			 M21.2,6.2c1.9,0,3.4,1.5,3.4,3.4s-1.5,3.4-3.4,3.4c-1.9,0-3.4-1.5-3.4-3.4c0,0,0,0,0,0C17.7,7.7,19.3,6.2,21.2,6.2
			C21.2,6.2,21.2,6.2,21.2,6.2"/>
		<path class="st0" d="M21.2,42.3c5.3,0,9.6-4.3,9.6-9.6s-4.3-9.6-9.6-9.6s-9.6,4.3-9.6,9.6l0,0C11.6,38,15.9,42.3,21.2,42.3
			 M21.2,29.2c1.9,0,3.4,1.5,3.4,3.4c0,1.9-1.5,3.4-3.4,3.4c-1.9,0-3.4-1.5-3.4-3.4c0,0,0,0,0,0C17.7,30.8,19.3,29.2,21.2,29.2
			C21.2,29.2,21.2,29.2,21.2,29.2"/>
		<path class="st0" d="M24.2,49.5c-0.1-1.7-1.5-3-3.2-2.9c-1.6,0.1-2.8,1.3-2.9,2.9v15.6h-7.9c-1.7,0.1-3,1.5-2.9,3.2
			c0.1,1.6,1.3,2.8,2.9,2.9h14.1V49.5z"/>
		<path class="st0" d="M59.1,18c-14.7,0-26.6,11.9-26.6,26.6s11.9,26.6,26.6,26.6s26.6-11.9,26.6-26.6c0,0,0,0,0,0
			C85.7,29.9,73.8,18,59.1,18 M59.1,65.1c-11.3,0-20.5-9.2-20.5-20.5c0-11.3,9.2-20.5,20.5-20.5c11.3,0,20.5,9.2,20.5,20.5
			C79.6,55.9,70.4,65.1,59.1,65.1"/>
		<path class="st0" d="M67.4,41.5h-5.2v-5.2c0.1-1.7-1.2-3.2-2.9-3.2c-1.7-0.1-3.2,1.2-3.2,2.9c0,0.1,0,0.2,0,0.3v5.2h-5.2
			c-1.7-0.1-3.2,1.2-3.2,2.9c-0.1,1.7,1.2,3.2,2.9,3.2c0.1,0,0.2,0,0.3,0h5.2v5.2c0.1,1.7,1.5,3,3.2,2.9c1.6-0.1,2.8-1.3,2.9-2.9
			v-5.2h5.2c1.7-0.1,3-1.5,2.9-3.2C70.3,42.9,69,41.6,67.4,41.5"/>
		<path class="st0" d="M37.7,18.8c1.7,0,3-1.4,3-3.1V3.5c-0.1-1.7-1.5-3-3.2-2.9c-1.6,0.1-2.8,1.3-2.9,2.9v12.2
			C34.6,17.4,36,18.8,37.7,18.8"/>
		<path class="st0" d="M44.7,9.6c0,1.7,1.4,3.1,3.1,3.1h29.7c1.7-0.1,3-1.5,2.9-3.2c-0.1-1.6-1.3-2.8-2.9-2.9H47.8
			C46.1,6.5,44.7,7.9,44.7,9.6"/>
		<path class="st0" d="M150.4,24.5c0-13.5-11-24.5-24.5-24.5c-13.5,0-24.5,11-24.5,24.5c0,12.6,9.5,23.1,22,24.4v19.4
			c0,1.4,1.1,2.5,2.5,2.5c0,0,0,0,0,0h21c1.4,0,2.5-1.1,2.5-2.5c0-1.4-1.1-2.5-2.5-2.5l0,0h-18.5V60h7c1.4-0.1,2.5-1.3,2.4-2.7
			c-0.1-1.3-1.1-2.3-2.4-2.4h-7v-6C140.9,47.6,150.4,37.1,150.4,24.5 M106.4,24.5c0-10.8,8.7-19.5,19.5-19.5s19.5,8.7,19.5,19.5
			c0,10.6-8.5,19.2-19.1,19.5c-0.3-0.1-0.6-0.1-0.9,0C114.8,43.7,106.4,35.1,106.4,24.5"/>
		<path class="st0" d="M125.9,28.1l6.6,6.6c1,1,2.6,1,3.6,0c1-1,1-2.6,0-3.6l-6.6-6.6L136,18c1-1,1-2.6,0-3.6c-1-1-2.6-1-3.6,0
			l-6.6,6.6l-6.6-6.6c-1-1-2.6-1-3.6,0c-1,1-1,2.6,0,3.6l0,0l6.6,6.6l-6.6,6.6c-1,1-1,2.6,0,3.6c1,1,2.6,1,3.6,0L125.9,28.1z"/>
		<path class="st0" d="M117,54.9h-0.7c-1.4,0.1-2.5,1.3-2.4,2.7c0.1,1.3,1.1,2.3,2.4,2.4h0.7c1.4,0.1,2.6-1,2.7-2.4
			c0.1-1.4-1-2.6-2.4-2.7C117.2,54.9,117.1,54.9,117,54.9"/>
		<path class="st0" d="M117,65.8h-12.2c-1.4,0-2.5,1.1-2.5,2.5s1.1,2.5,2.5,2.5l0,0H117c1.4,0,2.5-1.1,2.5-2.5S118.4,65.8,117,65.8"
			/>
	</g>
</g>
<g>
	<path class="st0" d="M39.7,78c-0.3,0.2-0.6,0.3-1,0.3c-0.4,0-0.8-0.1-1-0.2c-0.3-0.2-0.5-0.5-0.5-0.9l0.5,0c0,0.5,0.4,0.7,1.1,0.7
		c0.3,0,0.5-0.1,0.7-0.2c0.2-0.1,0.3-0.3,0.3-0.6c0-0.4-0.2-0.6-0.7-0.7l-1.2-0.3c-0.4-0.2-0.6-0.5-0.6-0.9c0-0.4,0.2-0.6,0.5-0.8
		c0.3-0.2,0.6-0.2,1-0.2c0.6,0,1.1,0.2,1.5,0.5l-0.2,0.5c-0.4-0.4-0.8-0.5-1.3-0.5c-0.2,0-0.4,0-0.6,0.1c-0.2,0.1-0.3,0.3-0.3,0.5
		c0,0.3,0.2,0.6,0.7,0.6l0.5,0.1c0.2,0,0.4,0.1,0.6,0.2c0.5,0.2,0.7,0.5,0.7,1C40.2,77.5,40,77.8,39.7,78"/>
	<polygon class="st0" points="42.9,75.1 43.5,75.1 43.5,75.6 42.9,75.6 42.9,78.2 42.5,78.2 42.5,75.6 41.9,75.6 41.9,75.1 
		42.5,75.1 42.5,74.4 42.9,74.4 	"/>
	<path class="st0" d="M47.1,75.1l0,0.5c-0.2,0-0.5,0.1-0.8,0.3c-0.1,0.1-0.3,0.2-0.3,0.3c0,0,0,0.7,0,2h-0.4v-3.1h0.4v0.5
		c0.1-0.1,0.3-0.3,0.6-0.3C46.7,75.2,46.9,75.1,47.1,75.1"/>
	<path class="st0" d="M49.1,77.8c-0.2-0.3-0.4-0.7-0.4-1.1c0-0.4,0.1-0.8,0.4-1.1c0.3-0.3,0.6-0.4,1-0.4c0.4,0,0.7,0.1,1,0.4
		c0.2,0.2,0.3,0.6,0.3,1v0.2h-1.8v-0.4h1.4c0-0.2-0.1-0.4-0.2-0.6c-0.1-0.1-0.3-0.2-0.6-0.2c-0.3,0-0.6,0.1-0.7,0.3
		c-0.2,0.2-0.2,0.5-0.2,0.8c0,0.3,0.1,0.6,0.3,0.8c0.2,0.2,0.4,0.3,0.8,0.3c0.2,0,0.4-0.1,0.5-0.2c0.2-0.1,0.2-0.3,0.3-0.4l0.5,0
		c0,0.3-0.2,0.6-0.4,0.8c-0.2,0.2-0.5,0.3-0.8,0.3C49.7,78.3,49.3,78.1,49.1,77.8"/>
	<path class="st0" d="M53.6,77.8c-0.2-0.3-0.4-0.7-0.4-1.1c0-0.4,0.1-0.8,0.4-1.1c0.3-0.3,0.6-0.4,1-0.4c0.4,0,0.7,0.1,1,0.4
		c0.2,0.2,0.3,0.6,0.3,1v0.2h-1.8v-0.4h1.4c0-0.2-0.1-0.4-0.2-0.6c-0.1-0.1-0.3-0.2-0.6-0.2c-0.3,0-0.6,0.1-0.7,0.3
		c-0.2,0.2-0.2,0.5-0.2,0.8c0,0.3,0.1,0.6,0.3,0.8c0.2,0.2,0.4,0.3,0.8,0.3c0.2,0,0.4-0.1,0.5-0.2c0.2-0.1,0.2-0.3,0.3-0.4l0.5,0
		c0,0.3-0.2,0.6-0.4,0.8c-0.2,0.2-0.5,0.3-0.8,0.3C54.2,78.3,53.9,78.1,53.6,77.8"/>
	<polygon class="st0" points="58.7,75.1 59.3,75.1 59.3,75.6 58.7,75.6 58.7,78.2 58.3,78.2 58.3,75.6 57.6,75.6 57.6,75.1 
		58.3,75.1 58.3,74.4 58.7,74.4 	"/>
	<path class="st0" d="M66.6,76.2c-0.2,0.2-0.4,0.4-0.8,0.7c-0.2,0.2-0.4,0.3-0.4,0.3c-0.1,0.1-0.2,0.3-0.3,0.5h1.8v0.4h-2.3
		c0-0.4,0.1-0.8,0.5-1.2c0.5-0.4,0.8-0.6,1-0.8c0.4-0.3,0.5-0.6,0.5-1c0-0.2-0.1-0.4-0.2-0.5c-0.2-0.1-0.3-0.2-0.6-0.2
		c-0.5,0-0.7,0.2-0.8,0.6l-0.5,0c0-0.3,0.2-0.6,0.4-0.8c0.2-0.2,0.5-0.3,0.9-0.3c0.4,0,0.7,0.1,0.9,0.3c0.2,0.2,0.3,0.5,0.3,0.9
		C67,75.6,66.9,75.9,66.6,76.2"/>
	<path class="st0" d="M68.8,75.1h0.4v3.1h-0.4V75.1z M71,75.4c0.2,0.2,0.2,0.4,0.2,0.8v2h-0.4v-2c0-0.5-0.2-0.7-0.6-0.7
		c-0.2,0-0.5,0.1-0.7,0.2l0-0.4c0.2-0.2,0.5-0.2,0.7-0.2C70.5,75.1,70.8,75.2,71,75.4"/>
	<path class="st0" d="M73.7,75.8c-0.2,0.2-0.2,0.4-0.2,0.7c0,0.8,0.5,1.2,1.4,1.2H75v-3.7h0.4v4.1c-0.2,0-0.4,0-0.6,0
		c-0.6,0-1-0.1-1.3-0.4c-0.3-0.3-0.5-0.7-0.5-1.2c0-0.4,0.1-0.8,0.3-1c0.2-0.3,0.6-0.4,1-0.4c0.1,0,0.2,0,0.4,0l0,0.4
		c-0.1,0-0.2,0-0.3,0C74.1,75.6,73.9,75.7,73.7,75.8"/>
	<path class="st0" d="M82.4,77.3c0-0.2-0.2-0.4-0.5-0.5l-0.4-0.1c-0.2-0.1-0.4-0.1-0.4-0.1c-0.3-0.1-0.5-0.4-0.5-0.7
		c0-0.3,0.1-0.5,0.3-0.6c0.2-0.1,0.4-0.2,0.7-0.2c0.4,0,0.7,0.1,1.1,0.3l-0.1,0.4c-0.3-0.2-0.6-0.4-0.9-0.4c-0.4,0-0.6,0.1-0.6,0.4
		c0,0.2,0.1,0.3,0.4,0.4c0.5,0.1,0.7,0.2,0.8,0.2c0.3,0.1,0.5,0.4,0.5,0.7c0,0.6-0.4,0.9-1.1,0.9c-0.3,0-0.6-0.1-0.8-0.2
		c-0.2-0.2-0.3-0.4-0.4-0.7h0.5c0,0.3,0.3,0.5,0.7,0.5C82.2,77.8,82.4,77.6,82.4,77.3"/>
	<path class="st0" d="M87.4,76.7c0,0.5-0.1,0.8-0.4,1.1c-0.2,0.3-0.6,0.4-1,0.4c-0.4,0-0.8-0.2-1-0.5c-0.2-0.3-0.3-0.7-0.3-1.1
		c0-0.5,0.1-0.8,0.3-1.1c0.2-0.3,0.6-0.5,1-0.5c0.3,0,0.5,0.1,0.7,0.2v0.5c-0.2-0.2-0.4-0.3-0.7-0.3c-0.3,0-0.6,0.1-0.7,0.3
		c-0.2,0.2-0.2,0.5-0.2,0.8c0,0.3,0.1,0.6,0.2,0.8c0.2,0.2,0.4,0.4,0.7,0.4c0.6,0,0.9-0.4,0.9-1.1c0-0.3-0.1-0.5-0.2-0.8l0.4,0
		C87.3,76.2,87.4,76.5,87.4,76.7"/>
	<rect x="89.4" y="74.1" class="st0" width="0.4" height="4.1"/>
	<path class="st0" d="M94.6,76.7c0,0.5-0.1,0.8-0.4,1.1c-0.2,0.3-0.6,0.4-1,0.4c-0.4,0-0.8-0.2-1-0.5c-0.2-0.3-0.3-0.7-0.3-1.1
		c0-0.5,0.1-0.8,0.3-1.1c0.2-0.3,0.6-0.5,1-0.5c0.3,0,0.5,0.1,0.7,0.2v0.5c-0.2-0.2-0.4-0.3-0.7-0.3c-0.3,0-0.6,0.1-0.7,0.3
		c-0.2,0.2-0.2,0.5-0.2,0.8c0,0.3,0.1,0.6,0.2,0.8c0.2,0.2,0.4,0.4,0.7,0.4c0.6,0,0.9-0.4,0.9-1.1c0-0.3-0.1-0.5-0.2-0.8l0.4,0
		C94.6,76.2,94.6,76.5,94.6,76.7"/>
	<path class="st0" d="M101.6,74.2l1.7,4h-0.5c-0.3-0.7-0.4-1-0.4-1H101v-0.4h1.2l-0.8-1.9l-1.3,3.4h-0.5l1.6-4H101.6z"/>
	<rect x="105.2" y="74.1" class="st0" width="0.4" height="4.1"/>
	<path class="st0" d="M109.9,75.5c0.2,0.3,0.4,0.6,0.4,1c0,1.1-0.7,1.7-2,1.7h-0.1c0,0-0.1,0-0.1,0c-0.1,0-0.2,0-0.2,0v-4.1h0.4v3.7
		c0.5,0,0.8-0.1,1.1-0.2c0.3-0.2,0.5-0.5,0.5-0.9c0-0.3-0.1-0.6-0.2-0.7c-0.2-0.2-0.4-0.3-0.7-0.3c-0.1,0-0.2,0-0.3,0.1l0-0.4
		c0.1,0,0.3-0.1,0.3-0.1C109.3,75.1,109.7,75.3,109.9,75.5"/>
	<path class="st0" d="M112.6,77.1c0,0.5,0.2,0.7,0.6,0.7c0.2,0,0.4-0.1,0.6-0.2l0,0.5c-0.1,0.1-0.3,0.2-0.6,0.2c-0.7,0-1-0.4-1-1.1
		v-2h0.4C112.6,76.2,112.6,76.9,112.6,77.1 M114,75.1h0.4v3.1H114V75.1z"/>
	<path class="st0" d="M118.5,76.2v1.9H118v-1.9c0-0.5-0.2-0.7-0.6-0.7c-0.2,0-0.4,0.1-0.6,0.2v2.4h-0.4V75h0.4v0.3
		c0.2-0.1,0.4-0.2,0.6-0.2C118.1,75.1,118.5,75.5,118.5,76.2 M119.3,75.1c0.3,0,0.6,0.1,0.7,0.3c0.1,0.2,0.2,0.5,0.2,0.8v2h-0.4v-2
		c0-0.5-0.2-0.7-0.6-0.7c-0.2,0-0.4,0.1-0.6,0.2l0-0.4C118.9,75.2,119.1,75.1,119.3,75.1"/>
</g>
</svg>
