<svg xmlns="http://www.w3.org/2000/svg" viewBox="0 0 11.84 237.31"><defs><style>.cls-1{fill:#f5aa47;}</style></defs><title>アセット 1</title><g id="レイヤー_2" data-name="レイヤー 2"><g id="レイアウト用"><path class="cls-1" d="M4.14,6.72a6.31,6.31,0,0,1-1.9,2,.29.29,0,0,1-.11,0A.16.16,0,0,1,2,8.67a3,3,0,0,0-.81-.51.1.1,0,0,1,0-.09s0-.05.06-.07A4.09,4.09,0,0,0,3.33,5.64c0-.07,0-.08.08-.08s1.13.56,1.13.82c0,.1-.11.16-.25.23S4.18,6.68,4.14,6.72ZM6.57,8.57c0,.6-.52,1.26-1.76,1.3-.07,0-.13,0-.16-.16a4.68,4.68,0,0,0-.69-1s0,0,0-.07,0-.05.1-.05h.06a4.65,4.65,0,0,0,.66.07c.43,0,.68-.14.69-.54,0-.65,0-1.25,0-1.77,0-.74,0-1.35,0-1.81-.7,0-1.74.06-3,.18a.2.2,0,0,1-.19-.11A10.44,10.44,0,0,1,2,3.58c0-.05,0-.06.08-.06h0c.82,0,1.6.06,2.27.06H5.43a13.52,13.52,0,0,0-.16-2.21V1.3s0,0,.08,0a8.19,8.19,0,0,1,1.32.22c.1,0,.13.09.13.15A.94.94,0,0,1,6.64,2a1.84,1.84,0,0,0-.13.83c0,.21,0,.46,0,.72.83,0,2-.08,3.23-.2h0c.06,0,.08.06.08.11v0c0,.23-.06.79-.09,1s-.09.09-.13.09c-.8,0-1.58-.06-2.25-.06H6.49c0,1,0,2.87.08,4Zm3-.18s0,0-.06-.05a6.52,6.52,0,0,0-2.25-2,.1.1,0,0,1,0-.1.11.11,0,0,1,0-.07c.06-.09.54-.58.67-.58.28,0,2.52,1.43,2.52,1.94a.13.13,0,0,1,0,.1c-.09.13-.64.68-.73.76ZM9,2.73H9a.13.13,0,0,1-.11-.1A17.59,17.59,0,0,0,7.8,1a.17.17,0,0,1,0,0c0-.17.55-.44.63-.44A6.34,6.34,0,0,1,9.64,2.21C9.64,2.33,9.19,2.69,9,2.73ZM9.23.51a.08.08,0,0,1,0-.06c0-.12.13-.2.52-.44H9.8s0,0,.09.06a7.36,7.36,0,0,1,1.19,1.65c0,.15-.45.48-.59.52a.11.11,0,0,1-.07,0c-.05,0-.08,0-.1-.11C10.07,1.68,9.46.83,9.23.51Z"/><path class="cls-1" d="M1.65,24.11a.22.22,0,0,1-.2-.09c-.18-.29-.64-.4-.8-.55s-.08-.09-.08-.11.07-.09.18-.11C5.44,22.53,8,17.25,8,17s-.76-.2-1.59-.24a25.58,25.58,0,0,1-3.3,3.92.44.44,0,0,1-.24.09.13.13,0,0,1-.1,0,3.65,3.65,0,0,0-.88-.28.12.12,0,0,1-.1-.1.1.1,0,0,1,0-.07A16.41,16.41,0,0,0,6.2,14.66c0-.09,0-.12.1-.12l.1,0c.27.1,1.35.55,1.35.78s-.17.21-.34.3a1.43,1.43,0,0,0-.3.22c.49,0,.94.07,1.25.07a1.57,1.57,0,0,0,.38,0,.38.38,0,0,1,.18-.05c.09,0,.83.47.83.72s-.33.37-.43.58c-1.37,2.87-4,6.31-7.6,7Z"/><path class="cls-1" d="M2,37.55c-.18,0-1.09-.16-1.09-.39A.23.23,0,0,1,1,37a22.09,22.09,0,0,0,2-2.47L3,34.08a1.79,1.79,0,0,1,0-.24.29.29,0,0,1,0-.18c.16-.14.31-.41.48-.6l.06,0s.06.06.07.15a4.2,4.2,0,0,0,.05.51c.31-.46.62-.92.9-1.37-.32.1-.57.24-.81.32a3.15,3.15,0,0,1-1.17.27H2.44a.3.3,0,0,1-.23-.17,4.62,4.62,0,0,1-.37-1.06c0-.05,0-.06,0-.06h.06a3.72,3.72,0,0,0,.83.1,3.79,3.79,0,0,0,.75-.1c.5-.1,1.06-.26,1.72-.38l.55-.91a.21.21,0,0,0,0-.11s0-.07,0-.07a.44.44,0,0,0-.16.08l-.26.23h0s0,0-.05-.05,0-.24-.1-.37a.53.53,0,0,1,0-.13.12.12,0,0,1,0-.1,1.69,1.69,0,0,1,1-.56c.56,0,.59.9.59,1.1,0,.38-.13.35-.27.56l-.23.29c.73.28.85,1.3.85,2.32,0,1.94-.84,3.7-2.17,3.7-.91,0-1.35-.71-1.65-1.44-1.08,1.76-1.12,1.77-1.26,1.77Zm1.85-2.71C4.17,35.58,4.58,36,5,36c.64,0,1.16-1.1,1.16-2.65,0-.68,0-1.19-.5-1.19C5,33,4.44,33.94,3.89,34.84Zm6.57.26s-.09,0-.11-.1A3.37,3.37,0,0,0,7.8,32.58c-.09,0-.11,0-.11-.1s.39-.71.59-.71a4.37,4.37,0,0,1,3.16,2.53.58.58,0,0,1,0,.1C11.46,34.57,10.61,35.1,10.46,35.1ZM8.23,29.79a.15.15,0,0,1,0-.06.16.16,0,0,1,.06-.12,2.34,2.34,0,0,1,.47-.3h.08s.06,0,.1.06A6.93,6.93,0,0,1,10.06,31c0,.16-.46.55-.65.55s-.1,0-.13-.11A15.06,15.06,0,0,0,8.23,29.79Zm1.42-.46a.1.1,0,0,1,0-.07c0-.13.5-.41.51-.42l.1,0s0,0,.08.06a9.21,9.21,0,0,1,1.17,1.56.31.31,0,0,1,0,.08c0,.12-.52.54-.66.54s-.08,0-.1-.09A16.05,16.05,0,0,0,9.65,29.33Z"/><path class="cls-1" d="M7.39,48.35c.05,0,.07,0,.07,0a.05.05,0,0,0,0,0,6.9,6.9,0,0,1-.72-1.33,16.41,16.41,0,0,1-2.47.31c-.91,0-1.45-.36-1.45-1v0c0-.17.07-.13.18-.2A7.29,7.29,0,0,0,4,45.46l.93-.7a2.53,2.53,0,0,1-1.38-.51c-.17-.1-.24-.19-.24-.62a3.28,3.28,0,0,1,.06-.74s0-.06.06-.06a.26.26,0,0,1,.17.11,2.28,2.28,0,0,0,1.65.84h.23a16.79,16.79,0,0,1-.61-2.1s0-.18.72-.18c.47,0,.5,0,.5.28A6.66,6.66,0,0,0,6.4,43.7a5.22,5.22,0,0,0,1.46-.48.13.13,0,0,1,.08,0c.25,0,.38.88.38.89a.16.16,0,0,1-.1.17,7.94,7.94,0,0,1-1.51.42c.14.4.29.79.45,1.19l.57-.19c.11-.05.07-.57.22-.57l0,0a4.4,4.4,0,0,0,.73.19.29.29,0,0,1,.28.13,6,6,0,0,1,.1.67c0,.17-.15.28-1.53.64A7.83,7.83,0,0,0,9.11,49c.06.05.09.09.09.14a1.88,1.88,0,0,1-.71.64l-.11,0-.12,0a2.35,2.35,0,0,0-.81-.28,14.56,14.56,0,0,0-2.81-.43c-.67,0-.82.2-.82.4,0,.43.8,1.45,2.72,1.45a3.63,3.63,0,0,0,1.22-.19l.09,0s0,0,0,.05a.36.36,0,0,1,0,.11c-.1.27-.18.67-.26.91s-.25.38-.93.38c-2.29,0-3.9-1.55-3.9-2.73S4.19,48.2,4.93,48.2s1.75.12,2.42.15ZM5.83,44.89a4.84,4.84,0,0,0-1.47,1.22c0,.07.07.1.29.1A11,11,0,0,0,6.33,46c-.15-.39-.29-.79-.44-1.2Z"/><path class="cls-1" d="M6.05,62.06c1.83,0,3.35-.87,3.35-1.94,0-.88-1-.89-1.23-.89a4.11,4.11,0,0,0-2.44,1,8,8,0,0,1-.7.44.41.41,0,0,1-.16,0c-.26,0-.81-.7-.81-.92a.13.13,0,0,1,.13-.12,3.5,3.5,0,0,0,1-.4,6.07,6.07,0,0,1,3.07-1,2,2,0,0,1,2.18,1.9c0,1.62-1.8,2.81-3.92,2.81-.24,0-.42,0-.5-.19a2.55,2.55,0,0,0-.32-.41.37.37,0,0,1-.15-.23c0-.06.08-.1.22-.1Z"/><path class="cls-1" d="M5,74.61a6.7,6.7,0,0,0-2.24-3.13c-.07,0-.12-.1-.12-.15a.13.13,0,0,1,.05-.11c.09-.13.39-.37.5-.49s.1-.08.14-.08a6.39,6.39,0,0,1,2.55,3.12A26.27,26.27,0,0,1,9,71.14a.18.18,0,0,1,.13.06,2.89,2.89,0,0,1,.63,1c0,.14-.23.1-.37.19-1,.74-2.15,1.54-3.2,2.43a1.39,1.39,0,0,1,0,.23c0,.16,0,.2-.13.25a2.53,2.53,0,0,1-.68.19.16.16,0,0,1-.07.07,2,2,0,0,0-.81,1.27c0,.54.7,1.1,1.64,1.1a2.84,2.84,0,0,0,2.3-1.31s.06-.09.1-.09.06,0,.07.11a8.92,8.92,0,0,0,.23,1.1.59.59,0,0,1,.05.2A3.23,3.23,0,0,1,6.22,79,2.5,2.5,0,0,1,3.51,77a3.39,3.39,0,0,1,1.27-2.22Z"/><path class="cls-1" d="M10.45,84.83l0,0a13,13,0,0,0-2.23-2.08c-.05,0-.07-.06-.07-.1s.56-.74.64-.82.08-.05.12-.05a11.28,11.28,0,0,1,2.37,1.87.14.14,0,0,1,.06.11.3.3,0,0,1,0,.11,4.51,4.51,0,0,1-.72.93S10.49,84.83,10.45,84.83Z"/><path class="cls-1" d="M5.53,107.35a.1.1,0,0,1-.11.09,1.83,1.83,0,0,1-.35,0l-.72,0c-.09,0-.1,0-.1-.1,0-.89.08-2.15.09-3.35-1.2.43-2.54.89-3,1-.14,0-.26.19-.39.19S.22,104.05.22,104s.07-.07.15-.07a7.66,7.66,0,0,0,1.49-.29c0-.91,0-2.39,0-3.74,0-.89,0-1.72,0-2.27-.33,0-.68,0-1,.09-.13,0-.15,0-.15-.6s0-.61.15-.61a24.81,24.81,0,0,0,2.55.13,27.75,27.75,0,0,0,3-.13c.09,0,.13,0,.13.6,0,.19,0,.39,0,.52a.12.12,0,0,1-.11.09c-.26,0-.51-.05-.77-.06a1,1,0,0,0-.16.14c-.14.12-.14.47-.14,3.08,0,1.11,0,3.23.1,4.93a7.2,7.2,0,0,0,2.1-2.09,9.44,9.44,0,0,1-.73-2.22,3.44,3.44,0,0,0-.23.52c0,.1,0,.22-.09.22a2.38,2.38,0,0,1-.87-.48.05.05,0,0,1,0-.06.11.11,0,0,1,0-.06c1.09-1.39,1.11-1.7,1.11-2l-.89.06s-.14,0-.14-.13,0-.26,0-.47c0-.56,0-.6.15-.6A18.64,18.64,0,0,0,8,98.62c.49,0,1.32,0,1.32,0,.21,0,.24-.1.34-.1s.74.6.74.67-.06.09-.1.17a1,1,0,0,0-.21.47,12.93,12.93,0,0,1-1.28,3.92,7.05,7.05,0,0,0,3,2.45c.08,0,.11.06.11.1s-.06.06-.16.11a5.42,5.42,0,0,0-1.08.63.15.15,0,0,1-.11.06.26.26,0,0,1-.14-.06,8.24,8.24,0,0,1-2.21-2.25,6.89,6.89,0,0,1-2.09,2.15.12.12,0,0,1-.08,0,1.56,1.56,0,0,0-.47-.37ZM4.36,99.83c-.23,0-.57,0-.76,0s-.5,0-.71,0v1.07H4.36Zm-.76,2.08-.71,0c0,.55,0,1.06,0,1.47.55-.15,1.08-.32,1.45-.43,0-.37,0-.72,0-1Zm.76-3.64a5.11,5.11,0,0,0,0-.62c-.34,0-.6,0-.7,0H3.09s0,0-.07.05a.27.27,0,0,0-.11.26c0,.19,0,.5,0,.85.21,0,.53,0,.7,0s.52,0,.76,0Zm3.26,1.35a.16.16,0,0,1,.1.16.15.15,0,0,1,0,.06,1.09,1.09,0,0,0-.1.46,1.21,1.21,0,0,0,0,.18,7.67,7.67,0,0,0,.55,2.14,11.94,11.94,0,0,0,.79-3Z"/><path class="cls-1" d="M4.39,110.57c0-.08.06-.12.15-.12.49,0,1.34.24,1.34.39s-.32.3-.38.53-.23.69-.34,1.06a.87.87,0,0,0,0,.13v0a1,1,0,0,0,.13-.14c.41-.46.81-1,1.37-1a1.39,1.39,0,0,1,1.28,1.08c.12,1,.31,1.42.4,2.7,0,.14,0,.28,0,.43,0,4.15-4.29,5.47-4.36,5.47a.31.31,0,0,1-.16-.07,3.33,3.33,0,0,0-.82-.37c-.09,0-.12-.07-.12-.11s.07-.08.14-.1c2.92-1,4.15-3,4.15-5a13.55,13.55,0,0,0-.22-2.29c-.08-.37-.24-.67-.53-.67-.6,0-1.58,1.4-1.58,2.42a1,1,0,0,0,.61,1,.13.13,0,0,1,.07.12c0,.14-.27,1.06-.5,1.06a2,2,0,0,1-1.25-1.88,1.48,1.48,0,0,1,0-.21c.13-1.49.64-3.33.64-4.21,0-.06,0-.13,0-.18Z"/><path class="cls-1" d="M10,130c.06,0,.07,0,.08.1s0,.37,0,.6,0,.32,0,.4,0,.07-.09.07c-1.53-.09-2.41-.1-3.18-.11A4.9,4.9,0,0,0,11,133.69c.1,0,.14,0,.14.08s0,.09-.12.14a3.48,3.48,0,0,0-1.09.83.18.18,0,0,1-.16.1A5.54,5.54,0,0,1,6.21,132,4.74,4.74,0,0,1,3,135a.14.14,0,0,1-.11-.06,4.91,4.91,0,0,0-1.08-.69h0c-.18.24-.35.42-.45.42a.29.29,0,0,1-.16-.09,4.75,4.75,0,0,0-1.07-.41c-.07,0-.09,0-.09-.08s0-.05.08-.08c2-1.33,2.43-4,2.43-6.15a16.73,16.73,0,0,0-.13-2,.2.2,0,0,0,0-.07c0-.07,0-.08.1-.08h.06c.93.06,1.36.09,3.41.09H7.18c.54,0,1.14,0,2.14-.08.08,0,.14,0,.14.12v0c0,.41-.06.91-.06,1.4a10.44,10.44,0,0,0,.09,1.51s0,.05,0,.07-.08.12-.6.12-.58-.06-.58-.17,0-.13,0-.21l-2.37,0-2.38,0A8.92,8.92,0,0,1,3.44,130c1.15,0,1.67.05,2.12.05a.5.5,0,0,0,0-.17v-.2a3.26,3.26,0,0,0-.1-.77.22.22,0,0,1,0-.08c0-.05,0-.06.11-.06s1.37.1,1.37.38a.33.33,0,0,1-.13.22c-.13.1-.19.52-.19.59s0,.06,0,.08c.8,0,1.69,0,3.4-.1Zm-8.66-5.42c0-.6,0-.63.16-.63,2.42.13,3,.13,4.35.13s2.11,0,4.47-.13c.13,0,.14,0,.14.72,0,.46,0,.52-.13.52-1.91-.1-2.85-.11-3.86-.11-2.68,0-3,0-5,.11C1.39,125.16,1.38,125.14,1.38,124.55Zm1.83,6.55a8.52,8.52,0,0,1-1.31,3,4.21,4.21,0,0,0,3.53-3C5,131,4.38,131,3.21,131.1Zm2.73-4.33-2.35,0s0,.28,0,.77c.45,0,1.37,0,2.34,0s1.94,0,2.41,0c0-.4,0-.77,0-.77s-.75,0-1.92,0Z"/><path class="cls-1" d="M5,142.23c0,1-.5,2.46-.5,3.59,0,1,.36,1.5,1.31,1.5a6,6,0,0,0,3.76-1.88.29.29,0,0,1,.13-.09s0,.08.06.17a1.79,1.79,0,0,0,.14.6.85.85,0,0,1,0,.24.45.45,0,0,1-.17.33,6.46,6.46,0,0,1-4,1.88A2.3,2.3,0,0,1,3.46,146c0-1.09.36-2.3.36-3.37a2.84,2.84,0,0,0-.31-1.39,1.16,1.16,0,0,1-.18-.56c0-.45.47-.61.89-.75.07,0,.11,0,.11-.07s0-.05-.06-.09a5.85,5.85,0,0,1-.85-1.12.11.11,0,0,1,0,0A2.07,2.07,0,0,1,4,138a.1.1,0,0,1,.09.05,3.45,3.45,0,0,0,1.8,1.28c.14,0,.17.07.17.18,0,.3-.32,1.11-.46,1.11s-.16-.07-.26-.09a2.31,2.31,0,0,0-.61-.08c-.34,0-.64.08-.64.28a.46.46,0,0,0,.15.28c.62.68.74.6.76,1.16Z"/><path class="cls-1" d="M9.76,154.17c0,.05,0,.09-.06.09a2.43,2.43,0,0,0-1.71.58,5,5,0,0,0-1.92,3.64c0,1.24.77,2.22,2.57,2.22.25,0,.31,0,.31.06a.24.24,0,0,1-.06.13,12.32,12.32,0,0,0-.69,1A.15.15,0,0,1,8,162a3.14,3.14,0,0,1-3-3.26,5.83,5.83,0,0,1,1.8-4s0-.05,0-.06,0,0,0,0a.06.06,0,0,0,0,0c-2.19.72-3.22,1.5-3.95,1.5-.53,0-.64-.28-.67-.33S2,154.75,2,154.63s0-.12.07-.12l.08,0a2,2,0,0,0,.93.29c.64,0,1.43-.42,3.76-1.2a11.2,11.2,0,0,1,2.73-.71c.14,0,.17,1,.17,1.2Z"/><path class="cls-1" d="M7.88,171.68a.86.86,0,0,0,0-.16,1,1,0,0,0-.12-.5.17.17,0,0,1,0-.07c0-.16.87-.75.94-.75a.2.2,0,0,1,.15.09,1.92,1.92,0,0,1,.24.93,2.9,2.9,0,0,1-.21,1,9.33,9.33,0,0,1,.88.48.22.22,0,0,0,.14,0c.11,0,.16-.08.24-.08s.08,0,.14.1c.33.44.53.65.85,1a.23.23,0,0,1,.08.17,2.54,2.54,0,0,1-.52.88.17.17,0,0,1-.12.07.14.14,0,0,1-.11-.05,9.48,9.48,0,0,0-2.12-1.59,6,6,0,0,1-4.7,2.55h0a.23.23,0,0,1-.18-.14,4,4,0,0,0-.51-.5s-.08-.09-.08-.11,0,0,.09,0a5.43,5.43,0,0,0,4.45-2.22,8.3,8.3,0,0,0-2.95-.65C3.27,174,2.79,174.42,2,174.42a1.18,1.18,0,0,1-1.21-1.14c0-.83.94-1.82,3.12-2,.85-1.35,2-3.65,2-3.66s0,0,0,0a.13.13,0,0,0-.08,0,2.18,2.18,0,0,1-1,.39c-.48,0-.56-.18-.59-.26a3.63,3.63,0,0,1-.18-.88c0-.11,0-.2.1-.2l.08,0a1.6,1.6,0,0,0,.73.21,5.18,5.18,0,0,0,1.73-.45l.09,0c.18,0,.92.58.92.77s-.23.26-.3.34A33.87,33.87,0,0,0,5,171.26a10.1,10.1,0,0,1,2.82.57ZM1.77,173.2c0,.14.12.23.3.23a.73.73,0,0,0,.49-.24,9.78,9.78,0,0,0,.72-.92C2.39,172.45,1.77,172.87,1.77,173.2Z"/><path class="cls-1" d="M8.88,189.16c-4.39-.58-5-1.74-5-2.75v-.15L4,185c-.23.11-.45.24-.65.34a2.76,2.76,0,0,1-1.32.46,3,3,0,0,1-1.12-.33.41.41,0,0,1-.24-.28A5.89,5.89,0,0,1,.33,184a.1.1,0,0,1,.09-.11.27.27,0,0,1,.13,0,2.88,2.88,0,0,0,1.41.58,6.44,6.44,0,0,0,2-.61c-.05-.28-.18-.36-.39-.51a.19.19,0,0,1-.07-.13c0-.16.61-1,.82-1a1.28,1.28,0,0,1,.62,1.23c.67-.28,1.47-.62,2.26-.91a1.23,1.23,0,0,0,.09-.44.84.84,0,0,0-.11-.41.22.22,0,0,1,0-.13c0-.17.72-.92.92-.92h.07a.8.8,0,0,1,.32.69,3,3,0,0,1-.17.83,11.77,11.77,0,0,1,1.58-.42c.13,0,.12-.45.28-.45a.12.12,0,0,1,.09,0c.3.18.55.42.82.55a.22.22,0,0,1,.15.22,2.4,2.4,0,0,1-.12.49c0,.16,0,.27-.29.27h-.3a8.89,8.89,0,0,0-2.52.41,14.1,14.1,0,0,0-.43,1.7c-.18.82-.55,1.2-1,1.2s-1.37-.66-1.37-1v0a3.28,3.28,0,0,0-.08-.62l0-.09c-.07,0-.14.08-.21.1,0,.64-.06.86-.06,1.16,0,1,0,1.24,1,1.67a11.86,11.86,0,0,0,3.73.48c.1,0,.14,0,.14.07a.28.28,0,0,1,0,.12c-.11.26-.34.76-.39.9s-.11.26-.24.26Zm-3.74-4.81a0,0,0,0,0,0,0c.26.26.72.85,1.08.85s.37-.17.69-1.61C6.31,183.84,5.7,184.09,5.14,184.35Z"/><path class="cls-1" d="M8.17,200c0-.79-.62-1.34-1.69-1.34a4.25,4.25,0,0,0-3.13,1.66c-.42.47-.47.5-.56.5s-1-.37-1-.59,1.87-1.66,1.91-1.68a18.93,18.93,0,0,0,2.72-3.1.27.27,0,0,0,0-.08H6.39a8.31,8.31,0,0,1-2.08.67c-.16,0-.57,0-.64-.31a7.62,7.62,0,0,1-.21-1.06c0-.09,0-.16.07-.16a.26.26,0,0,1,.1,0,1.39,1.39,0,0,0,.82.33,5.9,5.9,0,0,0,2.3-.7.13.13,0,0,1,.09,0c.17,0,1.27.58,1.27.83s-.26.34-.35.44c-.86,1-1.58,1.71-2.22,2.43a.08.08,0,0,0,0,.06h.1a3.75,3.75,0,0,1,1.16-.18A2.38,2.38,0,0,1,9.37,200a3.46,3.46,0,0,1-3.69,3.13c-1.15,0-2.23-.47-2.23-1.48a1.37,1.37,0,0,1,1.4-1.35,1.28,1.28,0,0,1,1.41,1.22,1.38,1.38,0,0,1-.13.59A2.24,2.24,0,0,0,8.17,200Zm-2.79,1.57c0-.31-.3-.41-.54-.41a.4.4,0,0,0-.45.37c0,.38.49.52.61.56A.55.55,0,0,0,5.38,201.57Z"/><path class="cls-1" d="M2,216.65c-.18,0-1.09-.17-1.09-.4a.17.17,0,0,1,.06-.11,23.26,23.26,0,0,0,2-2.48L3,213.18a2.11,2.11,0,0,1,0-.25.26.26,0,0,1,0-.17c.16-.15.31-.41.48-.6l.06,0s.06,0,.07.14a4,4,0,0,0,.05.51c.31-.46.62-.92.9-1.37-.32.11-.57.25-.81.32a3.15,3.15,0,0,1-1.17.27H2.44a.28.28,0,0,1-.23-.17,4.72,4.72,0,0,1-.37-1c0-.06,0-.07,0-.07h.06a3.72,3.72,0,0,0,.83.1,3.17,3.17,0,0,0,.75-.1c.5-.09,1.06-.25,1.72-.38l.55-.91a.21.21,0,0,0,0-.11s0-.07,0-.07a.44.44,0,0,0-.16.08l-.26.23h0s0,0-.05-.05,0-.24-.1-.37a.49.49,0,0,1,0-.13.13.13,0,0,1,0-.1,1.69,1.69,0,0,1,1-.56c.56,0,.59.91.59,1.1,0,.38-.13.36-.27.56l-.23.29c.73.28.85,1.3.85,2.32,0,1.94-.84,3.7-2.17,3.7-.91,0-1.35-.71-1.65-1.44-1.08,1.76-1.12,1.78-1.26,1.78Zm1.85-2.72c.28.74.69,1.13,1.07,1.13.64,0,1.16-1.09,1.16-2.65,0-.68,0-1.19-.5-1.19C5,212.13,4.44,213,3.89,213.93Zm6.57.27s-.09,0-.11-.11a3.38,3.38,0,0,0-2.55-2.42c-.09,0-.11,0-.11-.1s.39-.7.59-.7a4.38,4.38,0,0,1,3.16,2.52.58.58,0,0,1,0,.1C11.46,213.66,10.61,214.2,10.46,214.2Z"/><path class="cls-1" d="M3.37,230.28a.24.24,0,0,1-.05-.14s0,0,.1,0h.37c2.42,0,4.67-1.27,4.67-2.48a.92.92,0,0,0-1-.9c-.66,0-1.48.51-2.77,1.87l-.31.33a.41.41,0,0,1-.17.18,2.47,2.47,0,0,1-.73.21c-.2,0-.71-.65-.71-1.58a10.24,10.24,0,0,1,.71-3.1,1.18,1.18,0,0,0,.07-.37,2.49,2.49,0,0,0-.18-.64,1.47,1.47,0,0,1-.05-.34c0-.68.74-.86,1.15-1,.07,0,.11,0,.11-.06a.15.15,0,0,0,0-.08c-.67-.69-.67-.94-.67-.94a.14.14,0,0,1,0-.07,2.41,2.41,0,0,1,.71-.42.11.11,0,0,1,.08.05,4.09,4.09,0,0,0,1.87,1.46.21.21,0,0,1,.17.23s-.26.94-.49.94-.2-.09-.32-.14a3.31,3.31,0,0,0-1-.15c-.37,0-.67.06-.67.24a.36.36,0,0,0,.06.15,1.27,1.27,0,0,1,.31.73,2,2,0,0,1-.15.64,8.3,8.3,0,0,0-.63,2.32c0,.37.15.49.16.49l.08-.07a17.06,17.06,0,0,1,2-1.5,3.22,3.22,0,0,1,1.6-.46,1.92,1.92,0,0,1,2.06,1.87c0,1.69-2.2,3.48-5.41,3.48-.45,0-.47,0-.54-.2A2.86,2.86,0,0,0,3.37,230.28Z"/><path class="cls-1" d="M7.77,235.27a1.93,1.93,0,0,1,1.82-2,2,2,0,0,1,0,4.07A1.93,1.93,0,0,1,7.77,235.27Zm2.86,0a1.12,1.12,0,0,0-1-1.16,1.17,1.17,0,0,0,0,2.32A1.11,1.11,0,0,0,10.63,235.27Z"/></g></g></svg>