<?xml version="1.0" encoding="utf-8"?>
<!-- Generator: Adobe Illustrator 24.0.2, SVG Export Plug-In . SVG Version: 6.00 Build 0)  -->
<svg version="1.1" id="レイヤー_1" xmlns="http://www.w3.org/2000/svg" xmlns:xlink="http://www.w3.org/1999/xlink" x="0px"
	 y="0px" viewBox="0 0 256.7 163.9" style="enable-background:new 0 0 256.7 163.9;" xml:space="preserve">
<style type="text/css">
	.st0{fill:#FFFFFF;}
</style>
<title>アセット 3</title>
<g id="レイヤー_2_1_">
	<g id="デザイン">
		<path class="st0" d="M7.8,60.5c-0.9,0.6-2,0.9-3.2,0.8c-1.1,0-2.2-0.2-3.2-0.8C0.5,60,0,58.9,0,57.8h1.4C1.6,59.3,2.7,60,4.8,60
			c0.7,0,1.5-0.2,2.1-0.5c0.6-0.4,1-1.1,1-1.9c0-1.1-0.7-1.8-2-2.2l-3.8-0.9c-1.6-0.5-2.4-2.2-1.9-3.8c0.2-0.7,0.7-1.2,1.3-1.6
			c0.9-0.5,2-0.8,3-0.7c1.6,0,3.2,0.6,4.4,1.6l-0.5,1.4c-1.1-1.1-2.5-1.7-4.1-1.7c-0.7,0-1.3,0.1-1.9,0.4c-0.6,0.3-1,0.8-1,1.5
			c0,1,0.7,1.7,2,2l1.7,0.3c0.7,0.1,1.4,0.3,2,0.6c1.3,0.5,2.2,1.7,2.1,3.1C9.3,58.7,8.7,59.8,7.8,60.5"/>
		<polygon class="st0" points="17.6,51.6 19.4,51.6 19.4,52.9 17.6,52.9 17.6,61 16.3,61 16.3,52.9 14.4,52.9 14.4,51.6 16.3,51.6 
			16.3,49.2 17.6,49.2 		"/>
		<path class="st0" d="M30.5,51.6V53c-0.9,0.1-1.8,0.4-2.6,0.9c-0.4,0.2-0.7,0.5-1,0.9c0,0,0,2.1,0,6.2h-1.4v-9.4h1.4v1.5
			c0.5-0.5,1.1-0.8,1.7-1.1C29.1,51.7,29.8,51.6,30.5,51.6"/>
		<path class="st0" d="M36.7,59.8c-0.8-1-1.2-2.2-1.2-3.5c0-1.2,0.3-2.4,1.1-3.3c0.8-0.9,2-1.4,3.2-1.4c1.1-0.1,2.2,0.4,3,1.2
			c0.7,0.9,1.1,2,1,3.1v0.8h-5.6v-1.3h4.2c0-0.7-0.3-1.3-0.7-1.8c-0.5-0.4-1.1-0.7-1.7-0.7c-0.9,0-1.7,0.3-2.3,1
			c-0.5,0.7-0.8,1.6-0.8,2.4c0,0.9,0.2,1.8,0.8,2.5c0.6,0.7,1.5,1.1,2.3,1c0.6,0,1.1-0.2,1.5-0.5c0.4-0.3,0.7-0.8,0.7-1.4h1.4
			c-0.1,0.9-0.5,1.7-1.2,2.3c-0.7,0.6-1.7,0.9-2.6,0.8C38.7,61.2,37.5,60.7,36.7,59.8"/>
		<path class="st0" d="M50.7,59.8c-0.8-1-1.2-2.2-1.2-3.5c0-1.2,0.3-2.4,1.1-3.3c0.8-0.9,2-1.4,3.2-1.4c1.1-0.1,2.2,0.4,3,1.2
			c0.7,0.9,1.1,2,1,3.1v0.8h-5.6v-1.3h4.2c0-0.7-0.3-1.3-0.7-1.8c-0.5-0.5-1.1-0.7-1.8-0.7c-0.9,0-1.7,0.3-2.3,1
			c-0.5,0.7-0.8,1.6-0.8,2.4c0,0.9,0.2,1.8,0.8,2.5c0.6,0.7,1.5,1.1,2.3,1c0.6,0,1.1-0.2,1.5-0.5c0.5-0.3,0.7-0.8,0.8-1.4h1.4
			c-0.1,0.9-0.5,1.7-1.2,2.3c-0.7,0.6-1.7,0.9-2.6,0.8C52.7,61.2,51.5,60.7,50.7,59.8"/>
		<polygon class="st0" points="66.4,51.6 68.2,51.6 68.2,52.9 66.4,52.9 66.4,61 65,61 65,52.9 63.1,52.9 63.1,51.6 65,51.6 
			65,49.2 66.4,49.2 		"/>
		<path class="st0" d="M90.9,54.8c-0.8,0.8-1.6,1.5-2.5,2.1c-0.5,0.3-0.9,0.6-1.3,1c-0.4,0.4-0.7,0.9-0.8,1.4h5.6v1.4h-7.3
			C84.5,59.3,85,58,86.1,57l3.1-2.5c1-0.7,1.6-1.8,1.7-3c0-0.6-0.2-1.2-0.7-1.6c-0.5-0.4-1.1-0.6-1.7-0.6c-1.2-0.2-2.3,0.7-2.5,1.9
			c0,0,0,0.1,0,0.1h-1.5c0.1-0.9,0.5-1.8,1.3-2.3c0.8-0.6,1.7-0.9,2.7-0.9c1,0,2,0.3,2.8,1c0.7,0.7,1.1,1.7,1,2.7
			C92.1,53,91.7,54,90.9,54.8"/>
		<path class="st0" d="M97.8,51.6h1.3V61h-1.3V51.6z M104.3,52.4c0.5,0.7,0.8,1.6,0.7,2.5V61h-1.4v-6.1c0-1.5-0.6-2.2-1.8-2.2
			c-0.8,0-1.5,0.3-2.1,0.8v-1.4c0.7-0.5,1.4-0.7,2.2-0.7C102.9,51.4,103.7,51.8,104.3,52.4"/>
		<path class="st0" d="M112.9,53.8c-0.5,0.6-0.8,1.4-0.8,2.3c0,2.4,1.4,3.6,4.3,3.6h0.3V48.3h1.3v12.6c-0.6,0.1-1.2,0.1-1.7,0.1
			c-1.4,0.1-2.8-0.3-4-1.1c-1.1-0.9-1.7-2.3-1.6-3.8c-0.1-1.2,0.3-2.3,1.1-3.2c0.8-0.9,1.9-1.4,3.1-1.3c0.4,0,0.8,0.1,1.2,0.1v1.3
			c-0.3-0.1-0.6-0.2-0.9-0.2C114.3,52.9,113.5,53.2,112.9,53.8"/>
		<path class="st0" d="M139.7,58.2c0-0.7-0.5-1.2-1.4-1.4l-1.3-0.3c-0.7-0.2-1.1-0.3-1.4-0.4c-1.2-0.5-1.7-1.9-1.2-3.1
			c0.2-0.4,0.5-0.8,0.8-1c0.7-0.4,1.4-0.6,2.2-0.6c1.2,0,2.3,0.3,3.2,1l-0.4,1.3c-0.8-0.7-1.8-1.1-2.9-1.1c-1.3,0-1.9,0.4-1.9,1.3
			c0,0.6,0.5,1.1,1.4,1.3c1.4,0.4,2.2,0.6,2.5,0.8c0.9,0.3,1.5,1.2,1.5,2.2c0,1.9-1.1,2.9-3.4,2.9c-0.8,0-1.7-0.2-2.4-0.7
			c-0.7-0.5-1.1-1.3-1.1-2.1h1.4c0.1,1,0.9,1.5,2.2,1.5S139.7,59.3,139.7,58.2"/>
		<path class="st0" d="M155.1,56.5c0.1,1.2-0.3,2.4-1.1,3.3c-0.8,0.9-2,1.4-3.2,1.3c-1.2,0.1-2.4-0.5-3.1-1.5c-0.7-1-1.1-2.2-1-3.5
			c-0.1-1.2,0.3-2.4,1-3.4c0.8-0.9,1.9-1.5,3.2-1.4c0.8,0,1.6,0.2,2.2,0.7v1.6c-0.5-0.6-1.3-0.9-2.1-0.9c-0.9,0-1.7,0.3-2.2,1
			c-0.5,0.7-0.8,1.5-0.7,2.4c0,0.9,0.2,1.7,0.6,2.5c0.5,0.7,1.3,1.2,2.1,1.2c2,0,2.9-1.1,2.9-3.4c0-0.8-0.2-1.6-0.6-2.4l1.4,0.1
			C154.9,54.9,155.1,55.7,155.1,56.5"/>
		<rect x="161.3" y="48.3" class="st0" width="1.3" height="12.7"/>
		<path class="st0" d="M177.4,56.5c0.1,1.2-0.3,2.4-1.1,3.3c-0.8,0.9-2,1.4-3.2,1.3c-1.2,0.1-2.4-0.5-3.1-1.5c-0.7-1-1.1-2.2-1-3.5
			c-0.1-1.2,0.3-2.4,1-3.4c0.8-1,2-1.5,3.2-1.4c0.8,0,1.6,0.2,2.2,0.7v1.6c-0.5-0.6-1.3-0.9-2.1-0.9c-0.9,0-1.7,0.3-2.2,1
			c-0.5,0.7-0.8,1.5-0.7,2.4c0,0.9,0.2,1.7,0.6,2.5c0.5,0.8,1.3,1.2,2.2,1.2c1.9,0,2.9-1.1,2.9-3.4c0-0.8-0.2-1.6-0.6-2.4l1.4,0.1
			C177.2,54.9,177.4,55.7,177.4,56.5"/>
		<path class="st0" d="M199.1,48.6l5.1,12.5h-1.6c-0.8-2-1.3-3.1-1.3-3.2h-4.1v-1.4h3.6l-2.4-5.9l-4.1,10.5h-1.5l5.1-12.5H199.1z"/>
		<rect x="210.3" y="48.3" class="st0" width="1.3" height="12.7"/>
		<path class="st0" d="M224.7,52.8c0.8,0.9,1.2,2,1.1,3.1c0,3.5-2,5.2-6.1,5.1h-0.3h-0.3h-0.7V48.3h1.4v11.4
			c1.1,0.1,2.2-0.2,3.3-0.7c1-0.6,1.5-1.7,1.4-2.9c0-0.8-0.2-1.7-0.7-2.3c-0.6-0.6-1.4-0.9-2.2-0.8c-0.3,0-0.6,0.1-0.9,0.2v-1.4
			c0.3-0.1,0.7-0.2,1-0.2C222.7,51.5,223.8,52,224.7,52.8"/>
		<path class="st0" d="M232.9,57.6c-0.1,1.4,0.5,2.1,1.7,2.1c0.7,0,1.3-0.2,1.8-0.7v1.5c-0.5,0.4-1.2,0.6-1.8,0.5c-2,0-3-1.1-3-3.3
			v-6.1h1.3C233,55,233,57,232.9,57.6 M237.3,51.6h1.3V61h-1.3V51.6z"/>
		<path class="st0" d="M251.2,55v6h-1.4v-5.9c0-1.5-0.6-2.2-1.7-2.2c-0.6,0-1.3,0.2-1.8,0.6V61h-1.4v-9.9h1.4v1
			c0.5-0.4,1.2-0.6,1.8-0.6C250.1,51.5,251.2,52.7,251.2,55 M253.8,51.4c0.9-0.1,1.7,0.3,2.2,1c0.5,0.7,0.7,1.5,0.7,2.4V61h-1.4
			v-6.1c0-1.4-0.6-2.1-1.8-2.1c-0.7,0-1.4,0.2-1.9,0.6V52C252.3,51.7,253,51.5,253.8,51.4"/>
		<path class="st0" d="M71.3,2.7L70.1,3c-0.1-0.5-0.3-1-0.6-1.4c-0.4-0.4-0.9-0.5-1.4-0.5c-0.5,0-1.1,0.1-1.5,0.4
			c-0.5,0.3-0.7,0.9-0.6,1.4c0.1,0.5,0.3,0.9,0.7,1.2c0.4,0.2,0.9,0.4,1.3,0.6c0.8,0.2,1.5,0.6,2.1,1.1c0.6,0.5,1,1.3,1,2.1
			c0.1,0.9-0.2,1.7-0.9,2.3c-0.7,0.6-1.5,0.9-2.4,0.8c-0.7,0-1.4-0.2-2-0.6c-0.6-0.4-1-1-1.1-1.7l1.1-0.4c0.2,0.9,1,1.6,2,1.6
			c0.5,0.1,1.1-0.1,1.5-0.4C69.8,9,70,8.5,70,7.9c0-0.6-0.3-1.1-0.8-1.4c-0.5-0.3-1-0.5-1.5-0.7c-0.6-0.2-1.3-0.5-1.8-0.8
			c-0.7-0.5-1-1.3-1-2.1c0-0.8,0.3-1.7,1-2.2C66.5,0.2,67.4,0,68.2,0c0.8,0,1.5,0.2,2.1,0.7C70.8,1.3,71.2,2,71.3,2.7"/>
		<polygon class="st0" points="85,1.5 81.8,1.5 81.8,10.7 80.6,10.7 80.6,1.5 77.4,1.5 77.4,0.3 85,0.3 		"/>
		<path class="st0" d="M98.6,10.3l-1.1,0.6L95.3,7c-0.5,0.1-1,0.1-1.6,0.1c-0.4,0-0.7,0-1.1-0.1v3.6h-1.2V0.3h1.1
			c0.5-0.1,1.1-0.2,1.7-0.2c1,0,2.1,0.3,2.9,0.9c0.8,0.7,1.2,1.7,1.1,2.7c0,1.2-0.7,2.4-1.8,2.9L98.6,10.3z M97,3.7
			c0.1-0.7-0.2-1.4-0.7-1.9c-0.6-0.4-1.3-0.7-2-0.6c-0.6,0-1.2,0.1-1.7,0.3V6c0.5,0,0.9,0.1,1.2,0.1C95.8,6.1,96.9,5.3,97,3.7"/>
		<path class="st0" d="M112.6,8.3c-0.5,1.6-2.1,2.6-3.8,2.4c-1.2,0-2.4-0.6-3.1-1.6c-0.7-1-1.1-2.2-1.1-3.4
			c-0.2-1.5,0.3-3.1,1.3-4.3c0.7-0.8,1.7-1.3,2.8-1.3c1.4-0.2,2.7,0.5,3.5,1.7l-1,0.8c-0.2-0.4-0.6-0.8-1-1
			c-0.4-0.2-0.9-0.3-1.4-0.3c-0.7,0-1.4,0.3-1.9,0.9c-0.8,1-1.2,2.3-1,3.5c0,0.9,0.3,1.8,0.8,2.6c0.5,0.8,1.3,1.3,2.3,1.4
			c1.2,0.2,2.4-0.6,2.7-1.9L112.6,8.3z"/>
		<path class="st0" d="M126,5c0.1,2.1-0.4,3.6-1.6,4.5c-1.3,0.9-2.8,1.4-4.4,1.2h-0.9V0.2h1c1.5-0.1,2.9,0.3,4.2,1
			C125.4,2.1,126.1,3.5,126,5 M124.8,5.2c0.1-1.2-0.4-2.3-1.2-3.1c-1-0.6-2.1-0.9-3.3-0.7v8.1c1.2,0.2,2.5-0.2,3.4-1
			C124.6,7.6,124.9,6.4,124.8,5.2"/>
		<rect x="132.6" y="5.2" class="st0" width="5.1" height="1.1"/>
		<path class="st0" d="M151.7,5.3c0,3.6-1.1,5.4-3.5,5.6c-1.3,0.2-2.6-0.5-3.2-1.6c-0.6-1.1-0.9-2.4-0.9-3.7
			c-0.1-1.3,0.2-2.6,0.8-3.7c1-1.7,3.1-2.3,4.8-1.3c0.5,0.3,1,0.7,1.3,1.2C151.5,2.8,151.7,4,151.7,5.3 M150.5,5.4
			c0-1-0.1-1.9-0.5-2.8c-0.3-0.9-1.2-1.5-2.1-1.5c-1.7,0-2.6,1.4-2.6,4.2c0,1,0.2,2,0.5,2.9c0.3,1,1.2,1.6,2.3,1.5
			C149.7,9.6,150.5,8.2,150.5,5.4"/>
		<path class="st0" d="M165.6,5.3c0,3.6-1.2,5.4-3.5,5.6c-1.3,0.2-2.6-0.5-3.2-1.6c-0.6-1.1-0.9-2.4-0.9-3.7
			c-0.1-1.3,0.2-2.6,0.8-3.7c0.6-1.1,1.8-1.8,3-1.8c1.2,0,2.4,0.6,3,1.7C165.4,2.8,165.6,4,165.6,5.3 M164.4,5.4
			c0-1-0.1-1.9-0.5-2.8c-0.3-0.9-1.2-1.5-2.1-1.5c-1.8,0-2.6,1.4-2.6,4.2c0,1,0.2,2,0.5,2.9c0.3,1,1.3,1.6,2.3,1.5
			C163.6,9.6,164.4,8.2,164.4,5.4"/>
		<path class="st0" d="M179.5,5.3c0,3.6-1.2,5.4-3.5,5.6c-1.3,0.2-2.6-0.5-3.2-1.6c-0.6-1.1-0.9-2.4-0.9-3.7
			c-0.1-1.3,0.2-2.6,0.8-3.7c0.6-1.2,1.8-1.9,3.1-1.8c1.2,0,2.4,0.6,3,1.7C179.3,2.8,179.5,4,179.5,5.3 M178.3,5.4
			c0-1-0.1-1.9-0.5-2.8c-0.3-0.9-1.2-1.5-2.1-1.5c-1.8,0-2.6,1.4-2.6,4.2c0,1,0.2,2,0.5,2.9c0.3,1,1.3,1.6,2.3,1.5
			C177.5,9.6,178.3,8.1,178.3,5.4"/>
		<path class="st0" d="M192,3.1c0,0.6-0.1,1.3-0.4,1.8c-0.5,0.8-1.1,1.6-1.7,2.3L188,9.5h3.6v1.2h-5.3v-1l2.3-2.7
			c0.5-0.6,1-1.2,1.4-1.9c0.5-0.6,0.8-1.3,0.8-2.1c0-0.9-0.7-1.7-1.7-1.8c-0.1,0-0.3,0-0.4,0c-0.5,0-1,0.2-1.4,0.6
			c-0.4,0.4-0.6,0.9-0.5,1.4c0,0.1,0,0.2,0,0.4h-1.2c0-0.2,0-0.4,0-0.6c0-0.8,0.3-1.6,0.9-2.2c0.6-0.6,1.4-0.9,2.3-0.9
			c0.9,0,1.7,0.3,2.3,0.9C191.7,1.4,192,2.3,192,3.1"/>
	</g>
</g>
<g>
	<path class="st0" d="M63.2,104.9c6,0,10.9-4.9,10.9-10.9c0-6-4.9-10.9-10.9-10.9c-6,0-10.9,4.9-10.9,10.9
		C52.3,100.1,57.2,104.9,63.2,104.9 M63.2,90.2c2.1,0,3.9,1.7,3.9,3.9c0,2.1-1.7,3.9-3.9,3.9c-2.1,0-3.9-1.7-3.9-3.9
		C59.3,91.9,61,90.2,63.2,90.2"/>
	<path class="st0" d="M63.2,131c6,0,10.9-4.9,10.9-10.9c0-6-4.9-10.9-10.9-10.9c-6,0-10.9,4.9-10.9,10.9
		C52.3,126.2,57.2,131,63.2,131 M63.2,116.3c2.1,0,3.9,1.7,3.9,3.9s-1.7,3.9-3.9,3.9c-2.1,0-3.9-1.7-3.9-3.9S61,116.3,63.2,116.3"/>
	<path class="st0" d="M66.7,139.2c0-1.9-1.6-3.5-3.5-3.5c-1.9,0-3.5,1.6-3.5,3.5v17.7h-9c-1.9,0-3.5,1.6-3.5,3.5
		c0,1.9,1.6,3.5,3.5,3.5h15.9V139.2z"/>
	<path class="st0" d="M106.1,103.6c-16.6,0-30.1,13.5-30.1,30.1c0,16.6,13.5,30.1,30.1,30.1c16.6,0,30.1-13.5,30.1-30.1
		C136.3,117.1,122.8,103.6,106.1,103.6 M106.1,156.9c-12.8,0-23.2-10.4-23.2-23.2c0-12.8,10.4-23.2,23.2-23.2
		c12.8,0,23.2,10.4,23.2,23.2C129.3,146.5,118.9,156.9,106.1,156.9"/>
	<path class="st0" d="M115.6,130.2h-5.9v-5.9c0-1.9-1.6-3.5-3.5-3.5c-1.9,0-3.5,1.6-3.5,3.5v5.9h-5.9c-1.9,0-3.5,1.6-3.5,3.5
		c0,1.9,1.6,3.5,3.5,3.5h5.9v5.9c0,1.9,1.6,3.5,3.5,3.5c1.9,0,3.5-1.6,3.5-3.5v-5.9h5.9c1.9,0,3.5-1.6,3.5-3.5
		C119,131.8,117.5,130.2,115.6,130.2"/>
	<path class="st0" d="M81.9,104.5c1.9,0,3.5-1.6,3.5-3.5V87.2c0-1.9-1.6-3.5-3.5-3.5c-1.9,0-3.5,1.6-3.5,3.5V101
		C78.4,102.9,80,104.5,81.9,104.5"/>
	<path class="st0" d="M89.8,94.1c0,1.9,1.6,3.5,3.5,3.5h33.6c1.9,0,3.5-1.6,3.5-3.5c0-1.9-1.6-3.5-3.5-3.5H93.3
		C91.3,90.6,89.8,92.2,89.8,94.1"/>
	<path class="st0" d="M209.5,111c0-15.3-12.4-27.7-27.7-27.7c-15.3,0-27.7,12.4-27.7,27.7c0,14.3,10.9,26.2,24.9,27.6v22
		c0,1.6,1.3,2.9,2.9,2.9h23.8c1.6,0,2.9-1.3,2.9-2.9c0-1.6-1.3-2.9-2.9-2.9h-21v-6.6h7.9c1.6,0,2.9-1.3,2.9-2.9
		c0-1.6-1.3-2.9-2.9-2.9h-7.9v-6.8C198.5,137.1,209.5,125.3,209.5,111 M159.7,111c0-12.1,9.9-22,22-22c12.1,0,22,9.9,22,22
		c0,12-9.6,21.7-21.5,22c-0.2,0-0.3-0.1-0.5-0.1c-0.2,0-0.3,0-0.5,0.1C169.3,132.7,159.7,122.9,159.7,111"/>
	<path class="st0" d="M181.7,115l7.4,7.4c0.6,0.6,1.3,0.8,2,0.8c0.7,0,1.5-0.3,2-0.8c1.1-1.1,1.1-2.9,0-4l-7.4-7.4l7.4-7.4
		c1.1-1.1,1.1-2.9,0-4c-1.1-1.1-2.9-1.1-4,0l-7.4,7.4l-7.4-7.4c-1.1-1.1-2.9-1.1-4,0c-1.1,1.1-1.1,2.9,0,4l7.4,7.4l-7.4,7.4
		c-1.1,1.1-1.1,2.9,0,4c0.6,0.6,1.3,0.8,2,0.8c0.7,0,1.5-0.3,2-0.8L181.7,115z"/>
	<path class="st0" d="M171.7,145.4h-0.8c-1.6,0-2.9,1.3-2.9,2.9c0,1.6,1.3,2.9,2.9,2.9h0.8c1.6,0,2.9-1.3,2.9-2.9
		C174.5,146.6,173.2,145.4,171.7,145.4"/>
	<path class="st0" d="M171.7,157.7h-13.8c-1.6,0-2.9,1.3-2.9,2.9c0,1.6,1.3,2.9,2.9,2.9h13.8c1.6,0,2.9-1.3,2.9-2.9
		C174.5,159,173.2,157.7,171.7,157.7"/>
</g>
</svg>
