<?xml version="1.0" encoding="utf-8"?>
<!-- Generator: Adobe Illustrator 23.1.0, SVG Export Plug-In . SVG Version: 6.00 Build 0)  -->
<svg version="1.1" id="レイヤー_1" xmlns="http://www.w3.org/2000/svg" xmlns:xlink="http://www.w3.org/1999/xlink" x="0px"
	 y="0px" viewBox="0 0 1280 720" style="enable-background:new 0 0 1280 720;" xml:space="preserve">
<style type="text/css">
	.st0{fill:none;}
	.st1{fill:#0C1F3D;}
	.st2{fill:#163C6D;}
	.st3{fill:url(#SVGID_2_);}
</style>
<pattern  y="720" width="132.6" height="86" patternUnits="userSpaceOnUse" id="SVGID_1_" viewBox="0 -86 132.6 86" style="overflow:visible;">
	<g>
		<rect y="-86" class="st0" width="132.6" height="86"/>
		<g>
			<rect y="-86" class="st0" width="132.6" height="86"/>
			<rect y="-86" class="st0" width="132.6" height="86"/>
			<path class="st1" d="M33.2-5.2c-4.7,0-9.1,1.9-12.4,5.2h3.7C29.7-3.8,36.8-3.8,42,0h3.7C42.3-3.3,37.8-5.2,33.2-5.2z"/>
			<path class="st1" d="M99.4-5.2C94.7-5.2,90.2-3.3,87,0h3.7c5.2-3.8,12.3-3.8,17.5,0h3.7C108.6-3.3,104.1-5.2,99.4-5.2z"/>
			<path class="st1" d="M0-86h18.7c0.4,0.3,0.9,0.5,1.3,0.8c0.2-0.3,0.5-0.5,0.7-0.8h3.7c-0.9,0.6-1.7,1.3-2.4,2.1
				c2,1.4,3.9,3,5.6,4.8c2.9-3,7.8-3.1,10.8-0.1l0.1,0.1c1.7-1.8,3.6-3.4,5.7-4.8c-0.7-0.8-1.5-1.5-2.4-2.1h3.7
				c0.3,0.3,0.5,0.5,0.7,0.8c0.4-0.3,0.9-0.5,1.3-0.8h18.6C54.2-86,43-79.5,37-69c2.4,0.2,4.7,0.7,7,1.4c8.7-12.4,25.7-15.3,38-6.7
				c2.6,1.8,4.8,4.1,6.6,6.6c2.3-0.7,4.6-1.1,7-1.4C89.6-79.5,78.4-86,66.3-86H85c0.4,0.3,0.9,0.5,1.3,0.8c0.2-0.3,0.5-0.5,0.7-0.8
				h3.7c-0.9,0.6-1.7,1.3-2.4,2.1c2,1.4,3.9,3,5.6,4.8c2.9-3,7.8-3.1,10.8-0.1l0.1,0.1c1.7-1.8,3.6-3.4,5.7-4.8
				c-0.7-0.8-1.5-1.5-2.4-2.1h3.7c0.3,0.3,0.5,0.5,0.7,0.8c0.4-0.3,0.9-0.5,1.3-0.8h18.7c-12.1,0-23.3,6.5-29.3,17
				c2.4,0.2,4.7,0.7,7,1.4c5.1-7.3,13.4-11.6,22.3-11.6v2.3c-7.8,0-15.2,3.7-19.9,10c2.3,0.9,4.6,1.9,6.7,3.2
				c3.3-3.8,8.1-5.9,13.2-5.9v2.3c-4.2,0-8.3,1.8-11.1,5c2,1.4,3.9,3,5.7,4.8c1.4-1.5,3.4-2.3,5.4-2.3l0,0v2.4l0,0
				c-1.4,0-2.8,0.6-3.8,1.7c1.4,1.7,2.7,3.4,3.8,5.3l0,0v7.4c-12.1,0-23.3,6.5-29.3,17c2.4,0.2,4.7,0.7,7,1.4
				c5.1-7.3,13.4-11.6,22.3-11.6v2.3c-7.8,0-15.2,3.7-19.9,10c2.3,0.9,4.6,1.9,6.7,3.2c3.3-3.8,8.1-5.9,13.2-5.9v2.3
				c-4.2,0-8.3,1.8-11.1,5c2,1.4,3.9,3,5.7,4.8c1.4-1.5,3.4-2.3,5.4-2.3l0,0v2.4l0,0c-1.4,0-2.8,0.6-3.8,1.7
				c1.4,1.7,2.7,3.4,3.8,5.3V0h-18.8c1.7-1,3.6-1.8,5.4-2.5c-8.2-11-23.7-13.3-34.7-5.2c-2,1.5-3.7,3.2-5.2,5.2
				C81.1-1.8,82.9-1,84.7,0h-37c1.7-1,3.6-1.8,5.4-2.5c-8.1-11-23.7-13.3-34.7-5.2c-2,1.5-3.7,3.2-5.2,5.2C15.1-1.8,16.9-1,18.6,0H0
				v-7.4c1.1-1.9,2.4-3.6,3.8-5.3c-1-1.1-2.4-1.7-3.8-1.7v-2.4c2,0,4,0.8,5.4,2.3c1.7-1.8,3.6-3.4,5.7-4.8c-2.8-3.2-6.9-5-11.1-5
				l0,0v-2.3l0,0c5,0,9.8,2.2,13.2,5.9c2.1-1.3,4.4-2.4,6.7-3.2c-4.7-6.3-12.1-10-19.9-10l0,0v-2.4l0,0c8.9,0,17.2,4.3,22.4,11.6
				c2.3-0.7,4.6-1.1,7-1.4C23.3-36.5,12.1-43,0-43l0,0v-7.4c1.1-1.9,2.4-3.6,3.8-5.3c-1-1.1-2.4-1.7-3.8-1.7v-2.4c2,0,4,0.8,5.4,2.3
				c1.7-1.8,3.6-3.4,5.7-4.8c-2.8-3.2-6.9-5-11.1-5v-2.3c5,0,9.8,2.2,13.2,5.9c2.1-1.3,4.4-2.4,6.7-3.2c-4.7-6.3-12-10-19.9-10v-2.4
				c8.9,0,17.2,4.3,22.3,11.6c2.3-0.7,4.6-1.1,7-1.4C23.3-79.5,12.1-86,0-86z M33.3-48.2c5,0,9.8,2.2,13.2,5.9
				c2.1-1.3,4.4-2.4,6.7-3.2c-8.1-11-23.7-13.3-34.7-5.2c-2,1.5-3.7,3.2-5.2,5.2c2.3,0.9,4.6,1.9,6.7,3.2
				C23.4-46,28.2-48.2,33.3-48.2z M62.4-55.7c1.4,1.7,2.7,3.4,3.8,5.3c1.1-1.9,2.4-3.6,3.8-5.3c-1-1.1-2.4-1.7-3.8-1.7
				S63.4-56.8,62.4-55.7z M66.2-59.7c2,0,4,0.8,5.4,2.3c1.7-1.8,3.6-3.4,5.7-4.8c-5.5-6.1-14.9-6.7-21-1.2c-0.4,0.4-0.8,0.8-1.2,1.2
				c2,1.4,3.9,3,5.6,4.8C62.2-58.9,64.2-59.7,66.2-59.7L66.2-59.7z M37-26c2.4,0.2,4.7,0.7,7,1.4c8.7-12.3,25.7-15.3,38.1-6.6
				c2.6,1.8,4.8,4,6.6,6.6c2.3-0.7,4.6-1.1,7-1.4c-9.3-16.2-29.9-21.8-46.1-12.6C44.3-35.6,40-31.2,37-26z M79.5-20.6
				c2.1-1.3,4.4-2.4,6.7-3.2c-8.1-11-23.7-13.3-34.7-5.2c-2,1.5-3.7,3.2-5.2,5.2c2.3,0.9,4.6,1.9,6.7,3.2c6.4-7.3,17.6-8,24.8-1.5
				C78.5-21.7,79-21.2,79.5-20.6z M66.3-24.2c-4.2,0-8.3,1.8-11.1,5c2,1.4,3.9,3,5.6,4.8c2.9-3,7.8-3.1,10.8-0.1l0.1,0.1
				c1.7-1.8,3.6-3.4,5.7-4.8C74.5-22.4,70.5-24.2,66.3-24.2z M37.1-34.3c-2-2.1-5.3-2.2-7.4-0.3c-0.1,0.1-0.2,0.2-0.3,0.3
				c1.4,1.7,2.7,3.4,3.8,5.3C34.4-30.9,35.7-32.6,37.1-34.3z M33.3-38.4c2,0,4,0.8,5.4,2.3c1.7-1.8,3.6-3.4,5.7-4.8
				c-5.5-6.1-14.9-6.6-21-1.2c-0.4,0.4-0.8,0.8-1.2,1.2c2,1.4,3.9,3,5.6,4.8C29.3-37.5,31.2-38.4,33.3-38.4z M62.5-4.6
				c-9.3-16.2-29.9-21.8-46.1-12.5c-5.2,3-9.5,7.3-12.5,12.5c2.4,0.2,4.7,0.7,7,1.3C19.6-15.6,36.6-18.6,49-9.9
				c2.6,1.8,4.8,4,6.6,6.6C57.8-3.9,60.1-4.4,62.5-4.6z M70.1-12.6c-1.9-2.1-5.2-2.3-7.3-0.3c-0.1,0.1-0.2,0.2-0.3,0.3
				c1.4,1.7,2.7,3.4,3.8,5.3C67.4-9.2,68.7-11,70.1-12.6L70.1-12.6z M99.4-21.6c-12.1,0-23.3,6.5-29.3,17c2.4,0.2,4.7,0.7,7,1.3
				c8.7-12.3,25.7-15.3,38.1-6.6c2.6,1.8,4.8,4,6.6,6.6c2.3-0.7,4.6-1.1,7-1.3C122.8-15.1,111.6-21.6,99.4-21.6z M99.4-29L99.4-29
				L99.4-29c1.1-1.9,2.4-3.6,3.8-5.3c-1.9-2.1-5.1-2.3-7.3-0.4c-0.1,0.1-0.3,0.2-0.4,0.4C97-32.7,98.3-30.9,99.4-29L99.4-29z
				 M110.5-40.9L110.5-40.9c-5.5-6.1-14.9-6.6-21-1.2c0,0-0.1,0-0.1,0.1c-0.4,0.3-0.7,0.7-1.1,1.1c2,1.4,3.9,3,5.7,4.8l0,0
				c0.2-0.2,0.4-0.3,0.5-0.5c3-2.5,7.5-2.3,10.3,0.5l0,0l0,0c0.9-0.9,1.8-1.7,2.7-2.5S109.5-40.2,110.5-40.9L110.5-40.9z
				 M119.3-45.5L119.3-45.5c-8.2-11-23.7-13.3-34.7-5.1c-2,1.4-3.7,3.2-5.1,5.1c2.3,0.9,4.6,1.9,6.7,3.2l0,0l0,0
				c0.4-0.5,0.8-0.9,1.3-1.3c7.2-6.6,18.3-6.1,24.9,1.1c0.1,0.1,0.1,0.2,0.2,0.2C114.7-43.6,116.9-44.6,119.3-45.5L119.3-45.5z
				 M95.6-77.3c1.4,1.7,2.7,3.4,3.8,5.3c1.1-1.9,2.4-3.6,3.8-5.3c-1.9-2.1-5.2-2.2-7.3-0.3C95.8-77.5,95.7-77.4,95.6-77.3L95.6-77.3
				z M77-56.1c-2.7,2.4-5.1,5.3-6.9,8.5c2.4,0.2,4.7,0.7,7,1.4l0,0l0,0c1.2-1.7,2.7-3.3,4.3-4.8c11.3-10,28.6-8.9,38.5,2.4
				c0.7,0.7,1.3,1.5,1.8,2.3c2.3-0.7,4.6-1.1,7-1.3l0,0c-9.3-16.2-29.9-21.8-46.1-12.6C80.7-59,78.8-57.7,77-56.1z M46.3-66.9
				c2.3,0.9,4.6,1.9,6.7,3.2c6.4-7.3,17.5-8,24.8-1.5c0.5,0.5,1.1,1,1.5,1.5c2.1-1.3,4.4-2.4,6.7-3.2c-8-11-23.5-13.3-34.5-5.1
				C49.5-70.6,47.8-68.8,46.3-66.9z M33.3-64.6c-12.1,0-23.3,6.5-29.3,17c2.4,0.2,4.7,0.7,7,1.4c8.7-12.3,25.7-15.3,38.1-6.6
				c2.6,1.8,4.8,4,6.6,6.6c2.3-0.7,4.6-1.1,7-1.3C56.6-58.2,45.4-64.7,33.3-64.6z M29.3-77.3c1.5,1.7,2.8,3.4,3.9,5.3
				c1.1-1.9,2.4-3.6,3.8-5.3c-2-2.1-5.3-2.2-7.4-0.3C29.5-77.5,29.4-77.4,29.3-77.3L29.3-77.3z"/>
		</g>
	</g>
</pattern>
<title>アセット 1</title>
<g>
	<g id="design">
		<polygon class="st2" points="1280,0 0,0 0,720 1280,720 		"/>
		<pattern  id="SVGID_2_" xlink:href="#SVGID_1_" patternTransform="matrix(0.86 0 0 0.86 -1934.6882 13401.1592)">
		</pattern>
		<polygon class="st3" points="1280,0 0,0 0,720 1280,720 		"/>
	</g>
</g>
</svg>
