<svg xmlns="http://www.w3.org/2000/svg" viewBox="0 0 259.61 43.18"><defs><style>.cls-1{fill:#c9a063;}</style></defs><title>アセット 1</title><g id="レイヤー_2" data-name="レイヤー 2"><g id="design"><path class="cls-1" d="M10.19,41.76a8.78,8.78,0,0,1-8.77-8.92,9,9,0,0,1,9.14-8.63h55a2.62,2.62,0,0,0,0-5.24H54.09a8.78,8.78,0,0,1-8.78-8.92,9,9,0,0,1,9.14-8.63h194.6a9,9,0,0,1,9.14,8.63A8.78,8.78,0,0,1,249.41,19H157.88a2.62,2.62,0,0,0,0,5.24h18.78a9,9,0,0,1,9.14,8.63A8.78,8.78,0,0,1,177,41.76Z"/><path class="cls-1" d="M54.45,0V2.83h194.6a7.58,7.58,0,0,1,7.72,7.24,7.34,7.34,0,0,1-7.36,7.47H157.88a4,4,0,0,0,0,8.08h18.78a7.58,7.58,0,0,1,7.72,7.23A7.34,7.34,0,0,1,177,40.34H10.19a7.34,7.34,0,0,1-7.35-7.48,7.57,7.57,0,0,1,7.72-7.23h55a4,4,0,0,0,0-8.08H54.08a7.36,7.36,0,0,1-7.35-7.48,7.58,7.58,0,0,1,7.72-7.24V0m0,0A10.43,10.43,0,0,0,43.89,10,10.2,10.2,0,0,0,54.08,20.39H65.51a1.2,1.2,0,0,1,1.2,1.2h0a1.2,1.2,0,0,1-1.2,1.2H10.56A10.43,10.43,0,0,0,0,32.82,10.2,10.2,0,0,0,10.19,43.18H177a10.21,10.21,0,0,0,10.2-10.36,10.43,10.43,0,0,0-10.56-10H157.88a1.2,1.2,0,0,1-1.2-1.2h0a1.2,1.2,0,0,1,1.2-1.2h91.53A10.2,10.2,0,0,0,259.61,10,10.43,10.43,0,0,0,249.05,0Z"/></g></g></svg>