<svg xmlns="http://www.w3.org/2000/svg" viewBox="0 0 218.88 901.39"><defs><style>.cls-1{fill:#f3ecea;}.cls-2{fill:none;stroke:#f3ecea;stroke-linecap:round;stroke-linejoin:round;stroke-width:0.71px;}</style></defs><title>アセット 6</title><g id="レイヤー_2" data-name="レイヤー 2"><g id="design"><path class="cls-1" d="M104.37,459.14c1.38,3.23,0,7.81-3.5,11.3A14,14,0,0,1,94,474.3c-.4,0-1.23-.05-3.15-.09H89.53l-1.06,0-.78,0-3.87,0A106.8,106.8,0,0,0,46.08,483a12.65,12.65,0,0,0-.84-1.78A104.13,104.13,0,0,1,88.79,461.1l.76-.15,3.88-.73,4.93-.64,3.92-.33,1-.07,1.12,0m9.85.55,1.11,0,.64,0c.27,0,2.91.23,4.25.34l4.86.63,4,.74.76.16a103.77,103.77,0,0,1,43.72,20.28,16.19,16.19,0,0,0-.78,1.71,106.41,106.41,0,0,0-38-8.83l-4.69,0h-.53l-.58,0H127.7l-3.35.08a14.05,14.05,0,0,1-6.62-3.84c-3.48-3.49-4.88-8.06-3.51-11.3m-23.8,17.7a6.63,6.63,0,0,1,1.88,1.33A8.11,8.11,0,0,1,94,487.31a8,8,0,0,1-7.33,5.28h-.41c-.31-.11-1-.33-2.71-.85l-.75-.22-.1,0-.44-.12c-3.15-.92-6.45-1.69-10-2.37l-.2-.05H71.9a102.1,102.1,0,0,0-18.67-1.71c-2,0-4.12.06-6.18.18,0-.39-.07-.79-.13-1.19a105.89,105.89,0,0,1,19.13-6.34l.33-.07,1.11-.24c1.21-.26,2.41-.47,3.44-.65,1.58-.27,2.79-.45,3.93-.6h.06l1.66-.21a103.91,103.91,0,0,1,12-.67l1.86,0m39.64.54a105.93,105.93,0,0,1,11.95.69l1,.13.74.09c1.24.17,2.53.37,3.94.61,1.1.19,2.27.4,3.45.65.34.06.68.14,1,.22l.41.09A104.89,104.89,0,0,1,172,486.88c0,.35-.07.71-.08,1.07-2.15-.13-4.33-.2-6.47-.2a102.15,102.15,0,0,0-18.71,1.72l-.14,0-.11,0c-3.62.68-6.92,1.46-10.09,2.38l-.48.15h-.06l-.74.22-2.89.89h-.33a8.24,8.24,0,0,1-5.57-13.81,7,7,0,0,1,2.09-1.44h1.67M42.72,483.7a8.76,8.76,0,0,1,.57,1.26,11.22,11.22,0,0,1,.47,5.18,8.84,8.84,0,0,1-2.42,4.63,9.37,9.37,0,0,1-1,.83,8.57,8.57,0,0,1-4.82,1.45,9.7,9.7,0,0,1-4.81-1.3l5.74-6.35c4.72-4.35,5.12-4.72,5.13-4.74s.57-.47,1.14-1m133.35.47.85.42.46.38h0c.28.27,1.29,1.2,5.12,4.72.31.36,4.07,4.51,5.74,6.35a9.66,9.66,0,0,1-4.82,1.3,8.56,8.56,0,0,1-6.1-2.49c-2.87-2.87-2.68-7.4-1.26-10.68M53.56,490.55a99.62,99.62,0,0,1,27.21,3.73l.3.08.39.1c.43.16,1.28.53,1.48.62a6.64,6.64,0,0,1,1.18.95c2.51,2.49,2.78,6.87.66,10.4A9,9,0,0,1,77.31,511a6.76,6.76,0,0,1-2.33-.41c-1-.85-4.33-3.51-4.38-3.55a121,121,0,0,0-24.18-14.4,13.27,13.27,0,0,0,.44-1.85c2.23-.14,4.48-.21,6.7-.21m111.56.53c2.33,0,4.69.08,7,.24a12.14,12.14,0,0,0,.44,1.68,116.57,116.57,0,0,0-17.37,9.51c-1,.63-1.92,1.33-2.84,2l-1.07.77c-.39.29-.8.56-1.2.84-.63.43-1.28.88-1.91,1.37l-.49.39-.28.2-.27.19-3.59,2.93a6.12,6.12,0,0,1-2.19.39,9.19,9.19,0,0,1-7.55-4.61c-2.13-3.53-1.85-7.91.66-10.41a5.68,5.68,0,0,1,1.19-.94l1.21-.55.06,0,.17,0a101.18,101.18,0,0,1,28-3.94M45,495.53c3.83,1.69,7,3.24,9.81,4.85a124.44,124.44,0,0,1,14.69,9.84l3.64,3h0a9.48,9.48,0,0,1-1.45,11.7,9.68,9.68,0,0,1-7,3,9,9,0,0,1-5.11-1.57l-.15-.18c-.57-.74-2.27-2.85-3-3.76-.58-.74-1.12-1.52-1.65-2.27L54,519a117.27,117.27,0,0,1-11.93-20.75,10.81,10.81,0,0,0,1.81-1.44A9.8,9.8,0,0,0,45,495.53m129.12.39a10.66,10.66,0,0,0,1,1.19,11.28,11.28,0,0,0,1.64,1.33,112.88,112.88,0,0,1-5.07,10.3,123.26,123.26,0,0,1-9.84,14.69l-3,3.63,0,0a8.77,8.77,0,0,1-4.78,1.37,10,10,0,0,1-6.89-2.84,9.46,9.46,0,0,1-1.45-12.08l.09-.07.11-.08,3.75-3c.71-.55,1.44-1.07,2.15-1.57L153,508a118.29,118.29,0,0,1,21-12.05M28.24,498.13c.28.18.56.35.86.51s.47.23.69.32a106.86,106.86,0,0,0-9,38.32l0,4.68c0,.19,0,.38,0,.57s0,.41,0,.63v1.17l.07,3.34A14.13,14.13,0,0,1,17,554.29a12.85,12.85,0,0,1-8.62,4,6.9,6.9,0,0,1-2.69-.52c0-.48,0-1.11,0-1.11l0-.63c0-.34.35-4.25.35-4.25,0-.28.58-4.54.63-4.87s.48-2.59.73-4l.16-.75a104,104,0,0,1,20.57-44.11m162.09.48a103.8,103.8,0,0,1,20.6,44.17h0l.15.75.72,3.88c0,.17.4,3.06.64,4.92l.33,3.94c0,.33.07,1,.07,1h0s0,.65,0,1.13a7,7,0,0,1-2.7.51,12.79,12.79,0,0,1-8.61-4,13.91,13.91,0,0,1-3.85-6.83c0-.35,0-1.15.08-3.14l0-1.17c0-.39,0-.77,0-1.15s0-.59,0-.88c0-1.87,0-3.84,0-3.87a106.89,106.89,0,0,0-9-38.35,13.68,13.68,0,0,0,1.55-.84m-151.2,1.07a117.41,117.41,0,0,0,9.41,17.14c.68,1,1.43,2.06,2.15,3l.62.85.75,1.08c.46.67.93,1.36,1.46,2l.37.46.15.21a4.06,4.06,0,0,0,.26.36l2.92,3.59c1.27,3.29-.57,7.55-4.22,9.75a9.8,9.8,0,0,1-5,1.43,7.51,7.51,0,0,1-5.39-2.09,5.84,5.84,0,0,1-.93-1.19l-.55-1.21,0-.06-.05-.18a101.51,101.51,0,0,1-3.71-34.81,12.45,12.45,0,0,0,1.8-.42m140.5.25a12.36,12.36,0,0,0,1.62.41,100.1,100.1,0,0,1-3.51,34.4c0,.13-.07.26-.1.39a3,3,0,0,1-.08.32c-.16.44-.53,1.27-.62,1.46a6.31,6.31,0,0,1-.94,1.19,7.51,7.51,0,0,1-5.39,2.09,9.85,9.85,0,0,1-5-1.43c-3.62-2.18-5.38-6.38-4.13-9.8.85-1,3.43-4.24,3.55-4.39a120.7,120.7,0,0,0,14.62-24.64M32.92,500c.35.07.7.13,1,.17a102.76,102.76,0,0,0,1.53,25.19l0,.15a.09.09,0,0,0,0,.05c.69,3.64,1.47,6.93,2.38,10.07l.15.5v.05l.21.75.89,2.89a8,8,0,0,1-5.31,7.55,8.48,8.48,0,0,1-3,.55,7.74,7.74,0,0,1-5.47-2.2,7,7,0,0,1-1.44-2.1v-.51a107.55,107.55,0,0,1,.7-13.12l.12-1c0-.24.07-.47.09-.7.17-1.25.37-2.53.61-3.93.18-1,.39-2.25.65-3.45.05-.29.12-.58.18-.86s.09-.39.13-.58A105.6,105.6,0,0,1,32.92,500m152.7.38A106.07,106.07,0,0,1,192.16,520c.05.21.09.41.14.62s.13.55.18.83c.2,1,.38,1.94.55,2.89l.09.55c.25,1.43.45,2.72.61,3.94,0,.21.06.44.09.66s.09.7.13,1a106.34,106.34,0,0,1,.67,12v1.86a6.51,6.51,0,0,1-1.32,1.89,7.86,7.86,0,0,1-5.55,2.21,8.57,8.57,0,0,1-3-.56,8,8,0,0,1-5.28-7.75c.13-.34.35-1,.86-2.7l.2-.7a.25.25,0,0,0,0-.07.3.3,0,0,0,0-.1l.12-.42c.92-3.19,1.7-6.48,2.36-10.05,0-.08,0-.16.06-.27a103.1,103.1,0,0,0,1.51-25.35c.34,0,.67-.07,1-.13m-5.07,36.11h0m29.93,29.72v.71a7,7,0,0,1,2.7.52c0,.48-.05,1.1-.05,1.1h0l0,.64c0,.34-.35,4.25-.35,4.25,0,.28-.58,4.53-.63,4.87s-.57,3.09-.73,3.94l-.16.76a103.93,103.93,0,0,1-20.43,43.92,13.52,13.52,0,0,0-1.65-.75A106.79,106.79,0,0,0,198.06,588l0-4.69c0-.16,0-.33,0-.49s0-.47,0-.7v-1.17l-.07-3.35a14.05,14.05,0,0,1,3.83-6.62,12.81,12.81,0,0,1,8.61-4v-.71M8.7,566.39h0a12.82,12.82,0,0,1,8.61,4,14,14,0,0,1,3.85,6.83c0,.36,0,1.16-.08,3.15l0,1.16c0,.38,0,.75,0,1.12s0,.62,0,.92l0,3.86a106.67,106.67,0,0,0,9,38.27,12.72,12.72,0,0,0-1.57.87A104.06,104.06,0,0,1,8,582.46l-.15-.74-.72-3.88c0-.16-.4-3.06-.64-4.93L6.12,569c0-.33-.08-1-.08-1s0-.65,0-1.13a7,7,0,0,1,2.7-.51m204.43,2.16h0m-.39,4.89h0M31.12,576.76h0a8.62,8.62,0,0,1,3.05.56,8,8,0,0,1,5.28,7.74c-.12.32-.34,1-.85,2.71l-.22.73h0v0a.36.36,0,0,0,0,.09l-.12.43c-.92,3.19-1.7,6.49-2.36,10.05l0,.12,0,.14a102.3,102.3,0,0,0-1.52,25.22c-.35,0-.7.08-1.05.14a105.48,105.48,0,0,1-6.49-19.5c0-.2-.09-.39-.13-.59s-.13-.56-.19-.86c-.25-1.18-.47-2.4-.64-3.43-.24-1.4-.44-2.69-.61-3.93l-.12-.9c0-.28-.07-.56-.11-.83a109.13,109.13,0,0,1-.66-12v-1.86a6.44,6.44,0,0,1,1.32-1.9,7.85,7.85,0,0,1,5.54-2.2m156.89.55a7.82,7.82,0,0,1,5.48,2.2,7.25,7.25,0,0,1,1.44,2.1v.52a105.27,105.27,0,0,1-.7,13.1c-.07.58-.14,1.15-.22,1.72-.16,1.2-.35,2.49-.6,3.94-.18,1-.39,2.24-.64,3.44-.06.25-.11.5-.17.75l-.15.69a104.81,104.81,0,0,1-6.54,19.59l-.69-.06-.32,0a102.7,102.7,0,0,0-1.52-25.36l0-.18v0c-.67-3.6-1.45-6.89-2.37-10.08l-.15-.49v-.06l-.21-.74-.89-2.89a8,8,0,0,1,5.31-7.56,8.69,8.69,0,0,1,3-.55M48.27,585.06h0a9.86,9.86,0,0,1,5,1.43c3.62,2.19,5.38,6.38,4.13,9.8-.85,1-3.43,4.23-3.55,4.38a120.86,120.86,0,0,0-14.55,24.49,11.94,11.94,0,0,0-1.69-.41,99.86,99.86,0,0,1,3.51-34.24c0-.14.07-.28.1-.41s0-.21.08-.31c.17-.44.54-1.27.62-1.46a7.18,7.18,0,0,1,.93-1.19,7.55,7.55,0,0,1,5.39-2.08m122.64.55h0a7.51,7.51,0,0,1,5.38,2.08,6.52,6.52,0,0,1,.94,1.2l.55,1.2,0,.12,0,.12a101.41,101.41,0,0,1,3.69,35.16,11.84,11.84,0,0,0-1.63.38,118.47,118.47,0,0,0-9.56-17.43c-.62-1-1.31-1.9-2-2.82l-.79-1.1c-.29-.4-.57-.81-.86-1.22-.42-.62-.86-1.26-1.35-1.89L165,601a1.44,1.44,0,0,1-.18-.25l-.24-.32-2.92-3.6c-1.26-3.29.57-7.55,4.22-9.74a9.7,9.7,0,0,1,5-1.43M64.85,596.78h0a10,10,0,0,1,6.9,2.84,9.44,9.44,0,0,1,1.43,12.09l-.09.07-.09.07-3.65,2.9-.11.09c-.75.59-1.53,1.14-2.29,1.67l-1.08.77a118.18,118.18,0,0,1-20.9,12A10.25,10.25,0,0,0,43.9,628a11.58,11.58,0,0,0-1.65-1.35,111.61,111.61,0,0,1,5-10.13,125.26,125.26,0,0,1,9.83-14.69l3-3.64,0,0a8.82,8.82,0,0,1,4.79-1.38m89.36.58h0a9.07,9.07,0,0,1,5.12,1.57l0,0,.11.14c.57.74,2.26,2.86,3,3.77.59.75,1.15,1.55,1.68,2.31l.75,1.06A119.27,119.27,0,0,1,177,627.3a9.89,9.89,0,0,0-1.43,1.16,11.4,11.4,0,0,0-1.21,1.43c-4-1.76-7.24-3.36-10.19-5A124.85,124.85,0,0,1,149.44,615l-3.64-3,0,0a9.47,9.47,0,0,1,1.46-11.69,9.64,9.64,0,0,1,7-3m-12.62,16.21v.71a6.74,6.74,0,0,1,2.32.4c1,.85,4.23,3.43,4.38,3.56a121.77,121.77,0,0,0,24.49,14.55,12.82,12.82,0,0,0-.45,1.68c-2.33.16-4.69.24-7,.24a99.72,99.72,0,0,1-27.2-3.74l-.41-.11-.31-.08c-.43-.17-1.25-.53-1.45-.62a6.49,6.49,0,0,1-1.19-.94c-2.5-2.5-2.77-6.87-.65-10.4a9,9,0,0,1,7.48-4.54v-.71m-64.07.08a9.2,9.2,0,0,1,7.55,4.62c2.13,3.52,1.85,7.9-.65,10.41a6.62,6.62,0,0,1-1.2.94l-1.2.54-.08,0-.16.05a101.5,101.5,0,0,1-28,3.93c-2.29,0-4.6-.07-6.9-.23a11.65,11.65,0,0,0-.43-1.74,118.61,118.61,0,0,0,17.23-9.45c1-.66,2-1.38,3-2.08l1-.69c.4-.3.81-.58,1.22-.86.62-.43,1.26-.87,1.9-1.36l.46-.37.26-.19.3-.22L75.32,614a6.36,6.36,0,0,1,2.2-.39m-42,14.1h0a8.58,8.58,0,0,1,6.1,2.49c2.82,2.82,2.74,7.45,1.2,10.85L42.6,641l-1-.84h0c-.31-.31-1.36-1.27-5.12-4.73l-5.75-6.36a9.77,9.77,0,0,1,4.82-1.3m148.2.7h0a12.06,12.06,0,0,1,4.85,1l-.19.39-.74.87h0l-4.73,5.11c-.35.32-4.5,4.09-6.35,5.75a9,9,0,0,1,1.19-10.91,8.29,8.29,0,0,1,6-2.27M87,632.07a8.24,8.24,0,0,1,5.58,13.81,7.29,7.29,0,0,1-2.1,1.43H89a107.63,107.63,0,0,1-12.1-.69l-1-.13-.71-.1c-1.21-.16-2.5-.36-3.94-.6h0c-1.12-.2-2.27-.4-3.4-.63L67,645l-.66-.14A105.7,105.7,0,0,1,47,638.4c.05-.39.08-.75.11-1.1,2.12.13,4.27.19,6.39.19a101.84,101.84,0,0,0,18.74-1.72l.15,0,.06,0a103.55,103.55,0,0,0,10.08-2.37l.49-.15h.06l.75-.22,2.88-.89H87m45.25.59h.41c.31.11,1,.32,2.71.84l.7.21.07,0h0l.08,0,.43.12c3.13.9,6.43,1.68,10.06,2.38h.15l.1,0A101.85,101.85,0,0,0,165.68,638c2.13,0,4.28-.07,6.42-.2,0,.37.07.73.13,1.1a106.14,106.14,0,0,1-19.38,6.44l-.59.13-.86.19c-1.21.25-2.41.47-3.43.64-1.43.25-2.72.44-3.94.61l-.71.1-1,.13a109.18,109.18,0,0,1-12,.66h-1.86a6.58,6.58,0,0,1-1.89-1.32,8.19,8.19,0,0,1-1.64-8.59,8,8,0,0,1,7.33-5.28m-85.16,3.88h0m-.93,5.08a106.77,106.77,0,0,0,38,8.82l4.69,0,.56,0,.63,0h0l1.16,0,3.36-.07a14.14,14.14,0,0,1,6.62,3.83c3.48,3.5,4.88,8.07,3.5,11.31l-1.11,0h0l-.62,0-4.26-.35h0l-4.84-.62h0l-4-.74h0l-.75-.16a104,104,0,0,1-43.71-20.27,14.61,14.61,0,0,0,.79-1.71m127,.48a12.8,12.8,0,0,0,.88,1.62,104.08,104.08,0,0,1-43.94,20.43l-.77.15-3.85.72-5,.64-3.93.33-.95.08-1.13,0c-1.38-3.24,0-7.82,3.5-11.31a13.94,13.94,0,0,1,6.84-3.85c.4,0,1.23,0,3.14.09h1.27l1,0,.9,0,3.87,0a106.89,106.89,0,0,0,38.09-8.89m-52.63,23.56h0M104.81,458.41l-1.59.06-1,.07-3.93.33-5,.65-3.89.73-.75.15h0a104.6,104.6,0,0,0-44.35,20.66,12.74,12.74,0,0,1,1.35,2.9,106.72,106.72,0,0,1,38.19-9l3.83,0c.61,0,1.23,0,1.84,0h1.35s3.18.07,3.22.09a14.72,14.72,0,0,0,7.27-4.06c3.89-3.9,5.23-9.06,3.44-12.54Zm9,.55c-1.79,3.48-.44,8.64,3.45,12.53a14.76,14.76,0,0,0,7,4.05l3.43-.08H129l1.11,0,4.68,0a106.74,106.74,0,0,1,38.42,9.09,13.38,13.38,0,0,1,1.26-2.85A104.38,104.38,0,0,0,129.93,461l-.76-.15-4-.75-4.9-.63-4.28-.35-.64-.05-1.6-.06ZM90.57,476.69h-2a104.91,104.91,0,0,0-12,.67l-1.73.23c-1.32.17-2.64.38-4,.6-1.16.2-2.32.41-3.47.65l-1.45.32a105.91,105.91,0,0,0-19.76,6.6,13.62,13.62,0,0,1,.24,2.38q3.41-.22,6.86-.23a100.55,100.55,0,0,1,18.54,1.7l.24.05c3.36.63,6.69,1.4,10,2.36l.43.12.07,0,0,0,.73.21s2.72.84,2.77.87l.55,0a8.69,8.69,0,0,0,8-5.75,8.87,8.87,0,0,0-1.82-9.33,7,7,0,0,0-2.23-1.53Zm39.49.53h-1.82a8,8,0,0,0-2.45,1.65,9,9,0,0,0,6.08,15l.45,0,3-.91.74-.22h.06l.49-.15c3.31-1,6.65-1.73,10-2.37l.23,0a101.29,101.29,0,0,1,18.6-1.71q3.6,0,7.16.25a14.33,14.33,0,0,1,.17-2.26,105,105,0,0,0-20.05-6.73l-1.45-.32c-1.14-.24-2.3-.45-3.46-.65-1.32-.23-2.64-.43-4-.61-.58-.07-1.16-.16-1.73-.22a104.87,104.87,0,0,0-12-.7Zm-87.15,5.39c-.8.69-1.79,1.52-1.79,1.52L36,488.9l-6.34,7a10.57,10.57,0,0,0,5.91,1.85,9.26,9.26,0,0,0,5.21-1.56,10.62,10.62,0,0,0,1.11-.92,9.58,9.58,0,0,0,2.62-5,12.06,12.06,0,0,0-.5-5.53,11.08,11.08,0,0,0-1.05-2.13Zm132.82.61c-1.89,3.72-2.09,8.94,1.1,12.13a9.25,9.25,0,0,0,6.6,2.7,10.57,10.57,0,0,0,5.91-1.85l-6.33-7s-5.16-4.75-5.17-4.77l-.53-.43c-.55-.28-1.17-.57-1.58-.77ZM53.56,489.84q-3.68,0-7.32.25a11.61,11.61,0,0,1-.71,2.9,120.26,120.26,0,0,1,24.64,14.58s3.54,2.86,4.45,3.61a7.32,7.32,0,0,0,2.69.49,9.68,9.68,0,0,0,8.07-4.87c2.34-3.9,1.94-8.59-.76-11.27a7.11,7.11,0,0,0-1.35-1.08s-1.06-.47-1.57-.65c-.25-.08-.5-.13-.75-.2a100.38,100.38,0,0,0-27.39-3.76Zm111.56.53a101.79,101.79,0,0,0-28.2,4l-.29.08-1.29.58a6.9,6.9,0,0,0-1.37,1.07c-2.69,2.69-3.11,7.37-.76,11.27a9.87,9.87,0,0,0,8.16,5,6.68,6.68,0,0,0,2.55-.48l3.68-3c.19-.14.38-.25.55-.4l.48-.37c1-.78,2.06-1.45,3.09-2.2,1.29-.92,2.57-1.89,3.88-2.75a116,116,0,0,1,17.88-9.73,11.61,11.61,0,0,1-.74-2.72q-3.78-.28-7.62-.28ZM44.69,494.64a9.65,9.65,0,0,1-1.31,1.67A10.66,10.66,0,0,1,41.17,498a118.51,118.51,0,0,0,12.25,21.45c.81,1.13,1.58,2.28,2.45,3.4.76.94,2.43,3,3,3.76l.22.27a9.81,9.81,0,0,0,5.6,1.75,10.47,10.47,0,0,0,7.48-3.21,10.26,10.26,0,0,0,1.44-12.74l-.06,0-3.64-3a123.41,123.41,0,0,0-14.79-9.9,115.47,115.47,0,0,0-10.42-5.13Zm129.63.39a119,119,0,0,0-21.71,12.36c-1.13.82-2.28,1.59-3.4,2.45-.94.76-3,2.44-3.76,3l-.28.21a10.17,10.17,0,0,0,1.47,13.09,10.65,10.65,0,0,0,7.39,3,9.51,9.51,0,0,0,5.35-1.59s0-.05,0-.07l3-3.63a124.72,124.72,0,0,0,9.91-14.79,114.4,114.4,0,0,0,5.34-10.91,11.57,11.57,0,0,1-2-1.58,9.08,9.08,0,0,1-1.25-1.57Zm-146.2,2.12A104.38,104.38,0,0,0,7,542.1l-.15.75s-.73,3.9-.74,4-.6,4.61-.63,4.9L5.09,556l0,.64s0,1.29-.07,1.59A7.38,7.38,0,0,0,8.4,559a13.47,13.47,0,0,0,9.12-4.22,14.85,14.85,0,0,0,4-7.06l-.07-3.43v-1.16c0-.4,0-.79,0-1.19l0-4.67a106.81,106.81,0,0,1,9.18-38.68l-.28-.14c-.34-.15-.67-.28-1-.45a7.8,7.8,0,0,1-1.33-.87Zm162.36.51a12.7,12.7,0,0,1-2.64,1.41,106.87,106.87,0,0,1,9.22,38.77s0,2,0,3.83c0,.67.05,1.35.05,2l0,1.16S197,548,197,548.07a14.64,14.64,0,0,0,4.06,7.27,13.4,13.4,0,0,0,9.11,4.23,7.55,7.55,0,0,0,3.43-.78c0-.3-.07-1.6-.07-1.6s-.05-.64-.07-1l-.33-3.94s-.63-4.9-.65-5l-.72-3.89-.16-.76a104.42,104.42,0,0,0-21.14-45Zm-151,1.14a11.72,11.72,0,0,1-2.85.68,102.42,102.42,0,0,0,3.69,35.63c0,.09,0,.19.08.29l.59,1.29a6.78,6.78,0,0,0,1.06,1.37A8.27,8.27,0,0,0,48,540.35a10.46,10.46,0,0,0,5.39-1.54c4.05-2.43,5.92-7.14,4.47-10.71l-3-3.68c-.15-.18-.26-.37-.4-.55l-.38-.48c-.78-1-1.45-2-2.19-3.08C51,519,50,517.73,49.13,516.43a116.32,116.32,0,0,1-9.61-17.63Zm139.73.24a119.92,119.92,0,0,1-14.8,25.1s-2.85,3.55-3.61,4.45c-1.45,3.77.4,8.37,4.39,10.77a10.41,10.41,0,0,0,5.38,1.53,8.25,8.25,0,0,0,5.89-2.29,7.13,7.13,0,0,0,1.07-1.36s.47-1,.66-1.56c.07-.25.12-.5.19-.75a101.06,101.06,0,0,0,3.49-35.2,11.33,11.33,0,0,1-2.66-.69ZM32.5,499.2a106.26,106.26,0,0,0-6.76,20.12c-.1.48-.22,1-.32,1.45-.24,1.15-.45,2.31-.65,3.47s-.43,2.63-.61,4c-.07.57-.15,1.15-.21,1.72a103.83,103.83,0,0,0-.7,13.21v.66a7.68,7.68,0,0,0,1.65,2.44,8.4,8.4,0,0,0,6,2.41,9.37,9.37,0,0,0,3.26-.59,8.69,8.69,0,0,0,5.77-8.34l-.92-3-.21-.74a.1.1,0,0,1,0,0v0l-.15-.49c-1-3.31-1.73-6.65-2.37-10a1,1,0,0,0,0-.24,102.52,102.52,0,0,1-1.47-25.67,12.15,12.15,0,0,1-2.22-.33Zm153.53.39a11.38,11.38,0,0,1-2.17.26,102.86,102.86,0,0,1-1.45,25.89l-.06.25c-.63,3.35-1.4,6.69-2.35,10l-.13.43,0,.08a.11.11,0,0,1,0,0l-.21.72s-.84,2.73-.88,2.77a8.66,8.66,0,0,0,5.73,8.56,9.53,9.53,0,0,0,3.29.59,8.58,8.58,0,0,0,6.05-2.41,7.25,7.25,0,0,0,1.53-2.24v-2a105.16,105.16,0,0,0-.68-12c-.06-.57-.14-1.15-.21-1.72-.19-1.33-.39-2.65-.62-4-.2-1.16-.4-2.31-.65-3.47-.09-.48-.21-1-.31-1.45A106.72,106.72,0,0,0,186,499.59ZM8.7,565.68a7.42,7.42,0,0,0-3.43.78c0,.3.06,1.59.06,1.59s.06.64.08,1L5.74,573s.63,4.9.65,5l.72,3.89.16.76a104.41,104.41,0,0,0,21.1,44.92A11.81,11.81,0,0,1,31,626.08a106.77,106.77,0,0,1-9.19-38.67s0-2,0-3.83c0-.68,0-1.35,0-2l0-1.16s.07-3.18.08-3.22a14.65,14.65,0,0,0-4.06-7.27,13.45,13.45,0,0,0-9.11-4.22Zm201.78.54a13.44,13.44,0,0,0-9.11,4.23,14.64,14.64,0,0,0-4,7.06l.07,3.43v1.16c0,.4,0,.79,0,1.18l0,4.68a106.89,106.89,0,0,1-9.17,38.64,13,13,0,0,1,2.78,1.24,104.38,104.38,0,0,0,21-44.69l.15-.75s.73-3.9.74-4,.6-4.61.63-4.9c0,0,.33-3.94.36-4.28l0-.64s0-1.29.06-1.59a7.36,7.36,0,0,0-3.42-.79ZM31.12,576.05a8.55,8.55,0,0,0-6,2.41,7.12,7.12,0,0,0-1.53,2.25l0,2a107.21,107.21,0,0,0,.66,12c.07.58.16,1.15.22,1.73.19,1.32.39,2.64.62,4,.2,1.15.4,2.31.65,3.46.09.48.21,1,.32,1.45a105.27,105.27,0,0,0,6.77,20.16,11.84,11.84,0,0,1,2.22-.29,102.22,102.22,0,0,1,1.45-25.75l.06-.23c.63-3.36,1.4-6.7,2.35-10l.13-.44a.36.36,0,0,1,0-.07.11.11,0,0,1,0,0l.21-.73s.84-2.73.88-2.76a8.65,8.65,0,0,0-5.73-8.55,9.38,9.38,0,0,0-3.3-.61Zm156.89.56a9.35,9.35,0,0,0-3.25.59,8.69,8.69,0,0,0-5.77,8.34l.92,3,.22.73v.06l.15.49c1,3.32,1.73,6.66,2.36,10,0,.08,0,.15,0,.24a102.61,102.61,0,0,1,1.46,25.86h0c.33,0,.65.07,1,.09l.66.07a4.36,4.36,0,0,1,.52,0,105.61,105.61,0,0,0,6.79-20.19c.1-.49.21-1,.32-1.45.24-1.16.45-2.31.65-3.47.22-1.32.43-2.64.6-4,.08-.58.16-1.15.23-1.73a105.44,105.44,0,0,0,.69-13.2v-.66A8,8,0,0,0,194,579a8.46,8.46,0,0,0-6-2.4ZM48.27,584.35a8.27,8.27,0,0,0-5.89,2.29A7.41,7.41,0,0,0,41.32,588s-.47,1.06-.66,1.57c-.07.25-.12.5-.19.74A100.92,100.92,0,0,0,37,625.36a10.93,10.93,0,0,1,2.74.7,120,120,0,0,1,14.73-25s2.85-3.54,3.61-4.45c1.45-3.77-.41-8.36-4.39-10.76a10.46,10.46,0,0,0-5.39-1.54Zm122.64.55a10.54,10.54,0,0,0-5.39,1.53c-4.05,2.44-5.91,7.14-4.47,10.71l3,3.69c.14.18.26.37.4.55l.38.47c.78,1,1.44,2.06,2.19,3.09.92,1.29,1.89,2.57,2.75,3.89a117,117,0,0,1,9.76,17.92,12.73,12.73,0,0,1,2.69-.65,102.15,102.15,0,0,0-3.68-36l-.08-.29-.59-1.29a7.16,7.16,0,0,0-1.06-1.37,8.27,8.27,0,0,0-5.89-2.29ZM64.85,596.08a9.5,9.5,0,0,0-5.34,1.59s0,.05,0,.07l-3,3.63a125.85,125.85,0,0,0-9.9,14.79,116,116,0,0,0-5.27,10.75,11.38,11.38,0,0,1,2,1.58,9.12,9.12,0,0,1,1.31,1.66,117.62,117.62,0,0,0,21.57-12.3c1.13-.81,2.28-1.58,3.39-2.45,1-.76,3-2.43,3.77-3l.27-.21a10.16,10.16,0,0,0-1.46-13.09,10.61,10.61,0,0,0-7.4-3Zm89.36.57a10.47,10.47,0,0,0-7.48,3.21,10.23,10.23,0,0,0-1.44,12.74l.07,0,3.63,3a125,125,0,0,0,14.79,9.9,118.23,118.23,0,0,0,10.79,5.3A11.53,11.53,0,0,1,176,629a9.38,9.38,0,0,1,1.82-1.38,118.54,118.54,0,0,0-12.38-21.75c-.81-1.13-1.58-2.28-2.45-3.4-.76-.95-2.43-3-3-3.76-.09-.1-.15-.19-.22-.27a9.81,9.81,0,0,0-5.6-1.75ZM77.52,613a6.92,6.92,0,0,0-2.56.47l-3.68,3c-.18.13-.37.25-.55.4l-.47.37c-1,.78-2.06,1.45-3.09,2.19-1.29.93-2.57,1.89-3.89,2.75a115.46,115.46,0,0,1-17.73,9.67,11.78,11.78,0,0,1,.71,2.79q3.74.27,7.51.27a101.77,101.77,0,0,0,28.2-4l.29-.08,1.29-.59a7.16,7.16,0,0,0,1.37-1.06c2.68-2.69,3.11-7.38.76-11.28A9.88,9.88,0,0,0,77.52,613Zm64.07.62a9.68,9.68,0,0,0-8.08,4.88c-2.35,3.9-1.94,8.59.75,11.28a7.09,7.09,0,0,0,1.36,1.06s1.06.47,1.57.66l.74.2a100.39,100.39,0,0,0,27.39,3.77q3.83,0,7.61-.28a11.44,11.44,0,0,1,.76-2.73,120.33,120.33,0,0,1-25-14.74s-3.55-2.85-4.45-3.61a7.48,7.48,0,0,0-2.68-.49ZM35.55,627a10.58,10.58,0,0,0-5.91,1.86l6.34,7s5.16,4.75,5.17,4.77l1.06.89,1,.46c2-3.72,2.22-9-1-12.29a9.27,9.27,0,0,0-6.6-2.7Zm148.2.7a9,9,0,0,0-6.47,2.47,9.81,9.81,0,0,0-.84,12.52l7-6.34s4.76-5.17,4.77-5.17l.79-.94c.2-.4.38-.78.54-1.11a12.68,12.68,0,0,0-5.79-1.43ZM87,631.36l-.45,0-3,.91-.74.22H82.8l-.49.15c-3.32,1-6.65,1.73-10,2.36l-.23.05a101.16,101.16,0,0,1-18.59,1.7q-3.55,0-7.08-.24a14.86,14.86,0,0,1-.2,2.29,105.31,105.31,0,0,0,20,6.7l1.44.32c1.15.24,2.31.44,3.47.65,1.32.22,2.64.43,4,.61l1.73.22A107.63,107.63,0,0,0,89,648h1.67a8,8,0,0,0,2.45-1.64,8.95,8.95,0,0,0-6.08-15Zm45.25.59a8.7,8.7,0,0,0-8,5.74,8.86,8.86,0,0,0,1.81,9.34,7.49,7.49,0,0,0,2.24,1.53l2,0a107.34,107.34,0,0,0,12-.66l1.73-.23c1.32-.18,2.64-.38,4-.61,1.16-.2,2.32-.4,3.47-.65.48-.09,1-.21,1.45-.32a106.2,106.2,0,0,0,20-6.71,11,11,0,0,1-.25-2.27c-2.36.16-4.72.24-7.1.24a100.78,100.78,0,0,1-18.56-1.71l-.24,0c-3.36-.64-6.7-1.41-10-2.37l-.43-.12-.07,0h-.05l-.73-.22s-2.72-.83-2.77-.86a5,5,0,0,0-.55,0Zm-86.51,8.71a12.73,12.73,0,0,1-1.29,2.84A104.38,104.38,0,0,0,89,664.3l.75.15,4,.75,4.9.63,4.28.35.63,0,1.6.07c1.8-3.48.45-8.63-3.44-12.54a14.82,14.82,0,0,0-7-4l-3.44.07-1.16,0-1.18,0-4.68,0a107,107,0,0,1-38.39-9.08Zm127.78.5A107,107,0,0,1,135,650.28l-3.83,0c-.65,0-1.29,0-1.93,0H128s-3.17-.07-3.21-.09a14.56,14.56,0,0,0-7.27,4.06c-3.89,3.9-5.23,9.06-3.45,12.54l1.6-.06,1-.08,3.93-.33,5-.64,3.88-.73.76-.15h0a104.66,104.66,0,0,0,44.77-21,11.84,11.84,0,0,1-1.45-2.71Z"/><path class="cls-1" d="M109.44.71A108.38,108.38,0,1,1,1.06,109.09,108.5,108.5,0,0,1,109.44.71m-1.13,195a86.58,86.58,0,1,0-86.58-86.58,86.68,86.68,0,0,0,86.58,86.58M141.25,33c1.49.65,3.08,1.42,5,2.4V98l-.47,0L134.26,44l-.11-.48c0-.28-.12-1-.13-1.14,0-3.49,2.11-6.76,5.63-8.73a8.05,8.05,0,0,1,1.33-.56l.27-.09m-21.36,3.81a15.74,15.74,0,0,1,2,.14,11.09,11.09,0,0,1,8.82,6.09l.25.79.09.33L142.6,98.61a13.48,13.48,0,0,0-1.89.74c-10.34-14.47-32-44.77-32-44.76l-1-1.46c-.16-.26-.5-.85-.59-1a9.81,9.81,0,0,1,1.61-10.07,13.7,13.7,0,0,1,5.83-4.23,14.7,14.7,0,0,1,5.36-1M96.66,50.44v.71A11.07,11.07,0,0,1,104.29,54l.57.65.25.31h0c.17.27.47.68.95,1.36L138,101a13.94,13.94,0,0,0-1.42,1.34L89.84,73.17l-1.13-.73-1.55-1c-.22-.15-.82-.61-1-.71a9.88,9.88,0,0,1-2.63-9.88,12.6,12.6,0,0,1,3.64-6,14.17,14.17,0,0,1,6.4-3.43,13.28,13.28,0,0,1,3-.35v-.71M80.44,72.81a10.87,10.87,0,0,1,3.9.7l.83.43c.2.1,1.19.72,1.78,1.09l32.34,20.21,15.51,9.69a11.29,11.29,0,0,0-.76,1.7L77.06,96l-1.33-.25-1.15-.31A10.5,10.5,0,0,1,68,87.26,12,12,0,0,1,69,80.48,13.13,13.13,0,0,1,73.46,75a12.25,12.25,0,0,1,7-2.22M73.91,98.69l.88.09.51,0,.76.16.87.16,56.46,10.51a6.08,6.08,0,0,0,0,1.84L75.67,122.24l-.54.1-1.22.13a11.25,11.25,0,0,1-9.42-5.28,12.23,12.23,0,0,1,0-13.22,11.23,11.23,0,0,1,9.42-5.28m72.3,2.35v19.08c-5.39-.28-9.69-4.47-9.69-9.54s4.3-9.27,9.69-9.54M134,114.52a11.87,11.87,0,0,0,.76,1.71L87,146.12l-1.55,1c-.27.15-.92.48-1.07.55a10.86,10.86,0,0,1-3.91.72,12.24,12.24,0,0,1-7-2.24A13,13,0,0,1,69,140.7a12.21,12.21,0,0,1-.93-6.8,10.55,10.55,0,0,1,6.54-8.22l.84-.24.35-.09L134,114.52m2.56,4.26a13.72,13.72,0,0,0,1.42,1.33l-3.56,5c-11.16,15.61-28.8,40.32-29.41,41.18-.19.23-.65.75-.76.87A11.07,11.07,0,0,1,96.67,170a13.38,13.38,0,0,1-3.06-.36,13.92,13.92,0,0,1-6.4-3.42,12.66,12.66,0,0,1-3.64-6,9.86,9.86,0,0,1,2.64-9.88l.7-.53.34-.25h0c.23-.13.64-.38,1.45-.89l47.9-29.94m4.11,3a14,14,0,0,0,1.89.74L131,177c-.07.28-.28.93-.33,1.09a11,11,0,0,1-8.83,6.1,13.67,13.67,0,0,1-2,.14,14.78,14.78,0,0,1-5.33-1,13.81,13.81,0,0,1-5.85-4.23A9.85,9.85,0,0,1,107.09,169l.45-.76,1.16-1.66,21.62-30.25,10.39-14.55m5,1.34.47,0v59.65a81.93,81.93,0,0,1-8,3.57,9.88,9.88,0,0,1-4.19-7.66l.09-.81.06-.38,11.57-54.42M131,177h0M109.44,0A109.09,109.09,0,1,0,218.53,109.09,109.21,109.21,0,0,0,109.44,0Zm-1.13,195a85.87,85.87,0,1,1,85.88-85.87A86,86,0,0,1,108.31,195Zm33-162.74a14.72,14.72,0,0,0-2,.79c-3.75,2.11-6,5.62-6,9.39,0,0,.09.87.14,1.2l.12.54L145.19,98.8a12.09,12.09,0,0,1,1.5-.15v1.67c-6,0-10.88,4.63-10.88,10.26s4.87,10.21,10.88,10.26v1.67c-.52,0-1-.09-1.5-.15l-11.71,55.06-.07.41-.09.88a10.59,10.59,0,0,0,4.78,8.5,83.08,83.08,0,0,0,8.82-3.94V35c-1.85-1-3.72-1.9-5.65-2.73Zm-21.38,3.87a15.56,15.56,0,0,0-5.62,1,14.51,14.51,0,0,0-6.12,4.45,10.49,10.49,0,0,0-1.69,10.83s.43.74.63,1l1,1.49,32.35,45.26a13.41,13.41,0,0,1,2.94-1.15L131.72,44l-.1-.36-.26-.86A11.84,11.84,0,0,0,122,36.26a18.15,18.15,0,0,0-2.08-.13ZM96.66,50.44a14.1,14.1,0,0,0-3.2.37,14.9,14.9,0,0,0-6.74,3.6,13.31,13.31,0,0,0-3.83,6.3,10.55,10.55,0,0,0,2.85,10.6s.75.57,1,.75l1.59,1,1.12.71,47.28,29.54a13.39,13.39,0,0,1,2.26-2.12L106.64,55.89s-1-1.39-1-1.39h0l-.25-.31-.61-.7a11.84,11.84,0,0,0-8.14-3.05ZM80.44,72.1a13,13,0,0,0-7.38,2.35,13.68,13.68,0,0,0-4.75,5.74,12.74,12.74,0,0,0-1,7.18,11.18,11.18,0,0,0,7,8.78s.88.25,1.22.33l1.36.26,57.6,10.71a11,11,0,0,1,1.22-2.76l-16.08-10L87.32,74.43s-1.52-1-1.81-1.12l-.88-.44a11.56,11.56,0,0,0-4.19-.77ZM73.94,98a12,12,0,0,0-10,5.6,13,13,0,0,0,0,14,12,12,0,0,0,10,5.6s.93-.09,1.28-.14l.57-.1,58.39-10.87a12.34,12.34,0,0,1-.16-1.49,12.13,12.13,0,0,1,.16-1.49L77.06,98.45l-1.74-.32-.44-.06L73.94,98Zm60.59,15.73-58.9,11-.39.09-.9.26a11.22,11.22,0,0,0-7,8.78,12.91,12.91,0,0,0,1,7.2,13.82,13.82,0,0,0,4.75,5.72,13,13,0,0,0,7.38,2.35,11.62,11.62,0,0,0,4.2-.77s.81-.4,1.13-.58l1.57-1s33.18-20.71,48.41-30.24a11.16,11.16,0,0,1-1.22-2.76Zm2.21,4.15c-16.9,10.55-48.42,30.26-48.42,30.26s-1.47.92-1.49.92h0l-.33.24-.75.57a10.57,10.57,0,0,0-2.86,10.61,13.22,13.22,0,0,0,3.84,6.29,14.52,14.52,0,0,0,6.73,3.59,14.27,14.27,0,0,0,3.21.38,11.82,11.82,0,0,0,8.13-3.06s.61-.69.81-.93L135,125.52,139,120,139,120a12.6,12.6,0,0,1-2.26-2.11Zm3.75,3-10.75,15c-10.44,14.6-21.61,30.25-21.61,30.25s-1,1.42-1.19,1.69l-.48.82a10.51,10.51,0,0,0,1.69,10.83,14.54,14.54,0,0,0,6.14,4.45,15.57,15.57,0,0,0,5.59,1.05,14.69,14.69,0,0,0,2.09-.15,11.76,11.76,0,0,0,9.39-6.55l.35-1.15s8.08-38,11.72-55.14a13.22,13.22,0,0,1-2.94-1.15Z"/><path class="cls-2" d="M213.91,338.29A104.42,104.42,0,0,1,33.49,409.92a104.4,104.4,0,1,1,180.42-71.63M72.56,274.46a8.24,8.24,0,0,0,4,1.85c.57.1,4.39,0,3.39-1.21a9.42,9.42,0,0,1-2.39-4,7.16,7.16,0,0,1,.58-4.62,7.7,7.7,0,0,1,7.62-3.94,8,8,0,0,1,6.18,4.81c2.42,5.2.32,11.34-4,14.77a17.79,17.79,0,0,1-17,2.58c-7.38-3-11.06-10.89-13.6-17.89a90.72,90.72,0,0,0,.49,45.93,26.3,26.3,0,0,0-3.2,3.65A27.7,27.7,0,0,0,52,313.24a21.57,21.57,0,0,0-4.06-3.69,98.16,98.16,0,0,1,.78-45.05A95.83,95.83,0,0,0,17.6,311.89c-7.38,5.93-12.74,16-11.31,29.37,0,7.3,4.43,14.42,10.6,20.81a95.77,95.77,0,0,0,31.18,49.48c3.23,1.63,6.89,2.93,10.56,2.33a17.2,17.2,0,0,0,8.78-4.74,12,12,0,0,0,4.07-7.77,8.33,8.33,0,0,0-.82-4.29c-.33-.63-2-2.88-2.47-1.37-.89,2.63-2.44,4.85-5.29,5.56a7.37,7.37,0,0,1-7.64-3.14c-4-5.62,1.13-12,6.77-13.47,7.83-2.07,15.41,3.53,18.2,10.64,3.45,8.78-2.41,17.51-7.85,24a90.88,90.88,0,0,0,39.89-23.76,33.21,33.21,0,0,0,5.58,1.2,27.18,27.18,0,0,0-1.64,4.8,22.59,22.59,0,0,0-.65,3.17,98.63,98.63,0,0,1-40,23,95.37,95.37,0,0,0,55.46,3.7,3.25,3.25,0,0,1,2.26,0c.65.23,1.3.43,2,.62a30.32,30.32,0,0,0,4.44.88,32.46,32.46,0,0,0,18.87-3.61,39.89,39.89,0,0,0,5.06-3.14c6.39-3.69,10.35-11.2,12.79-19.83a95.3,95.3,0,0,0,27.52-53,16.09,16.09,0,0,0-17.77-14.15c-2.69.44-5.75,2.26-6.53,5-.52,1.86.4,1.46,1.68,1.26a7.52,7.52,0,0,1,4.73.76,7,7,0,0,1,3.3,8c-1.69,6.63-9.43,7.23-14.19,3.53-6.84-5.32-6.43-15.17-1.65-21.73,5.74-7.86,16.6-7.23,25.12-5.73a90.94,90.94,0,0,0-40.66-22.69,26.92,26.92,0,0,0-1.85-5.89,28.24,28.24,0,0,0,3.1-.53,20.44,20.44,0,0,0,4.45-1.12A99,99,0,0,1,203.82,323a95.33,95.33,0,0,0-25.35-50.7c-1.36-9.44-7.36-19.26-19.82-24.78-6.36-3.68-14.81-3.38-23.48-1.19a95.69,95.69,0,0,0-45.28-1.6c-3.48.72-7.54,1.37-10.68,3.07a29.74,29.74,0,0,0-7.3,5.17c-4.22,4.32-5,10.9-2.86,16.44a12.91,12.91,0,0,0,3.51,5.08m14.21-28.92.28-.12,0,.16c-.1,0-.22,0-.32,0M158.57,265l.73,1.79c.71,1.87,1.41,3.79,2,5.68a.94.94,0,0,0,.06.15,52.38,52.38,0,0,1,2,7.24,20.78,20.78,0,0,0-5,5.22,9.74,9.74,0,0,0-4.18-1.58,31.14,31.14,0,0,1-1.67-4.69c-.89-3.21-1.66-6.46-2.39-9.7l-.11-.47-.73-4a60.78,60.78,0,0,1-.17-16.55A83.47,83.47,0,0,1,158.57,265m.51-2.57a40.64,40.64,0,0,1,3.8-9.28,54.42,54.42,0,0,1,4.75,13.94,62.62,62.62,0,0,1,1,7.09l.12,1.79c0,.89.06.88-.73,1.23a24.45,24.45,0,0,0-3.31,1.77,91.56,91.56,0,0,0-5.61-16.54m-10.57,6.43.1.48c.77,3.4,1.49,6.52,2.26,9.28-2.15-2.92-5-6.26-8.51-10.17l-1.7-1.83a82.41,82.41,0,0,1-4-16.91,109.88,109.88,0,0,1,11.12,14.88c.19,1.39.45,2.81.78,4.27m-7.27.51c.7.77,1.38,1.55,2.08,2.32l.41.47c3.1,3.55,6.34,7.16,8.55,11.35a8.22,8.22,0,0,0-6.53,5.31c-.26-.22-.51-.44-.78-.64a64.25,64.25,0,0,1-7-8.28c-1-1.41-2-2.85-3-4.29l-1.44-2.17a10,10,0,0,0-1.48-2.2,80.77,80.77,0,0,1-8.26-17.17,104.89,104.89,0,0,1,17.42,15.3m-10.34,2.68c.6.94,1.2,1.89,1.88,2.84l.1.16.32.45c2.51,3.53,4.81,6.76,7,9.46-.93-.57-1.93-1.06-2.83-1.67-3.85-2.22-7.76-4.38-11.74-6.36a.84.84,0,0,0-.21-.11l0,0h0l-.06,0a21.48,21.48,0,0,1-2.62-1.33c-.75-.82-1.48-1.65-2.19-2.5q-2.08-2.47-4-5.08a86.33,86.33,0,0,1-5-7.6,115.34,115.34,0,0,1,19.37,11.8m-6.2,6c3.38,1.78,6.8,3.5,10.14,5.36,1.68.93,3.33,1.9,4.94,2.93.74.47,1.48,1,2.2,1.46.44.3,1.68,1.55,2.17,1.55.44.42.87.73,1.3,1.08A10,10,0,0,0,148,297.3a11.08,11.08,0,0,0-4.55.29,9.28,9.28,0,0,0-2.3,1,22.67,22.67,0,0,0-2.23-.78l0,0a76.24,76.24,0,0,1-11.13-6c-3.7-2.3-7.37-4.66-10.93-7.18A140.51,140.51,0,0,1,97.3,267.9a113.28,113.28,0,0,1,27.4,10.18m8.65,18.63c-3.31-.49-7.09-.85-11.21-1.24H122l-.38,0c-1-.1-2.11-.19-3.16-.21a8.35,8.35,0,0,1-2.94-1.1c-2.06-.94-4.11-1.94-6.11-3a115,115,0,0,1-11.28-6.78,89.59,89.59,0,0,1,19,2.2,165,165,0,0,0,16.21,10.18M95.8,268.43a146.83,146.83,0,0,0,18.55,16.12,88.39,88.39,0,0,0-18.61-1.66.65.65,0,0,0-.21.07c-.15-6.63.11-12,.27-14.53m-.23,15.87a117.29,117.29,0,0,0,18.7,10.83,80.21,80.21,0,0,0-17.78,1.94c-.52-4.42-.8-8.78-.92-12.77m22.17,12.32.22,0,3.59.22c6.07.57,12.42.79,18.21,2.8A7.63,7.63,0,0,0,138.2,308a50.1,50.1,0,0,1-9.69-.92c-3.41-.54-6.8-1.26-10.15-2.12a109.12,109.12,0,0,1-19.47-6.9,79,79,0,0,1,18.85-1.44m23.58,69.71-2,3c-3.22,4.52-6.28,9.56-10.34,13.39-.44.33-.81.66-1.19,1a7.69,7.69,0,0,0-6.43-5.52c3.31-5.85,8.13-11,12.76-15.83a104.07,104.07,0,0,1,15.5-13.24,78.64,78.64,0,0,1-8.17,17.05,1.33,1.33,0,0,0-.14.17m13-7c3.28-1.89,5.88-3.2,7.59-4a91.33,91.33,0,0,1-11.43,15.39,179.48,179.48,0,0,0-16.91,8.94c2.33-2.94,4.5-6,6.67-9.08l0,0a.18.18,0,0,0,0-.07l0,0,.22-.32c.89-1.25,1.53-2.68,2.77-3.59s2.55-1.84,3.85-2.73c2.33-1.57,4.71-3,7.14-4.46m-21.67,2.49a125.13,125.13,0,0,0-10.08,11.85c.86-3.06,1.55-6.18,2.26-9.28l.1-.47c.34-1.52.61-3,.82-4.44a110.24,110.24,0,0,1,11.08-14.72,83.29,83.29,0,0,1-4.18,17.06m-8.52-1.72c-.27,1.36-.68,3.59-.68,3.59l-.11.48c-.27,1.21-.54,2.39-.81,3.55-.53,1.9-1,3.83-1.5,5.74-.24.88-.5,1.75-.8,2.62-.14.43-.3.86-.46,1.29-.3.8-.33.81-1.14,1a9.75,9.75,0,0,0-3.26,1.44,15.18,15.18,0,0,0-.95-1.32,21.1,21.1,0,0,0-4.25-4,55.07,55.07,0,0,1,1.87-6.84,77.6,77.6,0,0,1,3.7-9.67,83.49,83.49,0,0,1,8.61-14.85,60.56,60.56,0,0,1-.22,16.95M29.88,339.34l.35-.32c2.57-2.37,4.91-4.55,6.92-6.6-1.46,3.32-2.93,7.46-4.55,12.45l-.74,2.38a81.9,81.9,0,0,1-12.62,12,110.53,110.53,0,0,1,7.33-17.06c1.1-.87,2.21-1.8,3.31-2.82M11.6,349.22a90.55,90.55,0,0,1,15-22.81.52.52,0,0,0,.1-.11A52.2,52.2,0,0,1,32,321a20.47,20.47,0,0,0,7,1.75,9.79,9.79,0,0,0,.72,4.41,32.67,32.67,0,0,1-3.1,3.65c-2.35,2.44-4.84,4.76-7.33,7.06l-.36.33-3.09,2.63a60.38,60.38,0,0,1-14.25,8.42M34,345.38c.32-1,.65-2,1-2.95l.2-.59c1.51-4.49,3-9,5.54-13.08a8.24,8.24,0,0,0,7.88,3c-.07.34-.13.66-.17,1a67.15,67.15,0,0,1-3.6,10q-1.14,2.55-2.37,5c-.4.83-.81,1.66-1.22,2.48a9.26,9.26,0,0,0-1,2.12,81.07,81.07,0,0,1-10.74,15.75A105.66,105.66,0,0,1,34,345.38M43,350l.08-.16.23-.51c1.81-3.93,3.45-7.54,4.71-10.77-.14,5.55.1,11.1.32,16.65a1.93,1.93,0,0,0,0,.23v.1a.25.25,0,0,1,0,.09q.06,1.46.15,2.85a91.21,91.21,0,0,1-7.57,17.25,115.83,115.83,0,0,1-.24-13q.12-3.39.45-6.76a9.31,9.31,0,0,1,.52-3.25c.46-.88.91-1.77,1.33-2.68m6.79,5.41c-.15-3.83-.37-7.65-.43-11.48,0-1.92,0-3.84.06-5.75.08-1.75.43-3.54.43-5.27.14-.59.2-1.12.28-1.66a10,10,0,0,0,4.65-5.64,11,11,0,0,0,2.45,3.71A9.46,9.46,0,0,0,59,330.65c.64.38.59,1.78.78,2.51,0,0,0,0,0,0a80.17,80.17,0,0,1,.33,12.59c-.14,4.37-.34,8.74-.75,13.1a140.89,140.89,0,0,1-4.68,25.28,112.82,112.82,0,0,1-4.88-28.82m27.7-8.68A123,123,0,0,0,72.23,332c2.23,2.28,4.58,4.44,6.92,6.6l.35.33q1.73,1.57,3.44,2.93a110.06,110.06,0,0,1,7.2,16.95,83,83,0,0,1-12.68-12.14m13.38,14.54a90.21,90.21,0,0,1-9.31,8.15,107.38,107.38,0,0,0-3.19-19.55,80.7,80.7,0,0,0,12.5,11.4M70.66,332A112.46,112.46,0,0,1,80,367.72a78.17,78.17,0,0,1-10.68-15.61c0-.08-.05-.16-.07-.2l-1.61-3.22c-2.53-5.6-5.56-11.07-6.68-17.18a7.68,7.68,0,0,0,8-2.8A33.85,33.85,0,0,1,70.66,332M61,355.45c.38-5.62.67-11.26.54-16.89,1.39,3.49,3,6.9,4.54,10.32v0a.25.25,0,0,0,0,.09s0,0,0,0l.16.36c.37.82.8,1.61,1.21,2.42a8.68,8.68,0,0,1,.67,3.2c.23,2.25.39,4.49.48,6.75a114.94,114.94,0,0,1-.22,13.51,88.64,88.64,0,0,1-7.61-17.58c.06-.74.12-1.48.16-2.23m8.71.41a80,80,0,0,0,10.58,14.43c-3.57,2.67-7.21,5.08-10.59,7.17a117.87,117.87,0,0,0,0-21.6m39.11,17.79a25.37,25.37,0,0,0-3-1.55c-.59-.26-1.2-.23-1.16-.93s.07-1.18.12-1.77a62.33,62.33,0,0,1,1-7.45,53.5,53.5,0,0,1,4.73-13.76,39.76,39.76,0,0,1,3.68,9.54,83,83,0,0,0-5.42,15.92m6.35-17.92a37.82,37.82,0,0,0-3.88-9.4,39.23,39.23,0,0,1,4.56-2.43,20.17,20.17,0,0,1,7.92-2.44,88.64,88.64,0,0,0-8.6,14.27m-11.38,9.06c-.28,2.14-.51,4.27-.62,6.31-2.4-.77-5-1.23-6.48-.65l-.1.09a29.26,29.26,0,0,1,12.51-22.74,55,55,0,0,0-5.31,17m-5.1-14A43,43,0,0,1,92,360a112.4,112.4,0,0,0-6.6-16.27,59.08,59.08,0,0,0,13.27,7.13m-15.5-10.68c-1-.92-2.77-2.39-2.77-2.39l-.36-.33a95.56,95.56,0,0,1-9.4-9.37c-.27-.34-.55-.69-.81-1a8.88,8.88,0,0,0,.5-1.69,9.84,9.84,0,0,0,.18-1.72c0-.93-.1-.87.83-1a20,20,0,0,0,6.33-1.8,57,57,0,0,1,5,5,95.44,95.44,0,0,1,6.53,8,84.64,84.64,0,0,1,8.55,14.88,60.24,60.24,0,0,1-14.57-8.67m7-7.37a82.41,82.41,0,0,0-11.09-12.65A24,24,0,0,0,82,318.32c.49-.36.79-.91,1.35-.55s1.15.76,1.72,1.16a64.3,64.3,0,0,1,5.85,4.57,53,53,0,0,1,9.42,10.86,40.07,40.07,0,0,1-10.09-1.58m-.89-12.58c-1.72-1.32-3.45-2.58-5.16-3.7,1.86-1.69,3.54-3.67,3.8-5.29l0-.12a29.3,29.3,0,0,1,13.45,22.2A55.5,55.5,0,0,0,89.31,320.2m10.26-7.81A113.14,113.14,0,0,0,117,314.82a58.78,58.78,0,0,0-12.81,7.92,42.49,42.49,0,0,1-4.58-10.35m11.68,17.51a20.2,20.2,0,0,1-6.08-5.64,87,87,0,0,0,16.67.32,37.84,37.84,0,0,0-6.2,8.06,38.12,38.12,0,0,1-4.39-2.74M124,324.39a82,82,0,0,0,16.49-3.27,26.76,26.76,0,0,0,.19,3.69c.11.91.17.91-.66,1.33l-1.6.78a62.82,62.82,0,0,1-6.56,2.64,53.61,53.61,0,0,1-14.29,2.78,39.66,39.66,0,0,1,6.43-7.95m9.71-3.05A81.89,81.89,0,0,1,123.52,323a84.29,84.29,0,0,1-17.17,0,60.6,60.6,0,0,1,14.79-8.27l3.45-1.22.47-.14c1.18-.37,2.34-.73,3.48-1.07,1.93-.44,3.82-1,5.73-1.58.88-.24,1.76-.45,2.66-.62l1.35-.24c.85-.13.87-.12,1.43.49a9.37,9.37,0,0,0,1.82,1.51,9.91,9.91,0,0,0,1.06.59,15.66,15.66,0,0,0-.7,1.57,20.64,20.64,0,0,0-1.28,5.59,56.71,56.71,0,0,1-6.86,1.8m-9.24-9.43-.47.14c-1.48.46-2.9,1-4.25,1.51a111,111,0,0,1-18.28-2.23,82.13,82.13,0,0,1,16.86-4.92,120.52,120.52,0,0,0,15.31,2.81c-3.09.79-6.13,1.74-9.17,2.69m-9.3-6.31a82.22,82.22,0,0,0-16.13,5.12,87.06,87.06,0,0,1-2.4-12.13,107.82,107.82,0,0,0,18.53,7m-53.69,5.86a22.79,22.79,0,0,1,18.62-3.57,26.13,26.13,0,0,1,3.24.95c.94.35,2.45.75,3.07,1.59l.08.52c-.23,1.45-1.53,2.66-2.53,3.66a26.61,26.61,0,0,1-3.9,3.19,21.19,21.19,0,0,1-4.68,2.36,18.15,18.15,0,0,1-2.5.69,8.43,8.43,0,0,0-2.74.57,6.15,6.15,0,0,0-4.09-4.18,4.41,4.41,0,0,0-3,.29c-.49.24-1.58.89-1.33,1.57s1.26.35,1.77.07a2.73,2.73,0,0,1,2.69-.26,5,5,0,0,1,2.92,5C69,328,65,331.3,61,330a8,8,0,0,1-4.14-3.46,10.31,10.31,0,0,1-1.18-2.7,17.72,17.72,0,0,1-.31-3.16c.34-3.86,3.19-7,6.17-9.19m-38.82-.69c0-1,2.38-1.68,3.08-1.94a31.8,31.8,0,0,1,4-1.06,22.38,22.38,0,0,1,15.34,2.11,19.6,19.6,0,0,1,6.12,4.72,13.52,13.52,0,0,1,2,3.38,14,14,0,0,1,.72,4.3c-.19,3.31-2.23,7.32-5.77,8a6.74,6.74,0,0,1-7.73-5.95,5.19,5.19,0,0,1,2.25-5.06,3.44,3.44,0,0,1,3-.45c.5.19,1.75,1.39,2.18.44.22-.51-.46-1.17-.81-1.44a4.19,4.19,0,0,0-3.19-.65,6.12,6.12,0,0,0-4.52,4.26,5.81,5.81,0,0,0-2.27-.48,18.6,18.6,0,0,1-2.45-.59,21.25,21.25,0,0,1-5-2.34,25.89,25.89,0,0,1-4.32-3.42c-1-1-2.59-2.33-2.59-3.83m-1.41.3c.2,2.4,2.47,4.23,4.15,5.7a59,59,0,0,0-17.7,17.34,29.83,29.83,0,0,1,13.55-23m-.39,10.79c1.89-1.44,3.87-2.85,5.79-4.07a24.29,24.29,0,0,0,3.85,2.48A92.22,92.22,0,0,0,19,333.4a41.11,41.11,0,0,1-9.93,1.36,53.7,53.7,0,0,1,11.81-12.9M7.83,341.17a38.63,38.63,0,0,1-.19-4.88s0,0,0,0a38.68,38.68,0,0,0,10.14-1.18,87.28,87.28,0,0,0-8,14.48,20.18,20.18,0,0,1-2-8.45m2.83,10.07A59.5,59.5,0,0,0,24,344a111.41,111.41,0,0,0-6.64,16.21,43.16,43.16,0,0,1-6.73-9m8,10.31A83.08,83.08,0,0,0,31,350.35a106.82,106.82,0,0,0-3.16,19.2,89.84,89.84,0,0,1-9.21-8m10.56,9a80.87,80.87,0,0,0,10.53-14.43,117.13,117.13,0,0,0-.11,21.46c-3.33-2.06-6.9-4.42-10.42-7M41,378.41a89.33,89.33,0,0,0,7.76-16.53,119,119,0,0,0,4.71,23.4c-2.19-1.09-6.89-3.5-12.47-6.87m14.85,6.8a148,148,0,0,0,4.69-24.13,94.64,94.64,0,0,0,3.67,9.05q1,2.28,2.24,4.49c.56,1.07,1.16,2.78,2.11,3.55-4.13,2.52-8.37,4.88-12.71,7m54.24,8a22.89,22.89,0,0,1-12.36-14.33l0,0a27.61,27.61,0,0,1-.81-3.49c-.15-.93-.51-2.28-.12-3.2l.4-.32c1.45-.56,3.24,0,4.65.42a25.53,25.53,0,0,1,4.85,1.89,21.07,21.07,0,0,1,4.21,2.85,18.73,18.73,0,0,1,1.88,1.9c.53.61.92,1.46,1.66,1.86a6,6,0,0,0-1.54,5.69c.29.92,2.47,4.34,3.72,2.69.69-.9-.66-1.2-1.18-1.58a3.22,3.22,0,0,1-1.24-2.54,5,5,0,0,1,2.85-4.62c3.24-1.69,7.57-.57,9,2.93a7.48,7.48,0,0,1-.4,6.1,10.07,10.07,0,0,1-1.83,2.61,17.15,17.15,0,0,1-2.68,2c-3.52,1.63-7.68.72-11.08-.77m17.42,33.61c-.72-.49-1.42-1-2.07-1.54-.26-.24-.51-.49-.76-.74s-.34-.34-.51-.52c-.37-.37-.71-.74-1-1l-.38-.41A22.25,22.25,0,0,1,117,408.19a19.33,19.33,0,0,1,1.11-7.66,13,13,0,0,1,1.86-3.38,13.43,13.43,0,0,1,3.33-2.77c2.89-1.45,7.16-1.72,9.59.76a6.7,6.7,0,0,1-1.3,10.06c-2,1.27-4.76,1.45-6.44-.46a3.06,3.06,0,0,1-.64-2.17c0-.52-.22-1.73-1.07-1.33-1.51.71-.09,3.8.57,4.53a6.13,6.13,0,0,0,5.85,1.66,6,6,0,0,0,.71,2.21,19.86,19.86,0,0,1,.81,2.83,21.67,21.67,0,0,1,.33,6.12,24.38,24.38,0,0,1-1.18,5.92c-.54,1.53-1.2,3.3-3,2.3m2.41,1.45c1.92-1.47,2.41-4.22,2.85-6.45a58.93,58.93,0,0,0,23.87,6.65c-8.43,4-18.41,4.24-26.72-.2m32.8-3.4a39.22,39.22,0,0,1-4.14,2.6s0,0,0,0a39.28,39.28,0,0,0-6.1-8.18,87.16,87.16,0,0,0,16.52-.34,20.16,20.16,0,0,1-6.29,6m-12.33-5.8a40.71,40.71,0,0,1,6.14,7.92,53.66,53.66,0,0,1-14.2-2.77,61.11,61.11,0,0,1-6.52-2.61c-.54-.25-1.06-.51-1.59-.78s-1.21-.34-1.12-1.06a27,27,0,0,0,.16-4.12,91.68,91.68,0,0,0,17.13,3.42m-2-1.73-1.91-.27c-2-.32-4-.67-5.95-1.06l-.15,0a51.82,51.82,0,0,1-7.27-1.91,20.62,20.62,0,0,0-2-7,9.92,9.92,0,0,0,3.23-2.52c.65-.81,3.72.26,4.69.51,3.37.83,6.71,1.84,10,2.86l.47.15,3.82,1.37a60.31,60.31,0,0,1,14.42,8.12,83.33,83.33,0,0,1-19.38-.24m21.6.05a58.63,58.63,0,0,0-12.93-8,110.69,110.69,0,0,0,17.37-2.35A44.26,44.26,0,0,1,170,417.38m-15.83-9.24c-1.3-.52-2.66-1-4.08-1.46l-.47-.15c-3.33-1-6.39-2-9.16-2.68,3.6-.4,7.91-1.19,13.05-2.29L156,401A81.59,81.59,0,0,1,172.64,406a111.13,111.13,0,0,1-18.45,2.18M175,405.3a82.42,82.42,0,0,0-15.89-5.1,108.71,108.71,0,0,0,18.2-6.87,90.42,90.42,0,0,1-2.31,12m-21.66-5.17-3.05.64-.61.12c-4.64.93-9.35,1.87-14.1,1.74a8.25,8.25,0,0,0-1.34-8.32c.32-.11.63-.22.94-.35a66.14,66.14,0,0,1,10.45-1.87c1.84-.2,3.7-.35,5.55-.48l2.76-.18a9.7,9.7,0,0,0,2.36-.17,81.08,81.08,0,0,1,19,1.43,105.71,105.71,0,0,1-22,7.44m24.17-8.47a80.56,80.56,0,0,0-17.77-1.91,115.62,115.62,0,0,0,18.64-10.64c-.11,3.92-.37,8.19-.87,12.55m-8.7-8.14a113.8,113.8,0,0,1-12.62,6.31c-1.12.05-2.24.11-3.4.21h-.19l-.55.05c-4.31.41-8.26.79-11.68,1.31,4.87-2.65,9.56-5.64,14.25-8.6l.2-.13h0l.06,0c.77-.61,1.65-1.05,2.46-1.6,1.09-.24,2.18-.46,3.26-.65q3.18-.57,6.39-.91a88.77,88.77,0,0,1,9.07-.51c-1.56,1.06-4,2.67-7.28,4.56m9.61-6a88.21,88.21,0,0,0-18.2,1.53,117.77,117.77,0,0,0,17.91-15.77c.16,2.4.42,7.68.29,14.24M154,381.45c-3.18,2-6.31,4.06-9.53,6-1.67,1-3.37,2-5.1,2.88-.8.42-1.6.82-2.41,1.21a14.28,14.28,0,0,0-2.48,1.13c-.58.17-1.06.38-1.58.57a10.12,10.12,0,0,0-7.21-1.2,11,11,0,0,0,2.06-4.21,9.45,9.45,0,0,0,.24-2.37c.61-.5,1.22-1,1.79-1.55h.05a76.55,76.55,0,0,1,10.41-6.41c3.9-2.1,7.83-4.14,11.85-6a141.29,141.29,0,0,1,24.42-8.67A112.4,112.4,0,0,1,154,381.45m22.79-20.2a149.6,149.6,0,0,0-23.23,8,94.92,94.92,0,0,0,5.94-7.62c.88-1.24,1.72-2.51,2.54-3.8s2.07-2.71,2.31-4.07c4.24,2.32,8.42,4.8,12.44,7.48m-13.62-8.13a117,117,0,0,0-18.72,10.79,80.26,80.26,0,0,0,7.2-16.38c4.1,1.75,8,3.7,11.52,5.59m-13-6.17A107.08,107.08,0,0,0,135,359.47,80.81,80.81,0,0,0,138.57,343a88.59,88.59,0,0,1,11.69,4m-13.4-4.39a112.09,112.09,0,0,0-10.77,13.82,58.89,58.89,0,0,0-.45-15,42.42,42.42,0,0,1,11.22,1.2m-37.34,6.62a87.68,87.68,0,0,0-8.06-14.59,37.91,37.91,0,0,0,10.09,1.33,39.76,39.76,0,0,1-.18,5.18,20.06,20.06,0,0,1-1.85,8.08M144,333.27a29.31,29.31,0,0,1-26,.54,59.57,59.57,0,0,0,23.15-6.52c.44,2,1,4.59,2.69,5.94l.12,0m8-33c4.05,2.89,5.15,8.49,5,13.17a23,23,0,0,1-6.32,14.68,28.12,28.12,0,0,1-2.44,2.32c-.78.65-1.86,1.74-2.92,1.87l-.48-.18c-1.11-.9-1.49-2.52-1.85-3.83a26.37,26.37,0,0,1-.88-5.22,21.33,21.33,0,0,1,.34-5.41,18,18,0,0,1,.65-2.39,7.89,7.89,0,0,0,.84-2.55,6.17,6.17,0,0,0,5.59-1.39c.82-.79,2.2-3.49,1-4.55-.68-.59-1.22.2-1.22.84a3.23,3.23,0,0,1-.56,2.31c-1.63,2-4.55,1.86-6.54.55-3.43-2.27-4.2-7.32-.93-10.1a8.09,8.09,0,0,1,5.16-1.76,10.06,10.06,0,0,1,2.79.34,18.55,18.55,0,0,1,2.83,1.3m24.71-23.41c1.15.43.4,3.23.25,4.07-.07.33-.16.66-.24,1s-.14.49-.2.74c-.14.5-.29,1-.41,1.35l-.16.53a22.24,22.24,0,0,1-8.79,11.76,23.26,23.26,0,0,1-6.77,3.16,12.25,12.25,0,0,1-4.67.33,13.63,13.63,0,0,1-4.43-1.57c-3.35-2.19-5.88-7-3.17-10.61a6.88,6.88,0,0,1,9.59-1.29,4.79,4.79,0,0,1,1.67,5,3.7,3.7,0,0,1-1.74,2c-.69.45-1.19,1.25,0,1.5,1.47.31,2.73-1.79,3.16-2.92a6,6,0,0,0-1.47-5.9c.65-.34,1-1,1.44-1.6a20.42,20.42,0,0,1,1.86-2,21.07,21.07,0,0,1,4.17-3,26,26,0,0,1,4.9-2.05c1.51-.46,3.46-1.17,5-.57m.61-1.31c-2.23-.93-4.86,0-7,.76a59.06,59.06,0,0,0-6.17-24c7.67,5.31,12.88,13.83,13.18,23.24M158,248.86a39.73,39.73,0,0,1,4.31,2.28l0,0a39.14,39.14,0,0,0-4,9.37,85.82,85.82,0,0,0-8.55-14.12,20,20,0,0,1,8.32,2.45m-11-2.59c.29,0,.56,0,.85,0a59.65,59.65,0,0,0-.44,15.15,110.72,110.72,0,0,0-10.69-13.83A45.56,45.56,0,0,1,147,246.27M134.89,248a82.92,82.92,0,0,0,3.52,16.31,106.93,106.93,0,0,0-15-12.31,92.38,92.38,0,0,1,11.51-4m-13.07,4.65A80.7,80.7,0,0,0,129.05,269a117.56,117.56,0,0,0-18.53-10.83c3.44-1.86,7.27-3.77,11.3-5.51M119.55,274a118.7,118.7,0,0,0-22.62-7.63c1.95-1.29,6.39-4.16,12.18-7.36a89.35,89.35,0,0,0,10.44,15"/><path class="cls-1" d="M109.44,683.22A108.73,108.73,0,1,1,.71,792,108.85,108.85,0,0,1,109.44,683.22m0,198.42A89.69,89.69,0,1,0,19.76,792a89.78,89.78,0,0,0,89.68,89.69m17.21-167.83h0a13,13,0,0,1,10.12,4.46l.34.41a.71.71,0,0,0,.54.25h0a.72.72,0,0,0,.54-.25l.33-.39a10.48,10.48,0,0,1,8-3.55,11.69,11.69,0,0,1,5.82,1.57,11,11,0,0,1,5.18,13l-.16.49a.72.72,0,0,0,.06.59.74.74,0,0,0,.49.34l.52.08a13.3,13.3,0,0,1,9.49,7.63c2.76,5.87,1.36,12.46-3.26,15.34l-.41.26a.74.74,0,0,0-.33.48.76.76,0,0,0,.14.56l.31.39c2.61,3.29,2.93,8.45.83,13.17a64.94,64.94,0,0,1-13.12,8.95,6.81,6.81,0,0,1-1-.15l-.44-.1h-.15a.72.72,0,0,0-.4.12.69.69,0,0,0-.3.46l-.07.41a3,3,0,0,1-.12.43c-10.92,4.66-25,6.68-28,7.07a4.22,4.22,0,0,0-.25-.53l-.08-.15c-.07-.13-.14-.27-.22-.39a12.93,12.93,0,0,0-.8-1.17l-.21-.26-.13-.16a14,14,0,0,0-1.89-1.88l-.08-.06-.21-.18-.69-.5A35,35,0,0,0,129.7,783a38.59,38.59,0,0,0,14.24-2.95c13.24-5.27,18.83-22.93,19.43-24.94a1.45,1.45,0,0,0-.13-1.08,1.42,1.42,0,0,0-.83-.66,1.45,1.45,0,0,0-.41-.06,1.43,1.43,0,0,0-1.35,1c-.05.18-5.39,18.17-17.75,23.1a35.79,35.79,0,0,1-13.19,2.74A31.76,31.76,0,0,1,118.45,778l2.28-4a31.86,31.86,0,0,0,6.92.86c5.53,0,11-1.87,16.67-5.71,11.28-7.6,17.41-25.5,17.67-26.27a1.42,1.42,0,0,0-.08-1.07,1.38,1.38,0,0,0-.81-.71,1.76,1.76,0,0,0-.45-.07,1.42,1.42,0,0,0-1.34,1c-.06.18-6,17.7-16.57,24.82-5.22,3.53-10.13,5.24-15,5.24a27.63,27.63,0,0,1-5.49-.62l3.07-5.32a17.29,17.29,0,0,0,4,.47c7.86,0,15.35-5.18,19.29-10.31,4.74-6.21,7.35-12.15,8.2-18.71a1.41,1.41,0,0,0-1.22-1.58l-.19,0a1.39,1.39,0,0,0-1.38,1.23c-.79,6-3.22,11.56-7.65,17.36-2.82,3.68-9.71,9.16-17.12,9.16a14.06,14.06,0,0,1-2.43-.2l3.64-6.28.62,0c6.64,0,11.79-6.44,14.26-9.53,2.71-3.38,6.63-12.39,6.32-17.13a1.41,1.41,0,0,0-1.4-1.31h-.1a1.36,1.36,0,0,0-1,.48,1.39,1.39,0,0,0-.35,1c.24,3.79-3.3,12.18-5.49,14.92s-6.31,7.89-11.22,8.6l18.4-31.86a1.37,1.37,0,0,0,.15-1.08,1.41,1.41,0,0,0-.66-.85,1.35,1.35,0,0,0-.7-.2,1.44,1.44,0,0,0-1.23.71l-18.25,31.63c-1.55-4.56.8-10.58,1.86-13.29,1.47-3.79,7-10.92,10.28-12.53a1.39,1.39,0,0,0,.72-.82,1.36,1.36,0,0,0-.08-1.08,1.42,1.42,0,0,0-1.26-.78,1.32,1.32,0,0,0-.62.15c-4.17,2.06-10.06,9.89-11.55,13.71s-4.61,11.83-1.08,17.63L124.43,762c-5-6.38-3.84-16.22-1.81-21.12,2.8-6.73,6.36-11.58,11.2-15.29a1.41,1.41,0,0,0-.85-2.53,1.44,1.44,0,0,0-.86.29c-5.25,4-9.09,9.24-12.09,16.45-2.51,6-3.75,17.48,2.89,24.82L119.83,770c-2.83-3.24-6.83-8.62-6-19.82.88-12.62,13.1-26.62,13.23-26.77a1.41,1.41,0,0,0-2.12-1.86c-.13.15-13,14.59-13.92,28.43-.91,13,4.17,19,7.36,22.59l-2.3,4c-3.67-3.09-9.67-8.7-11.48-21.23-1.92-13.11,11-26.79,11.12-26.93a1.42,1.42,0,0,0,0-2,1.45,1.45,0,0,0-1-.39,1.36,1.36,0,0,0-1,.43c-.13.13-11.9,12.25-12.11,25.72-.13-.79-.23-1.58-.32-2.35a.76.76,0,0,0,.15-.41.71.71,0,0,0-.22-.53l0,0c0-.07,0-.13,0-.2s0-.4-.06-.6a67.32,67.32,0,0,1,1.59-18.32,12.74,12.74,0,0,1,8.88-4.15c.33,0,.66,0,1,.05l.48,0H113a.71.71,0,0,0,.71-.7v-.48a9.43,9.43,0,0,1,1.29-4.55,13.2,13.2,0,0,1,10.38-6.08c.4,0,.81-.05,1.22-.05M102,719.9c-.16.66-.42,1.74-.85,3.59l0,.06c-1.33,5.77-3.57,15.42-2.87,24.69.91,12,6.55,26.5,8.08,30.26l-.12,0c-.31.08-.6.17-.9.27a13.69,13.69,0,0,0-2.29,1l-.86.46a.67.67,0,0,0-.14.09c-.3.2-.58.42-.83.61s-.41.32-.61.49c-2.75-3.52-12.2-15.17-22-21.84-7.72-5.29-17.2-8.16-22.87-9.88l-.12,0c-1.09-.33-2.59-.79-3.44-1.1l.57-.73,1.9-2.42,6.8-9.22a126.89,126.89,0,0,0,8.42-14.43c2.41.16,5,.24,7.72.24,3.06,0,6.08-.11,9-.32l11.4-1.28c1.28-.19,3-.43,4-.5M63.11,755a68,68,0,0,1,11.8,5.5A9.17,9.17,0,0,1,76.17,763l.13.43a.7.7,0,0,0,.36.43.72.72,0,0,0,.32.08.62.62,0,0,0,.23,0l.43-.14a11.39,11.39,0,0,1,1.51-.4c9.12,6.9,17.58,17.53,19.56,20.1-.1.12-.2.24-.29.37s-.36.52-.53.81a10.93,10.93,0,0,0-.71,1.31l-.09.18c-.1.22-.21.45-.3.68a12.28,12.28,0,0,0-.56,1.8c-.06.27-.13.55-.17.82a11.69,11.69,0,0,0-.19,1.49h0C95,785.66,93.09,776.52,82,767.78c-4.76-3.76-11.3-5.66-19.45-5.66a53.24,53.24,0,0,0-11.84,1.31,1.42,1.42,0,0,0-.88.63,1.41,1.41,0,0,0,1.2,2.15,1.32,1.32,0,0,0,.34,0A52.77,52.77,0,0,1,62.54,765c7.56,0,13.54,1.68,17.75,5,10,7.9,11.87,16.07,12.71,20.89H88.43c-1.51-4.57-4.05-12.18-16-18-4.66-2.27-10.71-3.42-18-3.42a73,73,0,0,0-13.59,1.27,1.34,1.34,0,0,0-.9.58,1.42,1.42,0,0,0,1.16,2.21l.3,0a74,74,0,0,1,13.06-1.17c6.86,0,12.49,1,16.71,3.1,10.18,5,12.78,11.09,14.26,15.47H79.31c-2.87-9.62-13.56-14.39-20.17-15.25a50,50,0,0,0-6.41-.43,35.37,35.37,0,0,0-13.88,2.69,1.39,1.39,0,0,0-.77.77,1.41,1.41,0,0,0,1.31,1.94,1.47,1.47,0,0,0,.54-.1A32.43,32.43,0,0,1,52.71,778a46.61,46.61,0,0,1,6.07.42c5.38.69,14.66,4.67,17.53,12.44H69.05c-3.1-6.24-11.56-7.52-15.67-8.15a19.66,19.66,0,0,0-2.88-.18c-5,0-12,1.22-15.11,3.27a1.43,1.43,0,0,0-.39,2,1.4,1.4,0,0,0,1.17.62,1.43,1.43,0,0,0,.78-.24c2.54-1.69,9-2.83,13.47-2.83a14.87,14.87,0,0,1,2.19.13c3.33.51,10,1.52,13,5.41H28.87a1.41,1.41,0,1,0,0,2.81H65.39c-3.14,3.62-9.33,4.56-12.44,5a17.42,17.42,0,0,1-2.51.16c-4.48,0-11-1.13-13.49-2.8a1.36,1.36,0,0,0-.78-.24,1.41,1.41,0,0,0-.78,2.58c3.06,2,10.22,3.3,15.09,3.3a16.73,16.73,0,0,0,2.55-.16c4.11-.63,12.55-1.91,15.81-7.88h7.32c-3,7.56-12.13,11.45-17.38,12.13a46.31,46.31,0,0,1-6.05.42,32.62,32.62,0,0,1-12.79-2.47,1.39,1.39,0,0,0-1.85.74,1.4,1.4,0,0,0,0,1.08,1.37,1.37,0,0,0,.76.77,35.47,35.47,0,0,0,13.9,2.7,50,50,0,0,0,6.4-.44c6.47-.84,17-5.51,20-14.93h6.17c-1.39,4.08-4,10.22-14.15,15.15C67,810.92,61.35,812,54.47,812a74.08,74.08,0,0,1-13-1.17,1.43,1.43,0,0,0-.29,0,1.41,1.41,0,0,0-.27,2.79,74.69,74.69,0,0,0,13.59,1.26c7.28,0,13.33-1.15,18-3.42C84.1,805.7,86.8,798.31,88.32,793.7h4.61c-.82,4.72-2.67,12.71-12.64,20.57-4.21,3.33-10.19,5-17.75,5a53,53,0,0,1-11.13-1.18,1.33,1.33,0,0,0-.34-.05,1.4,1.4,0,0,0-1.36,1.07,1.38,1.38,0,0,0,.15,1.07,1.45,1.45,0,0,0,.88.65,55,55,0,0,0,11.83,1.3c8.16,0,14.71-1.9,19.47-5.66,11-8.7,12.88-17.66,13.76-22.79H96a13.42,13.42,0,0,0,2.59,6.09c-2.38,3.05-11.09,13.84-20.24,20.47a5.44,5.44,0,0,1-.64-.16l-.44-.15a.83.83,0,0,0-.22,0,.68.68,0,0,0-.34.08.74.74,0,0,0-.35.44l-.12.45a4.9,4.9,0,0,1-.39.9,1.3,1.3,0,0,1-.08.17,71.74,71.74,0,0,1-15.57,7c-4.46-.79-8.15-3.36-9.64-6.74l-.2-.44a.7.7,0,0,0-.43-.38.54.54,0,0,0-.22,0,.67.67,0,0,0-.34.09l-.42.24a9.28,9.28,0,0,1-4.58,1.16,13,13,0,0,1-10.45-6,13.26,13.26,0,0,1-1.87-12l.19-.48a.74.74,0,0,0,0-.6.73.73,0,0,0-.49-.35l-.51-.1a11.28,11.28,0,0,1,0-21.93l.51-.1a.7.7,0,0,0,.49-.35.74.74,0,0,0,0-.6l-.19-.48a13.91,13.91,0,0,1,12.34-18A9.34,9.34,0,0,1,48.87,763l.43.24a.81.81,0,0,0,.34.08.67.67,0,0,0,.24,0,.74.74,0,0,0,.42-.41l.18-.45c1.75-4.4,6.82-7.38,12.61-7.43h0m113.07,7.5h0m-.57.42c.35.84.91,2.24,1.51,3.71l4.62,10.52a125.64,125.64,0,0,0,8.34,14.49,126.4,126.4,0,0,0-8.35,14.53l-4.62,10.51c-.51,1.25-1.15,2.85-1.58,3.71-.41-.4-1.06-1-2.1-2l-.62-.57-.08-.08c-4.35-4-11.63-10.77-20-14.78-10.7-5.11-25.54-7.46-30-8.09a13.49,13.49,0,0,0,.37-2.58l0-1c0-.56-.09-1.16-.18-1.76-.07-.39-.16-.76-.25-1.1,4.52-.62,19.31-2.95,30.09-8.09,8.44-4,15.73-10.79,20.09-14.84l0,0c.83-.76,2.06-1.91,2.8-2.52m-70.06,5.19A33.41,33.41,0,0,0,114.61,779l-.07.12a12.29,12.29,0,0,0-2-.64l-.15,0a13.8,13.8,0,0,0-2.94-.33h-.2c-.6-1.44-2.11-5.21-3.69-10m3.89,12.82a10.81,10.81,0,1,1-10.79,10.81,10.82,10.82,0,0,1,10.79-10.81m12.24,16.6c3,.4,17.12,2.46,27.87,7.06,0,.18.11.36.15.53l.1.46a.71.71,0,0,0,.33.46.65.65,0,0,0,.36.1.69.69,0,0,0,.2,0l.43-.12a5.86,5.86,0,0,1,1-.19,67.17,67.17,0,0,1,13.8,9.57c1.76,4.41,1.45,9.07-.83,12.19l-.28.39a.73.73,0,0,0,.21,1l.41.25a9.31,9.31,0,0,1,3.3,3.38,13,13,0,0,1,.08,12,13.32,13.32,0,0,1-9.48,7.63l-.51.08a.7.7,0,0,0-.5.33.68.68,0,0,0-.07.59l.17.51a11,11,0,0,1-5.19,12.94,11.66,11.66,0,0,1-5.82,1.57,10.51,10.51,0,0,1-8-3.55l-.35-.4a.71.71,0,0,0-.53-.24h0a.7.7,0,0,0-.54.26l-.33.41a13.05,13.05,0,0,1-10.11,4.45c-.41,0-.82,0-1.23-.05-6.47-.55-11.48-5.06-11.67-10.48v-.49a.67.67,0,0,0-.25-.53.71.71,0,0,0-.46-.17h-.11l-.47.08a10.09,10.09,0,0,1-1.35.09,13,13,0,0,1-9.27-4.48,67.42,67.42,0,0,1-1.59-18.3v0l.12-.13a.71.71,0,0,0,0-1c.2-2,.53-4.11,1-6.19h0c-2,13.62,9.52,26.76,11.84,29.25l0,0a1.41,1.41,0,0,0,2.43-1,1.36,1.36,0,0,0-.4-1c-.13-.14-13-13.82-11.12-26.93,1.84-12.63,8-18.32,11.75-21.44l2.27,4c-3.2,3.59-8.52,9.6-7.59,22.86,1,13.84,13.79,28.28,13.91,28.41a1.38,1.38,0,0,0,1.06.49,1.41,1.41,0,0,0,1.41-1.33,1.36,1.36,0,0,0-.34-1l0,0c-1.27-1.47-12.36-14.71-13.19-26.74-.8-11.31,3.21-16.62,6.26-20.08l3.07,5.32c-6.89,7.29-5.67,18.94-3.11,25.09,3,7.21,6.85,12.44,12.1,16.46a1.44,1.44,0,0,0,.85.28,1.39,1.39,0,0,0,1.4-1.59,1.36,1.36,0,0,0-.54-.94c-4.84-3.7-8.4-8.56-11.21-15.3-2.09-5-3.28-15,2-21.4l3.63,6.29c-3.83,5.78-.73,13.76.78,17.64,1.58,4,7.43,11.93,11.68,14a1.36,1.36,0,0,0,.63.15,1.41,1.41,0,0,0,.62-2.67c-3.39-1.68-8.9-8.95-10.17-12.21s-3.68-9.47-1.84-14l18.4,31.87a1.38,1.38,0,0,0,1.22.71,1.41,1.41,0,0,0,.7-.19,1.38,1.38,0,0,0,.66-.85,1.41,1.41,0,0,0-.14-1.08L133,829c4.69.91,8.6,5.79,10.57,8.25,2.55,3.18,5.93,11.57,5.7,15.2a1.41,1.41,0,0,0,1.31,1.48h.1a1.39,1.39,0,0,0,1.4-1.32c.31-4.64-3.53-13.65-6.1-16.85S138.23,826,131.53,826h-.23l-3.66-6.34a14.59,14.59,0,0,1,2.09-.15c7.42,0,14.29,5.47,17.11,9.14,4.43,5.8,6.85,11.31,7.63,17.36a1.42,1.42,0,0,0,1.4,1.23l.18,0a1.39,1.39,0,0,0,1.21-1.58c-.84-6.56-3.45-12.5-8.19-18.7-3.91-5.12-11.39-10.29-19.27-10.29a17.33,17.33,0,0,0-3.67.39l-3.08-5.34a26.64,26.64,0,0,1,5.16-.56c4.89,0,9.8,1.72,15,5.24,10.53,7.1,16.5,24.65,16.56,24.83a1.43,1.43,0,0,0,1.79.89,1.4,1.4,0,0,0,.81-.72,1.42,1.42,0,0,0,.08-1.07c-.26-.75-6.3-18.6-17.66-26.27-5.69-3.83-11.15-5.7-16.68-5.7a30.68,30.68,0,0,0-6.58.79l-2.31-4a31.83,31.83,0,0,1,11-2.07,35.74,35.74,0,0,1,13.16,2.73c12.37,4.93,17.71,22.92,17.76,23.11a1.41,1.41,0,0,0,2.59.28,1.34,1.34,0,0,0,.12-1.07c-.23-.79-5.76-19.5-19.42-24.94a38.68,38.68,0,0,0-14.23-2.94,34.42,34.42,0,0,0-12.38,2.42l-.09-.16a13.78,13.78,0,0,0,1.66-1.54,2.75,2.75,0,0,0,.22-.26l.13-.16a13.54,13.54,0,0,0,1.42-2l.17-.3.1-.19c.09-.18.17-.37.25-.56m-21.21,4.37a12.93,12.93,0,0,0,1.82,1.37l.71.39.1.06a12.84,12.84,0,0,0,2.22.93c.28.1.6.21,1,.3h0c-1.7,4.24-7,18.1-7.85,29.72-.71,9.26,1.53,18.91,2.86,24.68l0,.07c.27,1.15.64,2.74.81,3.65l-4-.56-11.39-1.28c-2.89-.21-5.89-.32-8.92-.32-3.78,0-6.55.16-7.79.25a124.36,124.36,0,0,0-8.43-14.46l-6.81-9.23c-.79-1-1.87-2.38-2.42-3.2.65-.18,1.73-.51,3.59-1.07,5.66-1.73,15.14-4.62,22.81-9.86C88.16,817,97.23,806,100.47,801.9M115.31,804l0,.08a33.73,33.73,0,0,0-11.06,15.22,147.22,147.22,0,0,1,4.82-13.92l.33,0a12.67,12.67,0,0,0,2.28-.23c.32,0,.62-.12.94-.2s.57-.16.88-.26a12.58,12.58,0,0,0,1.77-.71m-5.87-121.45A109.44,109.44,0,1,0,218.88,792,109.56,109.56,0,0,0,109.44,682.51Zm0,198.42a89,89,0,1,1,89-89,89.08,89.08,0,0,1-89,89ZM126.65,713.1c-.43,0-.85,0-1.28,0a13.83,13.83,0,0,0-10.94,6.44,10.24,10.24,0,0,0-1.38,4.88V725l-.47-.05a9.42,9.42,0,0,0-1.06-.06,13.5,13.5,0,0,0-9.53,4.51,69.71,69.71,0,0,0-1.65,18.72c0,.35.08.72.11,1.07l.22.22-.18.15c1.33,12.55,7.54,27.53,8.31,29.37.22,0,.43-.07.65-.07a12.76,12.76,0,0,1,2.79.32l.11,0a12.3,12.3,0,0,1,2.5.86l.68-1.18c-4.29-3.54-11-9.48-13.06-23.24-2.07-14.18,11.13-28.11,11.7-28.69a.66.66,0,0,1,.5-.22.7.7,0,0,1,.51,1.19c-.14.13-13.28,14-11.32,27.52,1.9,13,8.24,18.77,12.38,22.21l3-5.17-.06-.08c-3.14-3.5-8.38-9.36-7.46-22.38.93-13.37,13.21-27.42,13.74-28a.69.69,0,0,1,.52-.24.67.67,0,0,1,.46.18.69.69,0,0,1,.07,1c-.13.15-12.5,14.28-13.39,27.18-.86,12.13,3.69,17.52,6.86,21.08l3.84-6.64c-6.78-7-5.64-18.4-3.12-24.45,3-7.09,6.73-12.22,11.87-16.16a.69.69,0,0,1,.43-.14.71.71,0,0,1,.56.27.71.71,0,0,1-.13,1c-5,3.78-8.59,8.73-11.44,15.58-2.24,5.41-3.37,16.08,2.58,22.61l4.38-7.58c-3.67-5.48-.69-13.25.91-17.35,1.42-3.64,7.23-11.37,11.2-13.33a.71.71,0,0,1,.31-.08.73.73,0,0,1,.64.4.71.71,0,0,1-.33.94c-3.59,1.78-9.17,9.14-10.63,12.91-1.33,3.4-3.94,10.24-1.29,15.1l19-32.83a.69.69,0,0,1,.61-.36.63.63,0,0,1,.34.1.69.69,0,0,1,.26,1l-19.06,33H131c5.62,0,10.33-5.8,12.85-9,2.31-2.88,5.9-11.41,5.65-15.4a.69.69,0,0,1,.65-.74h0a.68.68,0,0,1,.69.64c.29,4.43-3.5,13.34-6.16,16.65-2.46,3.06-7.43,9.26-13.71,9.26a8.68,8.68,0,0,1-1-.06l-4.35,7.53a15.25,15.25,0,0,0,3.53.41c7.52,0,14.56-5.37,17.69-9.44,4.5-5.9,7-11.52,7.78-17.7a.69.69,0,0,1,.68-.61h.09a.7.7,0,0,1,.62.79c-.84,6.42-3.4,12.26-8.06,18.37-3.43,4.46-10.73,10-18.73,10a16.43,16.43,0,0,1-4.35-.58L121.12,772a30.27,30.27,0,0,0,6.59.84c4.06,0,9.14-1.11,15.43-5.36,10.73-7.23,16.78-25,16.84-25.18a.71.71,0,0,1,.67-.48.57.57,0,0,1,.22,0,.69.69,0,0,1,.44.88c-.25.75-6.26,18.4-17.38,25.91-6.58,4.43-12,5.58-16.28,5.58a32.28,32.28,0,0,1-6.83-.85l-.44-.1-3,5.12a33.17,33.17,0,0,0,12.29,2.53,36.12,36.12,0,0,0,13.45-2.79c12.66-5.05,18.12-23.38,18.17-23.56A.7.7,0,0,1,162,754a.69.69,0,0,1,.2,0,.71.71,0,0,1,.49.87c-.24.78-5.7,19.18-19,24.47a37.59,37.59,0,0,1-14,2.9,35.07,35.07,0,0,1-13-2.7l-.64,1.11a11.38,11.38,0,0,1,1.22.83c.1.07.18.15.28.23a13.16,13.16,0,0,1,1.8,1.78l.31.39a12.24,12.24,0,0,1,.76,1.12c.11.16.19.33.29.51s.28.64.42,1c1.16-.14,17.11-2.17,29-7.32.08-.26.17-.52.23-.79l.08-.44.44.09a8.67,8.67,0,0,0,1.33.18A66.71,66.71,0,0,0,165.77,769c2.26-5,2-10.46-.86-14l-.3-.39.42-.26c4.92-3.07,6.43-10.05,3.52-16.24a14,14,0,0,0-10-8L158,730l.17-.5a11.68,11.68,0,0,0-5.51-13.78,12.26,12.26,0,0,0-6.17-1.67,11.18,11.18,0,0,0-8.52,3.8l-.33.39-.34-.4a13.76,13.76,0,0,0-10.67-4.72Zm-24.2,6.08a42,42,0,0,0-4.49.52L86.58,721c-3.27.23-6.32.31-8.93.31-4.22,0-7.17-.2-8.15-.27a121.62,121.62,0,0,1-8.58,14.77L54.14,745c-1.47,1.87-2.86,3.65-3,3.83a28.72,28.72,0,0,0,4.46,1.56c5.64,1.71,15.07,4.57,22.68,9.78,10.37,7.09,20.43,19.9,22.27,22.3l.33-.3a10.13,10.13,0,0,1,.8-.67c.28-.21.57-.43.87-.63h0l.87-.45a11.79,11.79,0,0,1,2.16-.92c.29-.09.57-.19.87-.27s.47-.1.72-.14l.34.09,0,0h-.08c-.07-.18-7.35-17.16-8.39-31-.7-9.19,1.54-18.79,2.87-24.53.48-2.07,1-4.21,1.08-4.4a1.19,1.19,0,0,0-.51-.07ZM63.24,754.29h-.15c-6.08.05-11.42,3.22-13.27,7.87l-.18.46-.44-.23a10.08,10.08,0,0,0-4.77-1.17,13.85,13.85,0,0,0-11.06,6.25,14,14,0,0,0-1.94,12.68l.19.49-.51.09a12,12,0,0,0,0,23.33l.51.09-.19.49a14,14,0,0,0,1.94,12.68,13.8,13.8,0,0,0,11,6.26,10.09,10.09,0,0,0,4.93-1.25l.41-.24.2.44c1.66,3.74,5.63,6.4,10.34,7.18a73.63,73.63,0,0,0,16.07-7.26,7.72,7.72,0,0,0,.61-1.38l.12-.45.43.15c.34.11.69.17,1,.25,9.7-6.94,19-18.6,21-21.24A12.71,12.71,0,0,1,96.66,793H95.2c-.92,5.49-2.67,14.31-13.6,22.93-5.55,4.38-12.91,5.51-19,5.51a54.07,54.07,0,0,1-11.66-1.28.72.72,0,0,1-.52-.86.71.71,0,0,1,.68-.53l.17,0A52.72,52.72,0,0,0,62.54,820c5.91,0,13-1.06,18.19-5.17,10.35-8.16,12.15-16.52,13-21.83h-6l0,.1c-1.47,4.46-3.93,11.94-15.65,17.65-5.36,2.61-11.94,3.35-17.68,3.35A74,74,0,0,1,41,812.86a.7.7,0,0,1,.13-1.39l.14,0a75.72,75.72,0,0,0,13.2,1.18c5.59,0,12-.7,17-3.18,10.93-5.33,13.33-12,14.82-16.49H78.66c-2.7,9.39-13.11,14.08-19.61,14.93a50.06,50.06,0,0,1-6.31.43,34.67,34.67,0,0,1-13.62-2.64.7.7,0,0,1,.26-1.35.66.66,0,0,1,.27.06A33.26,33.26,0,0,0,52.73,807a47.53,47.53,0,0,0,6.14-.42c5.8-.76,15.61-5.11,18.3-13.54H68.41c-2.92,5.92-11.13,7.22-15.48,7.88a17.08,17.08,0,0,1-2.45.15c-4.55,0-11.65-1.15-14.7-3.18a.71.71,0,0,1-.19-1,.69.69,0,0,1,.58-.31.71.71,0,0,1,.39.12c2.73,1.82,9.37,2.93,13.88,2.93a17.88,17.88,0,0,0,2.62-.17c3.62-.55,10.84-1.71,13.72-6.44H28.87a.7.7,0,1,1,0-1.4H67c-2.74-5-10.23-6.2-14.26-6.82a16.66,16.66,0,0,0-2.3-.14c-4.31,0-11.1,1.11-13.86,3a.71.71,0,0,1-.39.12.69.69,0,0,1-.58-.31.71.71,0,0,1,.19-1c3-2,10-3.15,14.72-3.15a19.93,19.93,0,0,1,2.77.17c4.1.63,12.57,1.94,15.33,8.16h8.69c-2.53-8.64-12.54-13.1-18.42-13.86a47.71,47.71,0,0,0-6.16-.42,33.16,33.16,0,0,0-13.06,2.53.58.58,0,0,1-.26,0,.7.7,0,0,1-.27-1.34,34.44,34.44,0,0,1,13.61-2.64,48.29,48.29,0,0,1,6.32.43c6.58.85,17.19,5.63,19.73,15.25h7.66c-1.49-4.53-3.74-11.36-14.93-16.82-5.08-2.47-11.44-3.17-17-3.17a75.36,75.36,0,0,0-13.22,1.19h-.14a.7.7,0,0,1-.68-.57.69.69,0,0,1,.55-.82,73.68,73.68,0,0,1,13.46-1.25c5.73,0,12.32.74,17.67,3.35,11.72,5.72,14.18,13.2,15.65,17.65l.14.43h5.92c-.89-5.28-2.55-13.82-13.11-22.15-5.2-4.11-12.28-5.17-18.19-5.17a53.89,53.89,0,0,0-11.3,1.2.5.5,0,0,1-.17,0,.69.69,0,0,1-.68-.53.7.7,0,0,1,.52-.85,53.3,53.3,0,0,1,11.68-1.29c6.12,0,13.47,1.13,19,5.51,11.14,8.8,12.75,17.8,13.65,23.26h1.3a13.08,13.08,0,0,1,.2-2.08c0-.25.11-.52.17-.78a11.86,11.86,0,0,1,.53-1.69c.11-.29.24-.55.37-.82a11.38,11.38,0,0,1,.67-1.24c.16-.27.32-.53.5-.78s.43-.51.63-.76c-1.34-1.76-10.49-13.54-20.3-20.88a15.24,15.24,0,0,0-1.91.48l-.43.15-.13-.43A9.82,9.82,0,0,0,75.4,760a68.35,68.35,0,0,0-12.16-5.68Zm112.7,7.55a26.35,26.35,0,0,0-3.61,3.08c-4.33,4-11.58,10.76-20,14.75-11.45,5.46-27.76,7.76-30.69,8.14.06.19.12.37.17.56.11.41.22.82.29,1.24s.14,1.11.17,1.69l0,1a12.84,12.84,0,0,1-.46,2.86c0,.11-.07.22-.1.32,3.06.4,19.26,2.7,30.64,8.14,8.37,4,15.62,10.73,20,14.74,1.56,1.46,3.19,3,3.3,3.14.4-.26,1.24-2.35,2.13-4.55l4.62-10.5a123.18,123.18,0,0,1,8.56-14.81,121.75,121.75,0,0,1-8.56-14.8l-4.62-10.5c-.89-2.21-1.73-4.29-1.82-4.5Zm-66.5,18.38A11.52,11.52,0,1,0,121,791.74a11.53,11.53,0,0,0-11.51-11.52ZM93.78,793Zm-7.45,0h0Zm-9.16,0Zm-10.39,0h0Zm54.43,3.76a10,10,0,0,1-.41,1l-.25.46a13.38,13.38,0,0,1-1.35,1.88c-.11.13-.22.28-.33.4a12.8,12.8,0,0,1-2.07,1.82l.71,1.23A34.74,34.74,0,0,1,130.2,801a37.47,37.47,0,0,1,14,2.89c13.31,5.3,18.77,23.7,19,24.48a.7.7,0,0,1-.48.87.62.62,0,0,1-.19,0,.7.7,0,0,1-.68-.51c0-.18-5.5-18.51-18.18-23.55a35.91,35.91,0,0,0-13.42-2.79,33,33,0,0,0-12,2.41l3,5.17.11,0a32.37,32.37,0,0,1,6.83-.85c4.28,0,9.7,1.14,16.28,5.58,11.11,7.5,17.13,25.15,17.38,25.91a.69.69,0,0,1-.44.88.57.57,0,0,1-.22,0,.72.72,0,0,1-.67-.48c-.06-.18-6.11-18-16.84-25.19-6.29-4.24-11.36-5.35-15.42-5.35a29.39,29.39,0,0,0-6.27.77l3.84,6.64a16.43,16.43,0,0,1,4-.49c8,0,15.29,5.54,18.7,10,4.68,6.1,7.23,11.93,8.06,18.36a.7.7,0,0,1-.6.79h-.09a.72.72,0,0,1-.7-.61c-.79-6.18-3.26-11.8-7.77-17.7-3.12-4.07-10.16-9.42-17.67-9.42a15.37,15.37,0,0,0-3.21.34l4.38,7.59.63,0c6.29,0,11.28,6.16,13.93,9.49,2.45,3,6.25,11.95,5.95,16.37a.69.69,0,0,1-.69.66h-.05a.69.69,0,0,1-.65-.74c.25-4-3.33-12.52-5.86-15.67-2.29-2.86-6.9-8.53-12.44-8.67l19,32.84a.7.7,0,0,1-.26,1,.73.73,0,0,1-.35.09.72.72,0,0,1-.61-.35l-19.06-33c-3,4.88-.25,12,1.23,15.77,1.34,3.44,6.93,10.8,10.52,12.58a.73.73,0,0,1,.32,1,.7.7,0,0,1-.63.38.67.67,0,0,1-.31-.07c-4-2-9.8-9.7-11.33-13.66s-4.62-11.86-.61-17.35l-4.34-7.52c-6.22,6.51-5.07,17.4-2.79,22.88,2.86,6.85,6.48,11.8,11.43,15.59a.7.7,0,0,1,.13,1,.69.69,0,0,1-.56.27.65.65,0,0,1-.42-.14c-5.15-3.94-8.93-9.08-11.88-16.16-2.55-6.13-3.72-17.7,3.34-24.71l-3.82-6.64c-3.18,3.55-8,8.92-7.1,21.34.9,12.9,13.26,27,13.39,27.18a.7.7,0,0,1-.06,1,.71.71,0,0,1-.47.18.69.69,0,0,1-.52-.24c-.53-.58-12.81-14.63-13.74-28-.92-13,4.33-18.88,7.45-22.38l.31-.34-3-5.12c-4.14,3.4-10.7,9.1-12.64,22.42-2,13.5,11.18,27.39,11.32,27.53a.69.69,0,0,1,0,1,.68.68,0,0,1-.48.19.71.71,0,0,1-.51-.21c-.55-.6-13.76-14.53-11.68-28.7s9-19.93,13.3-23.45l-.68-1.19a12.52,12.52,0,0,1-2.25,1c-.28.09-.55.18-.85.26s-.58.13-.88.18a11.8,11.8,0,0,1-2.16.22c-.27,0-.52-.06-.78-.08-.87,2.09-6.93,16.95-8.09,29.46l.24.2-.29.32a2.66,2.66,0,0,0,0,.28,69.09,69.09,0,0,0,1.64,18.69,13.72,13.72,0,0,0,9.92,4.86,10,10,0,0,0,1.45-.1l.48-.08v.49c.2,5.8,5.5,10.6,12.32,11.18.43,0,.86,0,1.29,0a13.76,13.76,0,0,0,10.66-4.72l.33-.4.35.4a11.2,11.2,0,0,0,8.51,3.79,12.32,12.32,0,0,0,6.18-1.67,11.67,11.67,0,0,0,5.5-13.78L159,853l.51-.08a14,14,0,0,0,10-8,13.84,13.84,0,0,0-.1-12.69,10.15,10.15,0,0,0-3.55-3.64l-.41-.25.28-.39c2.5-3.43,2.74-8.42.84-13a69.22,69.22,0,0,0-14.25-9.87,8,8,0,0,0-1.37.23l-.44.13-.09-.46c-.07-.3-.19-.6-.28-.91-11.66-5.06-27.25-7.1-28.91-7.3Zm-20.81,4.08c-2.49,3.19-12.09,15.16-22,21.92-7.6,5.19-17,8.06-22.66,9.77-2,.63-4.16,1.26-4.37,1.26,0,.48,1.43,2.25,2.89,4.12l6.8,9.21a120.64,120.64,0,0,1,8.57,14.78c1-.08,4-.28,8.22-.28,2.59,0,5.62.08,8.86.31l11.37,1.28,4.82.69a25.51,25.51,0,0,0-.89-4.64c-1.33-5.74-3.57-15.34-2.87-24.53,1-12.31,6.82-27.13,8.13-30.3-.29,0-.57-.1-.84-.17s-.6-.18-.9-.28a12.12,12.12,0,0,1-2.13-.89h0l-.79-.43a12.34,12.34,0,0,1-2.12-1.68l-.11-.13Z"/></g></g></svg>