<svg xmlns="http://www.w3.org/2000/svg" viewBox="0 0 322.83 92.61"><defs><style>.cls-1{fill:#f7f8f8;}</style></defs><title>アセット 2</title><g id="レイヤー_2" data-name="レイヤー 2"><g id="design"><path class="cls-1" d="M265.15,1.42A11.26,11.26,0,0,1,276.4,13c-.18,6-5.47,10.91-11.78,10.91H235.14a5.56,5.56,0,1,0,0,11.12h74.49c6.31,0,11.6,4.89,11.78,10.91a11.26,11.26,0,0,1-11.25,11.6H145.1a5.56,5.56,0,0,0,0,11.11h74.49c6.31,0,11.6,4.9,11.78,10.91a11.26,11.26,0,0,1-11.25,11.61H12.68A11.27,11.27,0,0,1,1.42,79.58c.18-6,5.47-10.91,11.79-10.91H93.9a5.56,5.56,0,1,0,0-11.11H67.26A11.27,11.27,0,0,1,56,46c.18-6,5.47-10.91,11.79-10.91H183.92a5.56,5.56,0,1,0,0-11.12H157.28A11.27,11.27,0,0,1,146,12.33c.19-6,5.47-10.91,11.79-10.91H265.15m0-1.42H157.81c-6.94,0-13,5.35-13.2,12.29a12.67,12.67,0,0,0,12.67,13.06h26.64a4.14,4.14,0,1,1,0,8.28H67.79c-6.94,0-13,5.35-13.2,12.28A12.68,12.68,0,0,0,67.26,59H93.9a4.14,4.14,0,0,1,0,8.28H13.21C6.27,67.26.21,72.6,0,79.54A12.68,12.68,0,0,0,12.68,92.61H220.14a12.68,12.68,0,0,0,12.67-13.07c-.21-6.94-6.26-12.28-13.2-12.28H145.12a4.14,4.14,0,0,1,0-8.28H310.16a12.68,12.68,0,0,0,12.67-13.07c-.21-6.93-6.26-12.28-13.2-12.28H235.14a4.14,4.14,0,1,1,0-8.28h29.48c6.94,0,13-5.35,13.2-12.28A12.68,12.68,0,0,0,265.15,0Z"/></g></g></svg>