<svg xmlns="http://www.w3.org/2000/svg" viewBox="0 0 326.11 55.49"><defs><style>.cls-1{fill:#f3ecea;}</style></defs><title>アセット 5</title><g id="レイヤー_2" data-name="レイヤー 2"><g id="design"><path class="cls-1" d="M.57,16.13H.06c0-.63.07-1.09.08-1.41s0-.59,0-.85,0-.78,0-1.33S0,11.34,0,10.63H.62a9.37,9.37,0,0,0,2.65,3.54,5.31,5.31,0,0,0,3.34,1.29,3,3,0,0,0,1.7-.41,1.42,1.42,0,0,0,.59-1.22c0-.75-.93-1.53-2.77-2.36l-.4-.18A14,14,0,0,1,1.28,8.46,4.67,4.67,0,0,1,.09,5.21,5,5,0,0,1,1.56,1.46,5.32,5.32,0,0,1,5.43,0,6.18,6.18,0,0,1,7.1.27,7,7,0,0,1,8.73,1L11.16,0h.45c0,.36,0,.75,0,1.15,0,.11,0,.18,0,.21q0,1,.06,1.89c0,.6.08,1.23.15,1.88h-.62a10.45,10.45,0,0,0-2.53-3.3A4.6,4.6,0,0,0,5.72.71a2.55,2.55,0,0,0-1.55.43,1.36,1.36,0,0,0-.56,1.15C3.61,3,4.69,3.9,6.87,4.91l.8.36a12.67,12.67,0,0,1,4,2.67A4.47,4.47,0,0,1,12.8,11a4.74,4.74,0,0,1-1.56,3.71A5.89,5.89,0,0,1,7.1,16.13a7.8,7.8,0,0,1-2-.23,10.83,10.83,0,0,1-2.06-.79Z"/><path class="cls-1" d="M18.75,13.72V5.79H17.37V5.24a6.32,6.32,0,0,0,3.29-1,9.69,9.69,0,0,0,2.75-2.86h.44V5.23h2.44v.56H23.85V13.4a2,2,0,0,0,.16,1,.6.6,0,0,0,.55.25,1.16,1.16,0,0,0,1-.66,4.69,4.69,0,0,0,.58-1.86h.46a3.94,3.94,0,0,1-1.3,3A4.77,4.77,0,0,1,22,16.13a4.08,4.08,0,0,1-2.44-.6A2.12,2.12,0,0,1,18.75,13.72Z"/><path class="cls-1" d="M30.72,15.71v-.6H32V5.79H30.72V5.23h3.07a14.46,14.46,0,0,0,1.47-.07,13.73,13.73,0,0,0,1.43-.23h.38V7.52h.18a5.48,5.48,0,0,1,1.53-2,3.36,3.36,0,0,1,2-.62,2.51,2.51,0,0,1,1.86.67,2.44,2.44,0,0,1,.68,1.83,2.32,2.32,0,0,1-.67,1.76,2.79,2.79,0,0,1-3.44.13A1.62,1.62,0,0,1,38.58,8V7.7a1,1,0,0,0-.06-.4.19.19,0,0,0-.19-.13c-.26,0-.53.41-.79,1.24a8.57,8.57,0,0,0-.4,2.69v4h1.71v.6Z"/><path class="cls-1" d="M60.52,11H53.11v1.31a3.34,3.34,0,0,0,.64,2.22,2.32,2.32,0,0,0,1.86.75,4.5,4.5,0,0,0,2.28-.58A6.09,6.09,0,0,0,59.77,13l.42.29a5.17,5.17,0,0,1-2.3,2.16,8.36,8.36,0,0,1-3.65.72,7.11,7.11,0,0,1-4.83-1.55,5.09,5.09,0,0,1-1.8-4.06,5.09,5.09,0,0,1,1.79-4,7,7,0,0,1,4.71-1.55,6.62,6.62,0,0,1,4.73,1.58A6,6,0,0,1,60.52,11Zm-5.19-.5V6.9a1.76,1.76,0,0,0-.27-1.09,1.18,1.18,0,0,0-1.68,0,1.76,1.76,0,0,0-.27,1.09v3.62Z"/><path class="cls-1" d="M78.09,11H70.68v1.31a3.34,3.34,0,0,0,.64,2.22,2.31,2.31,0,0,0,1.86.75,4.43,4.43,0,0,0,2.27-.58A6,6,0,0,0,77.33,13l.42.29a5.12,5.12,0,0,1-2.3,2.16,8.33,8.33,0,0,1-3.65.72A7.11,7.11,0,0,1,67,14.58a5.09,5.09,0,0,1-1.81-4.06,5.1,5.1,0,0,1,1.8-4,6.94,6.94,0,0,1,4.7-1.55A6.59,6.59,0,0,1,76.4,6.51,6,6,0,0,1,78.09,11Zm-5.19-.5V6.9a1.76,1.76,0,0,0-.27-1.09,1,1,0,0,0-.85-.35,1,1,0,0,0-.83.35,1.76,1.76,0,0,0-.27,1.09v3.62Z"/><path class="cls-1" d="M83.62,13.72V5.79H82.24V5.24a6.32,6.32,0,0,0,3.29-1,9.69,9.69,0,0,0,2.75-2.86h.44V5.23h2.44v.56H88.72V13.4a2.14,2.14,0,0,0,.15,1,.61.61,0,0,0,.55.25,1.16,1.16,0,0,0,1-.66A4.69,4.69,0,0,0,91,12.11h.46a3.94,3.94,0,0,1-1.3,3,4.77,4.77,0,0,1-3.29,1.07,4.08,4.08,0,0,1-2.44-.6A2.1,2.1,0,0,1,83.62,13.72Z"/><path class="cls-1" d="M117,15.71h-9.47v-.64h2V1h-2V.4h4.21a14.13,14.13,0,0,0,1.46-.08,13.73,13.73,0,0,0,1.43-.23h.4v15h2Z"/><path class="cls-1" d="M125.61,15.31l-1.83.8h-.54l-.17-4h.55a6.79,6.79,0,0,0,2.24,2.53,5.05,5.05,0,0,0,2.86.94,2.25,2.25,0,0,0,1.24-.29.94.94,0,0,0,.43-.82c0-.64-1.07-1.28-3.2-1.91l-.72-.22a5,5,0,0,1-2.41-1.51,3.55,3.55,0,0,1-.88-2.36,3.21,3.21,0,0,1,1.13-2.54,4.2,4.2,0,0,1,2.91-1,8,8,0,0,1,1.54.15,8.75,8.75,0,0,1,1.57.47l1.82-.62h.44l0,3.48h-.43a5.7,5.7,0,0,0-2-2.17,4.61,4.61,0,0,0-2.55-.82,1.73,1.73,0,0,0-1,.25.83.83,0,0,0-.36.72c0,.62.81,1.18,2.43,1.66l.22.06a8.24,8.24,0,0,1,3.3,1.65,3.3,3.3,0,0,1,1,2.46,3.69,3.69,0,0,1-1.12,2.88,4.58,4.58,0,0,1-3.18,1,7.28,7.28,0,0,1-1.66-.18A8.11,8.11,0,0,1,125.61,15.31Z"/><path class="cls-1" d="M139.17,13.72V5.79h-1.38V5.24a6.32,6.32,0,0,0,3.29-1,9.69,9.69,0,0,0,2.75-2.86h.44V5.23h2.44v.56h-2.44V13.4a2.14,2.14,0,0,0,.15,1,.61.61,0,0,0,.55.25,1.16,1.16,0,0,0,1-.66,4.86,4.86,0,0,0,.58-1.86H147a3.94,3.94,0,0,1-1.3,3,4.79,4.79,0,0,1-3.29,1.07,4.06,4.06,0,0,1-2.44-.6A2.1,2.1,0,0,1,139.17,13.72Z"/><path class="cls-1" d="M163.92,15.31l-1.83.8h-.54l-.18-4h.56a6.76,6.76,0,0,0,2.23,2.53,5.08,5.08,0,0,0,2.87.94,2.27,2.27,0,0,0,1.24-.29,1,1,0,0,0,.42-.82c0-.64-1.06-1.28-3.2-1.91l-.72-.22a4.94,4.94,0,0,1-2.4-1.51,3.56,3.56,0,0,1-.89-2.36,3.24,3.24,0,0,1,1.13-2.54,4.24,4.24,0,0,1,2.91-1,8.14,8.14,0,0,1,1.55.15,8.65,8.65,0,0,1,1.56.47l1.82-.62h.45l0,3.48h-.42a5.73,5.73,0,0,0-2-2.17A4.55,4.55,0,0,0,166,5.42a1.73,1.73,0,0,0-1,.25.82.82,0,0,0-.37.72c0,.62.81,1.18,2.43,1.66l.23.06a8.19,8.19,0,0,1,3.29,1.65,3.31,3.31,0,0,1,1,2.46,3.69,3.69,0,0,1-1.13,2.88,4.56,4.56,0,0,1-3.17,1,7.44,7.44,0,0,1-1.67-.18A8.25,8.25,0,0,1,163.92,15.31Z"/><path class="cls-1" d="M176.47,10.52a5,5,0,0,1,1.86-4,8.51,8.51,0,0,1,9.78,0A5,5,0,0,1,190,10.52a5.06,5.06,0,0,1-1.85,4.06,8.47,8.47,0,0,1-9.78,0A5.07,5.07,0,0,1,176.47,10.52Zm7.85,3.6V6.9a1.77,1.77,0,0,0-.26-1.09,1.18,1.18,0,0,0-1.68,0,1.7,1.7,0,0,0-.28,1.09v7.22a1.8,1.8,0,0,0,.27,1.1,1,1,0,0,0,.85.34,1,1,0,0,0,.84-.34A1.8,1.8,0,0,0,184.32,14.12Z"/><path class="cls-1" d="M194.09,15.71v-.6h1.44V.87h-1.31V.31h3.15a12.07,12.07,0,0,0,1.47-.08A13.92,13.92,0,0,0,200.28,0h.37V15.11H202v.6Z"/><path class="cls-1" d="M206.22,10.52a5,5,0,0,1,1.87-4,8.51,8.51,0,0,1,9.78,0,5,5,0,0,1,1.85,4.05,5,5,0,0,1-1.86,4.06,8.45,8.45,0,0,1-9.77,0A5,5,0,0,1,206.22,10.52Zm7.86,3.6V6.9a1.76,1.76,0,0,0-.27-1.09,1,1,0,0,0-.84-.35,1,1,0,0,0-.84.35,1.76,1.76,0,0,0-.27,1.09v7.22a1.8,1.8,0,0,0,.27,1.1,1.22,1.22,0,0,0,1.69,0A1.87,1.87,0,0,0,214.08,14.12Z"/><path class="cls-1" d="M237.51,15.71h-4.2v-.64a2.12,2.12,0,0,0,1.19-.51,2.93,2.93,0,0,0,.77-1.24l4.64-13h4.61l5.37,14.76h1.18v.64h-9.5v-.64h1.58l-1.58-4.4H237l-.85,2.54a2.7,2.7,0,0,0-.12.47,2.28,2.28,0,0,0-.05.4.87.87,0,0,0,.33.75,1.76,1.76,0,0,0,1,.24h.17Zm-.21-5.82h4l-2-5.49Z"/><path class="cls-1" d="M255.2,15.71v-.6h1.43V.87h-1.31V.31h3.16A12.07,12.07,0,0,0,260,.23,13.32,13.32,0,0,0,261.38,0h.38V15.11h1.31v.6Z"/><path class="cls-1" d="M273.68,16h-.41a12.93,12.93,0,0,0-1.43-.23,14.48,14.48,0,0,0-1.47-.08H267.5v-.55h1.33V.87H267.5V.31h3.13a12.12,12.12,0,0,0,1.48-.08A13.13,13.13,0,0,0,273.53,0h.39V6.75a2.45,2.45,0,0,1,1.24-1.31,4.61,4.61,0,0,1,2.2-.51,3.77,3.77,0,0,1,3.13,1.54,6.42,6.42,0,0,1,1.19,4.05,6.36,6.36,0,0,1-1.2,4.07,3.82,3.82,0,0,1-3.18,1.54,4,4,0,0,1-2.36-.66,3.11,3.11,0,0,1-1.26-1.87Zm2.5-3.42v-4A4.82,4.82,0,0,0,276,6.85a.79.79,0,0,0-.76-.46,1,1,0,0,0-.95.67,5.94,5.94,0,0,0-.34,2.17v2a7.68,7.68,0,0,0,.3,2.51c.2.53.52.8.94.8a.81.81,0,0,0,.77-.44,3,3,0,0,0,.25-1.43Z"/><path class="cls-1" d="M299.51,15.16h1.29v.55h-2.91a14.17,14.17,0,0,0-1.47.08A13.5,13.5,0,0,0,295,16h-.38l0-2h-.19a3.67,3.67,0,0,1-1.5,1.57,4.57,4.57,0,0,1-2.27.54,3.12,3.12,0,0,1-2.55-.92,5,5,0,0,1-.78-3.2V5.79h-1.22V5.23h3a14.52,14.52,0,0,0,1.48-.07A13.5,13.5,0,0,0,292,4.93h.37v8.14a1.7,1.7,0,0,0,.18.88.59.59,0,0,0,.53.28,1.08,1.08,0,0,0,1-.7,4.87,4.87,0,0,0,.33-2V5.79h-.72V5.23h2.52a13.94,13.94,0,0,0,1.45-.07,13.73,13.73,0,0,0,1.43-.23h.4Z"/><path class="cls-1" d="M311.33,7a3.45,3.45,0,0,1,1.42-1.55,4.25,4.25,0,0,1,2.2-.55,3.41,3.41,0,0,1,2,.57A2.31,2.31,0,0,1,318,7h.17a3.42,3.42,0,0,1,1.41-1.55,4.28,4.28,0,0,1,2.2-.55,3,3,0,0,1,2.45.92A5.2,5.2,0,0,1,324.93,9v6.07h1.18v.6h-6.66v-.6h.69V8a1.78,1.78,0,0,0-.17-.87.57.57,0,0,0-.52-.28,1.07,1.07,0,0,0-1,.71,4.92,4.92,0,0,0-.33,2v5.56h.68v.6h-6.14v-.6h.68V8a1.71,1.71,0,0,0-.17-.86.6.6,0,0,0-.54-.29,1,1,0,0,0-1,.7,5.14,5.14,0,0,0-.33,2v5.56h.7v.6h-6.75v-.6h1.27V5.79h-1.27V5.23h2.55a13.94,13.94,0,0,0,1.45-.07,14.37,14.37,0,0,0,1.44-.23h.4l0,2.1Z"/><path class="cls-1" d="M93.81,36.71v.7a7.75,7.75,0,0,0-3.11,1.82,3.31,3.31,0,0,0-1.24,2.25.51.51,0,0,0,0,.27s.08.06.16.08a4.66,4.66,0,0,0,.71-.25,3.22,3.22,0,0,1,1.23-.25,2.82,2.82,0,0,1,2,.76A2.49,2.49,0,0,1,94.43,44a2.47,2.47,0,0,1-.82,1.91,3.3,3.3,0,0,1-4.5-.29,4.15,4.15,0,0,1-.9-2.78,5.73,5.73,0,0,1,1.55-4A7.11,7.11,0,0,1,93.81,36.71Zm8,0v.7a7.77,7.77,0,0,0-3.1,1.82,3.33,3.33,0,0,0-1.25,2.25.78.78,0,0,0,0,.27.27.27,0,0,0,.17.08,4.76,4.76,0,0,0,.7-.25,3.18,3.18,0,0,1,1.23-.25,2.82,2.82,0,0,1,2,.76,2.66,2.66,0,0,1,0,3.82,3,3,0,0,1-2.12.75,3,3,0,0,1-2.39-1,4.15,4.15,0,0,1-.9-2.78,5.73,5.73,0,0,1,1.55-4A7.11,7.11,0,0,1,101.8,36.71Z"/><path class="cls-1" d="M120.16,55v-.75h2.29V37.73h-2.29V37H132v.7h-2.28V54.25H132V55Z"/><path class="cls-1" d="M137.55,55v-.7h1.51V43.43h-1.51v-.66h3.58a16.32,16.32,0,0,0,1.71-.09,15.46,15.46,0,0,0,1.68-.26H145v3h.2a6.45,6.45,0,0,1,1.8-2.31,3.94,3.94,0,0,1,2.35-.71,3,3,0,0,1,2.17.78,2.86,2.86,0,0,1,.8,2.14,2.7,2.7,0,0,1-.79,2,3.25,3.25,0,0,1-4,.15,1.89,1.89,0,0,1-.76-1.54v-.35a1.1,1.1,0,0,0-.07-.47.22.22,0,0,0-.22-.14c-.3,0-.61.48-.92,1.43a9.94,9.94,0,0,0-.47,3.14V54.3h2V55Z"/><path class="cls-1" d="M157.24,48.94a5.84,5.84,0,0,1,2.17-4.71,9.92,9.92,0,0,1,11.41,0,6.24,6.24,0,0,1,0,9.46,9.85,9.85,0,0,1-11.41,0A5.88,5.88,0,0,1,157.24,48.94Zm9.17,4.2V44.72a2.15,2.15,0,0,0-.31-1.28,1.41,1.41,0,0,0-2,0,2.08,2.08,0,0,0-.31,1.28v8.42a2.15,2.15,0,0,0,.3,1.28,1.21,1.21,0,0,0,1,.4,1.17,1.17,0,0,0,1-.4A2.08,2.08,0,0,0,166.41,53.14Z"/><path class="cls-1" d="M177.94,55v-.7h1.48V37.68h-1.48V37h3.58a16.32,16.32,0,0,0,1.71-.09c.56-.07,1.12-.16,1.67-.27h.47v7.75h.25a5.62,5.62,0,0,1,1.83-1.53,5.35,5.35,0,0,1,2.29-.47,3.67,3.67,0,0,1,3,1.07,5.85,5.85,0,0,1,.91,3.72V54.3h1.45V55H186.9v-.7h.8V46a1.94,1.94,0,0,0-.21-1,.67.67,0,0,0-.63-.32,1.19,1.19,0,0,0-1.1.81,5.65,5.65,0,0,0-.39,2.37v6.5h.79V55Z"/><path class="cls-1" d="M216.07,52.9l.4.29a5,5,0,0,1-1.9,1.67,5.36,5.36,0,0,1-2.5.63,3.15,3.15,0,0,1-1.78-.49,3.25,3.25,0,0,1-1.19-1.46A6,6,0,0,1,206.94,55a7.34,7.34,0,0,1-2.76.49,4.29,4.29,0,0,1-2.92-.94,3.1,3.1,0,0,1-1.1-2.48,3.36,3.36,0,0,1,1.92-3,10.49,10.49,0,0,1,5.2-1.1h1.53V44.25a1.06,1.06,0,0,0-.36-.89,1.91,1.91,0,0,0-1.14-.27,1.85,1.85,0,0,0-.69.12c-.19.09-.29.17-.29.27s.06.13.19.25a2,2,0,0,1,.66,1.56,1.62,1.62,0,0,1-.79,1.45,4.43,4.43,0,0,1-2.32.49,3.63,3.63,0,0,1-2.14-.52,1.78,1.78,0,0,1-.73-1.55,2.17,2.17,0,0,1,1.45-2.11,13.49,13.49,0,0,1,4.9-.63,22.25,22.25,0,0,1,4,.29,4.53,4.53,0,0,1,2.16.94,2.46,2.46,0,0,1,.66,1,6,6,0,0,1,.2,1.79v6.27a1,1,0,0,0,.12.59.48.48,0,0,0,.42.16,1,1,0,0,0,.55-.16A1.1,1.1,0,0,0,216.07,52.9Zm-7.24-4.33h-.35a1.92,1.92,0,0,0-1.64.64,4.46,4.46,0,0,0-.46,2.4,3.77,3.77,0,0,0,.27,1.64.92.92,0,0,0,.87.53,1.06,1.06,0,0,0,1-.6,4.37,4.37,0,0,0,.31-1.92Z"/><path class="cls-1" d="M234.13,46.66V46a7.83,7.83,0,0,0,3.1-1.81,3.31,3.31,0,0,0,1.24-2.25.51.51,0,0,0,0-.27s-.07-.06-.16-.08a4.66,4.66,0,0,0-.71.25,3.23,3.23,0,0,1-1.24.25,2.81,2.81,0,0,1-2-.76,2.51,2.51,0,0,1-.81-1.91,2.47,2.47,0,0,1,.82-1.91,3.26,3.26,0,0,1,4.5.3,4.15,4.15,0,0,1,.9,2.78,5.68,5.68,0,0,1-1.54,4A7.1,7.1,0,0,1,234.13,46.66Zm8,0V46a7.76,7.76,0,0,0,3.1-1.81,3.31,3.31,0,0,0,1.24-2.25.55.55,0,0,0,0-.28.19.19,0,0,0-.16-.07,4.29,4.29,0,0,0-.71.25,3.19,3.19,0,0,1-1.24.25,2.79,2.79,0,0,1-2-.76,2.66,2.66,0,0,1,0-3.82,3.26,3.26,0,0,1,4.5.3,4.15,4.15,0,0,1,.91,2.78,5.69,5.69,0,0,1-1.55,4A7.1,7.1,0,0,1,242.13,46.66Z"/></g></g></svg>