<svg id="レイヤー_1" data-name="レイヤー 1" xmlns="http://www.w3.org/2000/svg" viewBox="0 0 13.9 236.43"><defs><style>.cls-1{fill:#fff;}</style></defs><title>アートボード 1</title><path class="cls-1" d="M7.88,1.81c0,.07-.11.16-.31.25s-.17.07-.22,1.54H10.4a.3.3,0,0,0,.23-.16c.06-.09.41-.6.59-.6s1.5.87,1.5,1.14-.15.25-.44.4a.35.35,0,0,0-.17.36V7.16c0,1.36,0,2.83.07,3.91v.09a1.91,1.91,0,0,1-2,1.76.54.54,0,0,1-.48-.29c-.23-.45-1.85-1.19-1.85-1.3H8a8.35,8.35,0,0,0,1.65.19c.79,0,1.07-.23,1.08-.67V4.23c0-.24-.1-.29-.27-.29H7.35V5.31c0,2.52.05,5.78.09,6.62h0c0,.47-.56.67-.85.67A.58.58,0,0,1,6,12v0H6V4H3.16a1.57,1.57,0,0,1-.26.19c-.14.1-.17.12-.17,2s.07,4,.08,6.19a.81.81,0,0,1-.86.74.64.64,0,0,1-.68-.6v-.1h0c.09-2.66.14-4.93.14-6.55a15.1,15.1,0,0,0-.21-3,.14.14,0,0,1,0-.09h0a7,7,0,0,1,1.9.93H6V2.89A7.39,7.39,0,0,0,6,1.56H5.08A39.25,39.25,0,0,0,1,1.72H1C.67,1.72.2,1.14.2,1c1.43.18,4.09.24,4.93.24h5.42a.31.31,0,0,0,.23-.14c.7-1,.85-1.06,1-1.06h.08A2.75,2.75,0,0,1,13.29,1.4c0,.1,0,.19-.3.19H7.42C7.7,1.62,7.88,1.72,7.88,1.81ZM2.92,5h.13c.38,0,2.33.09,2.33,1.25A.74.74,0,0,1,4.67,7a.88.88,0,0,1-.73-.48,5.49,5.49,0,0,0-.79-1.23C3,5.12,2.92,5.05,2.92,5Zm0,2.79H3c.27,0,2.38.12,2.38,1.3a.73.73,0,0,1-.71.74.88.88,0,0,1-.73-.48A5.9,5.9,0,0,0,3.15,8C3,7.91,2.92,7.82,2.92,7.79ZM7.58,5h.14c.77,0,2.33.2,2.33,1.25a.73.73,0,0,1-.7.75.88.88,0,0,1-.73-.48,5.31,5.31,0,0,0-.8-1.23A3,3,0,0,0,7.58,5Zm0,2.66h.09c.09,0,2.38.07,2.38,1.3a.72.72,0,0,1-.7.74h0a.88.88,0,0,1-.73-.48,5.85,5.85,0,0,0-.8-1.28,2.05,2.05,0,0,1-.24-.31Z"/><path class="cls-1" d="M2.33,19.84a2.71,2.71,0,0,1,1.81,2.43,3.74,3.74,0,0,1-.48,1.56,7.55,7.55,0,0,0-.85,2.94c0,.29,0,.65.17.65s0,0,.1-.13a15.78,15.78,0,0,1,1.75-3h0a3.3,3.3,0,0,1-.2.63,13.82,13.82,0,0,0-1,4,2.18,2.18,0,0,0,.12.72,1.25,1.25,0,0,1,.12.54.67.67,0,0,1-.6.74h0c-.86,0-1.32-1.65-1.32-3.13a17.28,17.28,0,0,1,.82-4.39,4.06,4.06,0,0,0,.18-1.2,3.36,3.36,0,0,0-.78-2.12A.26.26,0,0,1,2.06,20,.29.29,0,0,1,2.33,19.84ZM9.47,27l-.06-3.11H8.84a2.57,2.57,0,0,1-2.52-1.72v-.06a2.28,2.28,0,0,1,.44.15A10.59,10.59,0,0,0,8,22.67a3.75,3.75,0,0,0,.82.09h.6v-.9c0-1.07,0-1.27-.83-1.46-.08,0-.14,0-.14-.1a1,1,0,0,1,.9-.65c.4,0,1.31.44,1.31,1.2a4.52,4.52,0,0,1-.08.63,11.31,11.31,0,0,0,1.3.19.51.51,0,0,1,.51.51v0c0,.84-1.07,1.27-2,1.5v.55c0,1.08.11,2.12.21,3.26v.17c0,.06,2.25.73,2.25,1.91a.76.76,0,0,1-.67.81.91.91,0,0,1-.75-.54,3.44,3.44,0,0,0-.9-1A2.45,2.45,0,0,1,8,30.75,2,2,0,0,1,5.91,29c0-1,1.25-1.65,2.78-1.65q.39,0,.78.06ZM8,28.15c-.16,0-1.56,0-1.56.73s.87.75,1.25.75a1.6,1.6,0,0,0,1.68-1.24A4,4,0,0,0,8,28.15Zm2.36-5.67c.21-.07.64-.26.64-.45s-.17-.22-.52-.4c0,.29-.08.57-.11.85Z"/><path class="cls-1" d="M13.32,49.35c0,.1-.06.19-.31.19H5.24a43.42,43.42,0,0,0-4.35.16h0c-.26,0-.71-.57-.71-.75.69.09,1.68.13,2.64.16V44a14.15,14.15,0,0,0-.18-2.6v-.16a12.23,12.23,0,0,1,2,.41c.24.07.34.17.34.29s-.16.29-.43.41c-.11.06-.2.1-.21.35-.06.65-.09,2.87-.09,4.71v1.71h2V43.3a36.25,36.25,0,0,0-.2-5.61.21.21,0,0,1,0-.11v0a12.21,12.21,0,0,1,2,.4c.24.08.34.18.34.3s-.16.29-.43.4-.29.15-.32,4.57H9.16a.28.28,0,0,0,.23-.13c.18-.26.84-1.18,1-1.18h.09C10.84,42,12,43,12,43.39c0,.11-.06.19-.31.19H7.8v5.59h2.56a.3.3,0,0,0,.23-.13c.68-1.06,1-1.25,1.09-1.25h.09C12.22,48,13.32,49,13.32,49.35Z"/><path class="cls-1" d="M6.52,64.34a8.5,8.5,0,0,1-1.23.1c-2.36,0-2.68-1.35-2.68-1.53a.06.06,0,0,1,.06-.06h0c.06,0,.17.09.28.12A6.48,6.48,0,0,0,5,63.31a7,7,0,0,0,1.7-.18V61.39H6.64c-2.31,0-2.43-1.51-2.43-1.8,0-.11,0-.15.06-.15s.18.1.28.16a3.48,3.48,0,0,0,1.84.63h.45v-.39c.06-.55.1-1,.1-1.3a.73.73,0,0,0-.63-.82h0c-.17,0-.28-.08-.28-.16a1.2,1.2,0,0,1,.94-.68,1.7,1.7,0,0,1,1.3,1.22,3.71,3.71,0,0,1-.21.81c-.1.35-.2.7-.28,1a1.4,1.4,0,0,1,.78-.28c.25,0,.65.1.65.51,0,.06,0,.88-1.67,1.21q-.06.61-.06,1.23v.36c1-.32,1-.54,1-.64a2.19,2.19,0,0,0-.52-.66c-.16-.13-.18-.14-.18-.16h0a1.09,1.09,0,0,1,.24.07,3.92,3.92,0,0,0,1.31.26c.52,0,.8.25.8.56s-.23,1.09-2.61,1.78c.13,1.19.31,2.26.34,2.39,1.5.5,2.27,1.36,2.27,2.06a.7.7,0,0,1-.63.76h0a1,1,0,0,1-.8-.59,3.63,3.63,0,0,0-.83-.92,2.86,2.86,0,0,1-2.57,1.8,2,2,0,0,1-2.1-1.71c0-1,1.3-1.71,2.83-1.71.26,0,.51,0,.77.06V64.35ZM5.56,67c-.09,0-1.87,0-1.87.86,0,.45.55.71,1.18.71a1.83,1.83,0,0,0,1.94-1.34A3.55,3.55,0,0,0,5.56,67Z"/><path class="cls-1" d="M4.73,89.14h0a2.49,2.49,0,0,1,.41-.37A8.79,8.79,0,0,0,8.37,81.9c0-1.47-.48-3.37-1.44-3.37-.69,0-1.36,1-1.36,2.24a4.24,4.24,0,0,0,.48,1.85,1.31,1.31,0,0,1,.11.52c0,.53-.34,1-.72,1s-1.11-.89-1.11-2.37A25.34,25.34,0,0,1,5,77.91a3.84,3.84,0,0,0,0-.48c0-.34-.07-.6-.23-.69s-.31-.15-.31-.28a.69.69,0,0,1,.7-.46,1.05,1.05,0,0,1,1,1.09s0,.06,0,.09a2.25,2.25,0,0,1-.11.68c-.07.28-.2.54-.29.82a.49.49,0,0,0,0,.17v.05a.65.65,0,0,0,.15-.18,1.74,1.74,0,0,1,1.49-1c1.13,0,2.51,1.34,2.51,4.17A7.86,7.86,0,0,1,5.21,89,2.64,2.64,0,0,1,4.73,89.14Z"/><path class="cls-1" d="M11.76,96.93a6.11,6.11,0,0,0-1.68-2c-.15-.11-.25-.19-.25-.23s0,0,.15,0c.89,0,3.5.55,3.5,2a.89.89,0,0,1-.85.9A1,1,0,0,1,11.76,96.93Z"/></svg>