<svg id="レイヤー_1" data-name="レイヤー 1" xmlns="http://www.w3.org/2000/svg" viewBox="0 0 13.9 236.43"><defs><style>.cls-1{fill:#fff;}</style></defs><title>アートボード 1</title><path class="cls-1" d="M1.36,114.88A1,1,0,0,1,2,114a3.9,3.9,0,0,0,2.15-1.78c0-.16.13-.4.2-.4a1.48,1.48,0,0,1,.12.72,3.07,3.07,0,0,1-2.31,3A.76.76,0,0,1,1.36,114.88ZM5.27,111a7.49,7.49,0,0,1-1.33.28c-.31,0-2-.24-2-1.32,0-.17,0-.24.13-.24a.69.69,0,0,1,.24,0,5.07,5.07,0,0,0,2,.4c.31,0,1.33-.1,2-.19v-.89c0-.79-.25-1.24-.69-1.24H5.35c-.22,0-.3-.06-.3-.16s.1-.54.77-.54,1.87.6,1.87,1.15c0,.28-.24.51-.29.91,0,.21-.05.41-.06.62a4.47,4.47,0,0,0,.87-.13c.62-.09.69-.36,1.33-.36,1,0,2,.46,2,.94,0,.27-.3.49-.77.49h-.31a8.09,8.09,0,0,0-1.7-.15,11.32,11.32,0,0,0-1.43.09v.76a15.63,15.63,0,0,0,.09,2.1,11.3,11.3,0,0,1,.19,1.65c0,.84-.35,1.72-1,1.72-.33,0-.67-.32-.75-.94a3.83,3.83,0,0,0-.86-2,2.37,2.37,0,0,1-.45-.68h0a2.46,2.46,0,0,1,.62.33,9.39,9.39,0,0,0,.93.62c.07,0,.09-.22.09-1.78v-1.7Zm5.13,3.65a7.58,7.58,0,0,0-1.85-2.25c-.28-.2-.44-.34-.44-.38s0,0,.07,0,3.8.63,3.8,2.28a.87.87,0,0,1-.81.9,1,1,0,0,1-.77-.56Zm-.57-6a4.41,4.41,0,0,0-1.18-.93c-.16-.09-.25-.16-.25-.21a2.42,2.42,0,0,1,.63-.14c.86,0,1.69.38,1.69,1a.49.49,0,0,1-.45.53h0a.55.55,0,0,1-.42-.23Zm1.52-.7a4.79,4.79,0,0,0-1.21-.89c-.16-.07-.25-.15-.25-.2a3,3,0,0,1,.7-.16c.64,0,1.65.21,1.65.94a.48.48,0,0,1-.45.51h0a.59.59,0,0,1-.42-.15Z"/><path class="cls-1" d="M6.9,126a12.55,12.55,0,0,1-4.76,3.81,2.61,2.61,0,0,1-.61.22h0a3.35,3.35,0,0,1,.45-.44c2-1.59,4-4.47,4-5a.33.33,0,0,0-.24-.34c-.27-.07-.37-.14-.37-.23a.82.82,0,0,1,.83-.53c.64,0,1.51.59,1.51,1.19a1,1,0,0,1-.12.42,9.81,9.81,0,0,0,1.52-.24c.27-.17.43-.4.71-.4s1.49.7,1.49,1.16c0,.18-.21.29-.45.4s-.35.22-.6.59c-2.6,3.86-4.77,6.06-8.74,7.15a4.26,4.26,0,0,1-.79.16H.67a2.32,2.32,0,0,1,.61-.36c3.21-1.4,5.53-4.25,7.73-7.7a.29.29,0,0,0,0-.13c0-.06,0-.11-.14-.11a11,11,0,0,0-1.58.37A1.41,1.41,0,0,1,7,126Z"/><path class="cls-1" d="M2.33,140.47a2.71,2.71,0,0,1,1.81,2.43,3.78,3.78,0,0,1-.48,1.57,7.56,7.56,0,0,0-.85,2.93c0,.29,0,.65.17.65s0,0,.1-.13a15.78,15.78,0,0,1,1.75-3h0a3.3,3.3,0,0,1-.2.63,13.51,13.51,0,0,0-1,4.06,2.16,2.16,0,0,0,.12.71,1.25,1.25,0,0,1,.12.54.67.67,0,0,1-.6.74h0c-.86,0-1.32-1.65-1.32-3.13a17.28,17.28,0,0,1,.82-4.39,4.06,4.06,0,0,0,.18-1.2,3.36,3.36,0,0,0-.78-2.12.29.29,0,0,1-.08-.14A.28.28,0,0,1,2.33,140.47Zm7.14,7.12-.06-3.11a5.42,5.42,0,0,1-.57,0,2.57,2.57,0,0,1-2.52-1.72v-.06a2.28,2.28,0,0,1,.44.15A9.19,9.19,0,0,0,8,143.3a3.75,3.75,0,0,0,.82.09h.6v-.9c0-1.07,0-1.27-.83-1.46-.08,0-.14,0-.14-.1a1,1,0,0,1,.9-.64c.4,0,1.31.43,1.31,1.19a4.52,4.52,0,0,1-.08.63,11.31,11.31,0,0,0,1.3.19.51.51,0,0,1,.51.51v0c0,.84-1.07,1.27-2,1.5v.55c0,1.08.11,2.12.21,3.26v.17c0,.06,2.25.73,2.25,1.91a.76.76,0,0,1-.67.81.91.91,0,0,1-.75-.54,3.44,3.44,0,0,0-.9-1A2.45,2.45,0,0,1,8,151.38a2,2,0,0,1-2.1-1.75c0-1,1.25-1.65,2.78-1.65l.78.06ZM8,148.78c-.16,0-1.56,0-1.56.73s.87.75,1.25.75A1.61,1.61,0,0,0,9.38,149,4.29,4.29,0,0,0,8,148.78Zm2.36-5.67c.21-.07.64-.26.64-.45s-.17-.22-.52-.4c0,.29-.08.57-.11.85Z"/><path class="cls-1" d="M0,161.76a2,2,0,0,1,1.09-.2c1.52,0,1.62.86,1.62,1.09a.81.81,0,0,1-.76.84.89.89,0,0,1-.7-.43,4.74,4.74,0,0,0-1-1.14C.07,161.85,0,161.81,0,161.76Zm5.15-3.09h0a2.09,2.09,0,0,1-.11.43c-1.26,3.65-2.26,7.18-2.26,8.55a2.66,2.66,0,0,0,.2,1,1.65,1.65,0,0,1,.13.66.91.91,0,0,1-.81,1h0c-.44,0-.86-.33-.86-1.09V169c.05-.54.18-1,.18-1.37s-.19-.78-1-1c-.27-.08-.45-.13-.45-.19s.16-.09.51-.1c.53,0,.86-.15,1-.59C2.32,164.39,4.87,158.67,5.15,158.67ZM1,158.5a1.33,1.33,0,0,1,.64-.11c1.92,0,2,1,2,1.23a.82.82,0,0,1-.77.86.9.9,0,0,1-.76-.55,4.51,4.51,0,0,0-.94-1.27C1.14,158.6,1,158.54,1,158.5Zm12.8,11.24h.06a6.71,6.71,0,0,0-2,.89.43.43,0,0,1-.29.1c-.57,0-2.9-2.31-3.31-5.66-.39,2.6-1.91,5.41-6.54,5.92H1.49c-.1,0-.16,0-.16-.05s.09-.07.34-.14a6.72,6.72,0,0,0,5.2-5.9,26.12,26.12,0,0,0-2.8.15h0c-.23,0-.61-.56-.61-.73a30.93,30.93,0,0,0,3.47.22c0-.34.06-.67.06-1v-2.29c-.49,0-1.08.06-1.76.13h0c-.23,0-.61-.56-.61-.73.86.1,1.7.16,2.39.19v-.48a13.35,13.35,0,0,0-.2-2.36v-.13s0-.06.08-.06,2.17.25,2.17.69c0,.12-.13.23-.32.32s-.28.18-.28.31v1.75H9.67a.23.23,0,0,0,.19-.1c.45-.57.51-.6.58-.6s1.52.64,1.52,1c0,.11-.07.21-.26.34-.35.22-.37.23-.38.51s0,.45,0,.76v1.75h.11a.23.23,0,0,0,.18-.12c.18-.38.51-1,.69-1a2.4,2.4,0,0,1,1.29,1.29c0,.09-.07.17-.29.17H8.47a7.84,7.84,0,0,0,5.37,4.86Zm-3.91-5.13V161.5c0-.19-.11-.22-.24-.22H8.43c0,1.84,0,2.67-.07,3.33Z"/><path class="cls-1" d="M3.73,179.47H4c.57,0,2,.14,2,1.18a.73.73,0,0,1-.24.54H7.42a10.57,10.57,0,0,0,.47-1.84v-.09H6.29a38.83,38.83,0,0,0-4.07.16h0c-.26,0-.67-.54-.67-.73,1.28.17,3.34.22,4.41.24a10.69,10.69,0,0,0-.15-1.59v-.16h0s2.2.22,2.2.63c0,.1-.1.21-.35.33a.33.33,0,0,0-.23.34V179H9a.28.28,0,0,0,.23-.13c.18-.28.78-1.1,1-1.1h.11c.54.19,1.47,1.09,1.47,1.38,0,.09-.07.16-.32.16H8.23c.3.09,1.73.62,1.73.95,0,.15-.26.22-.49.24a.63.63,0,0,0-.44.14,10.18,10.18,0,0,1-1,.6h2.34a.3.3,0,0,0,.23-.13c.1-.16.76-1.18,1-1.18h.1c.51.19,1.49,1.17,1.49,1.47,0,.09-.07.18-.32.18-1.72,0-3.91-.06-6.11-.06a47.1,47.1,0,0,0-5.71.22h0c-.26,0-.67-.54-.67-.73,1.21.15,3.12.2,4.23.22a1.16,1.16,0,0,1-.18-.35,3.59,3.59,0,0,0-.55-1.17C3.81,179.56,3.73,179.5,3.73,179.47Zm-.84,7.78c.11-.25.19-.38.23-.38s.06.14.06.43v.06c0,1.75-.86,2.86-1.91,2.86a.76.76,0,0,1-.8-.7v0c0-.38.26-.77.87-.95A2.2,2.2,0,0,0,2.89,187.25Zm6-4.74a.2.2,0,0,0,.19-.09c.28-.37.48-.6.6-.6s1.44.67,1.44,1c0,.09-.07.21-.27.34s-.31.22-.31.65c0,.63.06,1.77.1,2.28v.06c0,.44-.49.6-.83.6s-.66-.16-.66-.54v-.27H4.39V186c0,.32-.28.68-.87.68-.36,0-.66-.17-.66-.57V186c.06-.69.1-1.93.1-2.54v-.24a6.86,6.86,0,0,0-.13-1.43v-.07h0a7.39,7.39,0,0,1,1.75.71h.06ZM6,187.33c0,.09-.08.19-.36.31-.12.06-.19.36-.19.42v.63c0,.41.19.53,1.3.53,1.83,0,2.26-.06,2.58-1.7,0-.1,0-.14.06-.14s.15,1,.57,1.28a.76.76,0,0,1,.44.64c0,1-2.25,1.17-3.44,1.17-1.59,0-2.92-.09-2.92-1.33V189a4.51,4.51,0,0,0,0-.52c0-.05,0-1.27-.06-1.58v-.13s0,0,.06,0c.63,0,2,.35,2,.61ZM9.2,184v-.91c0-.21-.09-.2-.19-.2H4.61l-.13.11c-.09.06-.09.19-.09.27V184Zm-4.82.38v1.18H9.19v-1.18Zm1.45,2h.25c1.69,0,2.39.56,2.39,1.26a.76.76,0,0,1-.71.78.79.79,0,0,1-.7-.52,4.63,4.63,0,0,0-.95-1.29c-.11-.11-.28-.17-.28-.21ZM13.11,189a.8.8,0,0,1-.74.86h0c-.28,0-.58-.19-.83-.64a5.8,5.8,0,0,0-1.29-1.78c-.2-.16-.29-.25-.29-.29s0,0,.06,0C10.43,187.17,13.11,187.58,13.11,189Z"/><path class="cls-1" d="M7.09,200.75a14.71,14.71,0,0,0-3.46.91,3.12,3.12,0,0,1-1.24.28,1.47,1.47,0,0,1-1.63-1.27c0-.44.06-.56.14-.56s.19.1.38.28a1.54,1.54,0,0,0,.94.19,6.11,6.11,0,0,0,.86-.06c1-.16,2.56-.39,4-.55v-1.36c0-.47-.22-.63-.57-.86-.19-.12-.26-.19-.26-.26a1.52,1.52,0,0,1,.93-.47,1.12,1.12,0,0,1,1.17,1.07v0a4.06,4.06,0,0,1-.09.7c-.07.35-.13.7-.17,1,.46-.05.92-.09,1.29-.11s.33,0,.33-.07,0-.06-.12-.12a4.61,4.61,0,0,1-1-.7h.1a.9.9,0,0,1,.32.09,8.25,8.25,0,0,0,2.12.59,4,4,0,0,1,1.23.28,1,1,0,0,1,.61.85c0,.29-.21.52-.61.52a1.55,1.55,0,0,1-.56-.11,8.42,8.42,0,0,0-2.86-.43H8v2.26a2.32,2.32,0,0,1,.66,1.77c0,3.18-3.62,4.84-4.64,4.84H3.92c0-.07.22-.22.67-.45A5.53,5.53,0,0,0,7,206.17a1.84,1.84,0,0,1-.52.1c-1,0-1.4-1.84-1.4-2.28a1.54,1.54,0,0,1,1.4-1.66h.1a2,2,0,0,1,.55.08Zm-1,2.27c-.28,0-.51.21-.51.65s.29,1.32.86,1.32c.3,0,.58-.3.58-.87a2.29,2.29,0,0,0,0-.37,1.09,1.09,0,0,0-.89-.75Z"/><path class="cls-1" d="M7.61,225.57a2.57,2.57,0,0,0,2-2.5A2,2,0,0,0,7.69,221H7.45a3.26,3.26,0,0,0-3.1,2.43c-.09.24-.37,1-1,1a.62.62,0,0,1-.62-.62v0c0-.44.21-.72,1.24-1.86a11.44,11.44,0,0,0,1.19-1.32c.46-.65,1.75-2.25,2.45-3.46a.43.43,0,0,0,0-.16c0-.16-.18-.25-.38-.25h-.1c-.62.09-.84,1.58-1.84,1.58a1,1,0,0,1-1.08-.92v-.08c0-.42.18-.42.2-.42a1.1,1.1,0,0,1,.26.06A1,1,0,0,0,5,217a1.09,1.09,0,0,0,.61-.18,4,4,0,0,1,2-.88c.86,0,1.6.57,1.6,1.05s-.43.69-.74.93A25.6,25.6,0,0,0,5.66,221h.07a4,4,0,0,1,2.18-.63A2.92,2.92,0,0,1,11,223.09v0a3.83,3.83,0,0,1-4,3.39c-1.45,0-2.55-.72-2.55-1.58s1.08-1.11,1.53-1.11a1.53,1.53,0,0,1,1.59,1.47v.12Zm-1.12-.4a.77.77,0,0,0-.73-.81H5.67c-.56,0-.64.36-.64.49s0,.66,1.33.82a1,1,0,0,0,.13-.5Z"/><path class="cls-1" d="M11.67,236.43a1.7,1.7,0,1,1,1.69-1.71v0a1.69,1.69,0,0,1-1.69,1.69Zm0-2.88a1.2,1.2,0,1,0,1.2,1.2h0a1.2,1.2,0,0,0-1.2-1.19Z"/></svg>