<?xml version="1.0" encoding="utf-8"?>
<!-- Generator: Adobe Illustrator 23.1.0, SVG Export Plug-In . SVG Version: 6.00 Build 0)  -->
<svg version="1.1" id="レイヤー_1" xmlns="http://www.w3.org/2000/svg" xmlns:xlink="http://www.w3.org/1999/xlink" x="0px"
	 y="0px" viewBox="0 0 326.1 16.2" style="enable-background:new 0 0 326.1 16.2;" xml:space="preserve">
<style type="text/css">
	.st0{fill:#F3ECEA;}
</style>
<title>アセット 5</title>
<g>
	<path class="st0" d="M0.6,16.1H0.1c0-0.6,0.1-1.1,0.1-1.4s0-0.6,0-0.9s0-0.8,0-1.3S0,11.3,0,10.6h0.6c0.6,1.4,1.5,2.6,2.7,3.5
		c0.9,0.8,2.1,1.3,3.3,1.3c0.6,0,1.2-0.1,1.7-0.4c0.4-0.3,0.6-0.7,0.6-1.2c0-0.8-0.9-1.5-2.8-2.4l-0.4-0.2c-1.6-0.7-3.2-1.6-4.4-2.8
		C0.5,7.6,0.1,6.4,0.1,5.2C0,3.8,0.6,2.5,1.6,1.5c1-1,2.4-1.5,3.9-1.5C6,0,6.6,0.1,7.1,0.3C7.7,0.4,8.2,0.7,8.7,1l2.4-1h0.4
		c0,0.4,0,0.8,0,1.1c0,0.1,0,0.2,0,0.2c0,0.7,0,1.3,0.1,1.9c0,0.6,0.1,1.2,0.1,1.9h-0.6c-0.6-1.3-1.5-2.4-2.5-3.3
		c-0.8-0.7-1.9-1.1-3-1.1c-0.5,0-1.1,0.1-1.5,0.4C3.8,1.4,3.6,1.8,3.6,2.3c0,0.7,1.1,1.6,3.3,2.6l0.8,0.4c1.5,0.6,2.8,1.5,4,2.7
		c0.7,0.8,1.2,1.9,1.1,3.1c0.1,1.4-0.5,2.8-1.6,3.7c-1.1,1-2.6,1.5-4.1,1.4c-0.7,0-1.3-0.1-2-0.2c-0.7-0.2-1.4-0.5-2.1-0.8L0.6,16.1
		z"/>
	<path class="st0" d="M18.8,13.7V5.8h-1.4V5.2c1.2,0,2.3-0.4,3.3-1c1.1-0.8,2-1.7,2.8-2.9h0.4v3.8h2.4v0.6h-2.4v7.6
		c0,0.3,0,0.7,0.2,1c0.1,0.2,0.3,0.3,0.5,0.3c0.4,0,0.8-0.3,1-0.7c0.3-0.6,0.5-1.2,0.6-1.9h0.5c0,1.1-0.5,2.2-1.3,3
		c-0.9,0.7-2.1,1.1-3.3,1c-0.9,0.1-1.7-0.1-2.4-0.6C19,15.1,18.7,14.4,18.8,13.7z"/>
	<path class="st0" d="M30.7,15.7v-0.6H32V5.8h-1.3V5.2h3.1c0.5,0,1,0,1.5-0.1c0.5-0.1,1-0.1,1.4-0.2h0.4v2.6h0.2
		c0.3-0.8,0.9-1.5,1.5-2c0.6-0.4,1.3-0.6,2-0.6c0.7,0,1.4,0.2,1.9,0.7c0.5,0.5,0.7,1.2,0.7,1.8c0,0.7-0.2,1.3-0.7,1.8
		c-1,0.8-2.4,0.9-3.4,0.1C38.8,9,38.6,8.5,38.6,8V7.7c0-0.1,0-0.3-0.1-0.4c0-0.1-0.1-0.1-0.2-0.1c-0.3,0-0.5,0.4-0.8,1.2
		c-0.3,0.9-0.4,1.8-0.4,2.7v4h1.7v0.6L30.7,15.7z"/>
	<path class="st0" d="M60.5,11h-7.4v1.3c-0.1,0.8,0.2,1.6,0.6,2.2c0.5,0.5,1.2,0.8,1.9,0.8c0.8,0,1.6-0.2,2.3-0.6
		c0.7-0.4,1.4-1,1.9-1.7l0.4,0.3c-0.5,0.9-1.3,1.7-2.3,2.2c-1.1,0.5-2.4,0.8-3.7,0.7c-1.7,0.1-3.5-0.5-4.8-1.6
		c-1.2-1-1.9-2.5-1.8-4.1c0-1.5,0.6-3,1.8-4c1.3-1.1,3-1.6,4.7-1.6c1.7-0.1,3.4,0.5,4.7,1.6C60,7.8,60.6,9.4,60.5,11z M55.3,10.5
		V6.9c0-0.4-0.1-0.8-0.3-1.1c-0.5-0.5-1.2-0.5-1.7,0c0,0,0,0,0,0c-0.2,0.3-0.3,0.7-0.3,1.1v3.6L55.3,10.5z"/>
	<path class="st0" d="M78.1,11h-7.4v1.3c-0.1,0.8,0.2,1.6,0.6,2.2c0.5,0.5,1.2,0.8,1.9,0.8c0.8,0,1.6-0.2,2.3-0.6
		c0.7-0.4,1.4-1,1.9-1.7l0.4,0.3c-0.5,0.9-1.3,1.7-2.3,2.2c-1.1,0.5-2.4,0.8-3.7,0.7c-1.7,0.1-3.4-0.5-4.8-1.6
		c-1.2-1-1.9-2.5-1.8-4.1c0-1.5,0.6-3,1.8-4c1.3-1.1,3-1.6,4.7-1.6c1.7-0.1,3.4,0.4,4.7,1.5C77.6,7.7,78.2,9.3,78.1,11z M72.9,10.5
		V6.9c0-0.4-0.1-0.8-0.3-1.1c-0.2-0.2-0.5-0.4-0.8-0.3c-0.3,0-0.6,0.1-0.8,0.3c-0.2,0.3-0.3,0.7-0.3,1.1v3.6L72.9,10.5z"/>
	<path class="st0" d="M83.6,13.7V5.8h-1.4V5.2c1.2,0,2.3-0.4,3.3-1c1.1-0.8,2-1.7,2.8-2.9h0.4v3.8h2.4v0.6h-2.4v7.6
		c0,0.3,0,0.7,0.2,1c0.1,0.2,0.3,0.3,0.6,0.3c0.4,0,0.8-0.3,1-0.7c0.3-0.6,0.5-1.2,0.6-1.9h0.5c0,1.1-0.5,2.2-1.3,3
		c-0.9,0.8-2.1,1.1-3.3,1.1c-0.9,0.1-1.7-0.1-2.4-0.6C83.9,15.1,83.6,14.4,83.6,13.7z"/>
	<path class="st0" d="M117,15.7h-9.5v-0.6h2V1h-2V0.4h4.2c0.5,0,1,0,1.5-0.1c0.5-0.1,1-0.1,1.4-0.2h0.4v15h2L117,15.7z"/>
	<path class="st0" d="M125.6,15.3l-1.8,0.8h-0.5l-0.2-4h0.6c0.5,1,1.3,1.9,2.2,2.5c0.8,0.6,1.8,0.9,2.9,0.9c0.4,0,0.9-0.1,1.2-0.3
		c0.3-0.2,0.4-0.5,0.4-0.8c0-0.6-1.1-1.3-3.2-1.9l-0.7-0.2c-0.9-0.3-1.8-0.8-2.4-1.5c-0.6-0.7-0.9-1.5-0.9-2.4c0-1,0.4-1.9,1.1-2.5
		c0.8-0.7,1.8-1,2.9-1c0.5,0,1,0.1,1.5,0.2c0.5,0.1,1.1,0.3,1.6,0.5l1.8-0.6h0.4v3.5h-0.4c-0.5-0.9-1.2-1.6-2-2.2
		c-0.8-0.5-1.6-0.8-2.6-0.8c-0.4,0-0.7,0.1-1,0.3c-0.2,0.2-0.4,0.4-0.4,0.7c0,0.6,0.8,1.2,2.4,1.7l0.2,0.1c1.2,0.3,2.3,0.9,3.3,1.6
		c0.7,0.6,1,1.5,1,2.5c0.1,1.1-0.3,2.1-1.1,2.9c-0.9,0.7-2,1.1-3.2,1c-0.6,0-1.1-0.1-1.7-0.2C126.7,15.8,126.1,15.6,125.6,15.3z"/>
	<path class="st0" d="M139.2,13.7V5.8h-1.4V5.2c1.2,0,2.3-0.4,3.3-1c1.1-0.8,2-1.7,2.8-2.9h0.4v3.8h2.4v0.6h-2.4v7.6
		c0,0.3,0,0.7,0.1,1c0.1,0.2,0.3,0.3,0.6,0.3c0.4,0,0.8-0.3,1-0.7c0.3-0.6,0.5-1.2,0.6-1.9h0.5c0,1.1-0.5,2.2-1.3,3
		c-0.9,0.8-2.1,1.1-3.3,1.1c-0.9,0.1-1.7-0.1-2.4-0.6C139.4,15.2,139.1,14.4,139.2,13.7z"/>
	<path class="st0" d="M163.9,15.3l-1.8,0.8h-0.5l-0.2-4h0.6c0.5,1,1.3,1.9,2.2,2.5c0.8,0.6,1.8,0.9,2.9,0.9c0.4,0,0.9-0.1,1.2-0.3
		c0.3-0.2,0.4-0.5,0.4-0.8c0-0.6-1.1-1.3-3.2-1.9l-0.7-0.2c-0.9-0.3-1.8-0.8-2.4-1.5c-0.6-0.7-0.9-1.5-0.9-2.4c0-1,0.4-1.9,1.1-2.5
		c0.8-0.7,1.8-1,2.9-1c0.5,0,1,0.1,1.6,0.2c0.5,0.1,1.1,0.3,1.6,0.5l1.8-0.6h0.4v3.5h-0.4c-0.5-0.9-1.2-1.6-2-2.2
		c-0.7-0.5-1.6-0.8-2.5-0.8c-0.4,0-0.7,0.1-1,0.3c-0.2,0.2-0.4,0.4-0.4,0.7c0,0.6,0.8,1.2,2.4,1.7l0.2,0.1c1.2,0.3,2.3,0.9,3.3,1.6
		c0.7,0.6,1,1.5,1,2.5c0.1,1.1-0.3,2.1-1.1,2.9c-0.9,0.7-2,1.1-3.2,1c-0.6,0-1.1-0.1-1.7-0.2C165,15.8,164.5,15.6,163.9,15.3z"/>
	<path class="st0" d="M176.5,10.5c0-1.5,0.7-3,1.9-4c2.9-2.1,6.8-2.1,9.8,0c1.2,1,1.9,2.4,1.9,4c0,1.6-0.6,3.1-1.9,4.1
		c-2.9,2.1-6.8,2.1-9.8,0C177.1,13.6,176.4,12.1,176.5,10.5z M184.3,14.1V6.9c0-0.4-0.1-0.8-0.3-1.1c-0.5-0.5-1.2-0.5-1.7,0
		c0,0,0,0,0,0c-0.2,0.3-0.3,0.7-0.3,1.1v7.2c0,0.4,0.1,0.8,0.3,1.1c0.2,0.2,0.5,0.4,0.9,0.3c0.3,0,0.6-0.1,0.8-0.3
		C184.3,14.9,184.4,14.5,184.3,14.1z"/>
	<path class="st0" d="M194.1,15.7v-0.6h1.4V0.9h-1.3V0.3h3.1c0.5,0,1,0,1.5-0.1c0.5-0.1,1-0.1,1.4-0.2h0.4v15.1h1.4v0.6H194.1z"/>
	<path class="st0" d="M206.2,10.5c0-1.6,0.7-3,1.9-4c2.9-2.1,6.8-2.1,9.8,0c1.2,1,1.9,2.5,1.9,4.1c0.1,1.6-0.6,3.1-1.9,4.1
		c-2.9,2.1-6.8,2.1-9.8,0C206.8,13.6,206.2,12.1,206.2,10.5z M214.1,14.1V6.9c0-0.4-0.1-0.8-0.3-1.1c-0.2-0.2-0.5-0.4-0.8-0.3
		c-0.3,0-0.6,0.1-0.8,0.3c-0.2,0.3-0.3,0.7-0.3,1.1v7.2c0,0.4,0.1,0.8,0.3,1.1c0.5,0.5,1.2,0.5,1.7,0
		C214,14.9,214.1,14.5,214.1,14.1z"/>
	<path class="st0" d="M237.5,15.7h-4.2v-0.6c0.4,0,0.9-0.2,1.2-0.5c0.4-0.3,0.6-0.8,0.8-1.2l4.6-13h4.6l5.4,14.8h1.2v0.6h-9.5v-0.6
		h1.6l-1.6-4.4H237l-0.9,2.5c-0.1,0.2-0.1,0.3-0.1,0.5c0,0.1,0,0.3-0.1,0.4c0,0.3,0.1,0.6,0.3,0.8c0.3,0.2,0.7,0.3,1,0.2h0.2
		L237.5,15.7z M237.3,9.9h4l-2-5.5L237.3,9.9z"/>
	<path class="st0" d="M255.2,15.7v-0.6h1.4V0.9h-1.3V0.3h3.2c0.5,0,1,0,1.5-0.1c0.5-0.1,0.9-0.1,1.4-0.2h0.4v15.1h1.3v0.6H255.2z"/>
	<path class="st0" d="M273.7,16h-0.4c-0.5-0.1-0.9-0.2-1.4-0.2c-0.5-0.1-1-0.1-1.5-0.1h-2.9v-0.6h1.3V0.9h-1.3V0.3h3.1
		c0.5,0,1,0,1.5-0.1c0.5-0.1,1-0.1,1.4-0.2h0.4v6.8c0.2-0.6,0.7-1,1.2-1.3c0.7-0.3,1.4-0.5,2.2-0.5c1.2,0,2.4,0.5,3.1,1.5
		c0.8,1.2,1.3,2.6,1.2,4.1c0.1,1.5-0.3,2.9-1.2,4.1c-0.7,1-1.9,1.6-3.2,1.5c-0.8,0-1.7-0.2-2.4-0.7c-0.6-0.4-1.1-1.1-1.3-1.9
		L273.7,16z M276.2,12.6v-4c0-0.6,0-1.2-0.2-1.7c-0.1-0.3-0.4-0.5-0.8-0.5c-0.4,0-0.8,0.3-1,0.7c-0.2,0.7-0.4,1.4-0.3,2.2v2
		c0,0.8,0.1,1.7,0.3,2.5c0.2,0.5,0.5,0.8,0.9,0.8c0.3,0,0.6-0.2,0.8-0.4C276.2,13.7,276.2,13.2,276.2,12.6L276.2,12.6z"/>
	<path class="st0" d="M299.5,15.2h1.3v0.6h-2.9c-0.5,0-1,0-1.5,0.1c-0.5,0-1,0.1-1.4,0.2h-0.4v-2h-0.2c-0.3,0.7-0.9,1.2-1.5,1.6
		c-0.7,0.4-1.5,0.6-2.3,0.5c-0.9,0.1-1.9-0.2-2.5-0.9c-0.6-0.9-0.9-2.1-0.8-3.2V5.8h-1.2V5.2h3c0.5,0,1,0,1.5-0.1
		c0.5-0.1,0.9-0.1,1.4-0.2h0.4v8.1c0,0.3,0,0.6,0.2,0.9c0.1,0.2,0.3,0.3,0.5,0.3c0.4,0,0.8-0.3,1-0.7c0.2-0.6,0.4-1.3,0.3-2V5.8
		h-0.7V5.2h2.5c0.5,0,1,0,1.5-0.1c0.5-0.1,1-0.1,1.4-0.2h0.4L299.5,15.2z"/>
	<path class="st0" d="M311.3,7c0.3-0.7,0.8-1.2,1.4-1.6c0.7-0.4,1.4-0.6,2.2-0.6c0.7,0,1.4,0.2,2,0.6c0.5,0.3,0.9,0.9,1,1.5h0.2
		c0.3-0.7,0.8-1.2,1.4-1.6c0.7-0.4,1.4-0.6,2.2-0.6c0.9-0.1,1.8,0.3,2.5,0.9c0.6,1,0.8,2.1,0.7,3.2v6.1h1.2v0.6h-6.7v-0.6h0.7V8
		c0-0.3,0-0.6-0.2-0.9c-0.1-0.2-0.3-0.3-0.5-0.3c-0.4,0-0.8,0.3-1,0.7c-0.2,0.6-0.4,1.3-0.3,2v5.6h0.7v0.6h-6.1v-0.6h0.7V8
		c0-0.3,0-0.6-0.2-0.9c-0.1-0.2-0.3-0.3-0.5-0.3c-0.5,0-0.9,0.3-1,0.7c-0.2,0.6-0.4,1.3-0.3,2v5.6h0.7v0.6h-6.8v-0.6h1.3V5.8h-1.3
		V5.2h2.5c0.5,0,1,0,1.5-0.1c0.5-0.1,1-0.1,1.4-0.2h0.4V7L311.3,7z"/>
</g>
</svg>
