<svg xmlns="http://www.w3.org/2000/svg" viewBox="0 0 13.9 236.43"><defs><style>.cls-1{fill:#fff;}</style></defs><title>アセット 2</title><g id="レイヤー_2" data-name="レイヤー 2"><g id="design"><path class="cls-1" d="M7.88,1.81c0,.07-.11.16-.31.25s-.17.07-.22,1.54H10.4a.3.3,0,0,0,.23-.16c.06-.09.41-.6.59-.6s1.5.87,1.5,1.14-.15.25-.44.4a.35.35,0,0,0-.17.36c0,.66,0,1.52,0,2.42,0,1.36,0,2.83.07,3.91v.09a1.92,1.92,0,0,1-2,1.76.53.53,0,0,1-.48-.29c-.23-.45-1.85-1.19-1.85-1.3H8a8.54,8.54,0,0,0,1.65.19c.79,0,1.07-.23,1.08-.67,0-.71,0-1.65,0-2.62,0-1.37,0-2.83,0-4,0-.24-.1-.29-.27-.29H7.35V5.31c0,2.52.05,5.78.09,6.62v0c0,.47-.56.67-.85.67A.58.58,0,0,1,6,12v0C6,10.93,6,9.32,6,4H3.16a1.6,1.6,0,0,1-.26.19c-.14.1-.17.12-.17,2s.07,4,.08,6.19a.81.81,0,0,1-.86.74.64.64,0,0,1-.68-.7v0c.09-2.66.14-4.93.14-6.55a15,15,0,0,0-.21-3,.18.18,0,0,1,0-.09,0,0,0,0,1,0,0,7,7,0,0,1,1.9.93H6V2.89A6.61,6.61,0,0,0,6,1.56H5.08c-.82,0-2.91,0-4.13.16h0C.67,1.72.2,1.14.2,1c1.43.18,4.09.24,4.93.24h5.42a.29.29,0,0,0,.23-.14c.7-1,.85-1.06,1-1.06h.08a2.76,2.76,0,0,1,1.43,1.36c0,.1,0,.19-.3.19H7.42C7.7,1.62,7.88,1.72,7.88,1.81ZM2.92,5s0,0,.13,0c.38,0,2.33.09,2.33,1.25A.74.74,0,0,1,4.67,7a.87.87,0,0,1-.73-.48,5.49,5.49,0,0,0-.79-1.23C3,5.12,2.92,5.05,2.92,5Zm0,2.79s0,0,.08,0c.27,0,2.38.12,2.38,1.3a.73.73,0,0,1-.71.74.87.87,0,0,1-.73-.48A6.05,6.05,0,0,0,3.15,8C3,7.91,2.92,7.82,2.92,7.79ZM7.58,5s0,0,.14,0c.77,0,2.33.2,2.33,1.25a.73.73,0,0,1-.7.75.87.87,0,0,1-.73-.48,5.2,5.2,0,0,0-.8-1.23C7.67,5.09,7.58,5,7.58,5Zm0,2.66s0,0,.09,0,2.38.07,2.38,1.3a.72.72,0,0,1-.7.74.87.87,0,0,1-.73-.48,5.71,5.71,0,0,0-.8-1.28C7.67,7.75,7.58,7.66,7.58,7.63Z"/><path class="cls-1" d="M2.33,19.84a2.7,2.7,0,0,1,1.81,2.43,3.71,3.71,0,0,1-.48,1.56,7.61,7.61,0,0,0-.85,2.94c0,.29,0,.65.17.65s0,0,.1-.13a15.73,15.73,0,0,1,1.75-3s0,0,0,0a3.28,3.28,0,0,1-.2.63,13.79,13.79,0,0,0-1,4.05,2.12,2.12,0,0,0,.12.72,1.26,1.26,0,0,1,.12.54.67.67,0,0,1-.63.74c-.86,0-1.32-1.65-1.32-3.13a17.17,17.17,0,0,1,.82-4.39,4.26,4.26,0,0,0,.18-1.2,3.38,3.38,0,0,0-.78-2.12A.29.29,0,0,1,2.06,20,.28.28,0,0,1,2.33,19.84ZM9.47,27l-.06-3.11a3.64,3.64,0,0,1-.57,0,2.57,2.57,0,0,1-2.52-1.72s0-.06,0-.06a2.28,2.28,0,0,1,.44.15A10.33,10.33,0,0,0,8,22.67a4.27,4.27,0,0,0,.82.09c.16,0,.32,0,.47,0l.13,0c0-.32,0-.63,0-.9,0-1.07,0-1.27-.83-1.46-.08,0-.14-.05-.14-.1a1,1,0,0,1,.9-.65c.4,0,1.31.44,1.31,1.2a4,4,0,0,1-.08.63,11,11,0,0,0,1.3.19.51.51,0,0,1,.51.54c0,.84-1.07,1.27-2,1.5,0,.19,0,.38,0,.55,0,1.08.11,2.12.21,3.26,0,0,0,.11,0,.17s2.25.73,2.25,1.91a.76.76,0,0,1-.67.81.92.92,0,0,1-.75-.54,3.4,3.4,0,0,0-.9-1A2.46,2.46,0,0,1,8,30.75,2,2,0,0,1,5.91,29c0-1,1.25-1.65,2.78-1.65a6.83,6.83,0,0,1,.78.06ZM8,28.15c-.16,0-1.56,0-1.56.73s.87.75,1.25.75a1.61,1.61,0,0,0,1.68-1.24A4,4,0,0,0,8,28.15Zm2.36-5.67c.21-.07.64-.26.64-.45s-.17-.22-.52-.4C10.44,21.92,10.4,22.2,10.37,22.48Z"/><path class="cls-1" d="M13.32,49.35c0,.1-.06.19-.31.19H5.24c-.82,0-3.12,0-4.35.16h0c-.26,0-.71-.57-.71-.75.69.09,1.68.13,2.64.16,0-.64,0-1.37,0-2.08,0-1.4,0-2.7,0-3a13.6,13.6,0,0,0-.18-2.6.46.46,0,0,1,0-.1c0-.05,0-.06,0-.06a12.2,12.2,0,0,1,2,.41c.24.07.34.17.34.29s-.16.29-.43.41c-.11.06-.2.1-.21.35-.06.65-.09,2.87-.09,4.71,0,.64,0,1.24,0,1.71h2c0-1.34,0-3.75,0-5.85a35.85,35.85,0,0,0-.2-5.61.28.28,0,0,1,0-.11s0-.05,0-.05a11.9,11.9,0,0,1,2,.4c.24.08.34.18.34.3s-.16.29-.43.4-.29.15-.32,4.57H9.16a.29.29,0,0,0,.23-.13c.18-.26.84-1.18,1-1.18h.09C10.84,42,12,43,12,43.39c0,.11-.06.19-.31.19H7.8v1.26c0,1.78,0,3.49,0,4.33h2.56a.3.3,0,0,0,.23-.13c.68-1.06,1-1.25,1.09-1.25h.09C12.22,48,13.32,49,13.32,49.35Z"/><path class="cls-1" d="M6.52,64.34a8.62,8.62,0,0,1-1.23.1c-2.36,0-2.68-1.35-2.68-1.53a.06.06,0,0,1,.06-.06c.06,0,.17.09.28.12A6.41,6.41,0,0,0,5,63.31a7.44,7.44,0,0,0,1.7-.18c0-.57,0-1.15,0-1.74H6.64c-2.31,0-2.43-1.51-2.43-1.8,0-.11,0-.15.06-.15s.18.1.28.16a3.55,3.55,0,0,0,1.84.63l.45,0v0l0-.39c.06-.55.1-1,.1-1.3a.73.73,0,0,0-.67-.82c-.17,0-.28-.08-.28-.16s.41-.68.94-.68a1.69,1.69,0,0,1,1.3,1.22,3.58,3.58,0,0,1-.21.81c-.1.35-.2.7-.28,1a1.42,1.42,0,0,1,.78-.28c.25,0,.65.1.65.51,0,.06,0,.88-1.67,1.21a10.23,10.23,0,0,0-.06,1.23v.36c1-.32,1-.54,1-.64s-.36-.53-.52-.66-.18-.14-.18-.16,0,0,0,0a1.16,1.16,0,0,1,.24.07,4.11,4.11,0,0,0,1.31.26c.52,0,.8.25.8.56s-.23,1.09-2.61,1.78c.13,1.19.31,2.26.34,2.39,1.5.5,2.27,1.36,2.27,2.06a.7.7,0,0,1-.64.76,1,1,0,0,1-.8-.59,3.61,3.61,0,0,0-.83-.92,2.87,2.87,0,0,1-2.57,1.8,2,2,0,0,1-2.1-1.71c0-1,1.3-1.71,2.83-1.71a6.83,6.83,0,0,1,.77.06c0-.32,0-.64,0-.83,0-.36,0-.73,0-1.11ZM5.56,67c-.09,0-1.87,0-1.87.86,0,.45.55.71,1.18.71a1.83,1.83,0,0,0,1.94-1.34A3.72,3.72,0,0,0,5.56,67Z"/><path class="cls-1" d="M4.73,89.14s0,0,0,0,.11-.14.41-.37A8.77,8.77,0,0,0,8.37,81.9c0-1.47-.48-3.37-1.44-3.37-.69,0-1.36,1-1.36,2.24a4.22,4.22,0,0,0,.48,1.85,1.22,1.22,0,0,1,.11.52c0,.53-.34,1-.72,1s-1.11-.89-1.11-2.37A25.58,25.58,0,0,1,5,77.91a2.9,2.9,0,0,0,0-.48c0-.34-.07-.6-.23-.69s-.31-.15-.31-.28A.69.69,0,0,1,5.16,76a1.05,1.05,0,0,1,1,1.18,2.23,2.23,0,0,1-.11.68c-.07.28-.2.54-.29.82a.69.69,0,0,0,0,.17.12.12,0,0,0,0,.05s.08-.06.15-.18a1.73,1.73,0,0,1,1.49-1c1.13,0,2.51,1.34,2.51,4.17A7.87,7.87,0,0,1,5.21,89,2.36,2.36,0,0,1,4.73,89.14Z"/><path class="cls-1" d="M11.76,96.93a6.14,6.14,0,0,0-1.68-2c-.15-.11-.25-.19-.25-.23s0,0,.15,0c.89,0,3.5.55,3.5,2a.88.88,0,0,1-.85.9A1,1,0,0,1,11.76,96.93Z"/><path class="cls-1" d="M1.36,114.88A1,1,0,0,1,2,114a3.91,3.91,0,0,0,2.15-1.78c0-.16.13-.4.2-.4a1.43,1.43,0,0,1,.12.72,3.08,3.08,0,0,1-2.31,3A.76.76,0,0,1,1.36,114.88ZM5.27,111a7.77,7.77,0,0,1-1.33.28c-.31,0-2-.24-2-1.32,0-.17,0-.24.13-.24a.68.68,0,0,1,.24.05,5.08,5.08,0,0,0,2,.4c.31,0,1.33-.1,2-.19v-.89c0-.79-.25-1.24-.69-1.24H5.35c-.22,0-.3-.06-.3-.16s.1-.54.77-.54,1.87.6,1.87,1.15c0,.28-.24.51-.29.91a5.67,5.67,0,0,0-.06.62c.35,0,.64-.09.87-.13.62-.09.69-.36,1.33-.36,1,0,2,.46,2,.94,0,.27-.3.49-.77.49l-.31,0a8.67,8.67,0,0,0-1.7-.15,11.32,11.32,0,0,0-1.43.09c0,.25,0,.51,0,.76,0,.73,0,1.47.09,2.1s.19,1.09.19,1.65c0,.84-.35,1.72-1,1.72-.33,0-.67-.32-.75-.94A3.83,3.83,0,0,0,5,114.05a2.32,2.32,0,0,1-.45-.68s0,0,0,0a2.36,2.36,0,0,1,.62.33,8.84,8.84,0,0,0,.93.62c.07,0,.09-.22.09-1.78,0-.57,0-1.14,0-1.7Zm5.13,3.65a7.58,7.58,0,0,0-1.85-2.25c-.28-.2-.44-.34-.44-.38s0,0,.07,0,3.8.63,3.8,2.28a.86.86,0,0,1-.81.9A1,1,0,0,1,10.4,114.64Zm-.57-6a4.37,4.37,0,0,0-1.18-.93c-.16-.09-.25-.16-.25-.21s.59-.14.63-.14c.86,0,1.69.38,1.69,1a.49.49,0,0,1-.47.53A.55.55,0,0,1,9.83,108.67Zm1.52-.7a5,5,0,0,0-1.21-.89c-.16-.07-.25-.15-.25-.2s.66-.16.7-.16c.64,0,1.65.21,1.65.94a.48.48,0,0,1-.47.51A.57.57,0,0,1,11.35,108Z"/><path class="cls-1" d="M6.9,126a12.47,12.47,0,0,1-4.76,3.81,2.54,2.54,0,0,1-.61.22,0,0,0,0,1,0,0s.15-.19.45-.44C4,128,6,125.12,6,124.6a.33.33,0,0,0-.24-.34c-.27-.07-.37-.14-.37-.23a.82.82,0,0,1,.83-.53c.64,0,1.51.59,1.51,1.19a.92.92,0,0,1-.12.42,11.12,11.12,0,0,0,1.52-.24c.27-.17.43-.4.71-.4s1.49.7,1.49,1.16c0,.18-.21.29-.45.4s-.35.22-.6.59c-2.6,3.86-4.77,6.06-8.74,7.15a4.21,4.21,0,0,1-.79.16c-.06,0-.08,0-.08,0s.18-.17.61-.36c3.21-1.4,5.53-4.25,7.73-7.7a.2.2,0,0,0,0-.13c0-.06,0-.11-.14-.11a11.16,11.16,0,0,0-1.58.37A1.54,1.54,0,0,1,7,126Z"/><path class="cls-1" d="M2.33,140.47a2.7,2.7,0,0,1,1.81,2.43,3.79,3.79,0,0,1-.48,1.57,7.52,7.52,0,0,0-.85,2.93c0,.29,0,.65.17.65s0,0,.1-.13a15.73,15.73,0,0,1,1.75-3s0,0,0,0a3.28,3.28,0,0,1-.2.63,13.78,13.78,0,0,0-1,4.06,2.1,2.1,0,0,0,.12.71,1.26,1.26,0,0,1,.12.54.67.67,0,0,1-.63.74c-.86,0-1.32-1.65-1.32-3.13a17.17,17.17,0,0,1,.82-4.39,4.26,4.26,0,0,0,.18-1.2,3.38,3.38,0,0,0-.78-2.12.29.29,0,0,1-.08-.14A.28.28,0,0,1,2.33,140.47Zm7.14,7.12-.06-3.11a3.64,3.64,0,0,1-.57,0,2.57,2.57,0,0,1-2.52-1.72s0-.06,0-.06a2.28,2.28,0,0,1,.44.15A10.33,10.33,0,0,0,8,143.3a4.27,4.27,0,0,0,.82.09c.16,0,.32,0,.47,0l.13,0c0-.32,0-.63,0-.9,0-1.07,0-1.27-.83-1.46-.08,0-.14,0-.14-.1a1,1,0,0,1,.9-.64c.4,0,1.31.43,1.31,1.19a3.88,3.88,0,0,1-.08.63,11,11,0,0,0,1.3.19.51.51,0,0,1,.51.54c0,.84-1.07,1.27-2,1.5,0,.19,0,.38,0,.55,0,1.08.11,2.12.21,3.26,0,0,0,.11,0,.17s2.25.73,2.25,1.91a.76.76,0,0,1-.67.81.92.92,0,0,1-.75-.54,3.4,3.4,0,0,0-.9-1A2.46,2.46,0,0,1,8,151.38a2,2,0,0,1-2.1-1.75c0-1,1.25-1.65,2.78-1.65a6.83,6.83,0,0,1,.78.06ZM8,148.78c-.16,0-1.56,0-1.56.73s.87.75,1.25.75A1.61,1.61,0,0,0,9.38,149,4.25,4.25,0,0,0,8,148.78Zm2.36-5.67c.21-.07.64-.26.64-.45s-.17-.22-.52-.4C10.44,142.55,10.4,142.83,10.37,143.11Z"/><path class="cls-1" d="M0,161.76a2,2,0,0,1,1.09-.2c1.52,0,1.62.86,1.62,1.09a.81.81,0,0,1-.76.84.87.87,0,0,1-.7-.43,4.67,4.67,0,0,0-1-1.14C.07,161.85,0,161.81,0,161.76Zm5.15-3.09a.1.1,0,0,1,0,0,2.54,2.54,0,0,1-.11.43c-1.26,3.65-2.26,7.18-2.26,8.55a2.72,2.72,0,0,0,.2,1,1.65,1.65,0,0,1,.13.66.91.91,0,0,1-.86,1c-.44,0-.86-.33-.86-1.09,0-.06,0-.12,0-.19.05-.54.18-1,.18-1.37s-.19-.78-1-1c-.27-.08-.45-.13-.45-.19s.16-.09.51-.1c.53,0,.86-.15,1-.59C2.32,164.39,4.87,158.67,5.15,158.67ZM1,158.5s.18-.11.64-.11c1.92,0,2,1,2,1.23a.82.82,0,0,1-.77.86.9.9,0,0,1-.76-.55,4.54,4.54,0,0,0-.94-1.27C1.14,158.6,1,158.54,1,158.5Zm12.8,11.24s.06,0,.06,0-1.43.39-2,.89a.45.45,0,0,1-.29.1c-.57,0-2.9-2.31-3.31-5.66-.39,2.6-1.91,5.41-6.54,5.92a.93.93,0,0,1-.23,0c-.1,0-.16,0-.16-.05s.09-.07.34-.14a6.71,6.71,0,0,0,5.2-5.9,27,27,0,0,0-2.8.15h0c-.23,0-.61-.56-.61-.73a31.68,31.68,0,0,0,3.47.22c0-.34.06-.67.06-1,0-.6,0-1.51,0-2.29-.49,0-1.08.06-1.76.13h0c-.23,0-.61-.56-.61-.73.86.1,1.7.16,2.39.19,0-.18,0-.34,0-.48A13.33,13.33,0,0,0,6.81,158a1.11,1.11,0,0,1,0-.13s0-.06.08-.06,2.17.25,2.17.69c0,.12-.13.23-.32.32s-.28.18-.28.31v1.75H9.67a.24.24,0,0,0,.19-.1c.45-.57.51-.6.58-.6s1.52.64,1.52,1c0,.11-.07.21-.26.34-.35.22-.37.23-.38.51s0,.45,0,.76c0,.52,0,1.15,0,1.75h.11a.24.24,0,0,0,.18-.12c.18-.38.51-1,.69-1a2.37,2.37,0,0,1,1.29,1.29c0,.09-.07.17-.29.17H8.47l0,0A7.85,7.85,0,0,0,13.84,169.74Zm-3.91-5.13c0-.7,0-1.34,0-1.91s0-.83,0-1.2c0-.19-.11-.22-.24-.22H8.43c0,1.84,0,2.67-.07,3.33Z"/><path class="cls-1" d="M3.73,179.47s.06,0,.25,0c.57,0,2,.14,2,1.18a.73.73,0,0,1-.24.54H7.42a10.24,10.24,0,0,0,.47-1.84v-.09H6.29c-.81,0-2.79,0-4.07.16h0c-.26,0-.67-.54-.67-.73,1.28.17,3.34.22,4.41.24a11.29,11.29,0,0,0-.15-1.59c0-.09,0-.13,0-.16s0,0,0,0,2.2.22,2.2.63c0,.1-.1.21-.35.33a.33.33,0,0,0-.23.34c0,.1,0,.29,0,.48H9a.29.29,0,0,0,.23-.13c.18-.28.78-1.1,1-1.1l.11,0c.54.19,1.47,1.09,1.47,1.38,0,.09-.07.16-.32.16H8.23c.3.09,1.73.62,1.73.95,0,.15-.26.22-.49.24a.61.61,0,0,0-.44.14,10.78,10.78,0,0,1-1,.6h2.34a.3.3,0,0,0,.23-.13c.1-.16.76-1.18,1-1.18h.1c.51.19,1.49,1.17,1.49,1.47,0,.09-.07.18-.32.18-1.72,0-3.91-.06-6.11-.06-2,0-4,0-5.71.22h0c-.26,0-.67-.54-.67-.73,1.21.15,3.12.2,4.23.22a1.14,1.14,0,0,1-.18-.35,3.67,3.67,0,0,0-.55-1.17C3.81,179.56,3.73,179.5,3.73,179.47Zm-.84,7.78c.11-.25.19-.38.23-.38s.06.14.06.43v.06c0,1.75-.86,2.86-1.91,2.86a.75.75,0,0,1-.8-.74c0-.38.26-.77.87-.95A2.19,2.19,0,0,0,2.89,187.25Zm6-4.74a.2.2,0,0,0,.19-.09c.28-.37.48-.6.6-.6s1.44.67,1.44,1c0,.09-.07.21-.27.34s-.31.22-.31.65c0,.63.06,1.77.1,2.28v.06c0,.44-.49.6-.83.6s-.66-.16-.66-.54v-.27H4.39V186c0,.32-.28.68-.87.68-.36,0-.66-.17-.66-.57v-.08c.06-.69.1-1.93.1-2.54v-.24a6.93,6.93,0,0,0-.13-1.43s0-.05,0-.07,0,0,0,0a7.2,7.2,0,0,1,1.75.71l.06,0Zm-2.86,4.82c0,.09-.08.19-.36.31-.12.06-.19.36-.19.42s0,.56,0,.63c0,.41.19.53,1.3.53,1.83,0,2.26-.06,2.58-1.7,0-.1,0-.14.06-.14s.15,1,.57,1.28a.75.75,0,0,1,.44.64c0,1-2.25,1.17-3.44,1.17-1.59,0-2.92-.09-2.92-1.33,0-.06,0-.13,0-.19a4,4,0,0,0,0-.52c0-.05,0-1.27-.06-1.58,0-.06,0-.1,0-.13s0,0,.06,0C4.7,186.69,6.05,187.07,6.05,187.33ZM9.2,184c0-.36,0-.7,0-.91s-.09-.2-.19-.2H4.61l-.13.11c-.09.06-.09.19-.09.27s0,.43,0,.73Zm-4.82.38v1.18H9.19v-1.18Zm1.45,2s.08,0,.25,0c1.69,0,2.39.56,2.39,1.26a.76.76,0,0,1-.71.78.79.79,0,0,1-.7-.52,4.87,4.87,0,0,0-.95-1.29C6,186.5,5.83,186.44,5.83,186.4ZM13.11,189a.8.8,0,0,1-.74.86c-.28,0-.58-.19-.83-.64a5.85,5.85,0,0,0-1.29-1.78c-.2-.16-.29-.25-.29-.29s0,0,.06,0C10.43,187.17,13.11,187.58,13.11,189Z"/><path class="cls-1" d="M7.09,200.75a14.53,14.53,0,0,0-3.46.91,3.06,3.06,0,0,1-1.24.28,1.47,1.47,0,0,1-1.63-1.27c0-.44.06-.56.14-.56s.19.1.38.28a1.55,1.55,0,0,0,.94.19,5.81,5.81,0,0,0,.86-.06c1-.16,2.56-.39,4-.55,0-.44,0-.89,0-1.36s-.22-.63-.57-.86c-.19-.12-.26-.19-.26-.26s.55-.47.93-.47a1.12,1.12,0,0,1,1.17,1.11,3.63,3.63,0,0,1-.09.7c-.07.35-.13.7-.17,1,.46-.05.92-.09,1.29-.11s.33,0,.33-.07,0-.06-.12-.12a4.6,4.6,0,0,1-1-.7s.05,0,.1,0a.82.82,0,0,1,.32.09,8.36,8.36,0,0,0,2.12.59,4.07,4.07,0,0,1,1.23.28,1,1,0,0,1,.61.85c0,.29-.21.52-.61.52a1.66,1.66,0,0,1-.56-.11,8.31,8.31,0,0,0-2.86-.43c-.3,0-.63,0-.95,0,0,.41,0,.81,0,1.16s0,.81,0,1.1a2.3,2.3,0,0,1,.66,1.77c0,3.18-3.62,4.84-4.64,4.84q-.09,0-.09,0c0-.07.22-.22.67-.45A5.53,5.53,0,0,0,7,206.17a1.77,1.77,0,0,1-.52.1c-1,0-1.4-1.84-1.4-2.28a1.54,1.54,0,0,1,1.5-1.67,1.83,1.83,0,0,1,.55.08Zm-1,2.27c-.28,0-.51.21-.51.65s.29,1.32.86,1.32c.3,0,.58-.3.58-.87a2.76,2.76,0,0,0,0-.37A1.09,1.09,0,0,0,6.13,203Z"/><path class="cls-1" d="M7.61,225.57a2.57,2.57,0,0,0,2-2.5A2,2,0,0,0,7.45,221a3.26,3.26,0,0,0-3.1,2.43c-.09.24-.37,1-1,1a.62.62,0,0,1-.62-.65c0-.44.21-.72,1.24-1.86a11.81,11.81,0,0,0,1.19-1.32c.46-.65,1.75-2.25,2.45-3.46a.47.47,0,0,0,0-.16c0-.16-.18-.25-.38-.25H7.13c-.62.09-.84,1.58-1.84,1.58a1,1,0,0,1-1.08-1c0-.42.18-.42.2-.42a1,1,0,0,1,.26.06A1,1,0,0,0,5,217a1.1,1.1,0,0,0,.61-.18,4,4,0,0,1,2-.88c.86,0,1.6.57,1.6,1.05s-.43.69-.74.93A26.31,26.31,0,0,0,5.66,221a.11.11,0,0,0,.07,0,4,4,0,0,1,2.18-.63A2.91,2.91,0,0,1,11,223.14a3.83,3.83,0,0,1-4,3.39c-1.45,0-2.55-.72-2.55-1.58s1.08-1.11,1.53-1.11a1.53,1.53,0,0,1,1.59,1.59Zm-1.12-.4a.77.77,0,0,0-.82-.81c-.56,0-.64.36-.64.49s0,.66,1.33.82A1,1,0,0,0,6.49,225.17Z"/><path class="cls-1" d="M11.67,236.43a1.7,1.7,0,1,1,1.69-1.69A1.69,1.69,0,0,1,11.67,236.43Zm0-2.88a1.2,1.2,0,1,0,1.2,1.19A1.2,1.2,0,0,0,11.67,233.55Z"/></g></g></svg>