<svg xmlns="http://www.w3.org/2000/svg" viewBox="0 0 25.73 408.4"><defs><style>.cls-1{fill:#fff;}</style></defs><title>アセット 1</title><g id="レイヤー_2" data-name="レイヤー 2"><g id="design"><path class="cls-1" d="M22.6,4.15c-.08,0-.15-.06-.15-.2S23,1.24,23.12.52c.09-.36.31-.52.52-.52a.46.46,0,0,1,.43.51A23.89,23.89,0,0,1,22.77,4,.18.18,0,0,1,22.6,4.15Zm1.19,0c-.07,0-.14,0-.14-.18,0-.32.92-3.17,1-3.39a.62.62,0,0,1,.54-.45.44.44,0,0,1,.42.48,1,1,0,0,1-.09.39A29.48,29.48,0,0,1,24,4.06.21.21,0,0,1,23.79,4.14Z"/><path class="cls-1" d="M20.46,8.23a.12.12,0,0,1-.14.13.63.63,0,0,1-.21,0l-.08,0H20a5.49,5.49,0,0,1-.61.12h0c.13.05.18.1.18.14s-.11.15-.21.2-.17.1-.19,1.36h.17a.22.22,0,0,0,.15-.08c.21-.34.41-.65.54-.65s.88.66.88.87-.05.11-.23.11H19.18c0,.31,0,.65,0,1h0c.89,0,1.47.28,1.47.82a.51.51,0,0,1-.5.53.53.53,0,0,1-.47-.33,3.56,3.56,0,0,0-.54-.84c0,1.38,0,3,.1,4h0c0,.31-.34.48-.63.48a.41.41,0,0,1-.47-.42v0c0-1,.1-2.24.13-3.41A5.17,5.17,0,0,1,16,14s0,0,0,0,0-.09.19-.21a9.28,9.28,0,0,0,2.16-3.24v-.17a13.08,13.08,0,0,0-1.45.09h0c-.13,0-.43-.37-.43-.48a17,17,0,0,0,1.89.14,14.21,14.21,0,0,0-.07-1.6c-.5,0-1.14.06-1.43.06s-.21,0-.21,0,.09-.06.24-.09A5.9,5.9,0,0,0,19.57,7.3l0,0C19.71,7.26,20.46,8,20.46,8.23Zm3.09.62a.16.16,0,0,0,.13-.07c.31-.39.37-.42.43-.42s1,.46,1,.7c0,.06-.05.14-.2.23s-.21.18-.22.37,0,.42,0,.82c0,1.17,0,3.27.09,4.7h0c0,.29-.32.45-.6.45s-.47-.11-.47-.37h0c0-.14,0-.37,0-.65H22v.74c0,.26-.31.42-.59.42s-.48-.11-.48-.39v0C21,14,21,12.56,21,11.4a22.32,22.32,0,0,0-.12-3,.43.43,0,0,0,0,0,0,0,0,0,1,0,0,4.62,4.62,0,0,1,1.22.54l0,0Zm-1.45.26-.05,0a.16.16,0,0,0-.07.16c0,.32,0,1.44,0,2.64,0,.85,0,1.74,0,2.4h1.77c0-.89,0-2.18,0-3.26,0-.78,0-1.47,0-1.81,0-.14-.06-.17-.16-.17Z"/><path class="cls-1" d="M22.37,21.13c0,.07-.06.1-.15.1a1.2,1.2,0,0,1-.24,0h-.13c-.24.06-.51.12-.81.17l.14,0c.1,0,.15.08.15.13s-.08.15-.21.2-.1.07-.12.85h.42a.13.13,0,0,0,.13-.07c.09-.15.23-.31.3-.31s.85.44.85.66c0,.06-.06.13-.19.2s-.18.11-.18.49.07,1.22.09,1.53v0c0,.29-.32.39-.49.39a.32.32,0,0,1-.36-.32v-.31H21c0,.56,0,1.09,0,1.5l.73-.08a2.14,2.14,0,0,0-.37-.52c-.07-.06-.1-.09-.1-.11h0c.11,0,1.76.33,1.76,1.25a.56.56,0,0,1-.52.58.52.52,0,0,1-.48-.4c-.06-.16-.12-.35-.2-.54-.67.27-2.09.7-2.88.94-.13,0-.17.22-.26.22S18,26.63,18,26.49a0,0,0,0,1,0,0l.14,0c.28,0,.62,0,.85,0s.51,0,1.12-.06c0-.42,0-1,0-1.59h-.54c0,.18,0,.33,0,.42v0a.44.44,0,0,1-.47.4.35.35,0,0,1-.38-.36v0c0-.52.05-1.68.05-2.15a5.66,5.66,0,0,0-.08-.95s0,0,0,0a0,0,0,0,1,0,0,3.67,3.67,0,0,1,1,.42l0,0h.37v-.13a7.75,7.75,0,0,0-.05-1c-.42,0-.84.07-1.22.07h-.35l-.13,0v.41c0,5.31-2.52,6.32-2.52,6.32s0,0,0,0,0-.09.14-.21c1.1-1.28,1.4-3.69,1.4-5.65a16,16,0,0,0-.26-3.06l0-.09s0,0,0,0a4.49,4.49,0,0,1,1.4.53l.05,0h4.07a.17.17,0,0,0,.14-.07,2.86,2.86,0,0,1,.28-.35c.06,0,.1-.09.17-.09s1.11.47,1.11.71c0,.07-.05.15-.2.24s-.23.19-.25.38a19.21,19.21,0,0,0-.14,2.18c0,3.31,1,3.84,1,3.84.21,0,.57-1.11.65-1.39,0-.13.06-.18.07-.18s0,.09,0,.15c0,.31-.08,1.07-.08,1.55a.9.9,0,0,0,0,.35.9.9,0,0,1,.1.39.54.54,0,0,1-.54.56.55.55,0,0,1-.26-.06c-1.68-.84-1.92-3.48-1.92-5.61,0-.85,0-1.62,0-2.16,0-.14-.08-.18-.19-.18H18.63l-.12.1a.26.26,0,0,0-.14.23v.35l0,.69.14,0a6.53,6.53,0,0,0,2.95-1.1s0-.05.05-.05S22.37,20.9,22.37,21.13Zm-2.19,1.71h-.42l-.08.07s-.07,0-.07.94c0,.26,0,.53,0,.77h.57C20.19,24,20.19,23.29,20.18,22.84ZM21,24.62h.6c0-.42,0-.92,0-1.27V23c0-.12-.06-.16-.16-.16H21Z"/><path class="cls-1" d="M17.61,31.17a.22.22,0,0,1,.17-.09c.07,0,.14.06.14.19a31.6,31.6,0,0,1-1,3.39.62.62,0,0,1-.54.45.45.45,0,0,1-.43-.49,1,1,0,0,1,.09-.38,31.61,31.61,0,0,1,1.58-3.07Zm-.12,3.55a24.34,24.34,0,0,1,1.31-3.53.18.18,0,0,1,.17-.11c.06,0,.14.06.14.21,0,.36-.66,3.39-.67,3.42-.09.36-.31.52-.51.52A.46.46,0,0,1,17.49,34.72Z"/><path class="cls-1" d="M20.45,49.35c-.68.47-.94.9-.94,1.24s.51.81,1.18.81a2.4,2.4,0,0,0,1.09-.27.87.87,0,0,1,.39-.1.51.51,0,0,1,.54.47c0,.54-.93.85-1.72.85-1.12,0-2.06-.65-2.06-1.5,0-.59.43-1.27,1.54-1.94v-.17c0-.22,0-1.29-.58-1.29-.18,0-.4.13-.67.45-.65,1.24-.86,1.63-1.23,1.63a.4.4,0,0,1-.4-.46,1.2,1.2,0,0,1,.49-.89A5.2,5.2,0,0,0,19.66,46a2.1,2.1,0,0,1-.43,0A1.23,1.23,0,0,1,17.94,45c0-.05,0-.07,0-.07a.63.63,0,0,1,.28.14,1.41,1.41,0,0,0,.83.24,2.81,2.81,0,0,0,.85-.14,1.48,1.48,0,0,0,0-.2.48.48,0,0,0-.35-.53c-.15,0-.27,0-.27-.11a.72.72,0,0,1,.64-.36.62.62,0,0,1,.64.68,1.05,1.05,0,0,0,.38-.09.74.74,0,0,1,.28-.06c.31,0,.35.21.35.32,0,.61-1.29,1-1.38,1.08-.31.66-.49,1-.67,1.39a1,1,0,0,1,.47-.1,1.13,1.13,0,0,1,1.06,1c.54-1.42,1.37-2.15,2.25-2.15.56,0,1.26.38,1.26.91s-.39.83-1.13,1.08a23.58,23.58,0,0,0-2.26.89,4.63,4.63,0,0,1,.08.85c0,.92-.51,1-.64,1s-.4-.17-.4-.58c0,0,0-.09,0-.14,0-.24.17-.41.18-.66Zm3.17-2.51a.48.48,0,0,0-.51-.43c-.76,0-1.55,1.14-1.92,2.11C23.15,47.49,23.62,47.24,23.62,46.84Z"/><path class="cls-1" d="M21.86,59.65a1.89,1.89,0,0,1,0,.3c-.58,3.31-4.1,4.43-4.54,4.43,0,0-.05,0-.05,0s.09-.1.29-.22c1.82-1,3.22-3,3.22-4.34,0-.14,0-.25-.1-.25h0l-.1,0a.2.2,0,0,1-.2-.13,6.29,6.29,0,0,0-1,.25,1.81,1.81,0,0,1-.62.15c-.17,0-1.44-.11-1.44-1,0-.09,0-.13.08-.13a1,1,0,0,1,.36.16,2.79,2.79,0,0,0,1,.17l.22,0c.92-.14,2.17-.37,3.42-.48.36,0,.48-.18.78-.18s1.35.32,1.35.75c0,.2-.18.37-.47.37l-.22,0a6.57,6.57,0,0,0-1.45-.2s-.29,0-.6,0A.51.51,0,0,1,21.86,59.65Zm.53-2.18a23,23,0,0,0-2.34.34l-.39,0c-.81,0-1.1-.45-1.1-.76,0-.08,0-.26.13-.26a.43.43,0,0,1,.21.09,1.6,1.6,0,0,0,.73.14,6.41,6.41,0,0,0,1.88-.33A1.07,1.07,0,0,1,22,56.6c.29,0,1,.17,1,.51S22.79,57.46,22.39,57.47Z"/><path class="cls-1" d="M20.31,74.23c0-.66.08-1.73.08-2.88,0-2.29-.09-2.41-.3-2.48s-.36-.15-.36-.22a.54.54,0,0,1,.55-.32c.39,0,1.25.49,1.25.91,0,.24-.22.43-.26.77s-.06.85-.06,1.89,0,1.58.06,2.16c0,.14,0,.26,0,.38,0,.7-.25,1.26-.52,1.26s-.45-.41-.45-1.37Z"/><path class="cls-1" d="M19.57,84.78a1.4,1.4,0,0,1-.38-.3s0,0,0,0a6.87,6.87,0,0,1,2,.66C21.36,85,23,83.56,23,83.25c0-.08-.08-.12-.19-.12a16.3,16.3,0,0,0-3.91.85,1.24,1.24,0,0,1-.45.09c-.33,0-1.43-.42-1.43-1,0-.22,0-.31.09-.31a.61.61,0,0,1,.27.14,1.84,1.84,0,0,0,.85.16,2.83,2.83,0,0,0,.41,0c1.27-.18,2.25-.31,3.6-.43.32,0,.51-.28.82-.28s1.6.76,1.6,1.2c0,.15-.14.27-.43.35a2.12,2.12,0,0,0-.48.23,16.44,16.44,0,0,1-2.16,1.25c.64.41.88.83.88,1.18a.63.63,0,0,1-.58.66.73.73,0,0,1-.61-.43A6.43,6.43,0,0,0,19.57,84.78Z"/><path class="cls-1" d="M19.45,96s0,0,0,0a1.38,1.38,0,0,1-.11.36,9.24,9.24,0,0,0-.6,2.67,1.68,1.68,0,0,0,0,.4,1.11,1.11,0,0,1,0,.29c0,.36-.18.55-.41.55-.72,0-.94-1.5-.94-2.17a5,5,0,0,1,.11-1,17.13,17.13,0,0,0,.53-2.69,1.75,1.75,0,0,0-.15-.74,2.23,2.23,0,0,1-.18-.37c0-.06.06-.09.21-.09A1.13,1.13,0,0,1,19,94.34a3.76,3.76,0,0,1-.32,1.21,6.1,6.1,0,0,0-.49,1.92s0,.52.09.52.06,0,.09-.11A17.23,17.23,0,0,1,19.45,96Zm4.21,2.64c.51,0,.78.25.78.51s-.43.75-1.69.75-2.36-.6-2.36-1.6c0-.07,0-.12.05-.12s.1.07.21.23a2.3,2.3,0,0,0,1.63.47,4.17,4.17,0,0,0,.61,0,4.88,4.88,0,0,1,.75-.2Zm-1.44-3.3c-1.62,0-1.66-1.06-1.66-1.19s0-.07,0-.07a.72.72,0,0,1,.24.13,2.26,2.26,0,0,0,1.05.22,2.46,2.46,0,0,0,.86-.14,1.18,1.18,0,0,1,.48-.11c.4,0,.67.22.67.47S23.49,95.31,22.22,95.31Z"/><path class="cls-1" d="M24.26,112.38c-.39,0-1.35-1.57-1.69-3.9,0,1,0,2.16.1,3.19v.08a1.17,1.17,0,0,1-1.21,1.18c-.13,0-.22-.05-.29-.23-.18-.42-.91-.79-.91-.86s0,0,0,0h.09a5.66,5.66,0,0,0,.86.11c.42,0,.44-.17.45-.45s0-.78,0-1.25c-.44.54-1.19,1.29-1.63,1.72-.07.06,0,.25-.16.25s-1-.82-1-.87,0,0,.15-.08A16.19,16.19,0,0,0,21.73,110c0-.56,0-1.16,0-1.69-.48,0-1.14,0-1.88.09a.51.51,0,0,1-.48.43.49.49,0,0,1-.42-.28c-.15-.24-.2-.56-.37-.73,0,1.71,0,3.68.07,4.69h0c0,.32-.37.48-.59.48a.41.41,0,0,1-.45-.41v0c.06-1,.1-2.38.11-3.71a4.8,4.8,0,0,1-1.84,1.55,0,0,0,0,1,0,0,.74.74,0,0,1,.19-.26,8.24,8.24,0,0,0,1.67-3.26v-.12a8.13,8.13,0,0,0-1,.09h0c-.13,0-.42-.38-.42-.49.49.07,1,.11,1.47.13a13.19,13.19,0,0,0-.16-2.53s0,0,0-.07,0,0,.05,0,1.48.23,1.48.48c0,.1-.13.19-.27.26s-.2.19-.22,1.92h0a.19.19,0,0,0,.13-.08c.07-.14.36-.64.49-.64s.8.66.8.85-.05.12-.21.12H18.57v.92h.2a1.17,1.17,0,0,1,.94.31h0c.74.07,1.51.11,2,.12l0-.94c-.36,0-.76,0-1.24.08h0c-.17,0-.48-.36-.48-.48a16,16,0,0,0,1.73.14c0-.25,0-.7-.06-.93-.42,0-.9,0-1.44.09h0c-.17,0-.47-.36-.47-.48a21.36,21.36,0,0,0,2.49.15h.11a6.07,6.07,0,0,0,.59-1.81c0-.08,0-.1,0-.1s1.31.51,1.31.78c0,.07-.08.13-.26.13h-.1c-.11,0-.13,0-.21.11s-.57.55-1,.89h.6c.11,0,.15,0,.18-.08s.38-.62.57-.62.89.63.89.82,0,.12-.2.12h-2c.18.06.21.1.21.14s-.1.13-.25.2-.13.1-.16.6h.29c.11,0,.15,0,.18-.09s.37-.55.53-.55.84.52.84.76c0,.06,0,.12-.2.12H22.58c0,.29,0,.6,0,1h.86a.19.19,0,0,0,.18-.08c.07-.13.45-.69.64-.69s1,.7,1,.89,0,.12-.2.12H22.64a5.12,5.12,0,0,0,.69,1.5,7.4,7.4,0,0,0,.88-1.18c0-.07,0-.11.06-.11s.94.79.94,1c0,.08-.06.13-.16.13l-.17,0s-.06,0-.1,0h-.06c-.33.09-.8.26-1.25.37a5.56,5.56,0,0,0,2.15,1.8s.05,0,.05,0-.89.18-1.2.45A.32.32,0,0,1,24.26,112.38Zm-4.58-3.47c-.05,0-.07-.07-.07-.09s.13,0,.2,0c1,0,1.46.48,1.46.88a.49.49,0,0,1-.47.51.6.6,0,0,1-.49-.35A4.54,4.54,0,0,0,19.68,108.91Zm.61-4.87s0,0,.05,0c.49,0,1.62.16,1.62.84a.55.55,0,0,1-.55.52.57.57,0,0,1-.54-.4,3.08,3.08,0,0,0-.47-.81C20.33,104.1,20.29,104.06,20.29,104Z"/><path class="cls-1" d="M20.6,119.91a9.63,9.63,0,0,1-3.55,3h0s.11-.14.33-.33a15.17,15.17,0,0,0,2.75-3.8,3.6,3.6,0,0,0,.28-.93c0-.06,0-.1.06-.1s1.35.62,1.35.94c0,.1-.14.16-.4.22s-.23.19-.32.33l-.28.41H22c.12,0,.24-.23.41-.37a.23.23,0,0,1,.18-.09c.25,0,1.1.63,1.1,1,0,.16-.16.22-.33.25a.93.93,0,0,0-.51.18c-.42.33-1.19.87-1.73,1.2.17.07.77.36.77,1a.56.56,0,0,1-.54.59.88.88,0,0,1-.68-.47,4.68,4.68,0,0,0-1.08-1.18c-.12-.09-.18-.13-.18-.16s0,0,.08,0a4.88,4.88,0,0,1,1.25.15A12.51,12.51,0,0,0,22,120s0-.07-.09-.07Z"/><path class="cls-1" d="M19.34,130.79A1.18,1.18,0,0,1,18,129.65c0-.06,0-.09,0-.09a.59.59,0,0,1,.19.09,2,2,0,0,0,1,.37,3.21,3.21,0,0,0,.66-.08,3.32,3.32,0,0,0,0-.41c0-.52-.22-.54-.33-.54s-.18,0-.18-.06.17-.54.59-.54a.68.68,0,0,1,.67.75c0,.08,0,.17,0,.27l.19,0a1.23,1.23,0,0,1,.37-.12c.12,0,.35,0,.35.26s-.37.75-1.25,1.08c-.39,1-1.26,3-1.41,3.34a1,1,0,0,1-.83.67.35.35,0,0,1-.37-.38,1.35,1.35,0,0,1,.27-.69,13.74,13.74,0,0,0,1.68-2.77Zm3.1,4c.7.24,1.51.77,1.51,1.36a.52.52,0,0,1-.47.55.64.64,0,0,1-.52-.39,1.88,1.88,0,0,0-.56-.63,1.87,1.87,0,0,1-1.75,1.25,1.38,1.38,0,0,1-1.45-1.2c0-.67.85-1.15,1.94-1.15a5.29,5.29,0,0,1,.54,0c0-.28,0-.57,0-.83a2.09,2.09,0,0,1,.93-2c.16-.13.52-.39.52-.65a.27.27,0,0,0-.06-.16c-.08-.09-.18-.17-.27-.26s-.19-.18-.19-.22,0-.11.37-.11a1.4,1.4,0,0,1,1.44,1.18c0,.21-.1.61-.51.61a1.4,1.4,0,0,1-.37-.07,1.44,1.44,0,0,0-.4-.06.88.88,0,0,0-1,.93,12.32,12.32,0,0,0,.21,1.5Zm-1.7.33c-.69,0-1.2.28-1.2.57s.7.47.92.47a1.09,1.09,0,0,0,1.2-.88A2.74,2.74,0,0,0,20.74,135.1Z"/><path class="cls-1" d="M23.19,142.68c0,.09-.08.16-.26.16h-.12c-.09,0-.11,0-.2.1-.24.23-.75.73-1.18,1.07h1.9a.2.2,0,0,0,.16-.09c.11-.19.57-.82.75-.82h.07c.36.13,1.05.83,1.05,1,0,0-.05.11-.22.11H19.9c-.55,0-2.28,0-3.16.11h0c-.19,0-.47-.39-.47-.52,1,.12,3.12.16,3.69.16H21a9.61,9.61,0,0,0,.52-1.43,4.16,4.16,0,0,0,.07-.58c0-.08,0-.11,0-.11S23.19,142.36,23.19,142.68Zm-3-2.61s0,0,.07,0a11.07,11.07,0,0,1,1.37.27c.16.05.23.12.23.2s-.1.2-.29.28-.16.1-.2.77h1.23a.22.22,0,0,0,.17-.09,3.9,3.9,0,0,1,.58-.78.19.19,0,0,1,.1,0,2.1,2.1,0,0,1,1.12,1c0,.06,0,.12-.23.12H20.64c-.55,0-2.28,0-3.17.11h0c-.18,0-.46-.39-.46-.52.86.1,2.47.15,3.31.16a7.22,7.22,0,0,0-.12-1.4A.2.2,0,0,1,20.18,140.07Zm1.94,5.26a.14.14,0,0,0,.13-.06c.28-.36.35-.4.43-.4s1,.49,1,.72c0,.06,0,.13-.2.22s-.22.15-.22.59c0,.61,0,1.81.08,2.36v0c0,.26-.31.43-.6.43s-.47-.11-.47-.36v-.39h-3c0,.16,0,.3,0,.37h0c0,.26-.3.41-.61.41s-.47-.11-.47-.37v0c0-.45.07-1.89.07-2.64v-.28a5.93,5.93,0,0,0-.11-1.06s0,0,0,0,0,0,0,0a4.09,4.09,0,0,1,1.25.52l0,0Zm-3.71-3.22s0,0,.06,0,1.83.13,1.83,1.12a.6.6,0,0,1-.57.61.64.64,0,0,1-.56-.45,4.68,4.68,0,0,0-.67-1.13C18.44,142.18,18.41,142.14,18.41,142.11Zm3.91,4.61v-1c0-.12-.07-.15-.17-.15H19.39l0,0a.15.15,0,0,0-.07.16c0,.15,0,.51,0,.94Zm-3.05.25v1.25h3c0-.38,0-.84,0-1.25Z"/><path class="cls-1" d="M16.33,161.13a.59.59,0,0,1-.17,0c-.05,0-.07,0-.07,0s.07-.09.2-.14a10,10,0,0,0,3.62-2.79H18.64a13.32,13.32,0,0,0-1.81.11h0c-.17,0-.46-.39-.46-.51a19.36,19.36,0,0,0,2.32.16h1.65a4.08,4.08,0,0,0-.1-1,.85.85,0,0,0,0-.09s0,0,0,0,1.45.1,1.45.38c0,.08-.1.17-.26.24s-.14.11-.14.5h2a.2.2,0,0,0,.16-.09c.43-.61.55-.75.64-.75s1.08.71,1.08.95c0,.06-.05.13-.22.13H21.34A6.12,6.12,0,0,0,25.62,160s.05,0,.05,0-1.05.46-1.4.81a.3.3,0,0,1-.22.1,4.7,4.7,0,0,1-2.78-2.55c0,.16,0,.33,0,.5,0,.78,0,1.6.07,2v0c0,.27-.32.45-.63.45s-.45-.11-.45-.38V161c.05-.41.07-1.22.08-1.89A7.52,7.52,0,0,1,16.33,161.13Zm5.47-8.33c0,.07-.1.14-.32.16a.29.29,0,0,0-.23.14c-.18.22-.4.5-.59.7h.64a.17.17,0,0,0,.15-.06c.26-.35.29-.36.33-.36a1.88,1.88,0,0,1,.95.65c0,.06,0,.13-.17.21s-.19.08-.2.27v.15c0,.47,0,1.45.07,2v0c0,.25-.29.41-.54.41s-.4-.11-.4-.34v-.21H20.15v.22h0c0,.25-.27.39-.54.39s-.42-.11-.42-.35v0c0-.5.06-1,.07-1.49-.37.4-1.12,1.07-1.77,1.65-.05,0-.07.17-.16.17s-.9-.88-.9-.95,0,0,.08-.05a13,13,0,0,0,2.75-1v-.71a7.08,7.08,0,0,0-.1-1s0,0,0,0,0,0,0,0a4.43,4.43,0,0,1,1,.47h0c0-.34.09-.88.09-1.06a2.67,2.67,0,0,0,0-.5v0s0-.05,0-.05S21.8,152.51,21.8,152.8Zm-3,1.4a.54.54,0,0,1-.51.55.66.66,0,0,1-.56-.38,4.83,4.83,0,0,0-.83-1c-.06-.05-.11-.08-.11-.11s0,0,.17,0C17.49,153.26,18.76,153.45,18.76,154.2Zm2.76.81c0-.93,0-.95-.19-.95h-1l-.09.06s-.05.06-.05.16,0,.46,0,.73Zm-1.38.26c0,.35,0,.72,0,1h1.36c0-.34,0-.7,0-1Zm4.86-1.2c0,.08-.09.12-.22.12h-.14l-.11,0-.11,0c-.35.16-1.8.62-1.86.62s0,0,0,0,0,0,.05-.07a6.59,6.59,0,0,0,1.28-1.65s0-.07,0-.07S25,153.79,25,154.07Zm-.08,2.4a.52.52,0,0,1-.5.54.75.75,0,0,1-.57-.32,7,7,0,0,0-1.14-1.07.74.74,0,0,1-.12-.08s0,0,.1,0C23.56,155.52,24.92,155.64,24.92,156.47Z"/><path class="cls-1" d="M16.61,169a.49.49,0,0,1-.51-.5,1,1,0,0,1,.26-.61,2.24,2.24,0,0,0,.49-1.32c0-.13,0-.18,0-.18a2,2,0,0,1,.48,1.45C17.37,168.64,17,169,16.61,169Zm3.19-1.89a.51.51,0,0,1-.49.52c-.19,0-.38-.13-.47-.45a3.58,3.58,0,0,0-.29-.91h0c0,.46,0,1,0,1.64,0,1.67.06,3.76.12,5.08v0c0,.3-.35.48-.62.48a.44.44,0,0,1-.49-.44v0c.07-1.84.11-3.78.11-5.38a16,16,0,0,0-.15-3.1s0,0,0-.06,0,0,.05,0,1.5.25,1.5.5c0,.09-.13.19-.25.26s-.18.15-.23.94l.07,0C19.33,166.3,19.8,166.65,19.8,167.08Zm5.71,5.68c0,.07,0,.13-.21.13H21.73a23.72,23.72,0,0,0-2.37.1h0c-.17,0-.46-.38-.46-.5a26.63,26.63,0,0,0,2.84.15c0-.65,0-1.64.05-2.7a13.89,13.89,0,0,0-1.61.1h0c-.17,0-.45-.39-.45-.51a15.39,15.39,0,0,0,2.07.15V167.6H20.54a5.15,5.15,0,0,1-1.72,2s0,0,0,0a.66.66,0,0,1,.09-.18,10.07,10.07,0,0,0,1.26-4.08v-.18s0-.07.06-.07,1.43.31,1.43.55c0,.08-.09.16-.27.23s-.14.05-.17.15a9.52,9.52,0,0,1-.54,1.3h1.11a13,13,0,0,0-.16-2.86s0,0,0-.06,0,0,.05,0,1.59.2,1.59.5c0,.09-.13.18-.25.26s-.21.2-.23,2.21h.51a.19.19,0,0,0,.15-.09c.49-.74.56-.85.66-.85h.06c.31.12.94.8.94,1.06,0,.06,0,.13-.21.13H22.77v2.08H23a.2.2,0,0,0,.16-.09c.47-.75.57-.75.61-.75h.07a1.94,1.94,0,0,1,.92,1c0,.07,0,.14-.21.14h-1.8c0,1.27,0,2.37,0,2.7h.83a.2.2,0,0,0,.16-.09c.15-.24.56-.86.71-.86h.06A2.53,2.53,0,0,1,25.51,172.76Z"/><path class="cls-1" d="M20.81,179.37a12.5,12.5,0,0,0-1.91.88,1.3,1.3,0,0,1-.63.15c-.5,0-1.13-.22-1.13-.71,0-.11,0-.14.09-.14l.21,0a2.86,2.86,0,0,0,.43,0,2,2,0,0,0,.73-.15c1.13-.45,2.31-1.08,3.68-1.49a2.19,2.19,0,0,1,.85-.23c.78,0,1.34.24,1.34.67,0,.26-.24.5-.73.5l-.23,0a4.73,4.73,0,0,0-.53,0,3.25,3.25,0,0,0-1.51.31,3.64,3.64,0,0,0-1,2.77c0,1.41.68,2.09,1.49,2.09a1.61,1.61,0,0,0,.5-.09.9.9,0,0,1,.34-.06.6.6,0,0,1,.65.54c0,.32-.39.75-1.38.75-.67,0-2.22-.38-2.22-2.67a5.46,5.46,0,0,1,.92-3s.06-.07.06-.09Zm2.69,1.33a3.14,3.14,0,0,0-.81-.66c-.11-.06-.18-.1-.18-.14s.24-.09.43-.09c.88,0,1.18.44,1.18.69a.34.34,0,0,1-.33.35A.36.36,0,0,1,23.5,180.7Zm1.05-.49a3.24,3.24,0,0,0-.84-.62c-.11-.06-.18-.1-.18-.14s.29-.11.49-.11c1,0,1.14.52,1.14.66a.33.33,0,0,1-.33.35A.38.38,0,0,1,24.55,180.21Z"/><path class="cls-1" d="M17.3,197.13a2.5,2.5,0,0,1-.47.12s0,0,0,0a1.57,1.57,0,0,1,.41-.29c1.68-1,3.14-3.52,3.14-4.59,0-.19-.06-.28-.18-.28-.34,0-.45-.06-.45-.14s.34-.45.74-.45c0,0,.88,0,1,.56a6.24,6.24,0,0,0,1.35-1.32c0-.09-.13-.17-.21-.17a11.61,11.61,0,0,0-3,.57,2.51,2.51,0,0,1-.75.19c-.21,0-1.39-.25-1.39-1.05,0-.15,0-.22.1-.22a.6.6,0,0,1,.26.16,1.49,1.49,0,0,0,.85.16,5.78,5.78,0,0,0,.58,0c1-.1,2.17-.26,3-.33.28,0,.35-.19.58-.19.38,0,1.47.7,1.47,1.17s-.62.39-.81.5a11.61,11.61,0,0,1-2.06,1A6.56,6.56,0,0,1,17.3,197.13Z"/><path class="cls-1" d="M22.5,203.52a.12.12,0,0,0-.13-.12,8.69,8.69,0,0,0-2.13.53,3.33,3.33,0,0,1-1,.25c-.6,0-1.43-.52-1.43-.92,0-.09,0-.43.19-.43s.21.12.3.26.33.13.65.13a26.19,26.19,0,0,0,3.22-.4c.19-.1.31-.3.55-.3s1.41.44,1.41.82c0,.18-.24.31-.45.46a1.48,1.48,0,0,0-.26.39,9.08,9.08,0,0,1-5.4,4.69,3,3,0,0,1-.51.12s0,0,0,0a1.72,1.72,0,0,1,.47-.29A12.06,12.06,0,0,0,22.5,203.52Zm1.67-.88a.9.9,0,1,1,.91-.9A.91.91,0,0,1,24.17,202.64Zm.61-.91a.6.6,0,0,0-.6-.6.62.62,0,0,0-.62.6.63.63,0,0,0,.62.61A.61.61,0,0,0,24.78,201.73Z"/><path class="cls-1" d="M22.56,219.71H22c-.68,0-1.6,0-2.42.1-.05.52-.24.72-.45.72s-.62-.22-.62-.94c0-.31.09-.64.09-1,0,0-.06-2.71-.68-2.8-.25,0-.43-.08-.43-.19s.32-.4.65-.4a1.74,1.74,0,0,1,1.12.67c.73-.06,2.5-.31,2.61-.33s.28-.27.56-.27,1.36.41,1.36.75c0,.12-.09.26-.33.44a7.75,7.75,0,0,0-.58,1.72l-.14.55c.41.09.69.35.69.58s-.24.37-.84.37Zm-3-.64a17.79,17.79,0,0,0,2.25-.23c.19-.84.4-2.44.4-2.45s0-.18-.14-.18c-.72,0-1.73.22-2.23.28l-.27,0h-.19c0,.42.13,2,.15,2.18Z"/><path class="cls-1" d="M20.31,231.57c0-.65.08-1.72.08-2.87,0-2.29-.09-2.41-.3-2.48s-.36-.15-.36-.23a.56.56,0,0,1,.55-.32c.39,0,1.25.5,1.25.92,0,.23-.22.42-.26.77s-.06.84-.06,1.88,0,1.59.06,2.17c0,.13,0,.25,0,.37,0,.71-.25,1.26-.52,1.26s-.45-.4-.45-1.37Z"/><path class="cls-1" d="M21.49,241.5a4.63,4.63,0,0,1-4.29,4.24c-.05,0-.08,0-.08,0s.18-.14.54-.27a4.84,4.84,0,0,0,2.88-3.84c-.34,0-.67.1-1.07.17a6.19,6.19,0,0,1-1.12.23,2,2,0,0,1-1-.29.61.61,0,0,1-.37-.53s0-.26.09-.26a.59.59,0,0,1,.18.06,3.57,3.57,0,0,0,1.29.23,16.63,16.63,0,0,0,2-.23,4.24,4.24,0,0,0-.13-1.2,7.66,7.66,0,0,1-2,.25c-.11,0-1,0-1-.12s.14-.1.4-.13a8.34,8.34,0,0,0,3.54-1.33s-.06-.09-.14-.14-.19-.1-.19-.17.16-.22.4-.22c.52,0,1.14.5,1.14.85s-.38.43-1.28.73a.45.45,0,0,1,.18.38.64.64,0,0,1,0,.22,2,2,0,0,0,0,.27c0,.16,0,.34,0,.49l1-.13c.44-.05.54-.2.85-.2s1.28.15,1.28.62c0,.23-.25.43-.59.43l-.18,0a7.75,7.75,0,0,0-1.36-.14c-.26,0-.53,0-.83,0Z"/><path class="cls-1" d="M22.37,254.54c.26,0,.37-.06.37-.2s-.19-.92-1.44-2a4,4,0,0,1-1.91.61,1.48,1.48,0,0,1-1.6-1.26c0-.16,0-.4.1-.4s.1.06.21.15a2.31,2.31,0,0,0,1.46.62,3.18,3.18,0,0,0,1-.25c-.33-.24-.66-.45-.95-.64a.62.62,0,0,1-.31-.53.6.6,0,0,1,.57-.61.86.86,0,0,1,.61.31,1.47,1.47,0,0,0,1,.44,1.65,1.65,0,0,0,.38-.05l.2,0a.41.41,0,0,1,.46.41c0,.29-.23.57-.91,1,.59.45,2,1.6,2,2.83,0,.46-.26.79-.63.79a.52.52,0,0,1-.4-.22,3.59,3.59,0,0,0-2.22-.65c-1.11,0-1.44.51-1.44.88s.28.93,1.52.93a3,3,0,0,0,.9-.14,1,1,0,0,1,.32-.06.64.64,0,0,1,.69.54c0,.45-.74.69-1.48.69-1.78,0-2.53-.95-2.53-1.72,0-1.5,2.45-1.51,3.12-1.51h.79Zm-.75-3.36c0-.25-1.1-.42-1.2-.42s-.19.06-.19.12.58.6.8.79C21.16,251.6,21.62,251.34,21.62,251.18Z"/><path class="cls-1" d="M22.67,264.77l.37-.07c.23,0,.39-.05.39-.13s-.1-.17-.34-.39-.18-.17-.18-.21,0,0,0,0a.9.9,0,0,1,.29.11,9.93,9.93,0,0,0,1.62.6c.35.12.49.32.49.5s-.21.4-.57.4a1.42,1.42,0,0,1-.38-.06,4.15,4.15,0,0,0-1.25-.17l-.54,0a5.11,5.11,0,0,1-.28,1.45c-.13.33-.48.94-1,.94a.4.4,0,0,1-.43-.42,1.51,1.51,0,0,0-.32-.79,1.41,1.41,0,0,1-.27-.4l0,0a1.37,1.37,0,0,1,.38.22,1.29,1.29,0,0,0,.65.27c.14,0,.42,0,.56-1.16a11,11,0,0,0-2.12.63,12.1,12.1,0,0,0,.1,1.69c.1.64.68.8,1.22.8a3.39,3.39,0,0,0,1-.15,1.21,1.21,0,0,1,.4-.07c.43,0,.71.25.71.5,0,.62-1.47.65-1.75.65a1.93,1.93,0,0,1-2.16-1.56c-.07-.34-.11-.94-.16-1.57a7.83,7.83,0,0,0-1,.53,1.32,1.32,0,0,1-.72.24c-.44,0-1.3-.28-1.3-.85,0-.23,0-.34.12-.34a.45.45,0,0,1,.23.11.71.71,0,0,0,.52.23,3,3,0,0,0,.89-.18l1.17-.38c-.1-1.3-.27-1.48-.59-1.71-.08-.06-.12-.1-.12-.14s.17-.32.59-.32c.14,0,.87,0,.87,1.08l0,.87c.72-.21,1.43-.4,2.16-.57,0-.12,0-.25,0-.38,0-.84-.08-1.4-.3-1.48s-.19,0-.19-.09a.55.55,0,0,1,.57-.4.67.67,0,0,1,.73.64c0,.23,0,.56-.07,1.12Z"/><path class="cls-1" d="M20,276.4a37.17,37.17,0,0,0-1.16,4.07,2,2,0,0,1-.52,1.21.59.59,0,0,1-.36.15c-.46,0-.46-.65-.46-.68a2.1,2.1,0,0,1,.39-1,34.21,34.21,0,0,0,1.47-3.7,1.83,1.83,0,0,1-.46.05c-.66,0-1.47-.37-1.47-1.12,0-.07,0-.09.05-.09a1,1,0,0,1,.21.08,2.84,2.84,0,0,0,1.12.3,3.07,3.07,0,0,0,.75-.09,3.61,3.61,0,0,0,0-.44c0-.37-.08-.62-.27-.63s-.29,0-.29-.12.17-.46.55-.46a.84.84,0,0,1,.8.93c0,.05,0,.1,0,.15s.23-.1.45-.14h.13c.22,0,.42.11.42.34,0,.52-1,.93-1.34,1.06Zm3.2,5.41c-1.27,0-2.32-.7-2.32-1.49a1.06,1.06,0,0,1,.46-.85s0,0,0,.07a1.33,1.33,0,0,1-.09.34.25.25,0,0,0,0,.12c0,.36.7.74,1.46.74h.15a5.67,5.67,0,0,1,.59-.08c.35,0,1,.12,1,.55S24,281.81,23.18,281.81Zm-.1-6.06c.88,0,1.67.49,1.67.87,0,.19-.15.35-.48.4a2.76,2.76,0,0,0-1.55.61.86.86,0,0,1-.3.17,0,0,0,0,1,0,0,.62.62,0,0,1,.13-.23c.59-.8.62-.88.62-1s-.38-.3-.64-.3h-.13a4.6,4.6,0,0,1-.49.1s-.05,0-.05,0A1.3,1.3,0,0,1,23.08,275.75Z"/><path class="cls-1" d="M18.36,288.37c-.06.61-.08,2.32-.08,3.74,0,.79,0,1.48,0,1.85v0a.56.56,0,0,1-.6.51.42.42,0,0,1-.45-.45V294c.08-1.11.16-3.43.17-5a5.38,5.38,0,0,1-1.55,1.32s0,0,0,0a.59.59,0,0,1,.16-.23,10.4,10.4,0,0,0,2.16-4.52c0-.09,0-.11.05-.11a3.43,3.43,0,0,1,1.06.49s0-.05,0-.07a.18.18,0,0,1,0-.06s0,0,0,0a4.25,4.25,0,0,1,1.26.59h3.16c.08,0,.15-.09.17-.12.26-.4.34-.41.38-.41.21,0,1,.55,1,.75s-.09.18-.3.29-.12.09-.12,1c0,1.67.05,5.36.09,5.94v0a.54.54,0,0,1-.58.49.41.41,0,0,1-.46-.42h0c0-.08,0-.18,0-.3h-3.6c0,.13,0,.23,0,.32h0c0,.31-.34.47-.58.47a.41.41,0,0,1-.44-.43v0c.06-.79.08-4.25.08-5.85v-.79a9.19,9.19,0,0,0-.06-1h-.09c-.09,0-.15.08-.22.21a8.34,8.34,0,0,1-.7,1.32l.15,0c.12,0,.18.11.18.16s-.09.16-.24.23S18.36,288.32,18.36,288.37Zm2-1.67c-.06.05-.07.05-.08.12s0,.8,0,1.65c0,1.54,0,3.75,0,4.86h3.6c0-1.12,0-3.43,0-5,0-.74,0-1.32,0-1.55s-.06-.18-.19-.18H20.56A.43.43,0,0,1,20.39,286.7Zm2.56.69c0,.08-.13.16-.25.23s-.17.17-.17.79a.13.13,0,0,0,.1-.09c.05-.07.33-.57.45-.57s.78.54.78.79c0,.06-.05.12-.2.12H22.53V290s.06,0,.07-.06c.27-.39.27-.39.32-.39s.79.42.79.66a.34.34,0,0,1-.16.26c-.14.12-.17.15-.17.43s0,.91.06,1.26v0c0,.3-.33.4-.5.4a.31.31,0,0,1-.34-.31v-.21h-1v.18c0,.3-.31.43-.51.43a.35.35,0,0,1-.37-.37v-.06c.06-.57.06-1.25.06-1.74,0-.12,0-.55-.08-.91v0s0,0,0,0a3.15,3.15,0,0,1,.93.47c0-.41,0-.84,0-1.33a6.23,6.23,0,0,0-.89.09h0c-.16,0-.42-.38-.42-.5.57.08.95.12,1.33.14a6.74,6.74,0,0,0-.12-1.37.35.35,0,0,0,0-.06s0,0,0,0S23,287.19,23,287.39Zm-1.18,2.9c-.11.11-.11.12-.11.23s0,.53,0,.86v.44h1c0-.29,0-.63,0-.9,0-.48,0-.63-.14-.63Z"/><path class="cls-1" d="M16.61,302.11a.49.49,0,0,1-.51-.5,1,1,0,0,1,.26-.61,2.24,2.24,0,0,0,.49-1.32c0-.14,0-.19,0-.19a2,2,0,0,1,.48,1.46C17.37,301.78,17,302.11,16.61,302.11Zm3.19-1.89a.5.5,0,0,1-.49.51c-.19,0-.38-.13-.47-.44a3.46,3.46,0,0,0-.29-.91h0c0,.46,0,1,0,1.64,0,1.67.06,3.76.12,5.08v0c0,.3-.35.48-.62.48a.44.44,0,0,1-.49-.44v0c.07-1.85.11-3.78.11-5.39a16,16,0,0,0-.15-3.09s0,0,0-.06,0,0,.05,0,1.5.25,1.5.5c0,.09-.13.18-.25.25s-.18.15-.23.95l.07,0C19.33,299.43,19.8,299.79,19.8,300.22Zm5.71,5.68c0,.07,0,.13-.21.13H21.73a23.72,23.72,0,0,0-2.37.1h0c-.17,0-.46-.38-.46-.51a24.52,24.52,0,0,0,2.84.16c0-.65,0-1.64.05-2.71a13.89,13.89,0,0,0-1.61.1h0c-.17,0-.45-.38-.45-.5a15.39,15.39,0,0,0,2.07.15v-2.09H20.54a5.14,5.14,0,0,1-1.72,2s0,0,0,0a.66.66,0,0,1,.09-.18,10.07,10.07,0,0,0,1.26-4.08v-.19s0-.06.06-.06,1.43.31,1.43.55c0,.08-.09.16-.27.23s-.14.05-.17.15a10.07,10.07,0,0,1-.54,1.3h1.11a12.92,12.92,0,0,0-.16-2.86s0,0,0-.06,0-.05.05-.05,1.59.2,1.59.5c0,.09-.13.18-.25.25s-.21.21-.23,2.22h.51a.19.19,0,0,0,.15-.09c.49-.74.56-.86.66-.86h.06c.31.13.94.81.94,1.06,0,.06,0,.13-.21.13H22.77v2.09H23a.2.2,0,0,0,.16-.09c.47-.76.57-.76.61-.76h.07a2,2,0,0,1,.92,1c0,.07,0,.13-.21.13h-1.8c0,1.27,0,2.38,0,2.71h.83a.2.2,0,0,0,.16-.09c.15-.24.56-.86.71-.86h.06A2.53,2.53,0,0,1,25.51,305.9Z"/><path class="cls-1" d="M16,312.35c0-.08.42-.14.77-.14.87,0,1.17.4,1.17.79a.56.56,0,0,1-.53.57.65.65,0,0,1-.5-.3,3.33,3.33,0,0,0-.76-.79C16.06,312.41,16,312.38,16,312.35Zm3.74-2.16v0a1.48,1.48,0,0,1-.08.3c-.08.22-.26.74-.48,1.41a21.1,21.1,0,0,0,2.14.11H22a6.14,6.14,0,0,0,.69-2.19c0-.08,0-.11,0-.11s1.39.54,1.39.86c0,.09-.09.16-.3.16h-.09c-.12,0-.12.05-.21.14-.25.25-.7.73-1.16,1.14h1c.11,0,.15,0,.18-.08s.44-.75.66-.75,1,.7,1,1c0,.06-.05.13-.21.13H22.62a4.93,4.93,0,0,0,3.07,1.9s0,0,0,0-.91.29-1.15.59a.23.23,0,0,1-.2.11,3.48,3.48,0,0,1-2-2.63h-1c.21.07.25.09.25.14s-.05.08-.14.13-.11.05-.17.16a6.14,6.14,0,0,1-1.63,1.91,4.2,4.2,0,0,1,.79.36l0,0h2.48a.11.11,0,0,0,.11-.06c0-.07.26-.36.31-.36s.89.38.89.66a.22.22,0,0,1-.13.19c-.23.13-.22.12-.23.3V316c0,.49,0,1.47,0,1.87a.26.26,0,0,0,.13-.08,2.83,2.83,0,0,1,.39-.6.19.19,0,0,1,.1,0h.05a1.79,1.79,0,0,1,.74.82c0,.07-.05.13-.22.13H20.39a12.05,12.05,0,0,0-1.59.09h0c-.12,0-.4-.31-.4-.48a9.9,9.9,0,0,0,1.21.12c0-.54,0-1.74,0-2.14a7.58,7.58,0,0,0-.08-.93,3.39,3.39,0,0,1-1.31.66,10.47,10.47,0,0,0-.14,1.1,2.19,2.19,0,0,0,.15.79,1.3,1.3,0,0,1,.09.48.67.67,0,0,1-.62.74c-.3,0-.6-.26-.6-.81,0-.05,0-.09,0-.14,0-.41.13-.74.13-1s-.14-.58-.72-.72c-.2-.05-.31-.1-.31-.13s.1-.07.35-.08.61-.1.74-.42A43.19,43.19,0,0,1,19.75,310.19Zm-2.9-.14c0-.08.35-.08.44-.08s1.43,0,1.43.87a.59.59,0,0,1-.54.61.65.65,0,0,1-.54-.39,3,3,0,0,0-.66-.89C16.92,310.13,16.85,310.08,16.85,310.05Zm1.4,5.29h0a6.68,6.68,0,0,0,2.23-3c-.35,0-.73,0-1.12.07h0a.47.47,0,0,1-.26-.17A26.49,26.49,0,0,0,18.25,315.34ZM19.82,310s0,0,.06,0c.65,0,1.63.38,1.63,1a.55.55,0,0,1-1.09.14,4.16,4.16,0,0,0-.49-1C19.86,310.09,19.82,310.05,19.82,310Zm1,5.26H20.5l0,0a.19.19,0,0,0-.06.16v2.42h.46C20.88,317.57,20.88,315.56,20.83,315.29Zm1.15,0h-.29c.08,0,.11.07.11.1s-.05.1-.12.14-.1.08-.11.15,0,1.67,0,2.21H22C22,316.24,22,315.52,22,315.29Zm.86,0c.07,0,.1.06.1.1s-.05.09-.12.14a.19.19,0,0,0-.1.15c0,.1,0,1.67,0,2.21h.48c0-.43,0-1.51,0-2.13v-.35c0-.1-.06-.12-.14-.12Z"/><path class="cls-1" d="M23,327.85a.74.74,0,0,0,.78.83,2.21,2.21,0,0,0,1.43-.69c.31-.3.45-.42.49-.42h0a3.3,3.3,0,0,1-.28.56,2.7,2.7,0,0,1-2.17,1.44c-.7,0-1.28-.46-1.28-1.54,0-.1,0-.22,0-.33a17.51,17.51,0,0,1,.55-2,4.43,4.43,0,0,0,.06-.57c0-.46-.18-.73-.56-.73a4.57,4.57,0,0,0-2.66,1.86,8,8,0,0,0-.11,1.22,6.66,6.66,0,0,0,.3,2,1.71,1.71,0,0,1,.09.5c0,.4-.2.61-.43.61s-.61-.33-.63-1a8.73,8.73,0,0,0-.28-1.31c-.06.22-.12.45-.18.72-.13.6-.51.92-.77.92s-.31-.14-.31-.42a4.43,4.43,0,0,1,1-2.05,3.79,3.79,0,0,0-.55-1.06.87.87,0,0,1-.17-.48c0-.65,1.07-.89,1.66-1.07l.12,0a7.66,7.66,0,0,0,.05-.78c0-.5-.09-1-.5-1.12s-.38-.12-.38-.2.29-.36.6-.36a1.17,1.17,0,0,1,1,1.18,7.1,7.1,0,0,1-.24,1.22c.35.05.48.18.48.36v0A3.73,3.73,0,0,1,22.34,324c.7,0,1.15.48,1.15,1.37a3.07,3.07,0,0,1,0,.42c-.09.68-.41,1.36-.44,2.05Zm-4-2.23H19a2.22,2.22,0,0,0-.92.3.37.37,0,0,0-.13.32,2.53,2.53,0,0,0,.27.93A8.48,8.48,0,0,0,19,325.8Zm-.22,2.75s0-.05,0-.13c0-.38.06-.89.11-1.38a3.39,3.39,0,0,0-.23.34,4.24,4.24,0,0,0-.24.57A2.29,2.29,0,0,0,18.82,328.37Z"/><path class="cls-1" d="M21.42,341.68A1.78,1.78,0,0,0,22.78,340a1.36,1.36,0,0,0-1.48-1.44,2.25,2.25,0,0,0-2.14,1.68c-.06.16-.26.71-.73.71a.43.43,0,0,1-.42-.46c0-.3.14-.49.85-1.28a7.24,7.24,0,0,0,.82-.91c.32-.45,1.21-1.56,1.7-2.39a.3.3,0,0,0,0-.11c0-.12-.13-.18-.27-.18h-.06c-.43.06-.58,1.09-1.27,1.09a.69.69,0,0,1-.74-.7c0-.3.12-.3.13-.3a.54.54,0,0,1,.18,0,.71.71,0,0,0,.2,0,.78.78,0,0,0,.42-.14,2.81,2.81,0,0,1,1.41-.6c.59,0,1.1.39,1.1.72s-.3.48-.51.65a18.57,18.57,0,0,0-1.94,2.13.06.06,0,0,0,.05,0,2.78,2.78,0,0,1,1.51-.44,2,2,0,0,1,2.16,2A2.64,2.64,0,0,1,21,342.35c-1,0-1.76-.49-1.76-1.09s.74-.77,1.06-.77a1.06,1.06,0,0,1,1.1,1.1Zm-.78-.27a.53.53,0,0,0-.57-.56c-.39,0-.44.25-.44.34s0,.45.92.56A.72.72,0,0,0,20.64,341.41Z"/><path class="cls-1" d="M21,351.4c0,.07,0,.13-.21.13h-1.7v.53c.25,0,1.5.05,1.5.81a.46.46,0,0,1-.44.48.52.52,0,0,1-.42-.28,4.06,4.06,0,0,0-.64-.84c0,.82,0,1.78.07,2.31v0c0,.31-.36.42-.54.42s-.4-.1-.4-.33v0c.05-.54.07-1.23.08-1.88A4.7,4.7,0,0,1,16,354.21s0,0,0,0,0-.07.14-.14a8,8,0,0,0,2.13-2.52,12.64,12.64,0,0,0-1.35.1h0c-.17,0-.44-.38-.44-.51a14.72,14.72,0,0,0,1.89.15c0-.13,0-.24,0-.34a4.23,4.23,0,0,0-.07-.74.51.51,0,0,1,0-.09s0,0,.05,0c.31,0,1.2.13,1.2.35,0,.07-.06.14-.19.19s-.13.09-.16.66h.4a.2.2,0,0,0,.16-.09c.22-.37.38-.58.49-.58S21,351.11,21,351.4Zm.14-1.59c0,.07,0,.11-.15.11H18.4a15.28,15.28,0,0,0-1.76.11c-.13,0-.41-.4-.41-.5a19.7,19.7,0,0,0,2.19.14h.27a6.08,6.08,0,0,0,.48-1.84c0-.1,0-.1,0-.1s1.22.44,1.22.68c0,.08-.07.14-.25.14h0c-.14,0-.13,0-.21.12s-.57.64-.93,1h.67a.2.2,0,0,0,.11-.07c.06-.1.4-.63.54-.63S21.12,349.65,21.12,349.81Zm-.25-2.37c0,.07,0,.14-.21.14H18.49a10.59,10.59,0,0,0-1.51.1h0c-.17,0-.42-.39-.42-.51a15.43,15.43,0,0,0,1.68.14c0-.16,0-.37,0-.42a5.2,5.2,0,0,0-.1-.95.18.18,0,0,1,0-.06s0,0,.09,0,1.34.15,1.34.4c0,.06-.08.15-.3.23s-.11,0-.11.84h.24a.2.2,0,0,0,.16-.09c.3-.49.39-.59.49-.59S20.87,347.19,20.87,347.44ZM18.5,348.8a.52.52,0,0,1-.5.52.51.51,0,0,1-.48-.43,3.26,3.26,0,0,0-.36-.82c-.06-.08-.09-.12-.09-.14h0C17.64,347.92,18.5,348.19,18.5,348.8Zm7.09.58c0,.06-.05.12-.21.12H24.19c.07,0,.1.07.1.1s-.07.12-.17.14-.15.08-.15,1.07,0,2.9.07,3.78h0c0,.22-.33.36-.63.36s-.44-.09-.44-.31v0c.05-.68.09-2.83.09-3.88A7.75,7.75,0,0,0,23,349.5h-.75v.28c0,2-.47,4.06-2.57,5a1,1,0,0,1-.36.12h0s.06-.09.21-.2c1.61-1.09,1.81-3.49,1.82-4.88a13.61,13.61,0,0,0-.19-3.06.11.11,0,0,1,0-.05h0a9.28,9.28,0,0,1,1.28.4A5,5,0,0,0,23.61,346c0-.07,0-.11.07-.11s1.09.72,1.09,1c0,.08-.07.12-.19.12l-.16,0h-.1a.27.27,0,0,0-.12,0,14,14,0,0,1-1.78.44c-.16.07-.18.09-.18.36v1.49h1.65a.14.14,0,0,0,.1-.08c.42-.66.54-.7.62-.7h.06A2.09,2.09,0,0,1,25.59,349.38Z"/><path class="cls-1" d="M22.69,358.5c0,.07-.09.16-.21.22s-.11,0-.13.16,0,.66,0,1.52h1c.08,0,.14-.1.16-.13s.28-.41.4-.41,1.06.49,1.06.74c0,.09-.1.17-.3.27s-.13.18-.13.92c0,1.32.08,3.74.14,4.6v0c0,.33-.39.48-.62.48s-.5-.13-.5-.41v-.45H18.07c0,.19,0,.36,0,.49h0c0,.29-.33.47-.62.47a.43.43,0,0,1-.48-.43v0c.08-1.16.12-3.69.12-4.8v-.32a10.53,10.53,0,0,0-.13-1.54.18.18,0,0,1,0-.06s0,0,0,0a6,6,0,0,1,1.25.53l.08.08h.88a20.43,20.43,0,0,0-.1-2.21.51.51,0,0,1,0-.09s0,0,0,0a9.12,9.12,0,0,1,1.32.26c.1,0,.14.09.14.14s-.09.17-.21.23-.12,0-.13.16,0,.67,0,1.53h1.07a20.35,20.35,0,0,0-.1-2.2.51.51,0,0,1,0-.09s0,0,0,0a11.66,11.66,0,0,1,1.33.26C22.64,358.39,22.69,358.44,22.69,358.5ZM19.25,363c0-.76,0-1.57,0-2.3h-.89a.83.83,0,0,1-.17.12c-.11.07-.12.08-.12,2.18Zm-1.2.26c0,.89,0,1.85,0,2.57h1.17c0-.39,0-1.41,0-2.57Zm3.29-.26c0-.76,0-1.57,0-2.3H20.2V363Zm-1.14.26v2.57h1.14v-2.57Zm3.37-.26c0-.91,0-1.73,0-2.13,0-.14,0-.17-.18-.17H22.31V363Zm-1.26.26v2.57h1.26v-2.57Z"/><path class="cls-1" d="M19.45,374.35s0,0,0,0a1.31,1.31,0,0,1-.11.37,9.26,9.26,0,0,0-.6,2.66,1.68,1.68,0,0,0,0,.4,1.13,1.13,0,0,1,0,.3c0,.35-.18.54-.41.54-.72,0-.94-1.5-.94-2.17a5.1,5.1,0,0,1,.11-1,16.71,16.71,0,0,0,.53-2.69A1.7,1.7,0,0,0,18,372a2.64,2.64,0,0,1-.18-.38c0-.06.06-.09.21-.09a1.14,1.14,0,0,1,.94,1.17,3.7,3.7,0,0,1-.32,1.21,6.16,6.16,0,0,0-.49,1.93s0,.51.09.51.06-.05.09-.11A17.23,17.23,0,0,1,19.45,374.35ZM23.66,377c.51,0,.78.24.78.5s-.43.76-1.69.76-2.36-.61-2.36-1.61c0-.07,0-.12.05-.12s.1.07.21.24a2.31,2.31,0,0,0,1.63.46,4.17,4.17,0,0,0,.61,0,4.85,4.85,0,0,1,.75-.19Zm-1.44-3.31c-1.62,0-1.66-1.06-1.66-1.19s0-.07,0-.07a.72.72,0,0,1,.24.13,2.26,2.26,0,0,0,1.05.22,2.46,2.46,0,0,0,.86-.14,1.18,1.18,0,0,1,.48-.11c.4,0,.67.22.67.47S23.49,373.69,22.22,373.69Z"/><path class="cls-1" d="M19.49,382.81c0,.07-.07.15-.23.21s-.17.14-.18.33c0,.54,0,1-.08,1.55h.5a.21.21,0,0,0,.19-.08c.12-.19.3-.41.41-.41s1.06.53,1.06.8c0,.07-.06.15-.21.22s-.24.12-.24.36a21.13,21.13,0,0,1-.23,3.4c-.32,1.55-1.28,1.76-1.75,1.76a.28.28,0,0,1-.28-.2c-.07-.23-.6-.59-.89-.81a3.8,3.8,0,0,1-1.74,1.34s0,0,0,0A1,1,0,0,1,16,391c1.41-1.34,1.85-3.75,2-5.83a9.48,9.48,0,0,0-1.15.1h0c-.16,0-.44-.41-.44-.53a11.56,11.56,0,0,0,1.62.14c0-.49,0-.95,0-1.39a4.62,4.62,0,0,0-.11-1c0-.08,0-.12,0-.14s0,0,0,0a9.71,9.71,0,0,1,1.4.29C19.44,382.68,19.49,382.74,19.49,382.81Zm-1.84,7a6.36,6.36,0,0,0,1,.16c.56,0,1.11-.22,1.11-4.37,0-.38,0-.43-.14-.43H19A9.31,9.31,0,0,1,17.65,389.81Zm6.07-5.46a.18.18,0,0,0,.14-.07c.3-.38.36-.41.42-.41s1,.45,1,.69c0,.06,0,.14-.2.23s-.22.15-.22.59c0,1,0,4.55.07,5.15v0c0,.29-.33.44-.59.44s-.46-.11-.46-.38h0c0-.14,0-.36,0-.63H22.5v.77c0,.27-.31.43-.59.43s-.47-.11-.47-.39v0c.07-.91.09-3,.09-4.43,0-.65,0-1.15,0-1.36a10.05,10.05,0,0,0-.1-1.09.43.43,0,0,0,0-.05,0,0,0,0,1,0,0,4.85,4.85,0,0,1,1.21.53l.05,0Zm-1.1.26,0,0c-.07,0-.08.09-.08.17,0,.32,0,1.4,0,2.55,0,.83,0,1.69,0,2.35h1.43c0-.87,0-2.11,0-3.16,0-.77,0-1.43,0-1.78,0-.14-.06-.17-.17-.17Z"/><path class="cls-1" d="M20,400.48l.07,0a1.23,1.23,0,0,1,.49-.1.71.71,0,0,1,.79.7.39.39,0,0,1,0,.15,3.25,3.25,0,0,0-.06.45c0,.24.11.54.68.54a3.6,3.6,0,0,0,1.26-.3,1,1,0,0,1,.38-.08.58.58,0,0,1,.64.5c0,.71-1.59.77-1.85.77-1.58,0-1.76-.87-1.76-1.23a4.28,4.28,0,0,1,.16-.84.49.49,0,0,0,0-.12.25.25,0,0,0-.28-.27c-.7,0-1.06.77-1.32,1.41a1,1,0,0,1-.87.69.46.46,0,0,1-.49-.44.77.77,0,0,1,.16-.43,14,14,0,0,1,1.67-1.6c1.33-1.39,1.89-2,1.89-2.22s-.12-.17-.24-.17h-.12c-.38.15-.62.71-1,.92a1.06,1.06,0,0,1-.47.12,1.13,1.13,0,0,1-1-1.15c0-.06,0-.09.06-.09a.66.66,0,0,1,.23.07,2,2,0,0,0,.78.24,1.86,1.86,0,0,0,.93-.36,1.77,1.77,0,0,1,.93-.27c.51,0,1,.24,1,.65s-.59.84-.89,1.07a21,21,0,0,0-1.69,1.4ZM22,396.25a.42.42,0,0,1-.46.46,1.15,1.15,0,0,1-.26,0,1.7,1.7,0,0,0-.41-.05,3.4,3.4,0,0,0-.89.13l-.25.05c-.05,0-.07,0-.07,0s0-.08.15-.18.46-.32.64-.45.1-.09.1-.12-.06-.1-.13-.18A1.39,1.39,0,0,1,20,395q0-.09.06-.09a.67.67,0,0,1,.25.2c.4.42,1.62.44,1.64,1.14Z"/><path class="cls-1" d="M24.28,408a4.21,4.21,0,0,0-1.16-1.35c-.1-.08-.17-.13-.17-.16s0,0,.1,0c.61,0,2.42.38,2.42,1.35a.61.61,0,0,1-.59.63A.7.7,0,0,1,24.28,408Z"/><path class="cls-1" d="M1.24,37.93a.67.67,0,0,1,.45-.58,2.77,2.77,0,0,0,1.49-1.23c0-.12.09-.28.14-.28a1,1,0,0,1,.08.5,2.12,2.12,0,0,1-1.6,2.09A.52.52,0,0,1,1.24,37.93Zm2.7-2.69a5,5,0,0,1-.92.19c-.21,0-1.4-.16-1.4-.91,0-.12,0-.17.09-.17a.41.41,0,0,1,.16,0,3.7,3.7,0,0,0,1.36.27c.21,0,.91-.07,1.38-.13v-.61c0-.55-.17-.86-.48-.86H4c-.15,0-.21,0-.21-.11s.07-.37.53-.37,1.3.41,1.3.79c0,.19-.17.36-.21.63s0,.28,0,.43L6,34.34c.42-.06.47-.25.92-.25.67,0,1.35.32,1.35.65s-.21.34-.54.34l-.21,0A6.48,6.48,0,0,0,6.32,35a8.22,8.22,0,0,0-1,.06c0,.17,0,.35,0,.52,0,.51,0,1,.06,1.45s.13.76.13,1.14c0,.59-.24,1.19-.67,1.19-.23,0-.46-.22-.53-.64a2.48,2.48,0,0,0-.53-1.32,1.65,1.65,0,0,1-.31-.48s0,0,0,0a1.51,1.51,0,0,1,.42.23,5.8,5.8,0,0,0,.65.43s.06-.15.06-1.23c0-.4,0-.79,0-1.17Zm3.55,2.52a5,5,0,0,0-1.28-1.55c-.19-.15-.3-.24-.3-.27s0,0,0,0,2.62.44,2.62,1.58a.59.59,0,0,1-.55.62A.66.66,0,0,1,7.49,37.76ZM7.1,33.63A3.06,3.06,0,0,0,6.28,33c-.11-.06-.17-.11-.17-.14s.4-.1.43-.1c.6,0,1.17.26,1.17.67a.35.35,0,0,1-.32.37A.36.36,0,0,1,7.1,33.63Zm1.05-.48a3.35,3.35,0,0,0-.84-.61c-.11-.06-.17-.1-.17-.15s.45-.11.48-.11c.45,0,1.14.16,1.14.66a.33.33,0,0,1-.32.35A.41.41,0,0,1,8.15,33.15Z"/><path class="cls-1" d="M4.46,49.94c0-.65.08-1.72.08-2.87,0-2.29-.09-2.41-.3-2.48s-.36-.15-.36-.22A.55.55,0,0,1,4.43,44c.39,0,1.25.5,1.25.92,0,.23-.22.43-.26.77s-.06.85-.06,1.88,0,1.59.06,2.17c0,.13,0,.25,0,.38,0,.7-.25,1.26-.52,1.26S4.46,51,4.46,50Z"/><path class="cls-1" d="M5.74,59.37c-.13,4-4.28,4.57-4.47,4.57h0s.19-.14.56-.3a5.19,5.19,0,0,0,2.94-4.15c-.48.06-1,.13-1.35.22a3.64,3.64,0,0,1-.8.15c-.48,0-1.35-.42-1.35-.88,0-.1.06-.22.09-.22a2.35,2.35,0,0,1,.25.1A3.51,3.51,0,0,0,2.8,59c.24,0,.39,0,2-.18,0-1,0-1.67-.35-1.71S4,57.08,4,57a.55.55,0,0,1,.57-.46C5,56.51,6,57,6,57.34a.82.82,0,0,1-.1.32,2.48,2.48,0,0,0-.13,1.08l1-.13c.4,0,.52-.18.77-.18s1.34.26,1.34.76c0,.2-.2.36-.52.36l-.27,0a6.9,6.9,0,0,0-1.61-.19,5.68,5.68,0,0,0-.59,0Z"/><path class="cls-1" d="M5.71,72.81c.19,0,2.68.58,2.68,1.88a.57.57,0,0,1-.53.62.78.78,0,0,1-.64-.47A5.17,5.17,0,0,0,5.45,72.9,8.87,8.87,0,0,1,.59,75.57s-.08,0-.08,0,.09-.09.35-.19a11.07,11.07,0,0,0,5-4.77.2.2,0,0,0,0-.08s0,0-.07,0a9.52,9.52,0,0,0-1.51.5,1.75,1.75,0,0,1-.75.25c-.34,0-1.22-.33-1.22-.81,0-.28.07-.42.16-.42s.14.07.2.21.25.15.55.15A10.29,10.29,0,0,0,5.59,70c.19-.11.32-.32.56-.32s1.23.43,1.23.78c0,.12-.11.23-.3.36a1.41,1.41,0,0,0-.32.4,9.24,9.24,0,0,1-1.2,1.61Z"/><path class="cls-1" d="M4.83,83.72v.5c0,1.22,0,2.52.09,2.93,0,.07,0,.13,0,.19,0,.48-.18,1-.52,1s-.66-.42-.66-1.19a2.13,2.13,0,0,1,0-.27c.06-.36.15-.58.18-.95C4,85.27,4,84.25,4,83.44,4,81.54,4,81.07,3.7,81s-.33-.09-.33-.14a.48.48,0,0,1,.48-.33c.31,0,1.25.37,1.25,1,0,.23-.15.43-.19.77s-.07.77-.08,1.25h.06a4.14,4.14,0,0,1,.65,0c1.8,0,1.94.87,1.94,1a.57.57,0,0,1-.56.58.85.85,0,0,1-.57-.28,6.93,6.93,0,0,0-1.48-1.09Z"/><path class="cls-1" d="M2.37,100.12a2.1,2.1,0,0,1-.53.1s-.08,0-.08,0,.14-.13.45-.26C4.7,98.86,6.6,95.46,6.6,95.27s0-.08-.12-.08a9.78,9.78,0,0,0-2.45.6,1.29,1.29,0,0,1-.48.1c-.47,0-1.48-.5-1.48-.9,0-.14.13-.32.23-.32a.33.33,0,0,1,.21.12,1.11,1.11,0,0,0,.73.17,27.08,27.08,0,0,0,3.06-.34c.18-.09.31-.27.54-.27s1.38.35,1.38.76c0,.16-.2.28-.4.39a1.26,1.26,0,0,0-.3.38A8.41,8.41,0,0,1,2.37,100.12ZM6.6,93.7A16.55,16.55,0,0,0,4.3,94a1.42,1.42,0,0,1-.29,0c-.57,0-1.12-.27-1.12-.69,0-.07,0-.41.16-.41s.16.08.27.17a1,1,0,0,0,.62.16,7,7,0,0,0,1.42-.23c.55-.13.57-.33.92-.33.18,0,.94.09.94.54C7.22,93.49,7,93.69,6.6,93.7Z"/><path class="cls-1" d="M4.64,108.32a3.91,3.91,0,0,0-.63-.8c-.11-.1-.18-.16-.18-.18s0,0,.12,0c1.46,0,1.51.68,1.51.81a.45.45,0,0,1-.42.47A.5.5,0,0,1,4.64,108.32Zm-.39,2.78s-.06,0-.06,0,.08-.1.23-.17A7.24,7.24,0,0,0,7.61,107a.13.13,0,0,0-.1-.14c-.15-.06-.26-.08-.26-.15a.48.48,0,0,1,.46-.29.94.94,0,0,1,.94.65c0,.21-.23.36-.34.58C6.7,110.81,4.28,111.1,4.25,111.1Zm1.58-3.33a2.7,2.7,0,0,0-.52-.88c-.08-.08-.12-.12-.12-.15s0,0,.09,0c.6,0,1.42.35,1.42.92a.5.5,0,0,1-.46.5C6.09,108.13,5.93,108,5.83,107.77Z"/><path class="cls-1" d="M5.07,118.77a8.66,8.66,0,0,1-3.28,2.63,1.69,1.69,0,0,1-.43.16l0,0s.1-.14.31-.31a9.91,9.91,0,0,0,2.82-3.46.22.22,0,0,0-.17-.23c-.19-.05-.26-.1-.26-.16a.58.58,0,0,1,.58-.36c.44,0,1,.4,1,.82a.6.6,0,0,1-.08.29,9,9,0,0,0,1-.16c.2-.13.31-.29.5-.29s1,.49,1,.81c0,.12-.14.2-.32.27s-.24.15-.41.42c-1.79,2.66-3.3,4.18-6,4.94a2.75,2.75,0,0,1-.54.11s-.06,0-.06,0,.13-.12.42-.25C3.42,123,5,121,6.54,118.63a.14.14,0,0,0,0-.09s0-.07-.1-.07a8,8,0,0,0-1.09.25,1,1,0,0,1-.26,0Z"/><path class="cls-1" d="M5.69,133.41c-.86,0-2.12.58-2.12,1.48,0,.51.46,1,1.49,1a3,3,0,0,0,1.24-.25,1,1,0,0,1,.42-.1.55.55,0,0,1,.59.52c0,.52-.85.85-1.84.85-1.53,0-2.42-.87-2.42-1.82a3,3,0,0,1,1.71-2.3,1.48,1.48,0,0,1-.68-1.47A11.05,11.05,0,0,1,4.19,130a5.15,5.15,0,0,0,.06-.62c0-.31-.08-.45-.39-.52s-.32-.09-.32-.17a.71.71,0,0,1,.67-.45,1.24,1.24,0,0,1,1.06,1.11,2.32,2.32,0,0,1-.11.64,6.12,6.12,0,0,0-.3,1.59,1.31,1.31,0,0,0,.32,1,3.15,3.15,0,0,1,1.12-.37c.34,0,.59.19.59.49s-.34.71-1,.71Z"/><path class="cls-1" d="M3,141.24a.73.73,0,0,1-.15-.3c0-.06.06-.08.21-.08a1.19,1.19,0,0,1,1.33,1.23,1.89,1.89,0,0,1,0,.31,23.09,23.09,0,0,0-.61,3.5c0,.61,0,2,1.7,2a5.45,5.45,0,0,0,2.92-1.09,1.78,1.78,0,0,1,.46-.28s0,0,0,0a4.64,4.64,0,0,1-3.57,2.29c-.81,0-2.29-.36-2.29-2.94,0-1.12.27-2.25.29-3.36A2.16,2.16,0,0,0,3,141.24Z"/><path class="cls-1" d="M5,155.08a12.71,12.71,0,0,0-1.9.89,1.5,1.5,0,0,1-.64.14c-.5,0-1.13-.21-1.13-.7,0-.11,0-.14.09-.14l.21,0a2.86,2.86,0,0,0,.43,0,1.86,1.86,0,0,0,.73-.16c1.13-.44,2.31-1.07,3.68-1.49a2.37,2.37,0,0,1,.85-.22c.78,0,1.34.23,1.34.67,0,.26-.24.5-.73.5l-.23,0a4.73,4.73,0,0,0-.53,0,3.41,3.41,0,0,0-1.51.3,3.68,3.68,0,0,0-1,2.78c0,1.41.68,2.08,1.49,2.08a1.61,1.61,0,0,0,.5-.09,1.12,1.12,0,0,1,.34,0,.59.59,0,0,1,.65.54c0,.32-.39.74-1.38.74-.67,0-2.22-.37-2.22-2.66A5.6,5.6,0,0,1,5,155.17s.06-.07.06-.09Z"/><path class="cls-1" d="M5.94,164.63c0,.09-.1.19-.29.27s-.2.11-.22,1.78H7.28a.21.21,0,0,0,.17-.09c.46-.77.55-.84.66-.84h.06a2.27,2.27,0,0,1,1,1.05c0,.07-.05.13-.23.13H5.54a8.64,8.64,0,0,0,4.27,4l0,0c0,.08-1,.16-1.44.51a.32.32,0,0,1-.2.08c-.44,0-2.19-2-2.77-4.44V168c0,.85,0,1.77,0,2.67a.22.22,0,0,0,.2-.12,5,5,0,0,1,.36-.6.11.11,0,0,1,.07,0c.14,0,.83.62.83.87,0,.07,0,.13-.19.13H5.46l.07,2h0c0,.34-.4.51-.7.51s-.53-.13-.53-.44v0c0-.57.08-1.28.1-2-.4,0-.94.06-1.26.1s-.43-.44-.43-.47a9.72,9.72,0,0,0,1.69.12c0-.76,0-1.55,0-2.28A8.67,8.67,0,0,1,.1,172s0,0,0,0,.06-.1.18-.18A12.85,12.85,0,0,0,4,166.94c-.6,0-2.09,0-3,.11h0c-.18,0-.46-.4-.46-.53,1,.12,2.95.16,3.53.16h.29c0-.23,0-.44,0-.63a9.87,9.87,0,0,0-.12-1.78.2.2,0,0,1,0-.07s0,0,0,0a10.9,10.9,0,0,1,1.38.27C5.87,164.48,5.94,164.55,5.94,164.63Z"/><path class="cls-1" d="M6,180.61a1.89,1.89,0,0,1,0,.3c-.57,3.31-4.1,4.43-4.54,4.43,0,0-.05,0-.05,0s.09-.1.29-.22c1.82-1,3.22-2.95,3.22-4.34,0-.14,0-.25-.1-.25h0l-.1,0a.2.2,0,0,1-.2-.13,6.29,6.29,0,0,0-1,.25,1.81,1.81,0,0,1-.62.15c-.17,0-1.44-.11-1.44-1,0-.1,0-.14.08-.14a1,1,0,0,1,.36.16,2.79,2.79,0,0,0,1,.17l.22,0c.92-.14,2.17-.37,3.42-.48.36,0,.48-.18.78-.18s1.35.32,1.35.75c0,.2-.18.37-.47.37l-.22,0a6.57,6.57,0,0,0-1.45-.2s-.29,0-.6,0A.51.51,0,0,1,6,180.61Zm.53-2.18a23,23,0,0,0-2.34.34l-.39,0c-.81,0-1.1-.45-1.1-.76,0-.08,0-.26.13-.26a.43.43,0,0,1,.21.09,1.6,1.6,0,0,0,.73.14,6.41,6.41,0,0,0,1.88-.33,1.07,1.07,0,0,1,.48-.12c.29,0,1,.17,1,.51C7.15,178.26,6.94,178.42,6.54,178.43Z"/><path class="cls-1" d="M4.46,195.19c0-.66.08-1.73.08-2.88,0-2.29-.09-2.41-.3-2.48s-.36-.15-.36-.22a.54.54,0,0,1,.55-.32c.39,0,1.25.49,1.25.91,0,.24-.22.43-.26.77s-.06.85-.06,1.89,0,1.58.06,2.16c0,.14,0,.26,0,.38,0,.7-.25,1.26-.52,1.26s-.45-.41-.45-1.37Z"/><path class="cls-1" d="M3.72,205.74a1.4,1.4,0,0,1-.38-.3h0a6.87,6.87,0,0,1,2,.66c.16-.14,1.76-1.57,1.76-1.88,0-.08-.08-.12-.19-.12a15.8,15.8,0,0,0-3.91.85,1.24,1.24,0,0,1-.45.09c-.33,0-1.43-.42-1.43-1,0-.22,0-.31.09-.31a.61.61,0,0,1,.27.14,1.84,1.84,0,0,0,.85.16,2.83,2.83,0,0,0,.41,0c1.27-.18,2.25-.31,3.6-.43.32,0,.51-.28.82-.28s1.6.76,1.6,1.2c0,.15-.14.27-.43.35a1.87,1.87,0,0,0-.47.23,17.29,17.29,0,0,1-2.17,1.25c.64.41.88.83.88,1.18a.63.63,0,0,1-.58.66.76.76,0,0,1-.61-.43A6.43,6.43,0,0,0,3.72,205.74Z"/><path class="cls-1" d="M4.19,213.58c0,.1-.13.16-.36.19s-.16.07-.23.2a9.37,9.37,0,0,1-.8,1.21c.32.08.48.12.48.22s-.09.16-.26.23,0,.1,0,.15c-.06.62-.08,2.26-.08,3.62,0,.77,0,1.44,0,1.82h0a.59.59,0,0,1-.63.53.41.41,0,0,1-.45-.42v-.06c.08-1.17.19-3.61.19-5.16a6.92,6.92,0,0,1-1.93,1.53h0s.06-.1.18-.22a11.38,11.38,0,0,0,2.54-4.52c0-.06,0-.1,0-.1S4.19,213.3,4.19,213.58Zm5.34,3.07c0,.06,0,.12-.21.12H6.71c0,1.44,0,3.08,0,4.07h.76a.19.19,0,0,0,.15-.09c.43-.7.52-.78.62-.78h.06c.27.1,1,.73,1,1,0,.06-.05.12-.22.12H5.77a15.41,15.41,0,0,0-1.87.1h0c-.17,0-.47-.39-.47-.51a19.7,19.7,0,0,0,2.3.15v-4.07a19.56,19.56,0,0,0-2,.1h0c-.17,0-.42-.37-.42-.5h0a16,16,0,0,0,2.46.16c0-1,0-1.73,0-1.84A9.9,9.9,0,0,0,5.6,213l0-.1a0,0,0,0,1,0,0s1.51.17,1.51.48c0,.06-.07.14-.24.23s-.14.07-.15.24,0,1.37,0,2.72h1a.19.19,0,0,0,.15-.09c.47-.78.55-.82.64-.82h.06C8.82,215.74,9.53,216.4,9.53,216.65Z"/><path class="cls-1" d="M8.41,233.34c-.39,0-1.35-1.57-1.69-3.9,0,1,0,2.16.1,3.19v.08a1.17,1.17,0,0,1-1.21,1.18c-.13,0-.22,0-.29-.23-.18-.42-.91-.79-.91-.86s0,0,0,0h.09a5.66,5.66,0,0,0,.86.11c.42,0,.44-.17.45-.45s0-.78,0-1.25c-.44.54-1.19,1.29-1.63,1.72-.07.06,0,.25-.16.25s-1-.82-1-.87,0-.05.15-.08A16.19,16.19,0,0,0,5.88,231c0-.56,0-1.16,0-1.69-.48,0-1.14,0-1.88.09a.51.51,0,0,1-.48.43.49.49,0,0,1-.42-.28c-.15-.24-.2-.56-.37-.73,0,1.71,0,3.68.07,4.69h0c0,.31-.37.48-.59.48a.41.41,0,0,1-.45-.41v0c.06-1,.1-2.38.11-3.71A4.8,4.8,0,0,1,0,231.34a0,0,0,0,1,0,0,.74.74,0,0,1,.19-.26,8.24,8.24,0,0,0,1.67-3.26v-.12a8.13,8.13,0,0,0-1,.09h0c-.12,0-.42-.38-.42-.49.49.07,1,.11,1.47.13a12.32,12.32,0,0,0-.16-2.53s0,0,0-.07,0-.05.05-.05,1.48.23,1.48.48c0,.1-.13.18-.27.26s-.2.19-.22,1.92h0a.19.19,0,0,0,.13-.08c.07-.14.36-.64.49-.64s.8.66.8.85-.05.12-.21.12H2.72v.92h.2a1.17,1.17,0,0,1,.94.31h0c.74.08,1.51.11,2,.12l0-.94c-.36,0-.76,0-1.24.08h0c-.17,0-.48-.36-.48-.48a16,16,0,0,0,1.73.14c0-.25,0-.7-.06-.93-.42,0-.9,0-1.44.09h0c-.17,0-.47-.36-.47-.47a23.39,23.39,0,0,0,2.49.14h.11a6.07,6.07,0,0,0,.59-1.81c0-.08,0-.1,0-.1s1.31.51,1.31.78c0,.07-.08.13-.26.13h-.1c-.11,0-.13,0-.21.11s-.57.55-1,.89h.6c.11,0,.15,0,.18-.09S8,226,8.23,226a1.51,1.51,0,0,1,.89.82c0,.06,0,.12-.2.12H7c.18.06.21.1.21.14s-.1.13-.25.2-.12.1-.16.6H7c.11,0,.15,0,.18-.09s.37-.55.53-.55.84.51.84.76c0,.06,0,.12-.2.12H6.73c0,.29,0,.6,0,1h.86c.11,0,.15,0,.18-.08s.45-.69.64-.69,1,.7,1,.89,0,.12-.2.12H6.79a5.12,5.12,0,0,0,.69,1.5,7.4,7.4,0,0,0,.88-1.18c0-.07,0-.11.06-.11s.94.79.94,1c0,.08-.06.13-.16.13l-.17,0s-.06,0-.1,0H8.87c-.33.09-.8.26-1.25.37a5.56,5.56,0,0,0,2.15,1.8s.05,0,.05,0-.89.18-1.2.45A.32.32,0,0,1,8.41,233.34Zm-4.58-3.47c-.05-.05-.07-.07-.07-.09s.13,0,.2,0c1,0,1.46.48,1.46.88a.49.49,0,0,1-.47.51.6.6,0,0,1-.49-.35A4.54,4.54,0,0,0,3.83,229.87ZM4.44,225h0c.49,0,1.62.16,1.62.84a.55.55,0,0,1-.55.52A.57.57,0,0,1,5,226a3.25,3.25,0,0,0-.47-.81C4.48,225.06,4.44,225,4.44,225Z"/><path class="cls-1" d="M5.07,238.78H4.79a2.07,2.07,0,0,1,.45,1.47c0,1.89-1.51,4.34-2.62,4.34-.59,0-.83-.79-1.2-1.33a1.81,1.81,0,0,1-.24-1,4.07,4.07,0,0,1,4.1-4,3.33,3.33,0,0,1,3.63,3.26,3.57,3.57,0,0,1-1.19,2.63A5.79,5.79,0,0,1,4.3,245.5c-.1,0-.15,0-.15,0s.15-.09.48-.18a5.33,5.33,0,0,0,2.51-1.54,3.57,3.57,0,0,0,.79-2.17,2.73,2.73,0,0,0-2.75-2.79Zm-.36.88c0-.1,0-.8-.3-.8H4.33l-.11,0a3.22,3.22,0,0,0-2.42,3c0,.92.53,1.55.86,1.55C3.48,243.42,4.71,241.12,4.71,239.66Z"/><path class="cls-1" d="M3,248.77c.1,0,.14.09.14.18s0,.14-.07.15a1.87,1.87,0,0,0-1.73,1.79,1.24,1.24,0,0,0,1.37,1.35c.73,0,1.17-.32,1.71-1.13.73-1.14,1.33-2,2.45-2,1.47,0,1.91,1.53,1.91,2.46a12.52,12.52,0,0,1-.12,1.3c0,.18,0,.15-.18.21a8.23,8.23,0,0,1-1.32.22s-.1-.12-.1-.21,0-.1.06-.11a1.6,1.6,0,0,0,1.32-1.54,1.1,1.1,0,0,0-1.17-1.19c-.67,0-.92.35-1.65,1.58a2.89,2.89,0,0,1-2.36,1.59A2.38,2.38,0,0,1,1,250.86a4,4,0,0,1,.38-1.75c.11-.22.13-.22.29-.23s1.19-.11,1.32-.11Z"/><path class="cls-1" d="M1.55,260.4a.94.94,0,0,0,.17.29.14.14,0,0,1,0,.06.19.19,0,0,1-.16.15A1.37,1.37,0,0,1,1,259.77a.84.84,0,0,1,.51-.85l.08,0,0,0A2.27,2.27,0,0,1,1,258a1.75,1.75,0,0,1-.09-.54A1.09,1.09,0,0,1,2,256.34c.48,0,.78.49,1,.92s.4,1.08.57,1.54a.14.14,0,0,0,.1.07c.11,0,.26,0,.43,0h.3c.67,0,1-.15,1-.55s-.41-.55-.65-.55a.75.75,0,0,1-.73-.79c0-.27.15-.46.39-.46.48,0,1.35,1,1.35,2.22,0,.93-.51,1.35-1.23,1.35H4.28c-1.16-.09-1.94-.1-2-.1-.63,0-.76.06-.76.3Zm.85-1.57c.29,0,.64,0,.76,0s0,0,0,0a10.69,10.69,0,0,0-.4-1,.52.52,0,0,0-.48-.34c-.5,0-.72.3-.72.57a1.09,1.09,0,0,0,.49.8Z"/><path class="cls-1" d="M1.1,266.51s.07-.07.14-.07a.16.16,0,0,1,.14.07c.05.28.09.41.19.41a9.46,9.46,0,0,0,1.81-1.49s0,0,0,0a.06.06,0,0,0,0,0l-.06,0H2.64c-1,0-1.19,0-1.25.57a.27.27,0,0,1-.18.07c-.06,0-.11,0-.11-.09s.06-.68.06-1.35a5.37,5.37,0,0,0-.06-.94v0c0-.06,0-.08.09-.08a.28.28,0,0,1,.2.08c0,.45.28.54.47.55.55,0,2.23.08,4.22.08.73,0,1.39,0,1.84,0s.43-.17.51-.52a.12.12,0,0,1,.12-.09.11.11,0,0,1,.12.1,6.86,6.86,0,0,0,.54,1.58.24.24,0,0,1,0,.1c0,.08-.05.11-.18.11H9c-.72-.08-5.13-.11-5.17-.11s-.1,0-.1.09,1.06,1.67,1.3,1.67.18-.18.22-.45a.19.19,0,0,1,.15-.09.14.14,0,0,1,.14.14s0,.47,0,1a5.78,5.78,0,0,0,0,.83h0c0,.07-.09.12-.16.12a.13.13,0,0,1-.14-.09,6.34,6.34,0,0,0-1.35-2.24l-.06,0c-.63.61-1.66,1.5-2.06,1.9a1.17,1.17,0,0,0-.37.68.2.2,0,0,1-.17.08c-.06,0-.12,0-.12-.08s.06-.75.06-1.48a7,7,0,0,0-.06-1Z"/><path class="cls-1" d="M1.61,276.92c0,.08-.09.12-.16.12a.09.09,0,0,1-.09-.05,6.68,6.68,0,0,0-.42-1.27.28.28,0,0,1-.06-.13c0-.06,0-.1.11-.15s.44-.17.58-.24.05,0,.05,0a.09.09,0,0,0,0-.05A2.19,2.19,0,0,1,1,273.7a1.46,1.46,0,0,1,1.52-1.59H4.59c.38,0,.46-.13.51-.45a.1.1,0,0,1,.1-.09.17.17,0,0,1,.15.1,6.22,6.22,0,0,0,.43,1.44.38.38,0,0,1,0,.13c0,.07-.05.11-.16.11h0c-.42,0-1-.08-1.8-.08l-1.3,0c-.59,0-1,.15-1,.74a1.06,1.06,0,0,0,.74,1.06h2.3c.4,0,.45-.17.51-.55a.09.09,0,0,1,.1-.07c.07,0,.14,0,.15.09a6.57,6.57,0,0,0,.4,1.47.41.41,0,0,1,0,.16c0,.08,0,.12-.19.12H5.56c-.81-.05-2.11-.06-2.53-.06-1.11,0-1.44,0-1.44.49a1,1,0,0,0,0,.16Z"/><path class="cls-1" d="M1.09,279.8c0-.06,0-.08.09-.08a.38.38,0,0,1,.19.07c0,.51.22.63.56.65h2c.89,0,1.05,0,1.16-.56a.1.1,0,0,1,.11-.07.13.13,0,0,1,.13.08,12.93,12.93,0,0,0,.5,1.48.35.35,0,0,1,0,.12c0,.07-.06.09-.17.09H5.57l-.35,0s-.06,0-.06,0l0,.05a2.44,2.44,0,0,1,.52,1.24c0,.56-.23.77-.5.77a.75.75,0,0,1-.69-.68.57.57,0,0,1,.2-.42A.82.82,0,0,0,5,282c0-.21-.17-.38-.51-.4H2.91c-.33,0-.7,0-1,0s-.43.24-.5.88a.25.25,0,0,1-.19.07c-.07,0-.12,0-.12-.07s.06-.87.06-1.68a9.51,9.51,0,0,0,0-1Z"/><path class="cls-1" d="M1.55,290.23a.94.94,0,0,0,.17.29.14.14,0,0,1,0,.06c0,.07-.1.14-.16.14A1.35,1.35,0,0,1,1,289.59a.84.84,0,0,1,.51-.84l.08-.05,0,0a2.23,2.23,0,0,1-.48-.81A1.76,1.76,0,0,1,1,287.3,1.09,1.09,0,0,1,2,286.16c.48,0,.78.5,1,.92s.4,1.09.57,1.55a.17.17,0,0,0,.1.06c.11,0,.26,0,.43,0h.3c.67,0,1-.15,1-.54s-.41-.55-.65-.55a.75.75,0,0,1-.73-.79c0-.27.15-.46.39-.46.48,0,1.35,1,1.35,2.21,0,.93-.51,1.36-1.23,1.36H4.28c-1.16-.1-1.94-.11-2-.11-.63,0-.76.07-.76.31Zm.85-1.58c.29,0,.64,0,.76,0s0,0,0,0a10.71,10.71,0,0,0-.4-1,.52.52,0,0,0-.48-.35c-.5,0-.72.31-.72.58a1.09,1.09,0,0,0,.49.79Z"/><path class="cls-1" d="M3.9,302.57c-.07,0-.12-.09-.12-.17a.15.15,0,0,1,.11-.16c.89-.09,1-.93,1-1.71,0-.13,0-.26,0-.4s-.05-.17-.17-.17l-1.95,0H2.58c-1,0-1,.11-1.16.86,0,0-.06.07-.12.07s-.19,0-.19-.07.08-.86.08-1.74a8.45,8.45,0,0,0-.08-1.28v0c0-.06,0-.09.12-.09a.3.3,0,0,1,.19.07c.13.86.17.86,1.44.86h4.3c1,0,1.05-.11,1.15-.88a.17.17,0,0,1,.15-.09c.08,0,.16.05.16.1h0c0,.27,0,.68,0,1.15,0,.87,0,2,0,2.94,0,.38,0,.73,0,1.05,0,.14,0,.17-.1.17H8.1c-.38,0-.89.05-1.19.06-.06,0-.09-.09-.09-.16s0-.08,0-.09c1.39-.42,1.43-1,1.43-2,0-.58,0-.82-.38-.86-.21,0-.58,0-2.53,0-.14,0-.16,0-.16.67,0,.95.17,1.44.93,1.63,0,0,.05.05.05.11s0,.2-.08.2h0a5.75,5.75,0,0,0-.89-.06c-.64,0-1.29.06-1.3.06Z"/><path class="cls-1" d="M1.61,311c0,.08-.09.12-.16.12a.09.09,0,0,1-.09-.05,6.68,6.68,0,0,0-.42-1.27.28.28,0,0,1-.06-.13c0-.06,0-.1.11-.15a5.83,5.83,0,0,1,.58-.23s.05,0,.05,0a.09.09,0,0,0,0-.05A2.24,2.24,0,0,1,1,307.83a1.47,1.47,0,0,1,1.52-1.6H4.59c.38,0,.46-.13.51-.45a.09.09,0,0,1,.1-.08c.06,0,.14,0,.15.09a6.22,6.22,0,0,0,.43,1.44.38.38,0,0,1,0,.13c0,.07-.05.11-.16.11h0c-.42,0-1-.08-1.8-.08l-1.3,0c-.59,0-1,.15-1,.75a1.07,1.07,0,0,0,.74,1.06h2.3c.4,0,.45-.17.51-.56a.09.09,0,0,1,.1-.07c.07,0,.14,0,.15.09a6.68,6.68,0,0,0,.4,1.48.41.41,0,0,1,0,.16c0,.08,0,.12-.19.12H5.56c-.81-.05-2.11-.06-2.53-.06-1.11,0-1.44,0-1.44.48a1,1,0,0,0,0,.16Z"/><path class="cls-1" d="M1.24,314.16c.39,0,3.24.12,5.15.12s1.9,0,2-.6c0,0,.07-.06.14-.06a.13.13,0,0,1,.13.08,7.25,7.25,0,0,0,.53,1.65.31.31,0,0,1,0,.08c0,.07,0,.11-.13.11h0c-.39,0-.91-.05-1.44-.06s-1.38,0-2,0H5.46s0,0,0,0a.08.08,0,0,0,0,0,2.54,2.54,0,0,1,.28,1.12A2.26,2.26,0,0,1,3.4,318.9,2.34,2.34,0,0,1,1,316.47,2.73,2.73,0,0,1,1.45,315a.11.11,0,0,0,0-.05,2.45,2.45,0,0,0-.3-.47.37.37,0,0,1-.09-.21c0-.07.05-.12.14-.12ZM3,317.61c1.12,0,2.3-.39,2.3-1.22,0-.49-.41-1-.71-1H2.89c-.93,0-1.6.39-1.6,1.08C1.29,317,1.74,317.61,3,317.61Z"/><path class="cls-1" d="M1.61,327c0,.08-.09.12-.16.12a.09.09,0,0,1-.09-.05,6.68,6.68,0,0,0-.42-1.27.28.28,0,0,1-.06-.13c0-.06,0-.1.11-.15a4.12,4.12,0,0,1,.58-.23s.05,0,.05,0a.11.11,0,0,0,0-.06A2.19,2.19,0,0,1,1,323.73a1.46,1.46,0,0,1,1.52-1.59H4.59c.38,0,.46-.13.51-.46a.09.09,0,0,1,.1-.07c.06,0,.14,0,.15.09a6.22,6.22,0,0,0,.43,1.44.38.38,0,0,1,0,.13c0,.07-.05.11-.16.11h0c-.42,0-1-.08-1.8-.08l-1.3,0c-.59,0-1,.15-1,.75a1.05,1.05,0,0,0,.74,1.05h2.3c.4,0,.45-.17.51-.55a.09.09,0,0,1,.1-.07c.07,0,.14,0,.15.09a6.57,6.57,0,0,0,.4,1.47.41.41,0,0,1,0,.16c0,.08,0,.12-.19.12H5.56c-.81-.05-2.11-.06-2.53-.06-1.11,0-1.44,0-1.44.49a1,1,0,0,0,0,.16Z"/><path class="cls-1" d="M1.1,332.77s.07-.08.14-.08a.15.15,0,0,1,.14.08c.05.27.09.4.19.4a9.46,9.46,0,0,0,1.81-1.49s0,0,0,0a0,0,0,0,0,0,0l-.06,0H2.64c-1,0-1.19,0-1.25.58a.27.27,0,0,1-.18.07c-.06,0-.11,0-.11-.09s.06-.68.06-1.36a5.25,5.25,0,0,0-.06-.93v0c0-.06,0-.08.09-.08a.28.28,0,0,1,.2.08c0,.45.28.53.47.54.55,0,2.23.08,4.22.08.73,0,1.39,0,1.84,0s.43-.16.51-.51a.12.12,0,0,1,.12-.09.11.11,0,0,1,.12.1,7,7,0,0,0,.54,1.58.2.2,0,0,1,0,.1c0,.07-.05.1-.18.1H9c-.72-.07-5.13-.1-5.17-.1s-.1,0-.1.08,1.06,1.68,1.3,1.68.18-.19.22-.46a.19.19,0,0,1,.15-.09.14.14,0,0,1,.14.14s0,.48,0,1a5.92,5.92,0,0,0,0,.84h0c0,.07-.09.12-.16.12a.13.13,0,0,1-.14-.09,6.25,6.25,0,0,0-1.35-2.24.09.09,0,0,0-.06,0c-.63.61-1.66,1.49-2.06,1.9a1.17,1.17,0,0,0-.37.68.22.22,0,0,1-.17.07c-.06,0-.12,0-.12-.07s.06-.76.06-1.48a6.85,6.85,0,0,0-.06-1Z"/><path class="cls-1" d="M1.11,338c0-.07,0-.09.1-.09a.33.33,0,0,1,.19.07c.08.67.28.72,1.51.72,2,0,2,0,2.08-.59a.13.13,0,0,1,.13-.1.14.14,0,0,1,.15.11,7.31,7.31,0,0,0,.41,1.5.65.65,0,0,1,.09.24c0,.05,0,.08-.15.08H5.54c-.71-.07-2.25-.08-2.58-.08H2.18c-.51,0-.72,0-.77.66a.23.23,0,0,1-.17.07c-.08,0-.14,0-.14-.09s.07-.77.07-1.51a7,7,0,0,0-.06-1Zm6.72.39a.81.81,0,0,1,.8.82.8.8,0,0,1-.8.81.82.82,0,0,1-.83-.81A.83.83,0,0,1,7.83,338.42Z"/><path class="cls-1" d="M4.6,349.34c-.68.47-.94.9-.94,1.24,0,.49.51.81,1.18.81a2.4,2.4,0,0,0,1.09-.27.87.87,0,0,1,.39-.1.51.51,0,0,1,.54.47c0,.54-.93.85-1.72.85-1.12,0-2.06-.65-2.06-1.5,0-.59.43-1.27,1.54-1.94v-.17c0-.22,0-1.29-.58-1.29-.18,0-.4.13-.67.45-.65,1.24-.86,1.64-1.23,1.64a.41.41,0,0,1-.4-.47,1.2,1.2,0,0,1,.49-.89A5.2,5.2,0,0,0,3.81,346a2.1,2.1,0,0,1-.43.05,1.23,1.23,0,0,1-1.29-1.12c0-.05,0-.07,0-.07a.63.63,0,0,1,.28.14,1.41,1.41,0,0,0,.83.24,2.81,2.81,0,0,0,.85-.14,1.48,1.48,0,0,0,0-.2.48.48,0,0,0-.35-.53c-.15,0-.27-.05-.27-.11a.72.72,0,0,1,.64-.36.62.62,0,0,1,.64.68,1.05,1.05,0,0,0,.38-.09.74.74,0,0,1,.28-.06.31.31,0,0,1,.35.33c0,.6-1.29,1-1.38,1.07-.31.66-.49,1-.67,1.39a1,1,0,0,1,.47-.1,1.13,1.13,0,0,1,1.06,1C5.79,346.75,6.62,346,7.5,346c.56,0,1.26.38,1.26.91s-.39.83-1.13,1.08a23.58,23.58,0,0,0-2.26.89,4.63,4.63,0,0,1,.08.85c0,.93-.51,1-.64,1s-.4-.17-.4-.58c0,0,0-.09,0-.14,0-.24.17-.41.18-.66Zm3.17-2.51a.48.48,0,0,0-.51-.43c-.76,0-1.55,1.14-1.92,2.11C7.3,347.48,7.77,347.23,7.77,346.83Z"/><path class="cls-1" d="M10,363.52c0,.1-1,.27-1.33.47a.56.56,0,0,1-.27.12,3.77,3.77,0,0,1-1.67-1.75A5.79,5.79,0,0,1,4,364.25a.63.63,0,0,1-.57.32.41.41,0,0,1-.45-.43v0c0-.63,0-1.71.07-2.87A16.86,16.86,0,0,1,1.3,362.4c-.07.05-.1.22-.2.22s-.85-1-.85-1.1,0,0,.14,0a6.22,6.22,0,0,0,.83-.14c0-1,0-3.4,0-3.48a4.79,4.79,0,0,0-.1-1,.18.18,0,0,1,0-.06s0,0,0,0a5.8,5.8,0,0,1,1.28.28.17.17,0,0,1,.1.13c0,.06,0,.14-.21.21s-.17.12-.18.37v3.37l1-.27c0-.64,0-1.3,0-1.92A23.19,23.19,0,0,0,3,355.58v-.05s0-.07.06-.07,1.45.27,1.45.51c0,.09-.14.17-.25.24s-.23.16-.23,2.45c0,2.07,0,4.85.06,5.35a6.83,6.83,0,0,0,2.22-2.47,14.3,14.3,0,0,1-.9-4.72l-.59.05h0c-.12,0-.4-.35-.4-.46a15.8,15.8,0,0,0,2.41.12h.73a.21.21,0,0,0,.16-.1c.3-.35.33-.38.4-.38s1,.55,1,.76S9,357,8.89,357s-.2.1-.21.2a11.25,11.25,0,0,1-1.43,4.31,4.92,4.92,0,0,0,2.66,2Zm-2.44-6.73H6.74c-.24,0-.69,0-1.13,0a10.13,10.13,0,0,0,1.11,3.88,10.57,10.57,0,0,0,.91-3.78C7.63,356.82,7.62,356.79,7.51,356.79Z"/><path class="cls-1" d="M7.3,369.36c0-.33,0-.65,0-.92s-.06-.15-.17-.15H6.79a17.37,17.37,0,0,0-1.79.09H5c-.14,0-.39-.33-.39-.49a17.48,17.48,0,0,0,2.2.15h.33c.08,0,.15-.09.17-.11.26-.35.31-.41.38-.41s1,.44,1,.71c0,.1-.1.18-.31.28s-.18.12-.18,2v.28h.12a.13.13,0,0,0,.12-.09c.08-.19.32-.69.44-.69s.75.69.75.91c0,.06,0,.12-.19.12H7.07c.47.14.48.18.48.23s0,.09-.11.13a5.68,5.68,0,0,0,.44,1.49,7.78,7.78,0,0,0,.73-1.24c0-.08,0-.11.06-.11s1,.72,1,.93-.07.14-.2.14H9.34l-.1,0a.11.11,0,0,0-.07,0c-.33.15-.74.37-1.17.54a5.35,5.35,0,0,0,1.86,2.18s0,0,0,.05-.78.09-1.11.35a.34.34,0,0,1-.19.08.26.26,0,0,1-.21-.12,9.23,9.23,0,0,1-1.09-4.2c-.14.07-.15.13-.15,1s.06,1.63.08,2.87v0a1.1,1.1,0,0,1-1.11,1.23c-.13,0-.22-.07-.32-.23-.2-.32-.92-.75-.92-.85s0,0,0,0H5a5.51,5.51,0,0,0,.86.11c.47,0,.47,0,.47-1.85a19,19,0,0,1-1.47,1.42c-.06.05-.05.25-.16.25s-.67-.57-.79-.72a23,23,0,0,1-2.55,1.5c-.08,0-.11.22-.2.22s-.87-1-.87-1.16.05-.05.17-.06a13.42,13.42,0,0,0,1.6-.3c0-.68,0-1.78,0-2.62a6.84,6.84,0,0,0-1.18.09h0c-.12,0-.39-.31-.39-.48a9.37,9.37,0,0,0,1.58.14c0-.27,0-1.12,0-1.27l-.45.06h0a.29.29,0,0,1-.14-.08,4.59,4.59,0,0,1-1.31,1.1l0,0s0-.08.11-.18a10.38,10.38,0,0,0,1.78-4c0-.11,0-.15,0-.15s1.31.46,1.31.69,0,.11-.38.23c.43.15,1.29.52,1.29,1.15a.52.52,0,0,1-.49.54H3.67s.37.35.37.5,0,.14-.18.14H2.94l.09,0c.12,0,.16.1.16.16s0,.11-.16.16-.12.06-.15.95H3a.18.18,0,0,0,.11-.08c.11-.2.36-.6.48-.6h0a1.94,1.94,0,0,1,.73.78c0,.07,0,.14-.18.14H2.88V374a6.89,6.89,0,0,0,.58-1.27c0-.08,0-.12,0-.12s1,.58,1,.79-.09.15-.25.15H4.16l-.08,0c-.33.21-.76.5-1.2.74v.42c.5-.13,1-.27,1.38-.41a1.45,1.45,0,0,1,.31-.09h0l0,0c.51-.22,1.29-.57,1.78-.83,0-1.12,0-2.12-.09-2.41-.48,0-1,0-1.73.09h0c-.18,0-.45-.38-.45-.5a21.79,21.79,0,0,0,2.51.15h.69c0-.37,0-.77,0-1.16H6.77a14,14,0,0,0-1.7.09h0c-.12,0-.4-.37-.4-.48a16.76,16.76,0,0,0,2.12.14ZM2,374a.51.51,0,0,1-.48.52c-.18,0-.36-.12-.46-.42a3.6,3.6,0,0,0-.4-1c0-.06-.06-.09-.06-.11s0,0,0,0C.79,373,2,373.28,2,374Zm.63-3.5h.1a.23.23,0,0,0,.11-.08c.1-.21.36-.6.48-.6h0l.06,0a1.72,1.72,0,0,1-.09-.19,5.07,5.07,0,0,0-.46-1,8.44,8.44,0,0,1-1.11,1.75A5.16,5.16,0,0,0,2.58,370.51Zm2,1.4c0-.05-.07-.07-.07-.09s.05,0,.15,0c.32,0,1.42.15,1.42.9a.49.49,0,0,1-.45.52.55.55,0,0,1-.49-.37A4,4,0,0,0,4.59,371.91Z"/><path class="cls-1" d="M4.94,386.21a.16.16,0,0,1-.16-.17c0-.36-.21-2.18-.41-3.48a10.66,10.66,0,0,1-.19-1.49.85.85,0,0,1,.78-.9.82.82,0,0,1,.77.9,12.41,12.41,0,0,1-.19,1.49c-.19,1.26-.4,3.11-.42,3.48A.18.18,0,0,1,4.94,386.21Zm0,2.29a.77.77,0,0,1-.76-.76.76.76,0,0,1,1.52,0A.77.77,0,0,1,5,388.5Z"/></g></g></svg>