<svg xmlns="http://www.w3.org/2000/svg" viewBox="0 0 809.94 152.63"><defs><style>.cls-1{fill:#fff;}</style></defs><title>アセット 9</title><g id="レイヤー_2" data-name="レイヤー 2"><g id="design"><path class="cls-1" d="M649.78,58.28c8.1-2.93,24.67-23.44,38.72-19.93a27.46,27.46,0,0,1,5.31,1.49,14.78,14.78,0,0,1,4.81,3.28c2.82,3.4,22.86,30.57,22.86,30.57a13,13,0,0,0-4.57,5.85s0,0,0-.05L703.2,75.05a.84.84,0,0,0-.9.3.85.85,0,0,0,.56.76l13.66,4.44s.05,0,.07,0a12.87,12.87,0,0,0,.26,7.41s-32.18,10.2-36.47,11.3a15.35,15.35,0,0,1-5.82-.17,28,28,0,0,1-5.17-1.93C655.49,91.55,654.65,65.57,649.78,58.28Zm78.94,77.81a15,15,0,0,1-2,5.48,28,28,0,0,1-3.42,4.33c-9.63,11.48-34.61,4.26-43,6.63-.28-8.61-14.67-30.7-7-43a28,28,0,0,1,3.05-4.6A15,15,0,0,1,681,101.4c4.11-1.64,36.15-12.3,36.15-12.3a12.83,12.83,0,0,0,4.14,6.15s0,0-.06,0l-8.44,11.63a.83.83,0,0,0,0,.94.86.86,0,0,0,.89-.29l8.45-11.63s0,0,0-.06a12.9,12.9,0,0,0,7.13,2S729,131.68,728.72,136.09Zm1.17-80.87a.86.86,0,0,0-.56.77V70.36s0,0,0,.06a12.82,12.82,0,0,0-7,2.54s-19.65-27.46-22-31.19a15.27,15.27,0,0,1-1.63-5.59,27.32,27.32,0,0,1,.23-5.51C700,15.72,724.46,6.88,729.89,0c5.29,6.81,29.91,16.22,30.92,30.67a27.32,27.32,0,0,1,.23,5.51,15.27,15.27,0,0,1-1.63,5.59C757,45.5,737.39,73,737.39,73a12.88,12.88,0,0,0-7-2.54s0,0,0-.06V56A.86.86,0,0,0,729.89,55.22Zm49.56,97.41c-8.27-2.4-33.72,4.46-43-6.64a27.92,27.92,0,0,1-3.43-4.32,15.16,15.16,0,0,1-2-5.48c-.28-4.42-.52-38.18-.52-38.18a13,13,0,0,0,7.12-2s0,0,0,.07l8.45,11.62a.84.84,0,0,0,.9.29.86.86,0,0,0,0-1l-8.45-11.62s0,0,0,0a13,13,0,0,0,4.14-6.15s32,10.66,36.14,12.28a15.08,15.08,0,0,1,4.61,3.57,27.25,27.25,0,0,1,3.06,4.59C794.39,122.35,779.8,143.87,779.45,152.63Zm10.88-55.47a27.51,27.51,0,0,1-5.17,1.93,15.14,15.14,0,0,1-5.82.17c-4.29-1.1-36.47-11.3-36.47-11.3a13,13,0,0,0,.26-7.41s0,0,.07,0l13.67-4.45a.86.86,0,0,0,.55-.76.84.84,0,0,0-.9-.3L742.85,79.5s0,0,0,0a13.05,13.05,0,0,0-4.57-5.85s20-27.16,22.86-30.57a14.94,14.94,0,0,1,4.81-3.28,27.46,27.46,0,0,1,5.31-1.49c14.54-3.62,30.5,16.9,38.72,19.94C805.11,65.41,803.77,91.74,790.33,97.16Z"/><path class="cls-1" d="M76.31,152.63a76.32,76.32,0,1,1,76.32-76.31A76.39,76.39,0,0,1,76.31,152.63Zm0-138.36a62,62,0,1,0,62.05,62.05A62.12,62.12,0,0,0,76.31,14.27ZM55,34.83l.31-.13-.17-.29A7.09,7.09,0,0,1,54.26,31a9.64,9.64,0,0,1,4.36-7.7,9.76,9.76,0,0,1,8.85-1.35l.34.13.06-.36a8.37,8.37,0,0,1,16.27,0l.06.36.34-.13a9.76,9.76,0,0,1,8.85,1.35c3.92,2.73,5.44,7.47,3.54,11l-.16.3.32.13c3.24,1.29,5.45,5,5.49,9.26v.1a47.75,47.75,0,0,1-4,8.48,7,7,0,0,1-2,1l-.3.09.11.3a11.74,11.74,0,0,1,.33,1.33c-5.12,6.85-13.33,13.23-14.56,14.16-.17-.15-.34-.3-.53-.44a5,5,0,0,0-.54-.35c-.28-.17-.57-.33-.86-.47L79.74,68a9.5,9.5,0,0,0-1.18-.37L78,67.47a8.69,8.69,0,0,0-1.45-.14v-.91c3.81-.63,10.08-1.75,16.22-9.52s3.08-20.85,2.94-21.4a.48.48,0,0,0-.59-.36.49.49,0,0,0-.36.59c0,.13,3.13,13.11-2.76,20.57s-11.77,8.52-15.45,9.13V61.31l.3-.1c3.11-1,8.32-2.74,12.31-10.91,4.1-8.41,1.57-21.17,1.46-21.71a.47.47,0,0,0-.57-.38.49.49,0,0,0-.39.57c0,.13,2.57,13-1.38,21.09-3.81,7.8-8.57,9.37-11.73,10.41V54.93c6.71-1.76,10-9.16,10.64-13.75a26.18,26.18,0,0,0-1.54-13.9.49.49,0,1,0-.91.37,25,25,0,0,1,1.47,13.4c-.53,4.1-3.64,11.08-9.66,12.85V47.84c4.34-1.93,5.25-7.84,5.69-10.69s-.37-9.63-2.08-12.2a.49.49,0,0,0-.81.54c1.54,2.33,2.35,8.73,2,11.27-.42,2.81-1.26,8-4.75,10V20.13a.49.49,0,0,0-.49-.49.48.48,0,0,0-.48.49V46.57c-3.3-2-4.11-7-4.5-9.57-.43-2.78.38-9.18,1.92-11.51a.47.47,0,0,0-.13-.67.48.48,0,0,0-.68.13c-1.71,2.57-2.53,9.27-2.11,12,.46,3,1.37,8.76,5.5,10.79v6.11c-5.88-1.88-8.92-8.71-9.45-12.76a25.15,25.15,0,0,1,1.47-13.4.49.49,0,0,0-.26-.64.5.5,0,0,0-.64.27,26.28,26.28,0,0,0-1.54,13.9C65.76,45.71,69,53,75.59,54.85V60.2c-3.17-1-7.79-2.71-11.51-10.33-3.95-8.11-1.41-21-1.39-21.09a.47.47,0,0,0-.38-.57.49.49,0,0,0-.58.38c-.1.54-2.63,13.3,1.47,21.71,4,8.17,9.2,9.88,12.31,10.91l.08,0v4.16c-3.71-.63-9.54-1.88-15.23-9.09-5.89-7.46-2.79-20.44-2.76-20.57a.49.49,0,0,0-.36-.59.48.48,0,0,0-.59.36c-.14.55-3.24,13.56,2.94,21.4,6,7.62,12.17,8.84,16,9.49v1a8.87,8.87,0,0,0-4.74,2C69,68,60.88,61.54,56,54.78c.06-.24.1-.49.18-.72l.1-.3L56,53.67a5.48,5.48,0,0,1-1-.42A51,51,0,0,1,50,42,9.35,9.35,0,0,1,55,34.83Zm29.5,41.49a8,8,0,1,1-8-8A8,8,0,0,1,84.49,76.32ZM26.62,68.41l.9-7.93c.16-2.26.21-4.37.21-6.18,0-3-.14-5-.19-5.73a85.75,85.75,0,0,0,10.3-6l6.43-4.74a15,15,0,0,1,2.87-2c0,.15.44,1.63.88,3.05,1.19,3.93,3.19,10.51,6.81,15.81C59.55,61.58,67.89,68.28,70.12,70l-.09.08a8.92,8.92,0,0,0-1.18,1.48l-.3.55h0a8.41,8.41,0,0,0-.62,1.48c-.08.21-.14.42-.2.63l-.12.58c-2.21-.91-12.54-5-21.12-5.66-6.41-.49-13.11,1.07-17.11,2a17.87,17.87,0,0,1-3.24.62C26.17,71.61,26.39,70.05,26.62,68.41ZM51.2,115.55l-.27-.19-.18.28a7,7,0,0,1-2.54,2.48,9.61,9.61,0,0,1-8.84.07,9.77,9.77,0,0,1-5.6-7l-.05-.35-.35.11a8.36,8.36,0,0,1-8.13-14.08l.28-.24-.29-.23A9.76,9.76,0,0,1,22,88.08c.41-4.76,3.75-8.45,7.79-8.59h.35l-.06-.33a9.24,9.24,0,0,1,3.32-7.93,48.27,48.27,0,0,1,13-1.15l.2,0,.22.2.14-.16c8.72.81,19.09,5,20.55,5.64a5.14,5.14,0,0,0-.06.55,8.2,8.2,0,0,0,.15,1.5c0,.21.08.41.13.62s.11.39.18.59a9.5,9.5,0,0,0,.67,1.57l-.82.47c-2.46-3-6.57-7.85-16.36-9.28s-19.59,7.77-20,8.15a.5.5,0,0,0,0,.7.49.49,0,0,0,.69,0c.1-.09,9.78-9.27,19.19-7.89s13.27,5.93,15.64,8.81l-3.57,2.06-.24-.21c-2.44-2.18-6.53-5.83-15.6-5.19-9.33.65-19.12,9.21-19.53,9.58a.46.46,0,0,0,0,.68.47.47,0,0,0,.68.05c.11-.09,10-8.71,19-9.34,8.66-.61,12.41,2.74,14.88,5l-4.63,2.67c-4.88-4.93-13-4.11-17.23-2.33a26.16,26.16,0,0,0-11.26,8.28.49.49,0,1,0,.77.6,25.29,25.29,0,0,1,10.87-8c3.82-1.59,11.42-2.39,16,2l-5.25,3c-3.83-2.8-9.41-.63-12.1.42s-8.15,5.13-9.52,7.9a.49.49,0,1,0,.88.43c1.24-2.5,6.37-6.4,8.77-7.33,2.66-1,7.59-2.92,11-.86l-23,13.29a.49.49,0,0,0-.18.67.48.48,0,0,0,.67.18L51.06,91.85c-.09,3.87-4,7.08-6,8.68-2.2,1.76-8.14,4.26-10.93,4.08a.5.5,0,0,0-.52.46.5.5,0,0,0,.46.52c3.08.2,9.3-2.45,11.41-4.15,2.4-1.92,6.91-5.57,6.61-10.16l5.28-3c1.32,6-3.09,12.07-6.33,14.55a25.12,25.12,0,0,1-12.34,5.43.49.49,0,0,0-.42.54.51.51,0,0,0,.55.43,26.06,26.06,0,0,0,12.8-5.62c3.64-2.78,8.29-9.24,6.65-15.85L62.87,85c.68,3.26,1.54,8.1-3.2,15.13-5,7.48-17.44,11.7-17.57,11.74a.49.49,0,0,0,.32.93c.52-.17,12.83-4.37,18.06-12.12,5.09-7.55,4-12.91,3.3-16.12l0-.07,3.61-2.08c1.3,3.52,3.13,9.19-.27,17.72-3.52,8.85-16.3,12.65-16.43,12.68a.49.49,0,0,0-.33.61.47.47,0,0,0,.6.33c.55-.15,13.37-4,17.07-13.25,3.58-9,1.57-15,.22-18.59l.85-.49a9.16,9.16,0,0,0,1.27,1.44l.28.23a9.45,9.45,0,0,0,1.31.94l.32.18c.22.11.47.2.7.29-.14,1.15-1.56,12-5.09,20.15-.21.07-.42.15-.64.2l-.32.06.1.31a6.08,6.08,0,0,1,.16,1,48.21,48.21,0,0,1-6.89,9.94C57.07,117.46,53.59,117.3,51.2,115.55Zm43,8.41-7.32,3.22a83.94,83.94,0,0,0-10.32,6,82.73,82.73,0,0,0-10.33-6L58.89,124a14,14,0,0,1-3.18-1.49c.12-.08,1.17-1.21,2.19-2.3,2.8-3,7.5-8.07,10.28-13.91C72,98.32,73.57,87,73.85,84.89l.23.07a8.71,8.71,0,0,0,2,.32l.7,0A11.5,11.5,0,0,0,78,85.18a8.26,8.26,0,0,0,.86-.2l.39-.12c.26,2,1.87,13.42,5.68,21.4,2.78,5.84,7.48,10.89,10.29,13.91a18.93,18.93,0,0,1,2.15,2.52Zm37.09-36.54A9.77,9.77,0,0,1,128,95.76l-.28.23.28.24a8.36,8.36,0,0,1-8.13,14.08l-.35-.12-.06.36a9.72,9.72,0,0,1-5.59,7c-4.32,2-9.19,1-11.33-2.45l-.18-.29-.27.21c-2.51,2-6.34,2.17-9.8.59a46.28,46.28,0,0,1-6.44-9.45,5,5,0,0,1,.13-.93l.06-.3-.3-.06c-.19,0-.37-.1-.56-.16-3.59-8.28-5-19.4-5.1-20.21.22-.09.46-.18.67-.29l.35-.2a7.12,7.12,0,0,0,.78-.53c.1-.07.18-.15.27-.22A8.76,8.76,0,0,0,83.41,82c0-.06.11-.12.16-.19a7.08,7.08,0,0,0,.58-.85l.77.44C83.57,85,81.4,91,85.06,100.19s16.52,13.09,17.07,13.26a.49.49,0,0,0,.27-1c-.13,0-12.91-3.84-16.43-12.67s-1.5-14.45-.19-18l3.57,2.06-.06.31c-.67,3.2-1.79,8.57,3.3,16.11,5.23,7.76,17.54,12,18.06,12.13a.49.49,0,1,0,.31-.93c-.12,0-12.52-4.26-17.56-11.74-4.85-7.19-3.84-12.11-3.16-15.36l4.63,2.67c-1.82,6.69,2.93,13.27,6.59,16.09a26.26,26.26,0,0,0,12.81,5.62.49.49,0,0,0,.55-.43.47.47,0,0,0-.42-.54,25.25,25.25,0,0,1-12.34-5.43c-3.28-2.52-7.77-8.69-6.29-14.8l5.24,3c-.5,4.72,4.17,8.46,6.42,10.26s8.52,4.5,11.61,4.3a.49.49,0,0,0,.45-.52.48.48,0,0,0-.52-.45c-2.78.18-8.73-2.33-10.74-3.94-2.22-1.77-6.33-5.11-6.24-9.09l23,13.29a.48.48,0,0,0,.67-.18.49.49,0,0,0-.18-.67L102.6,90.46c3.39-1.84,8.16,0,10.54.9,2.62,1,7.76,4.91,9,7.41a.49.49,0,1,0,.88-.42c-1.37-2.77-6.77-6.83-9.3-7.81-2.86-1.12-8.27-3.2-12.1-.64l-5.29-3.06c4.56-4.14,12-3.36,15.78-1.79A25.22,25.22,0,0,1,123,93a.48.48,0,0,0,.69.09.49.49,0,0,0,.09-.68,26.19,26.19,0,0,0-11.27-8.28c-4.22-1.76-12.14-2.56-17,2.17L90.8,83.65c2.48-2.21,6.24-5.39,14.7-4.79,9,.62,18.85,9.25,19,9.34a.49.49,0,0,0,.65-.74c-.41-.36-10.21-8.93-19.53-9.58-9.08-.64-13.17,3-15.61,5.21l0,0L86.3,81.05c2.4-2.88,6.4-7.31,15.49-8.63,9.41-1.37,19.1,7.79,19.19,7.89a.5.5,0,0,0,.7,0,.49.49,0,0,0,0-.69c-.41-.4-10.12-9.6-20-8.16-9.6,1.4-13.74,6.11-16.2,9.11l-.83-.48h0a8.51,8.51,0,0,0,.6-1.74l0-.08a9.45,9.45,0,0,0,.22-1.94,3.26,3.26,0,0,0,0-.45c1.28-.55,11.73-4.88,20.48-5.8l.11.12.15-.15.75-.08a48.79,48.79,0,0,1,13,1.15,9.18,9.18,0,0,1,3.11,7.39l0,.33h.34a7.16,7.16,0,0,1,3.41,1A9.65,9.65,0,0,1,131.26,87.42Zm-5.45-27.05.89,7.94a31.19,31.19,0,0,1,.36,3.13.8.8,0,0,1,0,.36c-.13-.07-1.62-.42-3.07-.76-4-.93-10.7-2.49-17.1-2-9.62.73-21.46,5.8-21.58,5.86v0h0l.07-.23c0-.18-.06-.35-.1-.51s-.12-.4-.19-.6a8.78,8.78,0,0,0-.64-1.51l-.32-.61h0c-.14-.21-.29-.4-.44-.6a6.33,6.33,0,0,0-.47-.56l-.21-.23c1.68-1.28,10.61-8.3,15.55-15.53,3.64-5.3,5.63-11.88,6.83-15.81a19,19,0,0,1,1.08-3.11l2.67,2.09,6.42,4.74a83.37,83.37,0,0,0,10.3,6c0,.69-.19,2.75-.19,5.69C125.59,56,125.64,58.1,125.81,60.37Z"/><path class="cls-1" d="M293.09,0a29.23,29.23,0,1,1-29.23,29.23A29.23,29.23,0,0,1,293.09,0ZM276.45,71.44l3.92,2.85a2.52,2.52,0,0,1,.93,2.88c-.41.91-1.86,3.54-3,3.54h-4.86a1.41,1.41,0,0,1-1.43-2l2.13-6.56A1.41,1.41,0,0,1,276.45,71.44Zm.14-5.92,1.07-3.27a3,3,0,0,1,2.7-2h2.74a3,3,0,0,1,2.7,2L287.68,68a2.56,2.56,0,0,1-1,2.9c-.88.52-3.58,1.77-4.5,1.11l-4.59-3.35A3,3,0,0,1,276.59,65.52Zm-3.65,17.6h5.7a2.54,2.54,0,0,1,2.45,1.82c.21,1,.54,3.93-.38,4.59l-4,2.94a3,3,0,0,1-3.33,0l-2.78-2a3,3,0,0,1-1-3.17l.71-2.2A3,3,0,0,1,272.94,83.12Zm5.76,11.29L282.06,92a2.5,2.5,0,0,1,3,0c.75.69,2.77,2.89,2.43,4l-1.27,3.92a1.42,1.42,0,0,1-2.31.74l-5.23-3.8A1.41,1.41,0,0,1,278.7,94.41Zm3.18-12.58a11.64,11.64,0,1,1,11.64,11.63A11.63,11.63,0,0,1,281.88,81.83ZM289.93,60h7.16a1.41,1.41,0,0,1,1.43,2l-1.61,5a2.35,2.35,0,0,1-2.45,1.65h-1.89a2.33,2.33,0,0,1-2.44-1.65l-1.62-5A1.41,1.41,0,0,1,289.93,60ZM299.36,68l1.87-5.78a3,3,0,0,1,2.7-2h2.74a3,3,0,0,1,2.7,2l1.06,3.27a3,3,0,0,1-1,3.17L304.8,72a2.51,2.51,0,0,1-3,0C301,71.3,299,69.11,299.36,68Zm1.29,25c.88-.52,3.58-1.77,4.5-1.1l3.35,2.44a1.41,1.41,0,0,1,0,2.42l-5.22,3.8a1.41,1.41,0,0,1-2.31-.75L299.7,96A2.56,2.56,0,0,1,300.65,93.07Zm5.66-3.54c-.91-.66-.57-3.58-.36-4.59a2.52,2.52,0,0,1,2.44-1.82h5.7a3,3,0,0,1,2.7,2l.72,2.2a3,3,0,0,1-1,3.17l-2.78,2a3,3,0,0,1-3.34,0Zm7.29-9h-4.87a2.54,2.54,0,0,1-2.44-1.82c-.21-1-.55-3.93.37-4.6l3.93-2.84a1.41,1.41,0,0,1,2.3.74L315,78.58A1.41,1.41,0,0,1,313.6,80.54ZM216.72,56.68a29.23,29.23,0,1,1,18.77,36.83A29.24,29.24,0,0,1,216.72,56.68Zm70.22,83.53a29.23,29.23,0,1,1-6.47-40.83A29.23,29.23,0,0,1,286.94,140.21Zm4.91-33.77-2.22-1.61a3,3,0,0,1-1-3.18l1.53-4.72a2.34,2.34,0,0,1,2.44-1.65h1.89a2.34,2.34,0,0,1,2.44,1.65l1.53,4.72a3,3,0,0,1-1,3.18l-2.21,1.61A3.06,3.06,0,0,1,291.85,106.44Zm48.92,40.61a29.23,29.23,0,1,1,6.47-40.83A29.25,29.25,0,0,1,340.77,147.05Zm10.87-53.32A29.24,29.24,0,1,1,370.4,56.89,29.24,29.24,0,0,1,351.64,93.73Z"/><path class="cls-1" d="M487.44,17.59l-5.71,5.12a13.25,13.25,0,0,0-1.18,1.19,15.83,15.83,0,0,0-1.64.43l-7.19,2.35a63,63,0,0,1,15.72-9.09m46.74,0a63.2,63.2,0,0,1,15.72,9.09l-7.21-2.35a13,13,0,0,0-1.63-.43,13.34,13.34,0,0,0-1.18-1.2l-5.7-5.11m-85.92,49.6,1.58,7.49a14.49,14.49,0,0,0,.45,1.63,15.28,15.28,0,0,0-.45,1.64l-1.58,7.49a64.38,64.38,0,0,1,0-18.25m125.43,2.67q.31,3.19.32,6.46a63.88,63.88,0,0,1-.65,9.12L571.78,78c0-.07,0-.15,0-.22a15,15,0,0,0,.9-2.87l1.06-5M471.72,126l7.22,2.36a15.24,15.24,0,0,0,1.61.42,15,15,0,0,0,1.19,1.2l5.7,5.11A62.85,62.85,0,0,1,471.72,126m78.18,0A63.2,63.2,0,0,1,534.18,135l5.71-5.11a14.83,14.83,0,0,0,1.18-1.2,13.65,13.65,0,0,0,1.64-.43L549.9,126M510.81,0a76.32,76.32,0,1,0,76.31,76.32A76.4,76.4,0,0,0,510.81,0Zm0,64a10.08,10.08,0,0,0-4.72-2.08L490.22,34.19a1.39,1.39,0,0,1,.28-1.73l20.31-18.23,20.31,18.23a1.39,1.39,0,0,1,.28,1.73L515.52,61.93A10.09,10.09,0,0,0,510.81,64Zm14.81,9.2a10.37,10.37,0,0,0-4.16-3,10.17,10.17,0,0,0-.55-5.12L537,37.42a1.39,1.39,0,0,1,1.2-.69,1.61,1.61,0,0,1,.44.06l25.94,8.48L559,72a1.41,1.41,0,0,1-1.36,1.11l-32,.12Zm-29.62,0-32-.12A1.4,1.4,0,0,1,462.67,72L457,45.27,483,36.79a1.61,1.61,0,0,1,.44-.06,1.39,1.39,0,0,1,1.2.69L500.71,65a10.16,10.16,0,0,0-.55,5.15,10.17,10.17,0,0,0-4.16,3Zm63.52-.33a2.25,2.25,0,0,0,.28-.72l5.79-27.47L559.8,72.16a2.25,2.25,0,0,1-.28.72Zm-21.32,43a1.41,1.41,0,0,1-1.2-.69L520.91,87.59a10.14,10.14,0,0,0,.55-5.14,10.36,10.36,0,0,0,4.16-3l32,.12a1.4,1.4,0,0,1,1.36,1.1l5.63,26.71-25.94,8.48a1.62,1.62,0,0,1-.44.07Zm-54.78,0a1.62,1.62,0,0,1-.44-.07L457,107.36l5.63-26.71a1.39,1.39,0,0,1,1.36-1.1l32-.12a10.38,10.38,0,0,0,4.15,3,10.27,10.27,0,0,0,.56,5.12l-16.09,27.62a1.4,1.4,0,0,1-1.2.7Zm27.39,22.49L490.5,120.18a1.4,1.4,0,0,1-.28-1.74L506.09,90.7a10,10,0,0,0,4.72-2.08,10,10,0,0,0,4.71,2.08l15.88,27.74a1.39,1.39,0,0,1-.28,1.73L510.81,138.4Z"/></g></g></svg>